<svg width="39" height="39" viewBox="0 0 39 39" fill="none" xmlns="http://www.w3.org/2000/svg">
<g clip-path="url(#clip0_996_10384)">
<path d="M4.875 30.8742C7.09828 29.5906 9.62028 28.9148 12.1875 28.9148C14.7547 28.9148 17.2767 29.5906 19.5 30.8742C21.7233 29.5906 24.2453 28.9148 26.8125 28.9148C29.3797 28.9148 31.9017 29.5906 34.125 30.8742" stroke="black" stroke-opacity="0.85" stroke-width="2" stroke-linecap="round" stroke-linejoin="round"/>
<path d="M4.875 9.74917C7.09828 8.46556 9.62028 7.78979 12.1875 7.78979C14.7547 7.78979 17.2767 8.46556 19.5 9.74917C21.7233 8.46556 24.2453 7.78979 26.8125 7.78979C29.3797 7.78979 31.9017 8.46556 34.125 9.74917" stroke="black" stroke-opacity="0.85" stroke-width="2" stroke-linecap="round" stroke-linejoin="round"/>
<path d="M4.875 9.74927V30.8743" stroke="black" stroke-opacity="0.85" stroke-width="2" stroke-linecap="round" stroke-linejoin="round"/>
<path d="M19.5 9.74927V30.8743" stroke="black" stroke-opacity="0.85" stroke-width="2" stroke-linecap="round" stroke-linejoin="round"/>
<path d="M34.125 9.74927V30.8743" stroke="black" stroke-opacity="0.85" stroke-width="2" stroke-linecap="round" stroke-linejoin="round"/>
</g>
<defs>
<clipPath id="clip0_996_10384">
<rect width="39" height="39" fill="white" transform="translate(0 -0.000732422)"/>
</clipPath>
</defs>
</svg>
