<svg width="25" height="25" viewBox="0 0 25 25" fill="none" xmlns="http://www.w3.org/2000/svg">
<path d="M12.5 0C5.5971 0 0 5.5971 0 12.5C0 19.4029 5.5971 25 12.5 25C19.4029 25 25 19.4029 25 12.5C25 5.5971 19.4029 0 12.5 0ZM17.899 8.41797L12.0229 16.5653C11.9408 16.6799 11.8325 16.7733 11.707 16.8378C11.5816 16.9022 11.4426 16.9358 11.3016 16.9358C11.1606 16.9358 11.0216 16.9022 10.8962 16.8378C10.7708 16.7733 10.6625 16.6799 10.5804 16.5653L7.101 11.7439C6.99498 11.596 7.101 11.3895 7.28237 11.3895H8.59096C8.87556 11.3895 9.1462 11.5262 9.31362 11.7606L11.3002 14.5173L15.6864 8.43471C15.8538 8.20312 16.1217 8.06362 16.409 8.06362H17.7176C17.899 8.06362 18.005 8.27009 17.899 8.41797Z" fill="#F3762B"/>
</svg>
