<svg width="32" height="25" viewBox="0 0 32 25" fill="none" xmlns="http://www.w3.org/2000/svg">
<path d="M9 10.6071H22.7411C22.7571 10.6071 22.7772 10.6071 22.7933 10.6031C22.9701 10.575 23.0866 10.4103 23.0585 10.2335L21.4433 0.269196C21.4192 0.1125 21.2826 0 21.1259 0H10.6152C10.4585 0 10.3219 0.1125 10.2978 0.269196L8.68259 10.2335C8.67857 10.2496 8.67857 10.2696 8.67857 10.2857C8.67857 10.4625 8.82321 10.6071 9 10.6071ZM12.6643 2.73214H19.0728L19.9045 7.875H11.8286L12.6643 2.73214ZM12.7647 14.0906C12.7406 13.9339 12.604 13.8214 12.4473 13.8214H1.93661C1.77991 13.8214 1.6433 13.9339 1.6192 14.0906L0.0040178 24.0549C-6.13675e-08 24.071 0 24.0911 0 24.1071C0 24.2839 0.144643 24.4286 0.321429 24.4286H14.0625C14.0786 24.4286 14.0987 24.4286 14.1147 24.4246C14.2915 24.3964 14.408 24.2317 14.3799 24.0549L12.7647 14.0906ZM3.15402 21.6964L3.98571 16.5536H10.3942L11.2259 21.6964H3.15402ZM31.6567 24.0549L30.0415 14.0906C30.0174 13.9339 29.8808 13.8214 29.7241 13.8214H19.2134C19.0567 13.8214 18.9201 13.9339 18.896 14.0906L17.2808 24.0549C17.2768 24.071 17.2768 24.0911 17.2768 24.1071C17.2768 24.2839 17.4214 24.4286 17.5982 24.4286H31.3393C31.3554 24.4286 31.3754 24.4286 31.3915 24.4246C31.5643 24.3964 31.6848 24.2317 31.6567 24.0549ZM20.4308 21.6964L21.2625 16.5536H27.671L28.5027 21.6964H20.4308Z" fill="#F3762B"/>
</svg>
