<svg width="33" height="30" viewBox="0 0 33 30" fill="none" xmlns="http://www.w3.org/2000/svg">
<path d="M31.6436 5.31268L23.8249 10.1301L16.3276 0.129643C16.2974 0.0893928 16.2583 0.0567217 16.2133 0.0342189C16.1683 0.011716 16.1187 0 16.0684 0C16.0181 0 15.9685 0.011716 15.9235 0.0342189C15.8785 0.0567217 15.8394 0.0893928 15.8093 0.129643L8.31596 10.1301L0.493187 5.31268C0.264169 5.17205 -0.0331525 5.36089 0.00300817 5.63009L3.07265 28.9578C3.11685 29.2752 3.39006 29.5203 3.71551 29.5203H28.4293C28.7508 29.5203 29.028 29.2792 29.0682 28.9578L32.1378 5.63009C32.17 5.36089 31.8767 5.17205 31.6436 5.31268ZM26.5811 26.7721H5.55569L3.39408 10.3229L9.01104 13.7823L16.0704 4.36446L23.1298 13.7823L28.7468 10.3229L26.5811 26.7721ZM16.0704 14.6542C13.5753 14.6542 11.5463 16.6832 11.5463 19.1783C11.5463 21.6734 13.5753 23.7024 16.0704 23.7024C18.5655 23.7024 20.5945 21.6734 20.5945 19.1783C20.5945 16.6832 18.5655 14.6542 16.0704 14.6542ZM16.0704 21.1189C15.0017 21.1189 14.1338 20.2511 14.1338 19.1783C14.1338 18.1096 15.0017 17.2377 16.0704 17.2377C17.1392 17.2377 18.007 18.1055 18.007 19.1783C18.007 20.2471 17.1392 21.1189 16.0704 21.1189Z" fill="black" fill-opacity="0.85"/>
</svg>
