<svg width="35" height="35" viewBox="0 0 35 35" fill="none" xmlns="http://www.w3.org/2000/svg">
<path d="M8.75 30.625L30.625 8.75L26.25 4.375L4.375 26.25L8.75 30.625Z" stroke="white" stroke-width="2" stroke-linecap="round" stroke-linejoin="round"/>
<path d="M21.875 8.75L26.25 13.125" stroke="white" stroke-width="2" stroke-linecap="round" stroke-linejoin="round"/>
<path d="M13.1249 4.375C13.1249 5.14855 13.4322 5.89041 13.9792 6.43739C14.5262 6.98438 15.268 7.29167 16.0416 7.29167C15.268 7.29167 14.5262 7.59896 13.9792 8.14594C13.4322 8.69292 13.1249 9.43478 13.1249 10.2083C13.1249 9.43478 12.8176 8.69292 12.2706 8.14594C11.7237 7.59896 10.9818 7.29167 10.2083 7.29167C10.9818 7.29167 11.7237 6.98438 12.2706 6.43739C12.8176 5.89041 13.1249 5.14855 13.1249 4.375Z" stroke="white" stroke-width="2" stroke-linecap="round" stroke-linejoin="round"/>
<path d="M27.7084 18.9583C27.7084 19.7318 28.0157 20.4737 28.5627 21.0206C29.1097 21.5676 29.8515 21.8749 30.6251 21.8749C29.8515 21.8749 29.1097 22.1822 28.5627 22.7292C28.0157 23.2762 27.7084 24.018 27.7084 24.7916C27.7084 24.018 27.4011 23.2762 26.8541 22.7292C26.3072 22.1822 25.5653 21.8749 24.7917 21.8749C25.5653 21.8749 26.3072 21.5676 26.8541 21.0206C27.4011 20.4737 27.7084 19.7318 27.7084 18.9583Z" stroke="white" stroke-width="2" stroke-linecap="round" stroke-linejoin="round"/>
</svg>
