<svg width="166" height="160" viewBox="0 0 166 160" fill="none" xmlns="http://www.w3.org/2000/svg">
<path d="M88.7646 134.855C46.578 118.396 18.6981 97.87 10.0315 89.6643" stroke="black" stroke-width="2"/>
<path d="M10.2627 100.3L9.55026 88.6374L20.5681 90.1203" stroke="black" stroke-width="2" stroke-linecap="round"/>
<path d="M84.208 124.999L88.9796 135.664L78.1449 138.154" stroke="black" stroke-width="2" stroke-linecap="round"/>
<path d="M150.208 63.9993L154.979 74.6644L144.145 77.1543" stroke="black" stroke-width="2" stroke-linecap="round"/>
<path d="M59.3716 41.7212L55.3183 30.7629L66.2943 28.9975" stroke="black" stroke-width="2" stroke-linecap="round"/>
<path d="M55.7936 30.9993C73.6806 37.198 106.235 52.3467 105.966 64.3468C105.799 71.8276 99.5246 72.4925 95.2835 70.415C91.0423 68.3375 89.7909 61.5968 93.6706 57.6801C99.6096 51.6845 103.255 49.7412 117.005 54.6035L154.986 74.3258" stroke="black" stroke-width="2"/>
</svg>
