<svg width="317" height="141" viewBox="0 0 317 141" fill="none" xmlns="http://www.w3.org/2000/svg">
<path d="M54.0859 13.3359H55.2891C55.6745 13.3359 55.9922 13.2708 56.2422 13.1406C56.4922 13.0052 56.6771 12.8177 56.7969 12.5781C56.9219 12.3333 56.9844 12.0495 56.9844 11.7266C56.9844 11.4349 56.9271 11.1771 56.8125 10.9531C56.7031 10.724 56.5339 10.5469 56.3047 10.4219C56.0755 10.2917 55.7865 10.2266 55.4375 10.2266C55.1615 10.2266 54.9062 10.2812 54.6719 10.3906C54.4375 10.5 54.25 10.6536 54.1094 10.8516C53.9688 11.0495 53.8984 11.2891 53.8984 11.5703H51.6406C51.6406 10.9453 51.8073 10.401 52.1406 9.9375C52.4792 9.47396 52.9323 9.11198 53.5 8.85156C54.0677 8.59115 54.6927 8.46094 55.375 8.46094C56.1458 8.46094 56.8203 8.58594 57.3984 8.83594C57.9766 9.08073 58.4271 9.44271 58.75 9.92188C59.0729 10.401 59.2344 10.9948 59.2344 11.7031C59.2344 12.0625 59.151 12.4115 58.9844 12.75C58.8177 13.0833 58.5781 13.3854 58.2656 13.6562C57.9583 13.9219 57.5833 14.1354 57.1406 14.2969C56.6979 14.4531 56.2005 14.5312 55.6484 14.5312H54.0859V13.3359ZM54.0859 15.0469V13.8828H55.6484C56.2682 13.8828 56.8125 13.9531 57.2812 14.0938C57.75 14.2344 58.1432 14.4375 58.4609 14.7031C58.7786 14.9635 59.0182 15.2734 59.1797 15.6328C59.3411 15.987 59.4219 16.3802 59.4219 16.8125C59.4219 17.3438 59.3203 17.8177 59.1172 18.2344C58.9141 18.6458 58.6276 18.9948 58.2578 19.2812C57.8932 19.5677 57.4661 19.7865 56.9766 19.9375C56.487 20.0833 55.9531 20.1562 55.375 20.1562C54.8958 20.1562 54.4245 20.0911 53.9609 19.9609C53.5026 19.8255 53.0859 19.625 52.7109 19.3594C52.3411 19.0885 52.0443 18.75 51.8203 18.3438C51.6016 17.9323 51.4922 17.4453 51.4922 16.8828H53.75C53.75 17.1745 53.8229 17.4349 53.9688 17.6641C54.1146 17.8932 54.3151 18.0729 54.5703 18.2031C54.8307 18.3333 55.1198 18.3984 55.4375 18.3984C55.7969 18.3984 56.1042 18.3333 56.3594 18.2031C56.6198 18.0677 56.8177 17.8802 56.9531 17.6406C57.0938 17.3958 57.1641 17.112 57.1641 16.7891C57.1641 16.3724 57.0885 16.0391 56.9375 15.7891C56.7865 15.5339 56.5703 15.3464 56.2891 15.2266C56.0078 15.1068 55.6745 15.0469 55.2891 15.0469H54.0859ZM66.4531 8.60156V20H64.2031V11.1953L61.5 12.0547V10.2812L66.2109 8.60156H66.4531ZM76.4844 13.2969V20H74.2266V11.5469H76.3438L76.4844 13.2969ZM76.1719 15.4766H75.5469C75.5469 14.888 75.6172 14.3464 75.7578 13.8516C75.9036 13.3516 76.1146 12.9193 76.3906 12.5547C76.6719 12.1849 77.0182 11.8984 77.4297 11.6953C77.8411 11.4922 78.3177 11.3906 78.8594 11.3906C79.2344 11.3906 79.5781 11.4479 79.8906 11.5625C80.2031 11.6719 80.4714 11.8464 80.6953 12.0859C80.9245 12.3203 81.1016 12.6276 81.2266 13.0078C81.3516 13.3828 81.4141 13.8333 81.4141 14.3594V20H79.1641V14.6094C79.1641 14.224 79.112 13.9271 79.0078 13.7188C78.9036 13.5104 78.7552 13.3646 78.5625 13.2812C78.375 13.1979 78.1484 13.1562 77.8828 13.1562C77.5911 13.1562 77.3359 13.2161 77.1172 13.3359C76.9036 13.4557 76.7266 13.6224 76.5859 13.8359C76.4453 14.0443 76.3411 14.2891 76.2734 14.5703C76.2057 14.8516 76.1719 15.1536 76.1719 15.4766ZM81.2031 15.2188L80.3984 15.3203C80.3984 14.7682 80.4661 14.2552 80.6016 13.7812C80.7422 13.3073 80.9479 12.8906 81.2188 12.5312C81.4948 12.1719 81.8359 11.8932 82.2422 11.6953C82.6484 11.4922 83.1172 11.3906 83.6484 11.3906C84.0547 11.3906 84.4245 11.4505 84.7578 11.5703C85.0911 11.6849 85.375 11.8698 85.6094 12.125C85.849 12.375 86.0312 12.7031 86.1562 13.1094C86.2865 13.5156 86.3516 14.013 86.3516 14.6016V20H84.0938V14.6016C84.0938 14.2109 84.0417 13.9141 83.9375 13.7109C83.8385 13.5026 83.6927 13.3594 83.5 13.2812C83.3125 13.1979 83.0885 13.1562 82.8281 13.1562C82.5573 13.1562 82.3203 13.2109 82.1172 13.3203C81.9141 13.4245 81.7448 13.5703 81.6094 13.7578C81.474 13.9453 81.3724 14.1641 81.3047 14.4141C81.237 14.6589 81.2031 14.9271 81.2031 15.2188ZM90.4688 11.5469V20H88.2109V11.5469H90.4688ZM88.0703 9.34375C88.0703 9.01562 88.1849 8.74479 88.4141 8.53125C88.6432 8.31771 88.9505 8.21094 89.3359 8.21094C89.7161 8.21094 90.0208 8.31771 90.25 8.53125C90.4844 8.74479 90.6016 9.01562 90.6016 9.34375C90.6016 9.67188 90.4844 9.94271 90.25 10.1562C90.0208 10.3698 89.7161 10.4766 89.3359 10.4766C88.9505 10.4766 88.6432 10.3698 88.4141 10.1562C88.1849 9.94271 88.0703 9.67188 88.0703 9.34375ZM94.5312 13.3516V20H92.2812V11.5469H94.3906L94.5312 13.3516ZM94.2031 15.4766H93.5938C93.5938 14.8516 93.6745 14.2891 93.8359 13.7891C93.9974 13.2839 94.224 12.8542 94.5156 12.5C94.8073 12.1406 95.1536 11.8672 95.5547 11.6797C95.9609 11.487 96.4141 11.3906 96.9141 11.3906C97.3099 11.3906 97.6719 11.4479 98 11.5625C98.3281 11.6771 98.6094 11.8594 98.8438 12.1094C99.0833 12.3594 99.2656 12.6901 99.3906 13.1016C99.5208 13.513 99.5859 14.0156 99.5859 14.6094V20H97.3203V14.6016C97.3203 14.2266 97.2682 13.9349 97.1641 13.7266C97.0599 13.5182 96.9062 13.3724 96.7031 13.2891C96.5052 13.2005 96.2604 13.1562 95.9688 13.1562C95.6667 13.1562 95.4036 13.2161 95.1797 13.3359C94.9609 13.4557 94.7786 13.6224 94.6328 13.8359C94.4922 14.0443 94.3854 14.2891 94.3125 14.5703C94.2396 14.8516 94.2031 15.1536 94.2031 15.4766ZM106.297 17.9766V11.5469H108.547V20H106.43L106.297 17.9766ZM106.547 16.2422L107.211 16.2266C107.211 16.7891 107.146 17.3125 107.016 17.7969C106.885 18.276 106.69 18.6927 106.43 19.0469C106.169 19.3958 105.841 19.6693 105.445 19.8672C105.049 20.0599 104.583 20.1562 104.047 20.1562C103.635 20.1562 103.255 20.099 102.906 19.9844C102.562 19.8646 102.266 19.6797 102.016 19.4297C101.771 19.1745 101.578 18.849 101.438 18.4531C101.302 18.0521 101.234 17.5703 101.234 17.0078V11.5469H103.484V17.0234C103.484 17.2734 103.513 17.4844 103.57 17.6562C103.633 17.8281 103.719 17.9688 103.828 18.0781C103.938 18.1875 104.065 18.2656 104.211 18.3125C104.362 18.3594 104.529 18.3828 104.711 18.3828C105.174 18.3828 105.539 18.2891 105.805 18.1016C106.076 17.9141 106.266 17.6589 106.375 17.3359C106.49 17.0078 106.547 16.6432 106.547 16.2422ZM114.406 11.5469V13.1406H109.484V11.5469H114.406ZM110.703 9.46094H112.953V17.4531C112.953 17.6979 112.984 17.8854 113.047 18.0156C113.115 18.1458 113.214 18.237 113.344 18.2891C113.474 18.3359 113.638 18.3594 113.836 18.3594C113.977 18.3594 114.102 18.3542 114.211 18.3438C114.326 18.3281 114.422 18.3125 114.5 18.2969L114.508 19.9531C114.315 20.0156 114.107 20.0651 113.883 20.1016C113.659 20.138 113.411 20.1562 113.141 20.1562C112.646 20.1562 112.214 20.0755 111.844 19.9141C111.479 19.7474 111.198 19.4818 111 19.1172C110.802 18.7526 110.703 18.2734 110.703 17.6797V9.46094ZM119.578 20.1562C118.922 20.1562 118.333 20.0521 117.812 19.8438C117.292 19.6302 116.849 19.3359 116.484 18.9609C116.125 18.5859 115.849 18.151 115.656 17.6562C115.464 17.1562 115.367 16.625 115.367 16.0625V15.75C115.367 15.1094 115.458 14.5234 115.641 13.9922C115.823 13.4609 116.083 13 116.422 12.6094C116.766 12.2188 117.182 11.9193 117.672 11.7109C118.161 11.4974 118.714 11.3906 119.328 11.3906C119.927 11.3906 120.458 11.4896 120.922 11.6875C121.385 11.8854 121.773 12.1667 122.086 12.5312C122.404 12.8958 122.643 13.3333 122.805 13.8438C122.966 14.349 123.047 14.9115 123.047 15.5312V16.4688H116.328V14.9688H120.836V14.7969C120.836 14.4844 120.779 14.2057 120.664 13.9609C120.555 13.7109 120.388 13.513 120.164 13.3672C119.94 13.2214 119.654 13.1484 119.305 13.1484C119.008 13.1484 118.753 13.2135 118.539 13.3438C118.326 13.474 118.151 13.6562 118.016 13.8906C117.885 14.125 117.786 14.401 117.719 14.7188C117.656 15.0312 117.625 15.375 117.625 15.75V16.0625C117.625 16.401 117.672 16.7135 117.766 17C117.865 17.2865 118.003 17.5339 118.18 17.7422C118.362 17.9505 118.581 18.112 118.836 18.2266C119.096 18.3411 119.391 18.3984 119.719 18.3984C120.125 18.3984 120.503 18.3203 120.852 18.1641C121.206 18.0026 121.51 17.7604 121.766 17.4375L122.859 18.625C122.682 18.8802 122.44 19.125 122.133 19.3594C121.831 19.5938 121.466 19.7865 121.039 19.9375C120.612 20.0833 120.125 20.1562 119.578 20.1562ZM130.562 13.1719V23.25H128.312V11.5469H130.398L130.562 13.1719ZM135.914 15.6797V15.8438C135.914 16.4583 135.841 17.0286 135.695 17.5547C135.555 18.0807 135.346 18.5391 135.07 18.9297C134.794 19.3151 134.451 19.6172 134.039 19.8359C133.633 20.0495 133.164 20.1562 132.633 20.1562C132.117 20.1562 131.669 20.0521 131.289 19.8438C130.909 19.6354 130.589 19.3438 130.328 18.9688C130.073 18.5885 129.867 18.1484 129.711 17.6484C129.555 17.1484 129.435 16.612 129.352 16.0391V15.6094C129.435 14.9948 129.555 14.4323 129.711 13.9219C129.867 13.4062 130.073 12.9609 130.328 12.5859C130.589 12.2057 130.906 11.9115 131.281 11.7031C131.661 11.4948 132.107 11.3906 132.617 11.3906C133.154 11.3906 133.625 11.4922 134.031 11.6953C134.443 11.8984 134.786 12.1901 135.062 12.5703C135.344 12.9505 135.555 13.4036 135.695 13.9297C135.841 14.4557 135.914 15.0391 135.914 15.6797ZM133.656 15.8438V15.6797C133.656 15.3203 133.625 14.9896 133.562 14.6875C133.505 14.3802 133.411 14.112 133.281 13.8828C133.156 13.6536 132.99 13.4766 132.781 13.3516C132.578 13.2214 132.331 13.1562 132.039 13.1562C131.732 13.1562 131.469 13.2057 131.25 13.3047C131.036 13.4036 130.862 13.5469 130.727 13.7344C130.591 13.9219 130.49 14.1458 130.422 14.4062C130.354 14.6667 130.312 14.9609 130.297 15.2891V16.375C130.323 16.7604 130.396 17.1068 130.516 17.4141C130.635 17.7161 130.82 17.9557 131.07 18.1328C131.32 18.3099 131.648 18.3984 132.055 18.3984C132.352 18.3984 132.602 18.3333 132.805 18.2031C133.008 18.0677 133.172 17.8828 133.297 17.6484C133.427 17.4141 133.518 17.1432 133.57 16.8359C133.628 16.5286 133.656 16.1979 133.656 15.8438ZM139.562 13.3906V20H137.312V11.5469H139.43L139.562 13.3906ZM142.109 11.4922L142.07 13.5781C141.961 13.5625 141.828 13.5495 141.672 13.5391C141.521 13.5234 141.383 13.5156 141.258 13.5156C140.94 13.5156 140.664 13.5573 140.43 13.6406C140.201 13.7188 140.008 13.8359 139.852 13.9922C139.701 14.1484 139.586 14.3385 139.508 14.5625C139.435 14.7865 139.393 15.0417 139.383 15.3281L138.93 15.1875C138.93 14.6406 138.984 14.138 139.094 13.6797C139.203 13.2161 139.362 12.8125 139.57 12.4688C139.784 12.125 140.044 11.8594 140.352 11.6719C140.659 11.4844 141.01 11.3906 141.406 11.3906C141.531 11.3906 141.659 11.401 141.789 11.4219C141.919 11.4375 142.026 11.4609 142.109 11.4922ZM145.547 11.5469V20H143.289V11.5469H145.547ZM143.148 9.34375C143.148 9.01562 143.263 8.74479 143.492 8.53125C143.721 8.31771 144.029 8.21094 144.414 8.21094C144.794 8.21094 145.099 8.31771 145.328 8.53125C145.562 8.74479 145.68 9.01562 145.68 9.34375C145.68 9.67188 145.562 9.94271 145.328 10.1562C145.099 10.3698 144.794 10.4766 144.414 10.4766C144.029 10.4766 143.721 10.3698 143.492 10.1562C143.263 9.94271 143.148 9.67188 143.148 9.34375ZM149.609 13.3516V20H147.359V11.5469H149.469L149.609 13.3516ZM149.281 15.4766H148.672C148.672 14.8516 148.753 14.2891 148.914 13.7891C149.076 13.2839 149.302 12.8542 149.594 12.5C149.885 12.1406 150.232 11.8672 150.633 11.6797C151.039 11.487 151.492 11.3906 151.992 11.3906C152.388 11.3906 152.75 11.4479 153.078 11.5625C153.406 11.6771 153.688 11.8594 153.922 12.1094C154.161 12.3594 154.344 12.6901 154.469 13.1016C154.599 13.513 154.664 14.0156 154.664 14.6094V20H152.398V14.6016C152.398 14.2266 152.346 13.9349 152.242 13.7266C152.138 13.5182 151.984 13.3724 151.781 13.2891C151.583 13.2005 151.339 13.1562 151.047 13.1562C150.745 13.1562 150.482 13.2161 150.258 13.3359C150.039 13.4557 149.857 13.6224 149.711 13.8359C149.57 14.0443 149.464 14.2891 149.391 14.5703C149.318 14.8516 149.281 15.1536 149.281 15.4766ZM160.516 11.5469V13.1406H155.594V11.5469H160.516ZM156.812 9.46094H159.062V17.4531C159.062 17.6979 159.094 17.8854 159.156 18.0156C159.224 18.1458 159.323 18.237 159.453 18.2891C159.583 18.3359 159.747 18.3594 159.945 18.3594C160.086 18.3594 160.211 18.3542 160.32 18.3438C160.435 18.3281 160.531 18.3125 160.609 18.2969L160.617 19.9531C160.424 20.0156 160.216 20.0651 159.992 20.1016C159.768 20.138 159.521 20.1562 159.25 20.1562C158.755 20.1562 158.323 20.0755 157.953 19.9141C157.589 19.7474 157.307 19.4818 157.109 19.1172C156.911 18.7526 156.812 18.2734 156.812 17.6797V9.46094ZM169.922 11.5469V13.1406H165V11.5469H169.922ZM166.219 9.46094H168.469V17.4531C168.469 17.6979 168.5 17.8854 168.562 18.0156C168.63 18.1458 168.729 18.237 168.859 18.2891C168.99 18.3359 169.154 18.3594 169.352 18.3594C169.492 18.3594 169.617 18.3542 169.727 18.3438C169.841 18.3281 169.938 18.3125 170.016 18.2969L170.023 19.9531C169.831 20.0156 169.622 20.0651 169.398 20.1016C169.174 20.138 168.927 20.1562 168.656 20.1562C168.161 20.1562 167.729 20.0755 167.359 19.9141C166.995 19.7474 166.714 19.4818 166.516 19.1172C166.318 18.7526 166.219 18.2734 166.219 17.6797V9.46094ZM173.578 11.5469V20H171.32V11.5469H173.578ZM171.18 9.34375C171.18 9.01562 171.294 8.74479 171.523 8.53125C171.753 8.31771 172.06 8.21094 172.445 8.21094C172.826 8.21094 173.13 8.31771 173.359 8.53125C173.594 8.74479 173.711 9.01562 173.711 9.34375C173.711 9.67188 173.594 9.94271 173.359 10.1562C173.13 10.3698 172.826 10.4766 172.445 10.4766C172.06 10.4766 171.753 10.3698 171.523 10.1562C171.294 9.94271 171.18 9.67188 171.18 9.34375ZM177.688 13.2969V20H175.43V11.5469H177.547L177.688 13.2969ZM177.375 15.4766H176.75C176.75 14.888 176.82 14.3464 176.961 13.8516C177.107 13.3516 177.318 12.9193 177.594 12.5547C177.875 12.1849 178.221 11.8984 178.633 11.6953C179.044 11.4922 179.521 11.3906 180.062 11.3906C180.438 11.3906 180.781 11.4479 181.094 11.5625C181.406 11.6719 181.674 11.8464 181.898 12.0859C182.128 12.3203 182.305 12.6276 182.43 13.0078C182.555 13.3828 182.617 13.8333 182.617 14.3594V20H180.367V14.6094C180.367 14.224 180.315 13.9271 180.211 13.7188C180.107 13.5104 179.958 13.3646 179.766 13.2812C179.578 13.1979 179.352 13.1562 179.086 13.1562C178.794 13.1562 178.539 13.2161 178.32 13.3359C178.107 13.4557 177.93 13.6224 177.789 13.8359C177.648 14.0443 177.544 14.2891 177.477 14.5703C177.409 14.8516 177.375 15.1536 177.375 15.4766ZM182.406 15.2188L181.602 15.3203C181.602 14.7682 181.669 14.2552 181.805 13.7812C181.945 13.3073 182.151 12.8906 182.422 12.5312C182.698 12.1719 183.039 11.8932 183.445 11.6953C183.852 11.4922 184.32 11.3906 184.852 11.3906C185.258 11.3906 185.628 11.4505 185.961 11.5703C186.294 11.6849 186.578 11.8698 186.812 12.125C187.052 12.375 187.234 12.7031 187.359 13.1094C187.49 13.5156 187.555 14.013 187.555 14.6016V20H185.297V14.6016C185.297 14.2109 185.245 13.9141 185.141 13.7109C185.042 13.5026 184.896 13.3594 184.703 13.2812C184.516 13.1979 184.292 13.1562 184.031 13.1562C183.76 13.1562 183.523 13.2109 183.32 13.3203C183.117 13.4245 182.948 13.5703 182.812 13.7578C182.677 13.9453 182.576 14.1641 182.508 14.4141C182.44 14.6589 182.406 14.9271 182.406 15.2188ZM193.188 20.1562C192.531 20.1562 191.943 20.0521 191.422 19.8438C190.901 19.6302 190.458 19.3359 190.094 18.9609C189.734 18.5859 189.458 18.151 189.266 17.6562C189.073 17.1562 188.977 16.625 188.977 16.0625V15.75C188.977 15.1094 189.068 14.5234 189.25 13.9922C189.432 13.4609 189.693 13 190.031 12.6094C190.375 12.2188 190.792 11.9193 191.281 11.7109C191.771 11.4974 192.323 11.3906 192.938 11.3906C193.536 11.3906 194.068 11.4896 194.531 11.6875C194.995 11.8854 195.383 12.1667 195.695 12.5312C196.013 12.8958 196.253 13.3333 196.414 13.8438C196.576 14.349 196.656 14.9115 196.656 15.5312V16.4688H189.938V14.9688H194.445V14.7969C194.445 14.4844 194.388 14.2057 194.273 13.9609C194.164 13.7109 193.997 13.513 193.773 13.3672C193.549 13.2214 193.263 13.1484 192.914 13.1484C192.617 13.1484 192.362 13.2135 192.148 13.3438C191.935 13.474 191.76 13.6562 191.625 13.8906C191.495 14.125 191.396 14.401 191.328 14.7188C191.266 15.0312 191.234 15.375 191.234 15.75V16.0625C191.234 16.401 191.281 16.7135 191.375 17C191.474 17.2865 191.612 17.5339 191.789 17.7422C191.971 17.9505 192.19 18.112 192.445 18.2266C192.706 18.3411 193 18.3984 193.328 18.3984C193.734 18.3984 194.112 18.3203 194.461 18.1641C194.815 18.0026 195.12 17.7604 195.375 17.4375L196.469 18.625C196.292 18.8802 196.049 19.125 195.742 19.3594C195.44 19.5938 195.076 19.7865 194.648 19.9375C194.221 20.0833 193.734 20.1562 193.188 20.1562Z" fill="black" fill-opacity="0.85"/>
<path d="M59.75 67.75V69.5156H51.5547L51.4453 68.1484L56.1875 60.625H57.9766L56.0391 63.8672L53.6797 67.75H59.75ZM58.4609 60.625V72H56.2109V60.625H58.4609ZM71.1094 69.0234C71.1094 68.8203 71.0781 68.638 71.0156 68.4766C70.9583 68.3099 70.849 68.1589 70.6875 68.0234C70.526 67.8828 70.2995 67.7448 70.0078 67.6094C69.7161 67.474 69.3385 67.3333 68.875 67.1875C68.3594 67.0208 67.8698 66.8333 67.4062 66.625C66.9479 66.4167 66.5417 66.1745 66.1875 65.8984C65.8385 65.6172 65.5625 65.2917 65.3594 64.9219C65.1615 64.5521 65.0625 64.1224 65.0625 63.6328C65.0625 63.1589 65.1667 62.7292 65.375 62.3438C65.5833 61.9531 65.875 61.6198 66.25 61.3438C66.625 61.0625 67.0677 60.8464 67.5781 60.6953C68.0938 60.5443 68.6589 60.4688 69.2734 60.4688C70.112 60.4688 70.8438 60.6198 71.4688 60.9219C72.0938 61.224 72.5781 61.638 72.9219 62.1641C73.2708 62.6901 73.4453 63.2917 73.4453 63.9688H71.1172C71.1172 63.6354 71.0469 63.3438 70.9062 63.0938C70.7708 62.8385 70.5625 62.638 70.2812 62.4922C70.0052 62.3464 69.6562 62.2734 69.2344 62.2734C68.8281 62.2734 68.4896 62.3359 68.2188 62.4609C67.9479 62.5807 67.7448 62.7448 67.6094 62.9531C67.474 63.1562 67.4062 63.3854 67.4062 63.6406C67.4062 63.8333 67.4531 64.0078 67.5469 64.1641C67.6458 64.3203 67.7917 64.4661 67.9844 64.6016C68.1771 64.737 68.4141 64.8646 68.6953 64.9844C68.9766 65.1042 69.3021 65.2214 69.6719 65.3359C70.2917 65.5234 70.8359 65.7344 71.3047 65.9688C71.7786 66.2031 72.1745 66.4661 72.4922 66.7578C72.8099 67.0495 73.0495 67.3802 73.2109 67.75C73.3724 68.1198 73.4531 68.5391 73.4531 69.0078C73.4531 69.5026 73.3568 69.9453 73.1641 70.3359C72.9714 70.7266 72.6927 71.0573 72.3281 71.3281C71.9635 71.599 71.5286 71.8047 71.0234 71.9453C70.5182 72.0859 69.9531 72.1562 69.3281 72.1562C68.7656 72.1562 68.2109 72.0833 67.6641 71.9375C67.1172 71.7865 66.6198 71.5599 66.1719 71.2578C65.7292 70.9557 65.375 70.5703 65.1094 70.1016C64.8438 69.6328 64.7109 69.0781 64.7109 68.4375H67.0625C67.0625 68.7917 67.1172 69.0911 67.2266 69.3359C67.3359 69.5807 67.4896 69.7786 67.6875 69.9297C67.8906 70.0807 68.1302 70.1901 68.4062 70.2578C68.6875 70.3255 68.9948 70.3594 69.3281 70.3594C69.7344 70.3594 70.0677 70.3021 70.3281 70.1875C70.5938 70.0729 70.7891 69.9141 70.9141 69.7109C71.0443 69.5078 71.1094 69.2786 71.1094 69.0234ZM78.7969 72.1562C78.1406 72.1562 77.5521 72.0521 77.0312 71.8438C76.5104 71.6302 76.0677 71.3359 75.7031 70.9609C75.3438 70.5859 75.0677 70.151 74.875 69.6562C74.6823 69.1562 74.5859 68.625 74.5859 68.0625V67.75C74.5859 67.1094 74.6771 66.5234 74.8594 65.9922C75.0417 65.4609 75.3021 65 75.6406 64.6094C75.9844 64.2188 76.401 63.9193 76.8906 63.7109C77.3802 63.4974 77.9323 63.3906 78.5469 63.3906C79.1458 63.3906 79.6771 63.4896 80.1406 63.6875C80.6042 63.8854 80.9922 64.1667 81.3047 64.5312C81.6224 64.8958 81.862 65.3333 82.0234 65.8438C82.1849 66.349 82.2656 66.9115 82.2656 67.5312V68.4688H75.5469V66.9688H80.0547V66.7969C80.0547 66.4844 79.9974 66.2057 79.8828 65.9609C79.7734 65.7109 79.6068 65.513 79.3828 65.3672C79.1589 65.2214 78.8724 65.1484 78.5234 65.1484C78.2266 65.1484 77.9714 65.2135 77.7578 65.3438C77.5443 65.474 77.3698 65.6562 77.2344 65.8906C77.1042 66.125 77.0052 66.401 76.9375 66.7188C76.875 67.0312 76.8438 67.375 76.8438 67.75V68.0625C76.8438 68.401 76.8906 68.7135 76.9844 69C77.0833 69.2865 77.2214 69.5339 77.3984 69.7422C77.5807 69.9505 77.7995 70.112 78.0547 70.2266C78.3151 70.3411 78.6094 70.3984 78.9375 70.3984C79.3438 70.3984 79.7214 70.3203 80.0703 70.1641C80.4245 70.0026 80.7292 69.7604 80.9844 69.4375L82.0781 70.625C81.901 70.8802 81.6589 71.125 81.3516 71.3594C81.0495 71.5938 80.6849 71.7865 80.2578 71.9375C79.8307 72.0833 79.3438 72.1562 78.7969 72.1562ZM87.6875 63.5469V65.1406H82.7656V63.5469H87.6875ZM83.9844 61.4609H86.2344V69.4531C86.2344 69.6979 86.2656 69.8854 86.3281 70.0156C86.3958 70.1458 86.4948 70.237 86.625 70.2891C86.7552 70.3359 86.9193 70.3594 87.1172 70.3594C87.2578 70.3594 87.3828 70.3542 87.4922 70.3438C87.6068 70.3281 87.7031 70.3125 87.7812 70.2969L87.7891 71.9531C87.5964 72.0156 87.388 72.0651 87.1641 72.1016C86.9401 72.138 86.6927 72.1562 86.4219 72.1562C85.9271 72.1562 85.4948 72.0755 85.125 71.9141C84.7604 71.7474 84.4792 71.4818 84.2812 71.1172C84.0833 70.7526 83.9844 70.2734 83.9844 69.6797V61.4609ZM93.5391 69.6641C93.5391 69.5026 93.4922 69.3568 93.3984 69.2266C93.3047 69.0964 93.1302 68.9766 92.875 68.8672C92.625 68.7526 92.263 68.6484 91.7891 68.5547C91.362 68.4609 90.9635 68.3438 90.5938 68.2031C90.2292 68.0573 89.9115 67.8828 89.6406 67.6797C89.375 67.4766 89.1667 67.237 89.0156 66.9609C88.8646 66.6797 88.7891 66.3594 88.7891 66C88.7891 65.6458 88.8646 65.3125 89.0156 65C89.1719 64.6875 89.3932 64.4115 89.6797 64.1719C89.9714 63.9271 90.3255 63.737 90.7422 63.6016C91.1641 63.4609 91.638 63.3906 92.1641 63.3906C92.8984 63.3906 93.5286 63.5078 94.0547 63.7422C94.5859 63.9766 94.9922 64.2995 95.2734 64.7109C95.5599 65.1172 95.7031 65.5807 95.7031 66.1016H93.4531C93.4531 65.8828 93.4062 65.6875 93.3125 65.5156C93.224 65.3385 93.0833 65.2005 92.8906 65.1016C92.7031 64.9974 92.4583 64.9453 92.1562 64.9453C91.9062 64.9453 91.6901 64.9896 91.5078 65.0781C91.3255 65.1615 91.1849 65.276 91.0859 65.4219C90.9922 65.5625 90.9453 65.7188 90.9453 65.8906C90.9453 66.0208 90.9714 66.138 91.0234 66.2422C91.0807 66.3411 91.1719 66.4323 91.2969 66.5156C91.4219 66.599 91.5833 66.6771 91.7812 66.75C91.9844 66.8177 92.2344 66.8802 92.5312 66.9375C93.1406 67.0625 93.6849 67.2266 94.1641 67.4297C94.6432 67.6276 95.0234 67.8984 95.3047 68.2422C95.5859 68.5807 95.7266 69.026 95.7266 69.5781C95.7266 69.9531 95.6432 70.2969 95.4766 70.6094C95.3099 70.9219 95.0703 71.1953 94.7578 71.4297C94.4453 71.6589 94.0703 71.8385 93.6328 71.9688C93.2005 72.0938 92.7135 72.1562 92.1719 72.1562C91.3854 72.1562 90.7188 72.0156 90.1719 71.7344C89.6302 71.4531 89.2188 71.0964 88.9375 70.6641C88.6615 70.2266 88.5234 69.7786 88.5234 69.3203H90.6562C90.6667 69.6276 90.7448 69.875 90.8906 70.0625C91.0417 70.25 91.2318 70.3854 91.4609 70.4688C91.6953 70.5521 91.9479 70.5938 92.2188 70.5938C92.5104 70.5938 92.7526 70.5547 92.9453 70.4766C93.138 70.3932 93.2839 70.2839 93.3828 70.1484C93.487 70.0078 93.5391 69.8464 93.5391 69.6641ZM100.812 67.8594V67.6953C100.812 67.0755 100.901 66.5052 101.078 65.9844C101.255 65.4583 101.513 65.0026 101.852 64.6172C102.19 64.2318 102.607 63.9323 103.102 63.7188C103.596 63.5 104.164 63.3906 104.805 63.3906C105.445 63.3906 106.016 63.5 106.516 63.7188C107.016 63.9323 107.435 64.2318 107.773 64.6172C108.117 65.0026 108.378 65.4583 108.555 65.9844C108.732 66.5052 108.82 67.0755 108.82 67.6953V67.8594C108.82 68.474 108.732 69.0443 108.555 69.5703C108.378 70.0911 108.117 70.5469 107.773 70.9375C107.435 71.3229 107.018 71.6224 106.523 71.8359C106.029 72.0495 105.461 72.1562 104.82 72.1562C104.18 72.1562 103.609 72.0495 103.109 71.8359C102.615 71.6224 102.195 71.3229 101.852 70.9375C101.513 70.5469 101.255 70.0911 101.078 69.5703C100.901 69.0443 100.812 68.474 100.812 67.8594ZM103.062 67.6953V67.8594C103.062 68.2135 103.094 68.5443 103.156 68.8516C103.219 69.1589 103.318 69.4297 103.453 69.6641C103.594 69.8932 103.776 70.0729 104 70.2031C104.224 70.3333 104.497 70.3984 104.82 70.3984C105.133 70.3984 105.401 70.3333 105.625 70.2031C105.849 70.0729 106.029 69.8932 106.164 69.6641C106.299 69.4297 106.398 69.1589 106.461 68.8516C106.529 68.5443 106.562 68.2135 106.562 67.8594V67.6953C106.562 67.3516 106.529 67.0286 106.461 66.7266C106.398 66.4193 106.297 66.1484 106.156 65.9141C106.021 65.6745 105.841 65.487 105.617 65.3516C105.393 65.2161 105.122 65.1484 104.805 65.1484C104.487 65.1484 104.216 65.2161 103.992 65.3516C103.773 65.487 103.594 65.6745 103.453 65.9141C103.318 66.1484 103.219 66.4193 103.156 66.7266C103.094 67.0286 103.062 67.3516 103.062 67.6953ZM113.07 72H110.805V62.7969C110.805 62.1562 110.93 61.6172 111.18 61.1797C111.435 60.737 111.792 60.4036 112.25 60.1797C112.714 59.9505 113.263 59.8359 113.898 59.8359C114.107 59.8359 114.307 59.8516 114.5 59.8828C114.693 59.9089 114.88 59.9427 115.062 59.9844L115.039 61.6797C114.94 61.6536 114.836 61.6354 114.727 61.625C114.617 61.6146 114.49 61.6094 114.344 61.6094C114.073 61.6094 113.841 61.6562 113.648 61.75C113.461 61.8385 113.318 61.9714 113.219 62.1484C113.12 62.3255 113.07 62.5417 113.07 62.7969V72ZM114.758 63.5469V65.1406H109.547V63.5469H114.758ZM125.984 69.0234C125.984 68.8203 125.953 68.638 125.891 68.4766C125.833 68.3099 125.724 68.1589 125.562 68.0234C125.401 67.8828 125.174 67.7448 124.883 67.6094C124.591 67.474 124.214 67.3333 123.75 67.1875C123.234 67.0208 122.745 66.8333 122.281 66.625C121.823 66.4167 121.417 66.1745 121.062 65.8984C120.714 65.6172 120.438 65.2917 120.234 64.9219C120.036 64.5521 119.938 64.1224 119.938 63.6328C119.938 63.1589 120.042 62.7292 120.25 62.3438C120.458 61.9531 120.75 61.6198 121.125 61.3438C121.5 61.0625 121.943 60.8464 122.453 60.6953C122.969 60.5443 123.534 60.4688 124.148 60.4688C124.987 60.4688 125.719 60.6198 126.344 60.9219C126.969 61.224 127.453 61.638 127.797 62.1641C128.146 62.6901 128.32 63.2917 128.32 63.9688H125.992C125.992 63.6354 125.922 63.3438 125.781 63.0938C125.646 62.8385 125.438 62.638 125.156 62.4922C124.88 62.3464 124.531 62.2734 124.109 62.2734C123.703 62.2734 123.365 62.3359 123.094 62.4609C122.823 62.5807 122.62 62.7448 122.484 62.9531C122.349 63.1562 122.281 63.3854 122.281 63.6406C122.281 63.8333 122.328 64.0078 122.422 64.1641C122.521 64.3203 122.667 64.4661 122.859 64.6016C123.052 64.737 123.289 64.8646 123.57 64.9844C123.852 65.1042 124.177 65.2214 124.547 65.3359C125.167 65.5234 125.711 65.7344 126.18 65.9688C126.654 66.2031 127.049 66.4661 127.367 66.7578C127.685 67.0495 127.924 67.3802 128.086 67.75C128.247 68.1198 128.328 68.5391 128.328 69.0078C128.328 69.5026 128.232 69.9453 128.039 70.3359C127.846 70.7266 127.568 71.0573 127.203 71.3281C126.839 71.599 126.404 71.8047 125.898 71.9453C125.393 72.0859 124.828 72.1562 124.203 72.1562C123.641 72.1562 123.086 72.0833 122.539 71.9375C121.992 71.7865 121.495 71.5599 121.047 71.2578C120.604 70.9557 120.25 70.5703 119.984 70.1016C119.719 69.6328 119.586 69.0781 119.586 68.4375H121.938C121.938 68.7917 121.992 69.0911 122.102 69.3359C122.211 69.5807 122.365 69.7786 122.562 69.9297C122.766 70.0807 123.005 70.1901 123.281 70.2578C123.562 70.3255 123.87 70.3594 124.203 70.3594C124.609 70.3594 124.943 70.3021 125.203 70.1875C125.469 70.0729 125.664 69.9141 125.789 69.7109C125.919 69.5078 125.984 69.2786 125.984 69.0234ZM133.672 72.1562C133.016 72.1562 132.427 72.0521 131.906 71.8438C131.385 71.6302 130.943 71.3359 130.578 70.9609C130.219 70.5859 129.943 70.151 129.75 69.6562C129.557 69.1562 129.461 68.625 129.461 68.0625V67.75C129.461 67.1094 129.552 66.5234 129.734 65.9922C129.917 65.4609 130.177 65 130.516 64.6094C130.859 64.2188 131.276 63.9193 131.766 63.7109C132.255 63.4974 132.807 63.3906 133.422 63.3906C134.021 63.3906 134.552 63.4896 135.016 63.6875C135.479 63.8854 135.867 64.1667 136.18 64.5312C136.497 64.8958 136.737 65.3333 136.898 65.8438C137.06 66.349 137.141 66.9115 137.141 67.5312V68.4688H130.422V66.9688H134.93V66.7969C134.93 66.4844 134.872 66.2057 134.758 65.9609C134.648 65.7109 134.482 65.513 134.258 65.3672C134.034 65.2214 133.747 65.1484 133.398 65.1484C133.102 65.1484 132.846 65.2135 132.633 65.3438C132.419 65.474 132.245 65.6562 132.109 65.8906C131.979 66.125 131.88 66.401 131.812 66.7188C131.75 67.0312 131.719 67.375 131.719 67.75V68.0625C131.719 68.401 131.766 68.7135 131.859 69C131.958 69.2865 132.096 69.5339 132.273 69.7422C132.456 69.9505 132.674 70.112 132.93 70.2266C133.19 70.3411 133.484 70.3984 133.812 70.3984C134.219 70.3984 134.596 70.3203 134.945 70.1641C135.299 70.0026 135.604 69.7604 135.859 69.4375L136.953 70.625C136.776 70.8802 136.534 71.125 136.227 71.3594C135.924 71.5938 135.56 71.7865 135.133 71.9375C134.706 72.0833 134.219 72.1562 133.672 72.1562ZM142.562 63.5469V65.1406H137.641V63.5469H142.562ZM138.859 61.4609H141.109V69.4531C141.109 69.6979 141.141 69.8854 141.203 70.0156C141.271 70.1458 141.37 70.237 141.5 70.2891C141.63 70.3359 141.794 70.3594 141.992 70.3594C142.133 70.3594 142.258 70.3542 142.367 70.3438C142.482 70.3281 142.578 70.3125 142.656 70.2969L142.664 71.9531C142.471 72.0156 142.263 72.0651 142.039 72.1016C141.815 72.138 141.568 72.1562 141.297 72.1562C140.802 72.1562 140.37 72.0755 140 71.9141C139.635 71.7474 139.354 71.4818 139.156 71.1172C138.958 70.7526 138.859 70.2734 138.859 69.6797V61.4609ZM147.984 63.5469V65.1406H143.062V63.5469H147.984ZM144.281 61.4609H146.531V69.4531C146.531 69.6979 146.562 69.8854 146.625 70.0156C146.693 70.1458 146.792 70.237 146.922 70.2891C147.052 70.3359 147.216 70.3594 147.414 70.3594C147.555 70.3594 147.68 70.3542 147.789 70.3438C147.904 70.3281 148 70.3125 148.078 70.2969L148.086 71.9531C147.893 72.0156 147.685 72.0651 147.461 72.1016C147.237 72.138 146.99 72.1562 146.719 72.1562C146.224 72.1562 145.792 72.0755 145.422 71.9141C145.057 71.7474 144.776 71.4818 144.578 71.1172C144.38 70.7526 144.281 70.2734 144.281 69.6797V61.4609ZM151.641 63.5469V72H149.383V63.5469H151.641ZM149.242 61.3438C149.242 61.0156 149.357 60.7448 149.586 60.5312C149.815 60.3177 150.122 60.2109 150.508 60.2109C150.888 60.2109 151.193 60.3177 151.422 60.5312C151.656 60.7448 151.773 61.0156 151.773 61.3438C151.773 61.6719 151.656 61.9427 151.422 62.1562C151.193 62.3698 150.888 62.4766 150.508 62.4766C150.122 62.4766 149.815 62.3698 149.586 62.1562C149.357 61.9427 149.242 61.6719 149.242 61.3438ZM155.703 65.3516V72H153.453V63.5469H155.562L155.703 65.3516ZM155.375 67.4766H154.766C154.766 66.8516 154.846 66.2891 155.008 65.7891C155.169 65.2839 155.396 64.8542 155.688 64.5C155.979 64.1406 156.326 63.8672 156.727 63.6797C157.133 63.487 157.586 63.3906 158.086 63.3906C158.482 63.3906 158.844 63.4479 159.172 63.5625C159.5 63.6771 159.781 63.8594 160.016 64.1094C160.255 64.3594 160.438 64.6901 160.562 65.1016C160.693 65.513 160.758 66.0156 160.758 66.6094V72H158.492V66.6016C158.492 66.2266 158.44 65.9349 158.336 65.7266C158.232 65.5182 158.078 65.3724 157.875 65.2891C157.677 65.2005 157.432 65.1562 157.141 65.1562C156.839 65.1562 156.576 65.2161 156.352 65.3359C156.133 65.4557 155.951 65.6224 155.805 65.8359C155.664 66.0443 155.557 66.2891 155.484 66.5703C155.411 66.8516 155.375 67.1536 155.375 67.4766ZM167.82 63.5469H169.859V71.7188C169.859 72.4896 169.688 73.1432 169.344 73.6797C169.005 74.2214 168.531 74.6302 167.922 74.9062C167.312 75.1875 166.604 75.3281 165.797 75.3281C165.443 75.3281 165.068 75.2812 164.672 75.1875C164.281 75.0938 163.906 74.9479 163.547 74.75C163.193 74.5521 162.896 74.3021 162.656 74L163.648 72.6719C163.909 72.974 164.211 73.2083 164.555 73.375C164.898 73.5469 165.279 73.6328 165.695 73.6328C166.102 73.6328 166.445 73.5573 166.727 73.4062C167.008 73.2604 167.224 73.0443 167.375 72.7578C167.526 72.4766 167.602 72.1354 167.602 71.7344V65.5L167.82 63.5469ZM162.133 67.875V67.7109C162.133 67.0651 162.211 66.4792 162.367 65.9531C162.529 65.4219 162.755 64.9661 163.047 64.5859C163.344 64.2057 163.703 63.9115 164.125 63.7031C164.547 63.4948 165.023 63.3906 165.555 63.3906C166.117 63.3906 166.589 63.4948 166.969 63.7031C167.349 63.9115 167.661 64.2083 167.906 64.5938C168.151 64.974 168.341 65.4245 168.477 65.9453C168.617 66.4609 168.727 67.026 168.805 67.6406V68C168.727 68.5885 168.609 69.1354 168.453 69.6406C168.297 70.1458 168.091 70.5885 167.836 70.9688C167.581 71.3438 167.263 71.6354 166.883 71.8438C166.508 72.0521 166.06 72.1562 165.539 72.1562C165.018 72.1562 164.547 72.0495 164.125 71.8359C163.708 71.6224 163.352 71.3229 163.055 70.9375C162.758 70.5521 162.529 70.099 162.367 69.5781C162.211 69.0573 162.133 68.4896 162.133 67.875ZM164.383 67.7109V67.875C164.383 68.224 164.417 68.5495 164.484 68.8516C164.552 69.1536 164.656 69.4219 164.797 69.6562C164.943 69.8854 165.122 70.0651 165.336 70.1953C165.555 70.3203 165.812 70.3828 166.109 70.3828C166.521 70.3828 166.857 70.2969 167.117 70.125C167.378 69.9479 167.573 69.7057 167.703 69.3984C167.833 69.0911 167.909 68.737 167.93 68.3359V67.3125C167.919 66.9844 167.875 66.6901 167.797 66.4297C167.719 66.1641 167.609 65.9375 167.469 65.75C167.328 65.5625 167.146 65.4167 166.922 65.3125C166.698 65.2083 166.432 65.1562 166.125 65.1562C165.828 65.1562 165.57 65.224 165.352 65.3594C165.138 65.4896 164.958 65.6693 164.812 65.8984C164.672 66.1276 164.565 66.3984 164.492 66.7109C164.419 67.0182 164.383 67.3516 164.383 67.7109ZM176.18 69.6641C176.18 69.5026 176.133 69.3568 176.039 69.2266C175.945 69.0964 175.771 68.9766 175.516 68.8672C175.266 68.7526 174.904 68.6484 174.43 68.5547C174.003 68.4609 173.604 68.3438 173.234 68.2031C172.87 68.0573 172.552 67.8828 172.281 67.6797C172.016 67.4766 171.807 67.237 171.656 66.9609C171.505 66.6797 171.43 66.3594 171.43 66C171.43 65.6458 171.505 65.3125 171.656 65C171.812 64.6875 172.034 64.4115 172.32 64.1719C172.612 63.9271 172.966 63.737 173.383 63.6016C173.805 63.4609 174.279 63.3906 174.805 63.3906C175.539 63.3906 176.169 63.5078 176.695 63.7422C177.227 63.9766 177.633 64.2995 177.914 64.7109C178.201 65.1172 178.344 65.5807 178.344 66.1016H176.094C176.094 65.8828 176.047 65.6875 175.953 65.5156C175.865 65.3385 175.724 65.2005 175.531 65.1016C175.344 64.9974 175.099 64.9453 174.797 64.9453C174.547 64.9453 174.331 64.9896 174.148 65.0781C173.966 65.1615 173.826 65.276 173.727 65.4219C173.633 65.5625 173.586 65.7188 173.586 65.8906C173.586 66.0208 173.612 66.138 173.664 66.2422C173.721 66.3411 173.812 66.4323 173.938 66.5156C174.062 66.599 174.224 66.6771 174.422 66.75C174.625 66.8177 174.875 66.8802 175.172 66.9375C175.781 67.0625 176.326 67.2266 176.805 67.4297C177.284 67.6276 177.664 67.8984 177.945 68.2422C178.227 68.5807 178.367 69.026 178.367 69.5781C178.367 69.9531 178.284 70.2969 178.117 70.6094C177.951 70.9219 177.711 71.1953 177.398 71.4297C177.086 71.6589 176.711 71.8385 176.273 71.9688C175.841 72.0938 175.354 72.1562 174.812 72.1562C174.026 72.1562 173.359 72.0156 172.812 71.7344C172.271 71.4531 171.859 71.0964 171.578 70.6641C171.302 70.2266 171.164 69.7786 171.164 69.3203H173.297C173.307 69.6276 173.385 69.875 173.531 70.0625C173.682 70.25 173.872 70.3854 174.102 70.4688C174.336 70.5521 174.589 70.5938 174.859 70.5938C175.151 70.5938 175.393 70.5547 175.586 70.4766C175.779 70.3932 175.924 70.2839 176.023 70.1484C176.128 70.0078 176.18 69.8464 176.18 69.6641ZM188.617 60.625V72H186.281V60.625H188.617ZM192.117 60.625V62.4609H182.836V60.625H192.117ZM196.469 72.1562C195.812 72.1562 195.224 72.0521 194.703 71.8438C194.182 71.6302 193.74 71.3359 193.375 70.9609C193.016 70.5859 192.74 70.151 192.547 69.6562C192.354 69.1562 192.258 68.625 192.258 68.0625V67.75C192.258 67.1094 192.349 66.5234 192.531 65.9922C192.714 65.4609 192.974 65 193.312 64.6094C193.656 64.2188 194.073 63.9193 194.562 63.7109C195.052 63.4974 195.604 63.3906 196.219 63.3906C196.818 63.3906 197.349 63.4896 197.812 63.6875C198.276 63.8854 198.664 64.1667 198.977 64.5312C199.294 64.8958 199.534 65.3333 199.695 65.8438C199.857 66.349 199.938 66.9115 199.938 67.5312V68.4688H193.219V66.9688H197.727V66.7969C197.727 66.4844 197.669 66.2057 197.555 65.9609C197.445 65.7109 197.279 65.513 197.055 65.3672C196.831 65.2214 196.544 65.1484 196.195 65.1484C195.898 65.1484 195.643 65.2135 195.43 65.3438C195.216 65.474 195.042 65.6562 194.906 65.8906C194.776 66.125 194.677 66.401 194.609 66.7188C194.547 67.0312 194.516 67.375 194.516 67.75V68.0625C194.516 68.401 194.562 68.7135 194.656 69C194.755 69.2865 194.893 69.5339 195.07 69.7422C195.253 69.9505 195.471 70.112 195.727 70.2266C195.987 70.3411 196.281 70.3984 196.609 70.3984C197.016 70.3984 197.393 70.3203 197.742 70.1641C198.096 70.0026 198.401 69.7604 198.656 69.4375L199.75 70.625C199.573 70.8802 199.331 71.125 199.023 71.3594C198.721 71.5938 198.357 71.7865 197.93 71.9375C197.503 72.0833 197.016 72.1562 196.469 72.1562ZM205.789 69.6641C205.789 69.5026 205.742 69.3568 205.648 69.2266C205.555 69.0964 205.38 68.9766 205.125 68.8672C204.875 68.7526 204.513 68.6484 204.039 68.5547C203.612 68.4609 203.214 68.3438 202.844 68.2031C202.479 68.0573 202.161 67.8828 201.891 67.6797C201.625 67.4766 201.417 67.237 201.266 66.9609C201.115 66.6797 201.039 66.3594 201.039 66C201.039 65.6458 201.115 65.3125 201.266 65C201.422 64.6875 201.643 64.4115 201.93 64.1719C202.221 63.9271 202.576 63.737 202.992 63.6016C203.414 63.4609 203.888 63.3906 204.414 63.3906C205.148 63.3906 205.779 63.5078 206.305 63.7422C206.836 63.9766 207.242 64.2995 207.523 64.7109C207.81 65.1172 207.953 65.5807 207.953 66.1016H205.703C205.703 65.8828 205.656 65.6875 205.562 65.5156C205.474 65.3385 205.333 65.2005 205.141 65.1016C204.953 64.9974 204.708 64.9453 204.406 64.9453C204.156 64.9453 203.94 64.9896 203.758 65.0781C203.576 65.1615 203.435 65.276 203.336 65.4219C203.242 65.5625 203.195 65.7188 203.195 65.8906C203.195 66.0208 203.221 66.138 203.273 66.2422C203.331 66.3411 203.422 66.4323 203.547 66.5156C203.672 66.599 203.833 66.6771 204.031 66.75C204.234 66.8177 204.484 66.8802 204.781 66.9375C205.391 67.0625 205.935 67.2266 206.414 67.4297C206.893 67.6276 207.273 67.8984 207.555 68.2422C207.836 68.5807 207.977 69.026 207.977 69.5781C207.977 69.9531 207.893 70.2969 207.727 70.6094C207.56 70.9219 207.32 71.1953 207.008 71.4297C206.695 71.6589 206.32 71.8385 205.883 71.9688C205.451 72.0938 204.964 72.1562 204.422 72.1562C203.635 72.1562 202.969 72.0156 202.422 71.7344C201.88 71.4531 201.469 71.0964 201.188 70.6641C200.911 70.2266 200.773 69.7786 200.773 69.3203H202.906C202.917 69.6276 202.995 69.875 203.141 70.0625C203.292 70.25 203.482 70.3854 203.711 70.4688C203.945 70.5521 204.198 70.5938 204.469 70.5938C204.76 70.5938 205.003 70.5547 205.195 70.4766C205.388 70.3932 205.534 70.2839 205.633 70.1484C205.737 70.0078 205.789 69.8464 205.789 69.6641ZM213.578 63.5469V65.1406H208.656V63.5469H213.578ZM209.875 61.4609H212.125V69.4531C212.125 69.6979 212.156 69.8854 212.219 70.0156C212.286 70.1458 212.385 70.237 212.516 70.2891C212.646 70.3359 212.81 70.3594 213.008 70.3594C213.148 70.3594 213.273 70.3542 213.383 70.3438C213.497 70.3281 213.594 70.3125 213.672 70.2969L213.68 71.9531C213.487 72.0156 213.279 72.0651 213.055 72.1016C212.831 72.138 212.583 72.1562 212.312 72.1562C211.818 72.1562 211.385 72.0755 211.016 71.9141C210.651 71.7474 210.37 71.4818 210.172 71.1172C209.974 70.7526 209.875 70.2734 209.875 69.6797V61.4609ZM218.75 72.1562C218.094 72.1562 217.505 72.0521 216.984 71.8438C216.464 71.6302 216.021 71.3359 215.656 70.9609C215.297 70.5859 215.021 70.151 214.828 69.6562C214.635 69.1562 214.539 68.625 214.539 68.0625V67.75C214.539 67.1094 214.63 66.5234 214.812 65.9922C214.995 65.4609 215.255 65 215.594 64.6094C215.938 64.2188 216.354 63.9193 216.844 63.7109C217.333 63.4974 217.885 63.3906 218.5 63.3906C219.099 63.3906 219.63 63.4896 220.094 63.6875C220.557 63.8854 220.945 64.1667 221.258 64.5312C221.576 64.8958 221.815 65.3333 221.977 65.8438C222.138 66.349 222.219 66.9115 222.219 67.5312V68.4688H215.5V66.9688H220.008V66.7969C220.008 66.4844 219.951 66.2057 219.836 65.9609C219.727 65.7109 219.56 65.513 219.336 65.3672C219.112 65.2214 218.826 65.1484 218.477 65.1484C218.18 65.1484 217.924 65.2135 217.711 65.3438C217.497 65.474 217.323 65.6562 217.188 65.8906C217.057 66.125 216.958 66.401 216.891 66.7188C216.828 67.0312 216.797 67.375 216.797 67.75V68.0625C216.797 68.401 216.844 68.7135 216.938 69C217.036 69.2865 217.174 69.5339 217.352 69.7422C217.534 69.9505 217.753 70.112 218.008 70.2266C218.268 70.3411 218.562 70.3984 218.891 70.3984C219.297 70.3984 219.674 70.3203 220.023 70.1641C220.378 70.0026 220.682 69.7604 220.938 69.4375L222.031 70.625C221.854 70.8802 221.612 71.125 221.305 71.3594C221.003 71.5938 220.638 71.7865 220.211 71.9375C219.784 72.0833 219.297 72.1562 218.75 72.1562ZM228.492 70.1562V60H230.758V72H228.719L228.492 70.1562ZM223.148 67.875V67.7109C223.148 67.0651 223.221 66.4792 223.367 65.9531C223.513 65.4219 223.727 64.9661 224.008 64.5859C224.289 64.2057 224.635 63.9115 225.047 63.7031C225.458 63.4948 225.927 63.3906 226.453 63.3906C226.948 63.3906 227.38 63.4948 227.75 63.7031C228.125 63.9115 228.443 64.2083 228.703 64.5938C228.969 64.974 229.182 65.4245 229.344 65.9453C229.505 66.4609 229.622 67.026 229.695 67.6406V68C229.622 68.5885 229.505 69.1354 229.344 69.6406C229.182 70.1458 228.969 70.5885 228.703 70.9688C228.443 71.3438 228.125 71.6354 227.75 71.8438C227.375 72.0521 226.938 72.1562 226.438 72.1562C225.911 72.1562 225.443 72.0495 225.031 71.8359C224.625 71.6224 224.281 71.3229 224 70.9375C223.724 70.5521 223.513 70.099 223.367 69.5781C223.221 69.0573 223.148 68.4896 223.148 67.875ZM225.398 67.7109V67.875C225.398 68.224 225.424 68.5495 225.477 68.8516C225.534 69.1536 225.625 69.4219 225.75 69.6562C225.88 69.8854 226.047 70.0651 226.25 70.1953C226.458 70.3203 226.711 70.3828 227.008 70.3828C227.393 70.3828 227.711 70.2969 227.961 70.125C228.211 69.9479 228.401 69.7057 228.531 69.3984C228.667 69.0911 228.745 68.737 228.766 68.3359V67.3125C228.75 66.9844 228.703 66.6901 228.625 66.4297C228.552 66.1641 228.443 65.9375 228.297 65.75C228.156 65.5625 227.979 65.4167 227.766 65.3125C227.557 65.2083 227.31 65.1562 227.023 65.1562C226.732 65.1562 226.482 65.224 226.273 65.3594C226.065 65.4896 225.896 65.6693 225.766 65.8984C225.641 66.1276 225.547 66.3984 225.484 66.7109C225.427 67.0182 225.398 67.3516 225.398 67.7109ZM241.062 70.0938V66.3281C241.062 66.0573 241.018 65.8255 240.93 65.6328C240.841 65.4349 240.703 65.2812 240.516 65.1719C240.333 65.0625 240.096 65.0078 239.805 65.0078C239.555 65.0078 239.339 65.0521 239.156 65.1406C238.974 65.224 238.833 65.3464 238.734 65.5078C238.635 65.6641 238.586 65.849 238.586 66.0625H236.336C236.336 65.7031 236.419 65.362 236.586 65.0391C236.753 64.7161 236.995 64.4323 237.312 64.1875C237.63 63.9375 238.008 63.7422 238.445 63.6016C238.888 63.4609 239.383 63.3906 239.93 63.3906C240.586 63.3906 241.169 63.5 241.68 63.7188C242.19 63.9375 242.591 64.2656 242.883 64.7031C243.18 65.1406 243.328 65.6875 243.328 66.3438V69.9609C243.328 70.4245 243.357 70.8047 243.414 71.1016C243.471 71.3932 243.555 71.6484 243.664 71.8672V72H241.391C241.281 71.7708 241.198 71.4844 241.141 71.1406C241.089 70.7917 241.062 70.4427 241.062 70.0938ZM241.359 66.8516L241.375 68.125H240.117C239.82 68.125 239.562 68.1589 239.344 68.2266C239.125 68.2943 238.945 68.3906 238.805 68.5156C238.664 68.6354 238.56 68.776 238.492 68.9375C238.43 69.099 238.398 69.276 238.398 69.4688C238.398 69.6615 238.443 69.8359 238.531 69.9922C238.62 70.1432 238.747 70.263 238.914 70.3516C239.081 70.4349 239.276 70.4766 239.5 70.4766C239.839 70.4766 240.133 70.4089 240.383 70.2734C240.633 70.138 240.826 69.9714 240.961 69.7734C241.102 69.5755 241.174 69.388 241.18 69.2109L241.773 70.1641C241.69 70.3776 241.576 70.599 241.43 70.8281C241.289 71.0573 241.109 71.2734 240.891 71.4766C240.672 71.6745 240.409 71.8385 240.102 71.9688C239.794 72.0938 239.43 72.1562 239.008 72.1562C238.471 72.1562 237.984 72.0495 237.547 71.8359C237.115 71.6172 236.771 71.3177 236.516 70.9375C236.266 70.5521 236.141 70.1146 236.141 69.625C236.141 69.1823 236.224 68.7891 236.391 68.4453C236.557 68.1016 236.802 67.8125 237.125 67.5781C237.453 67.3385 237.862 67.1589 238.352 67.0391C238.841 66.9141 239.409 66.8516 240.055 66.8516H241.359ZM249.203 63.5469V65.1406H244.281V63.5469H249.203ZM245.5 61.4609H247.75V69.4531C247.75 69.6979 247.781 69.8854 247.844 70.0156C247.911 70.1458 248.01 70.237 248.141 70.2891C248.271 70.3359 248.435 70.3594 248.633 70.3594C248.773 70.3594 248.898 70.3542 249.008 70.3438C249.122 70.3281 249.219 70.3125 249.297 70.2969L249.305 71.9531C249.112 72.0156 248.904 72.0651 248.68 72.1016C248.456 72.138 248.208 72.1562 247.938 72.1562C247.443 72.1562 247.01 72.0755 246.641 71.9141C246.276 71.7474 245.995 71.4818 245.797 71.1172C245.599 70.7526 245.5 70.2734 245.5 69.6797V61.4609ZM254.109 67.8594V67.6953C254.109 67.0755 254.198 66.5052 254.375 65.9844C254.552 65.4583 254.81 65.0026 255.148 64.6172C255.487 64.2318 255.904 63.9323 256.398 63.7188C256.893 63.5 257.461 63.3906 258.102 63.3906C258.742 63.3906 259.312 63.5 259.812 63.7188C260.312 63.9323 260.732 64.2318 261.07 64.6172C261.414 65.0026 261.674 65.4583 261.852 65.9844C262.029 66.5052 262.117 67.0755 262.117 67.6953V67.8594C262.117 68.474 262.029 69.0443 261.852 69.5703C261.674 70.0911 261.414 70.5469 261.07 70.9375C260.732 71.3229 260.315 71.6224 259.82 71.8359C259.326 72.0495 258.758 72.1562 258.117 72.1562C257.477 72.1562 256.906 72.0495 256.406 71.8359C255.911 71.6224 255.492 71.3229 255.148 70.9375C254.81 70.5469 254.552 70.0911 254.375 69.5703C254.198 69.0443 254.109 68.474 254.109 67.8594ZM256.359 67.6953V67.8594C256.359 68.2135 256.391 68.5443 256.453 68.8516C256.516 69.1589 256.615 69.4297 256.75 69.6641C256.891 69.8932 257.073 70.0729 257.297 70.2031C257.521 70.3333 257.794 70.3984 258.117 70.3984C258.43 70.3984 258.698 70.3333 258.922 70.2031C259.146 70.0729 259.326 69.8932 259.461 69.6641C259.596 69.4297 259.695 69.1589 259.758 68.8516C259.826 68.5443 259.859 68.2135 259.859 67.8594V67.6953C259.859 67.3516 259.826 67.0286 259.758 66.7266C259.695 66.4193 259.594 66.1484 259.453 65.9141C259.318 65.6745 259.138 65.487 258.914 65.3516C258.69 65.2161 258.419 65.1484 258.102 65.1484C257.784 65.1484 257.513 65.2161 257.289 65.3516C257.07 65.487 256.891 65.6745 256.75 65.9141C256.615 66.1484 256.516 66.4193 256.453 66.7266C256.391 67.0286 256.359 67.3516 256.359 67.6953ZM265.703 65.3516V72H263.453V63.5469H265.562L265.703 65.3516ZM265.375 67.4766H264.766C264.766 66.8516 264.846 66.2891 265.008 65.7891C265.169 65.2839 265.396 64.8542 265.688 64.5C265.979 64.1406 266.326 63.8672 266.727 63.6797C267.133 63.487 267.586 63.3906 268.086 63.3906C268.482 63.3906 268.844 63.4479 269.172 63.5625C269.5 63.6771 269.781 63.8594 270.016 64.1094C270.255 64.3594 270.438 64.6901 270.562 65.1016C270.693 65.513 270.758 66.0156 270.758 66.6094V72H268.492V66.6016C268.492 66.2266 268.44 65.9349 268.336 65.7266C268.232 65.5182 268.078 65.3724 267.875 65.2891C267.677 65.2005 267.432 65.1562 267.141 65.1562C266.839 65.1562 266.576 65.2161 266.352 65.3359C266.133 65.4557 265.951 65.6224 265.805 65.8359C265.664 66.0443 265.557 66.2891 265.484 66.5703C265.411 66.8516 265.375 67.1536 265.375 67.4766ZM275.961 70.3984C276.237 70.3984 276.482 70.3464 276.695 70.2422C276.909 70.1328 277.076 69.9818 277.195 69.7891C277.32 69.5911 277.385 69.3594 277.391 69.0938H279.508C279.503 69.6875 279.344 70.2161 279.031 70.6797C278.719 71.138 278.299 71.5 277.773 71.7656C277.247 72.026 276.659 72.1562 276.008 72.1562C275.352 72.1562 274.779 72.0469 274.289 71.8281C273.805 71.6094 273.401 71.3073 273.078 70.9219C272.755 70.5312 272.513 70.0781 272.352 69.5625C272.19 69.0417 272.109 68.4844 272.109 67.8906V67.6641C272.109 67.0651 272.19 66.5078 272.352 65.9922C272.513 65.4714 272.755 65.0182 273.078 64.6328C273.401 64.2422 273.805 63.9375 274.289 63.7188C274.773 63.5 275.341 63.3906 275.992 63.3906C276.685 63.3906 277.292 63.5234 277.812 63.7891C278.339 64.0547 278.75 64.4349 279.047 64.9297C279.349 65.4193 279.503 66 279.508 66.6719H277.391C277.385 66.3906 277.326 66.1354 277.211 65.9062C277.102 65.6771 276.94 65.4948 276.727 65.3594C276.518 65.2188 276.26 65.1484 275.953 65.1484C275.625 65.1484 275.357 65.2188 275.148 65.3594C274.94 65.4948 274.779 65.6823 274.664 65.9219C274.549 66.1562 274.469 66.4245 274.422 66.7266C274.38 67.0234 274.359 67.3359 274.359 67.6641V67.8906C274.359 68.2188 274.38 68.5339 274.422 68.8359C274.464 69.138 274.542 69.4062 274.656 69.6406C274.776 69.875 274.94 70.0599 275.148 70.1953C275.357 70.3307 275.628 70.3984 275.961 70.3984ZM284.703 72.1562C284.047 72.1562 283.458 72.0521 282.938 71.8438C282.417 71.6302 281.974 71.3359 281.609 70.9609C281.25 70.5859 280.974 70.151 280.781 69.6562C280.589 69.1562 280.492 68.625 280.492 68.0625V67.75C280.492 67.1094 280.583 66.5234 280.766 65.9922C280.948 65.4609 281.208 65 281.547 64.6094C281.891 64.2188 282.307 63.9193 282.797 63.7109C283.286 63.4974 283.839 63.3906 284.453 63.3906C285.052 63.3906 285.583 63.4896 286.047 63.6875C286.51 63.8854 286.898 64.1667 287.211 64.5312C287.529 64.8958 287.768 65.3333 287.93 65.8438C288.091 66.349 288.172 66.9115 288.172 67.5312V68.4688H281.453V66.9688H285.961V66.7969C285.961 66.4844 285.904 66.2057 285.789 65.9609C285.68 65.7109 285.513 65.513 285.289 65.3672C285.065 65.2214 284.779 65.1484 284.43 65.1484C284.133 65.1484 283.878 65.2135 283.664 65.3438C283.451 65.474 283.276 65.6562 283.141 65.8906C283.01 66.125 282.911 66.401 282.844 66.7188C282.781 67.0312 282.75 67.375 282.75 67.75V68.0625C282.75 68.401 282.797 68.7135 282.891 69C282.99 69.2865 283.128 69.5339 283.305 69.7422C283.487 69.9505 283.706 70.112 283.961 70.2266C284.221 70.3411 284.516 70.3984 284.844 70.3984C285.25 70.3984 285.628 70.3203 285.977 70.1641C286.331 70.0026 286.635 69.7604 286.891 69.4375L287.984 70.625C287.807 70.8802 287.565 71.125 287.258 71.3594C286.956 71.5938 286.591 71.7865 286.164 71.9375C285.737 72.0833 285.25 72.1562 284.703 72.1562Z" fill="black" fill-opacity="0.85"/>
<path d="M54.0859 118.336H55.2891C55.6745 118.336 55.9922 118.271 56.2422 118.141C56.4922 118.005 56.6771 117.818 56.7969 117.578C56.9219 117.333 56.9844 117.049 56.9844 116.727C56.9844 116.435 56.9271 116.177 56.8125 115.953C56.7031 115.724 56.5339 115.547 56.3047 115.422C56.0755 115.292 55.7865 115.227 55.4375 115.227C55.1615 115.227 54.9062 115.281 54.6719 115.391C54.4375 115.5 54.25 115.654 54.1094 115.852C53.9688 116.049 53.8984 116.289 53.8984 116.57H51.6406C51.6406 115.945 51.8073 115.401 52.1406 114.938C52.4792 114.474 52.9323 114.112 53.5 113.852C54.0677 113.591 54.6927 113.461 55.375 113.461C56.1458 113.461 56.8203 113.586 57.3984 113.836C57.9766 114.081 58.4271 114.443 58.75 114.922C59.0729 115.401 59.2344 115.995 59.2344 116.703C59.2344 117.062 59.151 117.411 58.9844 117.75C58.8177 118.083 58.5781 118.385 58.2656 118.656C57.9583 118.922 57.5833 119.135 57.1406 119.297C56.6979 119.453 56.2005 119.531 55.6484 119.531H54.0859V118.336ZM54.0859 120.047V118.883H55.6484C56.2682 118.883 56.8125 118.953 57.2812 119.094C57.75 119.234 58.1432 119.438 58.4609 119.703C58.7786 119.964 59.0182 120.273 59.1797 120.633C59.3411 120.987 59.4219 121.38 59.4219 121.812C59.4219 122.344 59.3203 122.818 59.1172 123.234C58.9141 123.646 58.6276 123.995 58.2578 124.281C57.8932 124.568 57.4661 124.786 56.9766 124.938C56.487 125.083 55.9531 125.156 55.375 125.156C54.8958 125.156 54.4245 125.091 53.9609 124.961C53.5026 124.826 53.0859 124.625 52.7109 124.359C52.3411 124.089 52.0443 123.75 51.8203 123.344C51.6016 122.932 51.4922 122.445 51.4922 121.883H53.75C53.75 122.174 53.8229 122.435 53.9688 122.664C54.1146 122.893 54.3151 123.073 54.5703 123.203C54.8307 123.333 55.1198 123.398 55.4375 123.398C55.7969 123.398 56.1042 123.333 56.3594 123.203C56.6198 123.068 56.8177 122.88 56.9531 122.641C57.0938 122.396 57.1641 122.112 57.1641 121.789C57.1641 121.372 57.0885 121.039 56.9375 120.789C56.7865 120.534 56.5703 120.346 56.2891 120.227C56.0078 120.107 55.6745 120.047 55.2891 120.047H54.0859ZM70.3984 116.547H72.4375V124.719C72.4375 125.49 72.2656 126.143 71.9219 126.68C71.5833 127.221 71.1094 127.63 70.5 127.906C69.8906 128.188 69.1823 128.328 68.375 128.328C68.0208 128.328 67.6458 128.281 67.25 128.188C66.8594 128.094 66.4844 127.948 66.125 127.75C65.7708 127.552 65.474 127.302 65.2344 127L66.2266 125.672C66.487 125.974 66.7891 126.208 67.1328 126.375C67.4766 126.547 67.8568 126.633 68.2734 126.633C68.6797 126.633 69.0234 126.557 69.3047 126.406C69.5859 126.26 69.8021 126.044 69.9531 125.758C70.1042 125.477 70.1797 125.135 70.1797 124.734V118.5L70.3984 116.547ZM64.7109 120.875V120.711C64.7109 120.065 64.7891 119.479 64.9453 118.953C65.1068 118.422 65.3333 117.966 65.625 117.586C65.9219 117.206 66.2812 116.911 66.7031 116.703C67.125 116.495 67.6016 116.391 68.1328 116.391C68.6953 116.391 69.1667 116.495 69.5469 116.703C69.9271 116.911 70.2396 117.208 70.4844 117.594C70.7292 117.974 70.9193 118.424 71.0547 118.945C71.1953 119.461 71.3047 120.026 71.3828 120.641V121C71.3047 121.589 71.1875 122.135 71.0312 122.641C70.875 123.146 70.6693 123.589 70.4141 123.969C70.1589 124.344 69.8411 124.635 69.4609 124.844C69.0859 125.052 68.638 125.156 68.1172 125.156C67.5964 125.156 67.125 125.049 66.7031 124.836C66.2865 124.622 65.9297 124.323 65.6328 123.938C65.3359 123.552 65.1068 123.099 64.9453 122.578C64.7891 122.057 64.7109 121.49 64.7109 120.875ZM66.9609 120.711V120.875C66.9609 121.224 66.9948 121.549 67.0625 121.852C67.1302 122.154 67.2344 122.422 67.375 122.656C67.5208 122.885 67.7005 123.065 67.9141 123.195C68.1328 123.32 68.3906 123.383 68.6875 123.383C69.099 123.383 69.4349 123.297 69.6953 123.125C69.9557 122.948 70.151 122.706 70.2812 122.398C70.4115 122.091 70.487 121.737 70.5078 121.336V120.312C70.4974 119.984 70.4531 119.69 70.375 119.43C70.2969 119.164 70.1875 118.938 70.0469 118.75C69.9062 118.562 69.724 118.417 69.5 118.312C69.276 118.208 69.0104 118.156 68.7031 118.156C68.4062 118.156 68.1484 118.224 67.9297 118.359C67.7161 118.49 67.5365 118.669 67.3906 118.898C67.25 119.128 67.1432 119.398 67.0703 119.711C66.9974 120.018 66.9609 120.352 66.9609 120.711ZM76.4375 118.391V125H74.1875V116.547H76.3047L76.4375 118.391ZM78.9844 116.492L78.9453 118.578C78.8359 118.562 78.7031 118.549 78.5469 118.539C78.3958 118.523 78.2578 118.516 78.1328 118.516C77.8151 118.516 77.5391 118.557 77.3047 118.641C77.0755 118.719 76.8828 118.836 76.7266 118.992C76.5755 119.148 76.4609 119.339 76.3828 119.562C76.3099 119.786 76.2682 120.042 76.2578 120.328L75.8047 120.188C75.8047 119.641 75.8594 119.138 75.9688 118.68C76.0781 118.216 76.237 117.812 76.4453 117.469C76.6589 117.125 76.9193 116.859 77.2266 116.672C77.5339 116.484 77.8854 116.391 78.2812 116.391C78.4062 116.391 78.5339 116.401 78.6641 116.422C78.7943 116.438 78.901 116.461 78.9844 116.492ZM84.3438 123.094V119.328C84.3438 119.057 84.2995 118.826 84.2109 118.633C84.1224 118.435 83.9844 118.281 83.7969 118.172C83.6146 118.062 83.3776 118.008 83.0859 118.008C82.8359 118.008 82.6198 118.052 82.4375 118.141C82.2552 118.224 82.1146 118.346 82.0156 118.508C81.9167 118.664 81.8672 118.849 81.8672 119.062H79.6172C79.6172 118.703 79.7005 118.362 79.8672 118.039C80.0339 117.716 80.276 117.432 80.5938 117.188C80.9115 116.938 81.2891 116.742 81.7266 116.602C82.1693 116.461 82.6641 116.391 83.2109 116.391C83.8672 116.391 84.4505 116.5 84.9609 116.719C85.4714 116.938 85.8724 117.266 86.1641 117.703C86.4609 118.141 86.6094 118.688 86.6094 119.344V122.961C86.6094 123.424 86.638 123.805 86.6953 124.102C86.7526 124.393 86.8359 124.648 86.9453 124.867V125H84.6719C84.5625 124.771 84.4792 124.484 84.4219 124.141C84.3698 123.792 84.3438 123.443 84.3438 123.094ZM84.6406 119.852L84.6562 121.125H83.3984C83.1016 121.125 82.8438 121.159 82.625 121.227C82.4062 121.294 82.2266 121.391 82.0859 121.516C81.9453 121.635 81.8411 121.776 81.7734 121.938C81.7109 122.099 81.6797 122.276 81.6797 122.469C81.6797 122.661 81.724 122.836 81.8125 122.992C81.901 123.143 82.0286 123.263 82.1953 123.352C82.362 123.435 82.5573 123.477 82.7812 123.477C83.1198 123.477 83.4141 123.409 83.6641 123.273C83.9141 123.138 84.1068 122.971 84.2422 122.773C84.3828 122.576 84.4557 122.388 84.4609 122.211L85.0547 123.164C84.9714 123.378 84.8568 123.599 84.7109 123.828C84.5703 124.057 84.3906 124.273 84.1719 124.477C83.9531 124.674 83.6901 124.839 83.3828 124.969C83.0755 125.094 82.7109 125.156 82.2891 125.156C81.7526 125.156 81.2656 125.049 80.8281 124.836C80.3958 124.617 80.0521 124.318 79.7969 123.938C79.5469 123.552 79.4219 123.115 79.4219 122.625C79.4219 122.182 79.5052 121.789 79.6719 121.445C79.8385 121.102 80.0833 120.812 80.4062 120.578C80.7344 120.339 81.1432 120.159 81.6328 120.039C82.1224 119.914 82.6901 119.852 83.3359 119.852H84.6406ZM90.5938 118.297V125H88.3359V116.547H90.4531L90.5938 118.297ZM90.2812 120.477H89.6562C89.6562 119.888 89.7266 119.346 89.8672 118.852C90.013 118.352 90.224 117.919 90.5 117.555C90.7812 117.185 91.1276 116.898 91.5391 116.695C91.9505 116.492 92.4271 116.391 92.9688 116.391C93.3438 116.391 93.6875 116.448 94 116.562C94.3125 116.672 94.5807 116.846 94.8047 117.086C95.0339 117.32 95.2109 117.628 95.3359 118.008C95.4609 118.383 95.5234 118.833 95.5234 119.359V125H93.2734V119.609C93.2734 119.224 93.2214 118.927 93.1172 118.719C93.013 118.51 92.8646 118.365 92.6719 118.281C92.4844 118.198 92.2578 118.156 91.9922 118.156C91.7005 118.156 91.4453 118.216 91.2266 118.336C91.013 118.456 90.8359 118.622 90.6953 118.836C90.5547 119.044 90.4505 119.289 90.3828 119.57C90.3151 119.852 90.2812 120.154 90.2812 120.477ZM95.3125 120.219L94.5078 120.32C94.5078 119.768 94.5755 119.255 94.7109 118.781C94.8516 118.307 95.0573 117.891 95.3281 117.531C95.6042 117.172 95.9453 116.893 96.3516 116.695C96.7578 116.492 97.2266 116.391 97.7578 116.391C98.1641 116.391 98.5339 116.451 98.8672 116.57C99.2005 116.685 99.4844 116.87 99.7188 117.125C99.9583 117.375 100.141 117.703 100.266 118.109C100.396 118.516 100.461 119.013 100.461 119.602V125H98.2031V119.602C98.2031 119.211 98.151 118.914 98.0469 118.711C97.9479 118.503 97.8021 118.359 97.6094 118.281C97.4219 118.198 97.1979 118.156 96.9375 118.156C96.6667 118.156 96.4297 118.211 96.2266 118.32C96.0234 118.424 95.8542 118.57 95.7188 118.758C95.5833 118.945 95.4818 119.164 95.4141 119.414C95.3464 119.659 95.3125 119.927 95.3125 120.219ZM106.773 122.664C106.773 122.503 106.727 122.357 106.633 122.227C106.539 122.096 106.365 121.977 106.109 121.867C105.859 121.753 105.497 121.648 105.023 121.555C104.596 121.461 104.198 121.344 103.828 121.203C103.464 121.057 103.146 120.883 102.875 120.68C102.609 120.477 102.401 120.237 102.25 119.961C102.099 119.68 102.023 119.359 102.023 119C102.023 118.646 102.099 118.312 102.25 118C102.406 117.688 102.628 117.411 102.914 117.172C103.206 116.927 103.56 116.737 103.977 116.602C104.398 116.461 104.872 116.391 105.398 116.391C106.133 116.391 106.763 116.508 107.289 116.742C107.82 116.977 108.227 117.299 108.508 117.711C108.794 118.117 108.938 118.581 108.938 119.102H106.688C106.688 118.883 106.641 118.688 106.547 118.516C106.458 118.339 106.318 118.201 106.125 118.102C105.938 117.997 105.693 117.945 105.391 117.945C105.141 117.945 104.924 117.99 104.742 118.078C104.56 118.161 104.419 118.276 104.32 118.422C104.227 118.562 104.18 118.719 104.18 118.891C104.18 119.021 104.206 119.138 104.258 119.242C104.315 119.341 104.406 119.432 104.531 119.516C104.656 119.599 104.818 119.677 105.016 119.75C105.219 119.818 105.469 119.88 105.766 119.938C106.375 120.062 106.919 120.227 107.398 120.43C107.878 120.628 108.258 120.898 108.539 121.242C108.82 121.581 108.961 122.026 108.961 122.578C108.961 122.953 108.878 123.297 108.711 123.609C108.544 123.922 108.305 124.195 107.992 124.43C107.68 124.659 107.305 124.839 106.867 124.969C106.435 125.094 105.948 125.156 105.406 125.156C104.62 125.156 103.953 125.016 103.406 124.734C102.865 124.453 102.453 124.096 102.172 123.664C101.896 123.227 101.758 122.779 101.758 122.32H103.891C103.901 122.628 103.979 122.875 104.125 123.062C104.276 123.25 104.466 123.385 104.695 123.469C104.93 123.552 105.182 123.594 105.453 123.594C105.745 123.594 105.987 123.555 106.18 123.477C106.372 123.393 106.518 123.284 106.617 123.148C106.721 123.008 106.773 122.846 106.773 122.664ZM114.047 120.859V120.695C114.047 120.076 114.135 119.505 114.312 118.984C114.49 118.458 114.747 118.003 115.086 117.617C115.424 117.232 115.841 116.932 116.336 116.719C116.831 116.5 117.398 116.391 118.039 116.391C118.68 116.391 119.25 116.5 119.75 116.719C120.25 116.932 120.669 117.232 121.008 117.617C121.352 118.003 121.612 118.458 121.789 118.984C121.966 119.505 122.055 120.076 122.055 120.695V120.859C122.055 121.474 121.966 122.044 121.789 122.57C121.612 123.091 121.352 123.547 121.008 123.938C120.669 124.323 120.253 124.622 119.758 124.836C119.263 125.049 118.695 125.156 118.055 125.156C117.414 125.156 116.844 125.049 116.344 124.836C115.849 124.622 115.43 124.323 115.086 123.938C114.747 123.547 114.49 123.091 114.312 122.57C114.135 122.044 114.047 121.474 114.047 120.859ZM116.297 120.695V120.859C116.297 121.214 116.328 121.544 116.391 121.852C116.453 122.159 116.552 122.43 116.688 122.664C116.828 122.893 117.01 123.073 117.234 123.203C117.458 123.333 117.732 123.398 118.055 123.398C118.367 123.398 118.635 123.333 118.859 123.203C119.083 123.073 119.263 122.893 119.398 122.664C119.534 122.43 119.633 122.159 119.695 121.852C119.763 121.544 119.797 121.214 119.797 120.859V120.695C119.797 120.352 119.763 120.029 119.695 119.727C119.633 119.419 119.531 119.148 119.391 118.914C119.255 118.674 119.076 118.487 118.852 118.352C118.628 118.216 118.357 118.148 118.039 118.148C117.721 118.148 117.451 118.216 117.227 118.352C117.008 118.487 116.828 118.674 116.688 118.914C116.552 119.148 116.453 119.419 116.391 119.727C116.328 120.029 116.297 120.352 116.297 120.695ZM126.305 125H124.039V115.797C124.039 115.156 124.164 114.617 124.414 114.18C124.669 113.737 125.026 113.404 125.484 113.18C125.948 112.951 126.497 112.836 127.133 112.836C127.341 112.836 127.542 112.852 127.734 112.883C127.927 112.909 128.115 112.943 128.297 112.984L128.273 114.68C128.174 114.654 128.07 114.635 127.961 114.625C127.852 114.615 127.724 114.609 127.578 114.609C127.307 114.609 127.076 114.656 126.883 114.75C126.695 114.839 126.552 114.971 126.453 115.148C126.354 115.326 126.305 115.542 126.305 115.797V125ZM127.992 116.547V118.141H122.781V116.547H127.992ZM135.406 118.297V125H133.148V116.547H135.266L135.406 118.297ZM135.094 120.477H134.469C134.469 119.888 134.539 119.346 134.68 118.852C134.826 118.352 135.036 117.919 135.312 117.555C135.594 117.185 135.94 116.898 136.352 116.695C136.763 116.492 137.24 116.391 137.781 116.391C138.156 116.391 138.5 116.448 138.812 116.562C139.125 116.672 139.393 116.846 139.617 117.086C139.846 117.32 140.023 117.628 140.148 118.008C140.273 118.383 140.336 118.833 140.336 119.359V125H138.086V119.609C138.086 119.224 138.034 118.927 137.93 118.719C137.826 118.51 137.677 118.365 137.484 118.281C137.297 118.198 137.07 118.156 136.805 118.156C136.513 118.156 136.258 118.216 136.039 118.336C135.826 118.456 135.648 118.622 135.508 118.836C135.367 119.044 135.263 119.289 135.195 119.57C135.128 119.852 135.094 120.154 135.094 120.477ZM140.125 120.219L139.32 120.32C139.32 119.768 139.388 119.255 139.523 118.781C139.664 118.307 139.87 117.891 140.141 117.531C140.417 117.172 140.758 116.893 141.164 116.695C141.57 116.492 142.039 116.391 142.57 116.391C142.977 116.391 143.346 116.451 143.68 116.57C144.013 116.685 144.297 116.87 144.531 117.125C144.771 117.375 144.953 117.703 145.078 118.109C145.208 118.516 145.273 119.013 145.273 119.602V125H143.016V119.602C143.016 119.211 142.964 118.914 142.859 118.711C142.76 118.503 142.615 118.359 142.422 118.281C142.234 118.198 142.01 118.156 141.75 118.156C141.479 118.156 141.242 118.211 141.039 118.32C140.836 118.424 140.667 118.57 140.531 118.758C140.396 118.945 140.294 119.164 140.227 119.414C140.159 119.659 140.125 119.927 140.125 120.219ZM151.578 123.094V119.328C151.578 119.057 151.534 118.826 151.445 118.633C151.357 118.435 151.219 118.281 151.031 118.172C150.849 118.062 150.612 118.008 150.32 118.008C150.07 118.008 149.854 118.052 149.672 118.141C149.49 118.224 149.349 118.346 149.25 118.508C149.151 118.664 149.102 118.849 149.102 119.062H146.852C146.852 118.703 146.935 118.362 147.102 118.039C147.268 117.716 147.51 117.432 147.828 117.188C148.146 116.938 148.523 116.742 148.961 116.602C149.404 116.461 149.898 116.391 150.445 116.391C151.102 116.391 151.685 116.5 152.195 116.719C152.706 116.938 153.107 117.266 153.398 117.703C153.695 118.141 153.844 118.688 153.844 119.344V122.961C153.844 123.424 153.872 123.805 153.93 124.102C153.987 124.393 154.07 124.648 154.18 124.867V125H151.906C151.797 124.771 151.714 124.484 151.656 124.141C151.604 123.792 151.578 123.443 151.578 123.094ZM151.875 119.852L151.891 121.125H150.633C150.336 121.125 150.078 121.159 149.859 121.227C149.641 121.294 149.461 121.391 149.32 121.516C149.18 121.635 149.076 121.776 149.008 121.938C148.945 122.099 148.914 122.276 148.914 122.469C148.914 122.661 148.958 122.836 149.047 122.992C149.135 123.143 149.263 123.263 149.43 123.352C149.596 123.435 149.792 123.477 150.016 123.477C150.354 123.477 150.648 123.409 150.898 123.273C151.148 123.138 151.341 122.971 151.477 122.773C151.617 122.576 151.69 122.388 151.695 122.211L152.289 123.164C152.206 123.378 152.091 123.599 151.945 123.828C151.805 124.057 151.625 124.273 151.406 124.477C151.188 124.674 150.924 124.839 150.617 124.969C150.31 125.094 149.945 125.156 149.523 125.156C148.987 125.156 148.5 125.049 148.062 124.836C147.63 124.617 147.286 124.318 147.031 123.938C146.781 123.552 146.656 123.115 146.656 122.625C146.656 122.182 146.74 121.789 146.906 121.445C147.073 121.102 147.318 120.812 147.641 120.578C147.969 120.339 148.378 120.159 148.867 120.039C149.357 119.914 149.924 119.852 150.57 119.852H151.875ZM159.719 116.547V118.141H154.797V116.547H159.719ZM156.016 114.461H158.266V122.453C158.266 122.698 158.297 122.885 158.359 123.016C158.427 123.146 158.526 123.237 158.656 123.289C158.786 123.336 158.951 123.359 159.148 123.359C159.289 123.359 159.414 123.354 159.523 123.344C159.638 123.328 159.734 123.312 159.812 123.297L159.82 124.953C159.628 125.016 159.419 125.065 159.195 125.102C158.971 125.138 158.724 125.156 158.453 125.156C157.958 125.156 157.526 125.076 157.156 124.914C156.792 124.747 156.51 124.482 156.312 124.117C156.115 123.753 156.016 123.273 156.016 122.68V114.461ZM164.891 125.156C164.234 125.156 163.646 125.052 163.125 124.844C162.604 124.63 162.161 124.336 161.797 123.961C161.438 123.586 161.161 123.151 160.969 122.656C160.776 122.156 160.68 121.625 160.68 121.062V120.75C160.68 120.109 160.771 119.523 160.953 118.992C161.135 118.461 161.396 118 161.734 117.609C162.078 117.219 162.495 116.919 162.984 116.711C163.474 116.497 164.026 116.391 164.641 116.391C165.24 116.391 165.771 116.49 166.234 116.688C166.698 116.885 167.086 117.167 167.398 117.531C167.716 117.896 167.956 118.333 168.117 118.844C168.279 119.349 168.359 119.911 168.359 120.531V121.469H161.641V119.969H166.148V119.797C166.148 119.484 166.091 119.206 165.977 118.961C165.867 118.711 165.701 118.513 165.477 118.367C165.253 118.221 164.966 118.148 164.617 118.148C164.32 118.148 164.065 118.214 163.852 118.344C163.638 118.474 163.464 118.656 163.328 118.891C163.198 119.125 163.099 119.401 163.031 119.719C162.969 120.031 162.938 120.375 162.938 120.75V121.062C162.938 121.401 162.984 121.714 163.078 122C163.177 122.286 163.315 122.534 163.492 122.742C163.674 122.951 163.893 123.112 164.148 123.227C164.409 123.341 164.703 123.398 165.031 123.398C165.438 123.398 165.815 123.32 166.164 123.164C166.518 123.003 166.823 122.76 167.078 122.438L168.172 123.625C167.995 123.88 167.753 124.125 167.445 124.359C167.143 124.594 166.779 124.786 166.352 124.938C165.924 125.083 165.438 125.156 164.891 125.156ZM171.891 118.391V125H169.641V116.547H171.758L171.891 118.391ZM174.438 116.492L174.398 118.578C174.289 118.562 174.156 118.549 174 118.539C173.849 118.523 173.711 118.516 173.586 118.516C173.268 118.516 172.992 118.557 172.758 118.641C172.529 118.719 172.336 118.836 172.18 118.992C172.029 119.148 171.914 119.339 171.836 119.562C171.763 119.786 171.721 120.042 171.711 120.328L171.258 120.188C171.258 119.641 171.312 119.138 171.422 118.68C171.531 118.216 171.69 117.812 171.898 117.469C172.112 117.125 172.372 116.859 172.68 116.672C172.987 116.484 173.339 116.391 173.734 116.391C173.859 116.391 173.987 116.401 174.117 116.422C174.247 116.438 174.354 116.461 174.438 116.492ZM177.875 116.547V125H175.617V116.547H177.875ZM175.477 114.344C175.477 114.016 175.591 113.745 175.82 113.531C176.049 113.318 176.357 113.211 176.742 113.211C177.122 113.211 177.427 113.318 177.656 113.531C177.891 113.745 178.008 114.016 178.008 114.344C178.008 114.672 177.891 114.943 177.656 115.156C177.427 115.37 177.122 115.477 176.742 115.477C176.357 115.477 176.049 115.37 175.82 115.156C175.591 114.943 175.477 114.672 175.477 114.344ZM184.297 123.094V119.328C184.297 119.057 184.253 118.826 184.164 118.633C184.076 118.435 183.938 118.281 183.75 118.172C183.568 118.062 183.331 118.008 183.039 118.008C182.789 118.008 182.573 118.052 182.391 118.141C182.208 118.224 182.068 118.346 181.969 118.508C181.87 118.664 181.82 118.849 181.82 119.062H179.57C179.57 118.703 179.654 118.362 179.82 118.039C179.987 117.716 180.229 117.432 180.547 117.188C180.865 116.938 181.242 116.742 181.68 116.602C182.122 116.461 182.617 116.391 183.164 116.391C183.82 116.391 184.404 116.5 184.914 116.719C185.424 116.938 185.826 117.266 186.117 117.703C186.414 118.141 186.562 118.688 186.562 119.344V122.961C186.562 123.424 186.591 123.805 186.648 124.102C186.706 124.393 186.789 124.648 186.898 124.867V125H184.625C184.516 124.771 184.432 124.484 184.375 124.141C184.323 123.792 184.297 123.443 184.297 123.094ZM184.594 119.852L184.609 121.125H183.352C183.055 121.125 182.797 121.159 182.578 121.227C182.359 121.294 182.18 121.391 182.039 121.516C181.898 121.635 181.794 121.776 181.727 121.938C181.664 122.099 181.633 122.276 181.633 122.469C181.633 122.661 181.677 122.836 181.766 122.992C181.854 123.143 181.982 123.263 182.148 123.352C182.315 123.435 182.51 123.477 182.734 123.477C183.073 123.477 183.367 123.409 183.617 123.273C183.867 123.138 184.06 122.971 184.195 122.773C184.336 122.576 184.409 122.388 184.414 122.211L185.008 123.164C184.924 123.378 184.81 123.599 184.664 123.828C184.523 124.057 184.344 124.273 184.125 124.477C183.906 124.674 183.643 124.839 183.336 124.969C183.029 125.094 182.664 125.156 182.242 125.156C181.706 125.156 181.219 125.049 180.781 124.836C180.349 124.617 180.005 124.318 179.75 123.938C179.5 123.552 179.375 123.115 179.375 122.625C179.375 122.182 179.458 121.789 179.625 121.445C179.792 121.102 180.036 120.812 180.359 120.578C180.688 120.339 181.096 120.159 181.586 120.039C182.076 119.914 182.643 119.852 183.289 119.852H184.594ZM190.672 113V125H188.414V113H190.672ZM197.102 122.664C197.102 122.503 197.055 122.357 196.961 122.227C196.867 122.096 196.693 121.977 196.438 121.867C196.188 121.753 195.826 121.648 195.352 121.555C194.924 121.461 194.526 121.344 194.156 121.203C193.792 121.057 193.474 120.883 193.203 120.68C192.938 120.477 192.729 120.237 192.578 119.961C192.427 119.68 192.352 119.359 192.352 119C192.352 118.646 192.427 118.312 192.578 118C192.734 117.688 192.956 117.411 193.242 117.172C193.534 116.927 193.888 116.737 194.305 116.602C194.727 116.461 195.201 116.391 195.727 116.391C196.461 116.391 197.091 116.508 197.617 116.742C198.148 116.977 198.555 117.299 198.836 117.711C199.122 118.117 199.266 118.581 199.266 119.102H197.016C197.016 118.883 196.969 118.688 196.875 118.516C196.786 118.339 196.646 118.201 196.453 118.102C196.266 117.997 196.021 117.945 195.719 117.945C195.469 117.945 195.253 117.99 195.07 118.078C194.888 118.161 194.747 118.276 194.648 118.422C194.555 118.562 194.508 118.719 194.508 118.891C194.508 119.021 194.534 119.138 194.586 119.242C194.643 119.341 194.734 119.432 194.859 119.516C194.984 119.599 195.146 119.677 195.344 119.75C195.547 119.818 195.797 119.88 196.094 119.938C196.703 120.062 197.247 120.227 197.727 120.43C198.206 120.628 198.586 120.898 198.867 121.242C199.148 121.581 199.289 122.026 199.289 122.578C199.289 122.953 199.206 123.297 199.039 123.609C198.872 123.922 198.633 124.195 198.32 124.43C198.008 124.659 197.633 124.839 197.195 124.969C196.763 125.094 196.276 125.156 195.734 125.156C194.948 125.156 194.281 125.016 193.734 124.734C193.193 124.453 192.781 124.096 192.5 123.664C192.224 123.227 192.086 122.779 192.086 122.32H194.219C194.229 122.628 194.307 122.875 194.453 123.062C194.604 123.25 194.794 123.385 195.023 123.469C195.258 123.552 195.51 123.594 195.781 123.594C196.073 123.594 196.315 123.555 196.508 123.477C196.701 123.393 196.846 123.284 196.945 123.148C197.049 123.008 197.102 122.846 197.102 122.664ZM209.734 122.977V116.547H211.984V125H209.867L209.734 122.977ZM209.984 121.242L210.648 121.227C210.648 121.789 210.583 122.312 210.453 122.797C210.323 123.276 210.128 123.693 209.867 124.047C209.607 124.396 209.279 124.669 208.883 124.867C208.487 125.06 208.021 125.156 207.484 125.156C207.073 125.156 206.693 125.099 206.344 124.984C206 124.865 205.703 124.68 205.453 124.43C205.208 124.174 205.016 123.849 204.875 123.453C204.74 123.052 204.672 122.57 204.672 122.008V116.547H206.922V122.023C206.922 122.273 206.951 122.484 207.008 122.656C207.07 122.828 207.156 122.969 207.266 123.078C207.375 123.188 207.503 123.266 207.648 123.312C207.799 123.359 207.966 123.383 208.148 123.383C208.612 123.383 208.977 123.289 209.242 123.102C209.513 122.914 209.703 122.659 209.812 122.336C209.927 122.008 209.984 121.643 209.984 121.242ZM218.273 122.664C218.273 122.503 218.227 122.357 218.133 122.227C218.039 122.096 217.865 121.977 217.609 121.867C217.359 121.753 216.997 121.648 216.523 121.555C216.096 121.461 215.698 121.344 215.328 121.203C214.964 121.057 214.646 120.883 214.375 120.68C214.109 120.477 213.901 120.237 213.75 119.961C213.599 119.68 213.523 119.359 213.523 119C213.523 118.646 213.599 118.312 213.75 118C213.906 117.688 214.128 117.411 214.414 117.172C214.706 116.927 215.06 116.737 215.477 116.602C215.898 116.461 216.372 116.391 216.898 116.391C217.633 116.391 218.263 116.508 218.789 116.742C219.32 116.977 219.727 117.299 220.008 117.711C220.294 118.117 220.438 118.581 220.438 119.102H218.188C218.188 118.883 218.141 118.688 218.047 118.516C217.958 118.339 217.818 118.201 217.625 118.102C217.438 117.997 217.193 117.945 216.891 117.945C216.641 117.945 216.424 117.99 216.242 118.078C216.06 118.161 215.919 118.276 215.82 118.422C215.727 118.562 215.68 118.719 215.68 118.891C215.68 119.021 215.706 119.138 215.758 119.242C215.815 119.341 215.906 119.432 216.031 119.516C216.156 119.599 216.318 119.677 216.516 119.75C216.719 119.818 216.969 119.88 217.266 119.938C217.875 120.062 218.419 120.227 218.898 120.43C219.378 120.628 219.758 120.898 220.039 121.242C220.32 121.581 220.461 122.026 220.461 122.578C220.461 122.953 220.378 123.297 220.211 123.609C220.044 123.922 219.805 124.195 219.492 124.43C219.18 124.659 218.805 124.839 218.367 124.969C217.935 125.094 217.448 125.156 216.906 125.156C216.12 125.156 215.453 125.016 214.906 124.734C214.365 124.453 213.953 124.096 213.672 123.664C213.396 123.227 213.258 122.779 213.258 122.32H215.391C215.401 122.628 215.479 122.875 215.625 123.062C215.776 123.25 215.966 123.385 216.195 123.469C216.43 123.552 216.682 123.594 216.953 123.594C217.245 123.594 217.487 123.555 217.68 123.477C217.872 123.393 218.018 123.284 218.117 123.148C218.221 123.008 218.273 122.846 218.273 122.664ZM225.812 125.156C225.156 125.156 224.568 125.052 224.047 124.844C223.526 124.63 223.083 124.336 222.719 123.961C222.359 123.586 222.083 123.151 221.891 122.656C221.698 122.156 221.602 121.625 221.602 121.062V120.75C221.602 120.109 221.693 119.523 221.875 118.992C222.057 118.461 222.318 118 222.656 117.609C223 117.219 223.417 116.919 223.906 116.711C224.396 116.497 224.948 116.391 225.562 116.391C226.161 116.391 226.693 116.49 227.156 116.688C227.62 116.885 228.008 117.167 228.32 117.531C228.638 117.896 228.878 118.333 229.039 118.844C229.201 119.349 229.281 119.911 229.281 120.531V121.469H222.562V119.969H227.07V119.797C227.07 119.484 227.013 119.206 226.898 118.961C226.789 118.711 226.622 118.513 226.398 118.367C226.174 118.221 225.888 118.148 225.539 118.148C225.242 118.148 224.987 118.214 224.773 118.344C224.56 118.474 224.385 118.656 224.25 118.891C224.12 119.125 224.021 119.401 223.953 119.719C223.891 120.031 223.859 120.375 223.859 120.75V121.062C223.859 121.401 223.906 121.714 224 122C224.099 122.286 224.237 122.534 224.414 122.742C224.596 122.951 224.815 123.112 225.07 123.227C225.331 123.341 225.625 123.398 225.953 123.398C226.359 123.398 226.737 123.32 227.086 123.164C227.44 123.003 227.745 122.76 228 122.438L229.094 123.625C228.917 123.88 228.674 124.125 228.367 124.359C228.065 124.594 227.701 124.786 227.273 124.938C226.846 125.083 226.359 125.156 225.812 125.156ZM235.555 123.156V113H237.82V125H235.781L235.555 123.156ZM230.211 120.875V120.711C230.211 120.065 230.284 119.479 230.43 118.953C230.576 118.422 230.789 117.966 231.07 117.586C231.352 117.206 231.698 116.911 232.109 116.703C232.521 116.495 232.99 116.391 233.516 116.391C234.01 116.391 234.443 116.495 234.812 116.703C235.188 116.911 235.505 117.208 235.766 117.594C236.031 117.974 236.245 118.424 236.406 118.945C236.568 119.461 236.685 120.026 236.758 120.641V121C236.685 121.589 236.568 122.135 236.406 122.641C236.245 123.146 236.031 123.589 235.766 123.969C235.505 124.344 235.188 124.635 234.812 124.844C234.438 125.052 234 125.156 233.5 125.156C232.974 125.156 232.505 125.049 232.094 124.836C231.688 124.622 231.344 124.323 231.062 123.938C230.786 123.552 230.576 123.099 230.43 122.578C230.284 122.057 230.211 121.49 230.211 120.875ZM232.461 120.711V120.875C232.461 121.224 232.487 121.549 232.539 121.852C232.596 122.154 232.688 122.422 232.812 122.656C232.943 122.885 233.109 123.065 233.312 123.195C233.521 123.32 233.773 123.383 234.07 123.383C234.456 123.383 234.773 123.297 235.023 123.125C235.273 122.948 235.464 122.706 235.594 122.398C235.729 122.091 235.807 121.737 235.828 121.336V120.312C235.812 119.984 235.766 119.69 235.688 119.43C235.615 119.164 235.505 118.938 235.359 118.75C235.219 118.562 235.042 118.417 234.828 118.312C234.62 118.208 234.372 118.156 234.086 118.156C233.794 118.156 233.544 118.224 233.336 118.359C233.128 118.49 232.958 118.669 232.828 118.898C232.703 119.128 232.609 119.398 232.547 119.711C232.49 120.018 232.461 120.352 232.461 120.711ZM245.812 118.172V128.25H243.562V116.547H245.648L245.812 118.172ZM251.164 120.68V120.844C251.164 121.458 251.091 122.029 250.945 122.555C250.805 123.081 250.596 123.539 250.32 123.93C250.044 124.315 249.701 124.617 249.289 124.836C248.883 125.049 248.414 125.156 247.883 125.156C247.367 125.156 246.919 125.052 246.539 124.844C246.159 124.635 245.839 124.344 245.578 123.969C245.323 123.589 245.117 123.148 244.961 122.648C244.805 122.148 244.685 121.612 244.602 121.039V120.609C244.685 119.995 244.805 119.432 244.961 118.922C245.117 118.406 245.323 117.961 245.578 117.586C245.839 117.206 246.156 116.911 246.531 116.703C246.911 116.495 247.357 116.391 247.867 116.391C248.404 116.391 248.875 116.492 249.281 116.695C249.693 116.898 250.036 117.19 250.312 117.57C250.594 117.951 250.805 118.404 250.945 118.93C251.091 119.456 251.164 120.039 251.164 120.68ZM248.906 120.844V120.68C248.906 120.32 248.875 119.99 248.812 119.688C248.755 119.38 248.661 119.112 248.531 118.883C248.406 118.654 248.24 118.477 248.031 118.352C247.828 118.221 247.581 118.156 247.289 118.156C246.982 118.156 246.719 118.206 246.5 118.305C246.286 118.404 246.112 118.547 245.977 118.734C245.841 118.922 245.74 119.146 245.672 119.406C245.604 119.667 245.562 119.961 245.547 120.289V121.375C245.573 121.76 245.646 122.107 245.766 122.414C245.885 122.716 246.07 122.956 246.32 123.133C246.57 123.31 246.898 123.398 247.305 123.398C247.602 123.398 247.852 123.333 248.055 123.203C248.258 123.068 248.422 122.883 248.547 122.648C248.677 122.414 248.768 122.143 248.82 121.836C248.878 121.529 248.906 121.198 248.906 120.844ZM256.453 125.156C255.797 125.156 255.208 125.052 254.688 124.844C254.167 124.63 253.724 124.336 253.359 123.961C253 123.586 252.724 123.151 252.531 122.656C252.339 122.156 252.242 121.625 252.242 121.062V120.75C252.242 120.109 252.333 119.523 252.516 118.992C252.698 118.461 252.958 118 253.297 117.609C253.641 117.219 254.057 116.919 254.547 116.711C255.036 116.497 255.589 116.391 256.203 116.391C256.802 116.391 257.333 116.49 257.797 116.688C258.26 116.885 258.648 117.167 258.961 117.531C259.279 117.896 259.518 118.333 259.68 118.844C259.841 119.349 259.922 119.911 259.922 120.531V121.469H253.203V119.969H257.711V119.797C257.711 119.484 257.654 119.206 257.539 118.961C257.43 118.711 257.263 118.513 257.039 118.367C256.815 118.221 256.529 118.148 256.18 118.148C255.883 118.148 255.628 118.214 255.414 118.344C255.201 118.474 255.026 118.656 254.891 118.891C254.76 119.125 254.661 119.401 254.594 119.719C254.531 120.031 254.5 120.375 254.5 120.75V121.062C254.5 121.401 254.547 121.714 254.641 122C254.74 122.286 254.878 122.534 255.055 122.742C255.237 122.951 255.456 123.112 255.711 123.227C255.971 123.341 256.266 123.398 256.594 123.398C257 123.398 257.378 123.32 257.727 123.164C258.081 123.003 258.385 122.76 258.641 122.438L259.734 123.625C259.557 123.88 259.315 124.125 259.008 124.359C258.706 124.594 258.341 124.786 257.914 124.938C257.487 125.083 257 125.156 256.453 125.156ZM263.453 118.391V125H261.203V116.547H263.32L263.453 118.391ZM266 116.492L265.961 118.578C265.852 118.562 265.719 118.549 265.562 118.539C265.411 118.523 265.273 118.516 265.148 118.516C264.831 118.516 264.555 118.557 264.32 118.641C264.091 118.719 263.898 118.836 263.742 118.992C263.591 119.148 263.477 119.339 263.398 119.562C263.326 119.786 263.284 120.042 263.273 120.328L262.82 120.188C262.82 119.641 262.875 119.138 262.984 118.68C263.094 118.216 263.253 117.812 263.461 117.469C263.674 117.125 263.935 116.859 264.242 116.672C264.549 116.484 264.901 116.391 265.297 116.391C265.422 116.391 265.549 116.401 265.68 116.422C265.81 116.438 265.917 116.461 266 116.492ZM273.297 118.172V128.25H271.047V116.547H273.133L273.297 118.172ZM278.648 120.68V120.844C278.648 121.458 278.576 122.029 278.43 122.555C278.289 123.081 278.081 123.539 277.805 123.93C277.529 124.315 277.185 124.617 276.773 124.836C276.367 125.049 275.898 125.156 275.367 125.156C274.852 125.156 274.404 125.052 274.023 124.844C273.643 124.635 273.323 124.344 273.062 123.969C272.807 123.589 272.602 123.148 272.445 122.648C272.289 122.148 272.169 121.612 272.086 121.039V120.609C272.169 119.995 272.289 119.432 272.445 118.922C272.602 118.406 272.807 117.961 273.062 117.586C273.323 117.206 273.641 116.911 274.016 116.703C274.396 116.495 274.841 116.391 275.352 116.391C275.888 116.391 276.359 116.492 276.766 116.695C277.177 116.898 277.521 117.19 277.797 117.57C278.078 117.951 278.289 118.404 278.43 118.93C278.576 119.456 278.648 120.039 278.648 120.68ZM276.391 120.844V120.68C276.391 120.32 276.359 119.99 276.297 119.688C276.24 119.38 276.146 119.112 276.016 118.883C275.891 118.654 275.724 118.477 275.516 118.352C275.312 118.221 275.065 118.156 274.773 118.156C274.466 118.156 274.203 118.206 273.984 118.305C273.771 118.404 273.596 118.547 273.461 118.734C273.326 118.922 273.224 119.146 273.156 119.406C273.089 119.667 273.047 119.961 273.031 120.289V121.375C273.057 121.76 273.13 122.107 273.25 122.414C273.37 122.716 273.555 122.956 273.805 123.133C274.055 123.31 274.383 123.398 274.789 123.398C275.086 123.398 275.336 123.333 275.539 123.203C275.742 123.068 275.906 122.883 276.031 122.648C276.161 122.414 276.253 122.143 276.305 121.836C276.362 121.529 276.391 121.198 276.391 120.844ZM282.297 118.391V125H280.047V116.547H282.164L282.297 118.391ZM284.844 116.492L284.805 118.578C284.695 118.562 284.562 118.549 284.406 118.539C284.255 118.523 284.117 118.516 283.992 118.516C283.674 118.516 283.398 118.557 283.164 118.641C282.935 118.719 282.742 118.836 282.586 118.992C282.435 119.148 282.32 119.339 282.242 119.562C282.169 119.786 282.128 120.042 282.117 120.328L281.664 120.188C281.664 119.641 281.719 119.138 281.828 118.68C281.938 118.216 282.096 117.812 282.305 117.469C282.518 117.125 282.779 116.859 283.086 116.672C283.393 116.484 283.745 116.391 284.141 116.391C284.266 116.391 284.393 116.401 284.523 116.422C284.654 116.438 284.76 116.461 284.844 116.492ZM288.281 116.547V125H286.023V116.547H288.281ZM285.883 114.344C285.883 114.016 285.997 113.745 286.227 113.531C286.456 113.318 286.763 113.211 287.148 113.211C287.529 113.211 287.833 113.318 288.062 113.531C288.297 113.745 288.414 114.016 288.414 114.344C288.414 114.672 288.297 114.943 288.062 115.156C287.833 115.37 287.529 115.477 287.148 115.477C286.763 115.477 286.456 115.37 286.227 115.156C285.997 114.943 285.883 114.672 285.883 114.344ZM292.344 118.352V125H290.094V116.547H292.203L292.344 118.352ZM292.016 120.477H291.406C291.406 119.852 291.487 119.289 291.648 118.789C291.81 118.284 292.036 117.854 292.328 117.5C292.62 117.141 292.966 116.867 293.367 116.68C293.773 116.487 294.227 116.391 294.727 116.391C295.122 116.391 295.484 116.448 295.812 116.562C296.141 116.677 296.422 116.859 296.656 117.109C296.896 117.359 297.078 117.69 297.203 118.102C297.333 118.513 297.398 119.016 297.398 119.609V125H295.133V119.602C295.133 119.227 295.081 118.935 294.977 118.727C294.872 118.518 294.719 118.372 294.516 118.289C294.318 118.201 294.073 118.156 293.781 118.156C293.479 118.156 293.216 118.216 292.992 118.336C292.773 118.456 292.591 118.622 292.445 118.836C292.305 119.044 292.198 119.289 292.125 119.57C292.052 119.852 292.016 120.154 292.016 120.477ZM303.25 116.547V118.141H298.328V116.547H303.25ZM299.547 114.461H301.797V122.453C301.797 122.698 301.828 122.885 301.891 123.016C301.958 123.146 302.057 123.237 302.188 123.289C302.318 123.336 302.482 123.359 302.68 123.359C302.82 123.359 302.945 123.354 303.055 123.344C303.169 123.328 303.266 123.312 303.344 123.297L303.352 124.953C303.159 125.016 302.951 125.065 302.727 125.102C302.503 125.138 302.255 125.156 301.984 125.156C301.49 125.156 301.057 125.076 300.688 124.914C300.323 124.747 300.042 124.482 299.844 124.117C299.646 123.753 299.547 123.273 299.547 122.68V114.461Z" fill="black" fill-opacity="0.85"/>
<path d="M19 0C9.05982 0 1 8.05982 1 18C1 27.9402 9.05982 36 19 36C28.9402 36 37 27.9402 37 18C37 8.05982 28.9402 0 19 0ZM19 32.9464C10.7473 32.9464 4.05357 26.2527 4.05357 18C4.05357 9.74732 10.7473 3.05357 19 3.05357C27.2527 3.05357 33.9464 9.74732 33.9464 18C33.9464 26.2527 27.2527 32.9464 19 32.9464Z" fill="#F3762B"/>
<path d="M26.0195 23.0828L20.29 18.9404V8.99623C20.29 8.81945 20.1454 8.6748 19.9686 8.6748H18.036C17.8592 8.6748 17.7146 8.81945 17.7146 8.99623V20.0614C17.7146 20.1659 17.7628 20.2623 17.8472 20.3226L24.4927 25.1681C24.6374 25.2726 24.8383 25.2404 24.9427 25.0998L26.0918 23.5328C26.1963 23.3842 26.1642 23.1833 26.0195 23.0828Z" fill="#F3762B"/>
<g clip-path="url(#clip0_24_178826)">
<path d="M34.5855 71.5743L31.9538 69.3243C32.0784 68.5609 32.1427 67.7815 32.1427 67.002C32.1427 66.2225 32.0784 65.4431 31.9538 64.6797L34.5855 62.4297C34.784 62.2598 34.9261 62.0334 34.9928 61.7808C35.0596 61.5282 35.0478 61.2612 34.9592 61.0154L34.923 60.9109C34.1985 58.886 33.1136 57.0089 31.7208 55.3703L31.6485 55.2859C31.4795 55.0873 31.2543 54.9444 31.0026 54.8763C30.7508 54.8082 30.4843 54.8179 30.2382 54.9042L26.9717 56.0654C25.7663 55.077 24.4203 54.2975 22.9659 53.7511L22.3351 50.3359C22.2875 50.079 22.1628 49.8426 21.9777 49.6581C21.7925 49.4737 21.5556 49.3499 21.2985 49.3033L21.19 49.2833C19.0967 48.9056 16.8949 48.9056 14.8016 49.2833L14.6931 49.3033C14.436 49.3499 14.1991 49.4737 14.0139 49.6581C13.8288 49.8426 13.7041 50.079 13.6565 50.3359L13.0217 53.7672C11.5788 54.3137 10.2352 55.0928 9.04401 56.0734L5.75338 54.9042C5.50735 54.8172 5.24067 54.8071 4.98877 54.8753C4.73686 54.9435 4.51167 55.0867 4.34312 55.2859L4.2708 55.3703C2.8796 57.0101 1.79489 58.8869 1.06856 60.9109L1.0324 61.0154C0.851598 61.5176 1.00026 62.0801 1.40606 62.4297L4.0699 64.7038C3.94535 65.4592 3.88508 66.2306 3.88508 66.998C3.88508 67.7694 3.94535 68.5408 4.0699 69.2922L1.40606 71.5663C1.20756 71.7362 1.06549 71.9626 0.998748 72.2152C0.932002 72.4678 0.94374 72.7348 1.0324 72.9806L1.06856 73.085C1.79579 75.11 2.87258 76.9783 4.2708 78.6257L4.34312 78.71C4.51208 78.9087 4.73728 79.0515 4.98904 79.1197C5.24079 79.1878 5.50728 79.1781 5.75338 79.0917L9.04401 77.9225C10.2413 78.9069 11.5793 79.6864 13.0217 80.2288L13.6565 83.66C13.7041 83.917 13.8288 84.1534 14.0139 84.3379C14.1991 84.5223 14.436 84.646 14.6931 84.6926L14.8016 84.7127C16.9141 85.0924 19.0775 85.0924 21.19 84.7127L21.2985 84.6926C21.5556 84.646 21.7925 84.5223 21.9777 84.3379C22.1628 84.1534 22.2875 83.917 22.3351 83.66L22.9659 80.2449C24.4198 79.6999 25.7733 78.9179 26.9717 77.9306L30.2382 79.0917C30.4842 79.1788 30.7509 79.1888 31.0028 79.1207C31.2547 79.0525 31.4799 78.9093 31.6485 78.71L31.7208 78.6257C33.119 76.9743 34.1958 75.11 34.923 73.085L34.9592 72.9806C35.14 72.4864 34.9913 71.9239 34.5855 71.5743ZM29.1012 65.1538C29.2016 65.7605 29.2538 66.3833 29.2538 67.006C29.2538 67.6288 29.2016 68.2516 29.1012 68.8583L28.836 70.4694L31.8373 73.0368C31.3823 74.085 30.808 75.0773 30.1257 75.994L26.3971 74.6721L25.1355 75.7087C24.1753 76.4962 23.1065 77.115 21.9494 77.5489L20.4186 78.1234L19.6994 82.0208C18.5646 82.1493 17.4189 82.1493 16.2842 82.0208L15.565 78.1154L14.0462 77.5328C12.9012 77.0989 11.8364 76.4801 10.8842 75.6967L9.62258 74.656L5.8699 75.99C5.18687 75.0699 4.61633 74.0775 4.15829 73.0328L7.19178 70.4413L6.93062 68.8342C6.83419 68.2355 6.78196 67.6167 6.78196 67.006C6.78196 66.3913 6.83017 65.7766 6.93062 65.1779L7.19178 63.5708L4.15829 60.9792C4.61231 59.9306 5.18687 58.9422 5.8699 58.0221L9.62258 59.356L10.8842 58.3154C11.8364 57.5319 12.9012 56.9132 14.0462 56.4792L15.569 55.9047L16.2882 51.9993C17.4172 51.8708 18.5703 51.8708 19.7034 51.9993L20.4226 55.8967L21.9534 56.4712C23.1065 56.9051 24.1793 57.5239 25.1395 58.3114L26.4011 59.348L30.1297 58.0261C30.8128 58.9462 31.3833 59.9386 31.8413 60.9833L28.84 63.5507L29.1012 65.1538ZM17.9998 59.5328C14.0945 59.5328 10.9284 62.6989 10.9284 66.6042C10.9284 70.5096 14.0945 73.6757 17.9998 73.6757C21.9052 73.6757 25.0712 70.5096 25.0712 66.6042C25.0712 62.6989 21.9052 59.5328 17.9998 59.5328ZM21.182 69.7864C20.7646 70.205 20.2686 70.5369 19.7225 70.763C19.1764 70.9892 18.5909 71.1052 17.9998 71.1042C16.7985 71.1042 15.6695 70.6342 14.8177 69.7864C14.3991 69.369 14.0672 68.873 13.841 68.3269C13.6149 67.7808 13.4989 67.1953 13.4998 66.6042C13.4998 65.4029 13.9699 64.2739 14.8177 63.4221C15.6695 62.5703 16.7985 62.1042 17.9998 62.1042C19.2012 62.1042 20.3302 62.5703 21.182 63.4221C21.6005 63.8395 21.9324 64.3355 22.1586 64.8816C22.3848 65.4277 22.5007 66.0131 22.4998 66.6042C22.4998 67.8056 22.0297 68.9346 21.182 69.7864Z" fill="#F3762B"/>
</g>
<path d="M9 117.607H22.7411C22.7571 117.607 22.7772 117.607 22.7933 117.603C22.9701 117.575 23.0866 117.41 23.0585 117.233L21.4433 107.269C21.4192 107.112 21.2826 107 21.1259 107H10.6152C10.4585 107 10.3219 107.112 10.2978 107.269L8.68259 117.233C8.67857 117.25 8.67857 117.27 8.67857 117.286C8.67857 117.463 8.82321 117.607 9 117.607ZM12.6643 109.732H19.0728L19.9045 114.875H11.8286L12.6643 109.732ZM12.7647 121.091C12.7406 120.934 12.604 120.821 12.4473 120.821H1.93661C1.77991 120.821 1.6433 120.934 1.6192 121.091L0.0040178 131.055C-6.13675e-08 131.071 0 131.091 0 131.107C0 131.284 0.144643 131.429 0.321429 131.429H14.0625C14.0786 131.429 14.0987 131.429 14.1147 131.425C14.2915 131.396 14.408 131.232 14.3799 131.055L12.7647 121.091ZM3.15402 128.696L3.98571 123.554H10.3942L11.2259 128.696H3.15402ZM31.6567 131.055L30.0415 121.091C30.0174 120.934 29.8808 120.821 29.7241 120.821H19.2134C19.0567 120.821 18.9201 120.934 18.896 121.091L17.2808 131.055C17.2768 131.071 17.2768 131.091 17.2768 131.107C17.2768 131.284 17.4214 131.429 17.5982 131.429H31.3393C31.3554 131.429 31.3754 131.429 31.3915 131.425C31.5643 131.396 31.6848 131.232 31.6567 131.055ZM20.4308 128.696L21.2625 123.554H27.671L28.5027 128.696H20.4308Z" fill="#F3762B"/>
<defs>
<clipPath id="clip0_24_178826">
<rect width="36" height="36" fill="white" transform="translate(0 49)"/>
</clipPath>
</defs>
</svg>
