<svg width="194" height="474" viewBox="0 0 194 474" fill="none" xmlns="http://www.w3.org/2000/svg">
<path d="M4.74414 52.502H2.20801L2.19434 51.251H4.40918C4.78288 51.251 5.09961 51.1963 5.35938 51.0869C5.6237 50.973 5.82422 50.8112 5.96094 50.6016C6.09766 50.3874 6.16602 50.1299 6.16602 49.8291C6.16602 49.4964 6.10221 49.2253 5.97461 49.0156C5.84701 48.806 5.65104 48.6533 5.38672 48.5576C5.12695 48.4619 4.79427 48.4141 4.38867 48.4141H2.72754V57H1.01172V47.0469H4.38867C4.93555 47.0469 5.42318 47.0993 5.85156 47.2041C6.28451 47.3089 6.65137 47.473 6.95215 47.6963C7.25749 47.915 7.48763 48.193 7.64258 48.5303C7.80208 48.8675 7.88184 49.2686 7.88184 49.7334C7.88184 50.1436 7.78385 50.5195 7.58789 50.8613C7.39193 51.1986 7.10254 51.4743 6.71973 51.6885C6.33691 51.9027 5.86068 52.0303 5.29102 52.0713L4.74414 52.502ZM4.66895 57H1.66797L2.44043 55.6396H4.66895C5.05632 55.6396 5.37988 55.5758 5.63965 55.4482C5.89941 55.3161 6.0931 55.1361 6.2207 54.9082C6.35286 54.6758 6.41895 54.4046 6.41895 54.0947C6.41895 53.7712 6.36198 53.4909 6.24805 53.2539C6.13411 53.0124 5.9541 52.8278 5.70801 52.7002C5.46191 52.568 5.14062 52.502 4.74414 52.502H2.81641L2.83008 51.251H5.33887L5.72852 51.7227C6.27539 51.7409 6.72428 51.8617 7.0752 52.085C7.43066 52.3083 7.69499 52.5977 7.86816 52.9531C8.04134 53.3086 8.12793 53.6914 8.12793 54.1016C8.12793 54.735 7.98893 55.266 7.71094 55.6943C7.4375 56.1227 7.04329 56.4486 6.52832 56.6719C6.01335 56.8906 5.39355 57 4.66895 57ZM14.1436 55.2568V49.6035H15.7979V57H14.2393L14.1436 55.2568ZM14.376 53.7188L14.9297 53.7051C14.9297 54.2018 14.875 54.6598 14.7656 55.0791C14.6562 55.4938 14.4876 55.8561 14.2598 56.166C14.0319 56.4714 13.7402 56.7106 13.3848 56.8838C13.0293 57.0524 12.6032 57.1367 12.1064 57.1367C11.7464 57.1367 11.416 57.0843 11.1152 56.9795C10.8145 56.8747 10.5547 56.7129 10.3359 56.4941C10.1217 56.2754 9.9554 55.9906 9.83691 55.6396C9.71842 55.2887 9.65918 54.8695 9.65918 54.3818V49.6035H11.3066V54.3955C11.3066 54.6644 11.3385 54.89 11.4023 55.0723C11.4661 55.25 11.5527 55.3936 11.6621 55.5029C11.7715 55.6123 11.8991 55.6898 12.0449 55.7354C12.1908 55.7809 12.3457 55.8037 12.5098 55.8037C12.9792 55.8037 13.3483 55.7126 13.6172 55.5303C13.8906 55.3434 14.0843 55.0928 14.1982 54.7783C14.3167 54.4639 14.376 54.1107 14.376 53.7188ZM19.6328 56.1934L21.6426 49.6035H23.4062L20.4395 58.1279C20.3711 58.3102 20.2822 58.5085 20.1729 58.7227C20.0635 58.9368 19.9199 59.1396 19.7422 59.3311C19.569 59.527 19.3525 59.6842 19.0928 59.8027C18.833 59.9258 18.5186 59.9873 18.1494 59.9873C18.0036 59.9873 17.8623 59.9736 17.7256 59.9463C17.5934 59.9235 17.4681 59.8984 17.3496 59.8711L17.3428 58.6133C17.3883 58.6178 17.443 58.6224 17.5068 58.627C17.5752 58.6315 17.6299 58.6338 17.6709 58.6338C17.9443 58.6338 18.1722 58.5996 18.3545 58.5312C18.5368 58.4674 18.6849 58.3626 18.7988 58.2168C18.9173 58.071 19.0176 57.875 19.0996 57.6289L19.6328 56.1934ZM18.498 49.6035L20.2549 55.1406L20.5488 56.877L19.4072 57.1709L16.7207 49.6035H18.498ZM35.8955 47.0469V57H34.1797L29.7158 49.8701V57H28V47.0469H29.7158L34.1934 54.1904V47.0469H35.8955ZM41.0361 57.1367C40.4893 57.1367 39.9948 57.0479 39.5527 56.8701C39.1152 56.6878 38.7415 56.4349 38.4316 56.1113C38.1263 55.7878 37.8916 55.4072 37.7275 54.9697C37.5635 54.5322 37.4814 54.0605 37.4814 53.5547V53.2812C37.4814 52.7025 37.5658 52.1784 37.7344 51.709C37.903 51.2396 38.1377 50.8385 38.4385 50.5059C38.7393 50.1686 39.0947 49.9111 39.5049 49.7334C39.915 49.5557 40.3594 49.4668 40.8379 49.4668C41.3665 49.4668 41.8291 49.5557 42.2256 49.7334C42.6221 49.9111 42.9502 50.1618 43.21 50.4854C43.4743 50.8044 43.6702 51.1849 43.7979 51.627C43.93 52.069 43.9961 52.5566 43.9961 53.0898V53.7939H38.2812V52.6113H42.3691V52.4814C42.36 52.1852 42.3008 51.9072 42.1914 51.6475C42.0866 51.3877 41.9248 51.1781 41.7061 51.0186C41.4873 50.859 41.1956 50.7793 40.8311 50.7793C40.5576 50.7793 40.3138 50.8385 40.0996 50.957C39.89 51.071 39.7145 51.2373 39.5732 51.4561C39.432 51.6748 39.3226 51.9391 39.2451 52.249C39.1722 52.5544 39.1357 52.8984 39.1357 53.2812V53.5547C39.1357 53.8783 39.179 54.179 39.2656 54.457C39.3568 54.7305 39.4889 54.9697 39.6621 55.1748C39.8353 55.3799 40.0449 55.5417 40.291 55.6602C40.5371 55.7741 40.8174 55.8311 41.1318 55.8311C41.5283 55.8311 41.8815 55.7513 42.1914 55.5918C42.5013 55.4323 42.7702 55.2067 42.998 54.915L43.8662 55.7559C43.7067 55.9883 43.4993 56.2116 43.2441 56.4258C42.9889 56.6354 42.6768 56.8063 42.3076 56.9385C41.943 57.0706 41.5192 57.1367 41.0361 57.1367ZM47.291 55.3594L49 49.6035H50.0527L49.7656 51.3262L48.043 57H47.0996L47.291 55.3594ZM46.2861 49.6035L47.6191 55.3867L47.7285 57H46.6758L44.6729 49.6035H46.2861ZM51.6523 55.3184L52.9443 49.6035H54.5508L52.5547 57H51.502L51.6523 55.3184ZM50.2305 49.6035L51.9189 55.291L52.1309 57H51.1875L49.4443 51.3193L49.1572 49.6035H50.2305ZM60.0195 47.0469H61.5508L64.4287 54.7236L67.2998 47.0469H68.8311L65.0303 57H63.8135L60.0195 47.0469ZM59.3223 47.0469H60.7783L61.0312 53.6914V57H59.3223V47.0469ZM68.0723 47.0469H69.5352V57H67.8193V53.6914L68.0723 47.0469ZM75.5781 55.5166V51.9893C75.5781 51.7249 75.5303 51.4971 75.4346 51.3057C75.3389 51.1143 75.193 50.9661 74.9971 50.8613C74.8057 50.7565 74.5641 50.7041 74.2725 50.7041C74.0036 50.7041 73.7712 50.7497 73.5752 50.8408C73.3792 50.932 73.2266 51.055 73.1172 51.21C73.0078 51.3649 72.9531 51.5404 72.9531 51.7363H71.3125C71.3125 51.4447 71.3831 51.1621 71.5244 50.8887C71.6657 50.6152 71.8708 50.3714 72.1396 50.1572C72.4085 49.943 72.7298 49.7744 73.1035 49.6514C73.4772 49.5283 73.8965 49.4668 74.3613 49.4668C74.9173 49.4668 75.4095 49.5602 75.8379 49.7471C76.2708 49.9339 76.6104 50.2165 76.8564 50.5947C77.1071 50.9684 77.2324 51.4378 77.2324 52.0029V55.291C77.2324 55.6283 77.2552 55.9313 77.3008 56.2002C77.3509 56.4645 77.4215 56.6947 77.5127 56.8906V57H75.8242C75.7467 56.8223 75.6852 56.5967 75.6396 56.3232C75.5986 56.0452 75.5781 55.7764 75.5781 55.5166ZM75.8174 52.502L75.8311 53.5205H74.6484C74.3431 53.5205 74.0742 53.5501 73.8418 53.6094C73.6094 53.6641 73.4157 53.7461 73.2607 53.8555C73.1058 53.9648 72.9896 54.097 72.9121 54.252C72.8346 54.4069 72.7959 54.5824 72.7959 54.7783C72.7959 54.9743 72.8415 55.1543 72.9326 55.3184C73.0238 55.4779 73.1559 55.6032 73.3291 55.6943C73.5068 55.7855 73.721 55.8311 73.9717 55.8311C74.3089 55.8311 74.6029 55.7627 74.8535 55.626C75.1087 55.4847 75.3092 55.3138 75.4551 55.1133C75.6009 54.9082 75.6784 54.7145 75.6875 54.5322L76.2207 55.2637C76.166 55.4505 76.0726 55.651 75.9404 55.8652C75.8083 56.0794 75.6351 56.2845 75.4209 56.4805C75.2113 56.6719 74.9583 56.8291 74.6621 56.9521C74.3704 57.0752 74.0332 57.1367 73.6504 57.1367C73.1673 57.1367 72.7367 57.041 72.3584 56.8496C71.9801 56.6536 71.6839 56.3916 71.4697 56.0635C71.2555 55.7308 71.1484 55.3548 71.1484 54.9355C71.1484 54.5436 71.2214 54.1973 71.3672 53.8965C71.5176 53.5911 71.7363 53.3359 72.0234 53.1309C72.3151 52.9258 72.6706 52.7708 73.0898 52.666C73.5091 52.5566 73.9876 52.502 74.5254 52.502H75.8174ZM82.3457 49.6035V50.8066H78.1758V49.6035H82.3457ZM79.3789 47.792H81.0264V54.9561C81.0264 55.1839 81.0583 55.3594 81.1221 55.4824C81.1904 55.6009 81.2839 55.6807 81.4023 55.7217C81.5208 55.7627 81.6598 55.7832 81.8193 55.7832C81.9333 55.7832 82.0426 55.7764 82.1475 55.7627C82.2523 55.749 82.3366 55.7354 82.4004 55.7217L82.4072 56.9795C82.2705 57.0205 82.111 57.057 81.9287 57.0889C81.751 57.1208 81.5459 57.1367 81.3135 57.1367C80.9352 57.1367 80.6003 57.0706 80.3086 56.9385C80.0169 56.8018 79.7891 56.5807 79.625 56.2754C79.4609 55.9701 79.3789 55.5645 79.3789 55.0586V47.792ZM86.8779 57.1367C86.3311 57.1367 85.8366 57.0479 85.3945 56.8701C84.957 56.6878 84.5833 56.4349 84.2734 56.1113C83.9681 55.7878 83.7334 55.4072 83.5693 54.9697C83.4053 54.5322 83.3232 54.0605 83.3232 53.5547V53.2812C83.3232 52.7025 83.4076 52.1784 83.5762 51.709C83.7448 51.2396 83.9795 50.8385 84.2803 50.5059C84.5811 50.1686 84.9365 49.9111 85.3467 49.7334C85.7568 49.5557 86.2012 49.4668 86.6797 49.4668C87.2083 49.4668 87.6709 49.5557 88.0674 49.7334C88.4639 49.9111 88.792 50.1618 89.0518 50.4854C89.3161 50.8044 89.512 51.1849 89.6396 51.627C89.7718 52.069 89.8379 52.5566 89.8379 53.0898V53.7939H84.123V52.6113H88.2109V52.4814C88.2018 52.1852 88.1426 51.9072 88.0332 51.6475C87.9284 51.3877 87.7666 51.1781 87.5479 51.0186C87.3291 50.859 87.0374 50.7793 86.6729 50.7793C86.3994 50.7793 86.1556 50.8385 85.9414 50.957C85.7318 51.071 85.5563 51.2373 85.415 51.4561C85.2738 51.6748 85.1644 51.9391 85.0869 52.249C85.014 52.5544 84.9775 52.8984 84.9775 53.2812V53.5547C84.9775 53.8783 85.0208 54.179 85.1074 54.457C85.1986 54.7305 85.3307 54.9697 85.5039 55.1748C85.6771 55.3799 85.8867 55.5417 86.1328 55.6602C86.3789 55.7741 86.6592 55.8311 86.9736 55.8311C87.3701 55.8311 87.7233 55.7513 88.0332 55.5918C88.3431 55.4323 88.612 55.2067 88.8398 54.915L89.708 55.7559C89.5485 55.9883 89.3411 56.2116 89.0859 56.4258C88.8307 56.6354 88.5186 56.8063 88.1494 56.9385C87.7848 57.0706 87.361 57.1367 86.8779 57.1367ZM92.7773 51.0117V57H91.1299V49.6035H92.7021L92.7773 51.0117ZM95.04 49.5557L95.0264 51.0869C94.9261 51.0687 94.8167 51.055 94.6982 51.0459C94.5843 51.0368 94.4704 51.0322 94.3564 51.0322C94.0739 51.0322 93.8255 51.0732 93.6113 51.1553C93.3971 51.2327 93.2171 51.3467 93.0713 51.4971C92.93 51.6429 92.8206 51.8206 92.7432 52.0303C92.6657 52.2399 92.6201 52.4746 92.6064 52.7344L92.2305 52.7617C92.2305 52.2969 92.276 51.8662 92.3672 51.4697C92.4583 51.0732 92.5951 50.7246 92.7773 50.4238C92.9642 50.123 93.1966 49.8883 93.4746 49.7197C93.7572 49.5511 94.083 49.4668 94.4521 49.4668C94.5524 49.4668 94.6595 49.4759 94.7734 49.4941C94.8919 49.5124 94.9808 49.5329 95.04 49.5557ZM97.8359 49.6035V57H96.1816V49.6035H97.8359ZM96.0723 47.6621C96.0723 47.4115 96.1543 47.2041 96.3184 47.04C96.487 46.8714 96.7194 46.7871 97.0156 46.7871C97.3073 46.7871 97.5374 46.8714 97.7061 47.04C97.8747 47.2041 97.959 47.4115 97.959 47.6621C97.959 47.9082 97.8747 48.1133 97.7061 48.2773C97.5374 48.4414 97.3073 48.5234 97.0156 48.5234C96.7194 48.5234 96.487 48.4414 96.3184 48.2773C96.1543 48.1133 96.0723 47.9082 96.0723 47.6621ZM103.811 55.5166V51.9893C103.811 51.7249 103.763 51.4971 103.667 51.3057C103.571 51.1143 103.425 50.9661 103.229 50.8613C103.038 50.7565 102.797 50.7041 102.505 50.7041C102.236 50.7041 102.004 50.7497 101.808 50.8408C101.612 50.932 101.459 51.055 101.35 51.21C101.24 51.3649 101.186 51.5404 101.186 51.7363H99.5449C99.5449 51.4447 99.6156 51.1621 99.7568 50.8887C99.8981 50.6152 100.103 50.3714 100.372 50.1572C100.641 49.943 100.962 49.7744 101.336 49.6514C101.71 49.5283 102.129 49.4668 102.594 49.4668C103.15 49.4668 103.642 49.5602 104.07 49.7471C104.503 49.9339 104.843 50.2165 105.089 50.5947C105.34 50.9684 105.465 51.4378 105.465 52.0029V55.291C105.465 55.6283 105.488 55.9313 105.533 56.2002C105.583 56.4645 105.654 56.6947 105.745 56.8906V57H104.057C103.979 56.8223 103.918 56.5967 103.872 56.3232C103.831 56.0452 103.811 55.7764 103.811 55.5166ZM104.05 52.502L104.063 53.5205H102.881C102.576 53.5205 102.307 53.5501 102.074 53.6094C101.842 53.6641 101.648 53.7461 101.493 53.8555C101.338 53.9648 101.222 54.097 101.145 54.252C101.067 54.4069 101.028 54.5824 101.028 54.7783C101.028 54.9743 101.074 55.1543 101.165 55.3184C101.256 55.4779 101.388 55.6032 101.562 55.6943C101.739 55.7855 101.953 55.8311 102.204 55.8311C102.541 55.8311 102.835 55.7627 103.086 55.626C103.341 55.4847 103.542 55.3138 103.688 55.1133C103.833 54.9082 103.911 54.7145 103.92 54.5322L104.453 55.2637C104.398 55.4505 104.305 55.651 104.173 55.8652C104.041 56.0794 103.868 56.2845 103.653 56.4805C103.444 56.6719 103.191 56.8291 102.895 56.9521C102.603 57.0752 102.266 57.1367 101.883 57.1367C101.4 57.1367 100.969 57.041 100.591 56.8496C100.213 56.6536 99.9163 56.3916 99.7021 56.0635C99.488 55.7308 99.3809 55.3548 99.3809 54.9355C99.3809 54.5436 99.4538 54.1973 99.5996 53.8965C99.75 53.5911 99.9688 53.3359 100.256 53.1309C100.548 52.9258 100.903 52.7708 101.322 52.666C101.742 52.5566 102.22 52.502 102.758 52.502H104.05ZM108.951 46.5V57H107.297V46.5H108.951Z" fill="black" fill-opacity="0.85"/>
<circle cx="50" cy="18" r="16.75" stroke="black" stroke-opacity="0.85" stroke-width="2.5"/>
<path d="M73 35.75C73.6904 35.75 74.25 35.1904 74.25 34.5C74.25 33.8096 73.6904 33.25 73 33.25V35.75ZM50 35.75H73V33.25H50V35.75Z" fill="black" fill-opacity="0.85"/>
<circle cx="50" cy="18" r="3.75" stroke="black" stroke-opacity="0.85" stroke-width="2.5"/>
<path d="M58.7285 80.8105C75.812 118.749 79.9074 150.447 79.8197 161.553" stroke="black" stroke-width="2"/>
<path d="M87.3993 154.195L79.7259 162.403L73.2848 154.371" stroke="black" stroke-width="2" stroke-linecap="round"/>
<path d="M64.207 229.047H67.7275C68.484 229.047 69.1289 229.161 69.6621 229.389C70.1953 229.617 70.6032 229.954 70.8857 230.4C71.1729 230.842 71.3164 231.389 71.3164 232.041C71.3164 232.538 71.2253 232.975 71.043 233.354C70.8607 233.732 70.6032 234.051 70.2705 234.311C69.9378 234.566 69.5413 234.764 69.0811 234.905L68.5615 235.158H65.3965L65.3828 233.798H67.7549C68.165 233.798 68.5068 233.725 68.7803 233.579C69.0537 233.433 69.2588 233.235 69.3955 232.984C69.5368 232.729 69.6074 232.442 69.6074 232.123C69.6074 231.777 69.5391 231.476 69.4023 231.221C69.2702 230.961 69.0651 230.763 68.7871 230.626C68.5091 230.485 68.1559 230.414 67.7275 230.414H65.9229V239H64.207V229.047ZM69.8877 239L67.5498 234.529L69.3477 234.522L71.7197 238.911V239H69.8877ZM77.3115 237.257V231.604H78.9658V239H77.4072L77.3115 237.257ZM77.5439 235.719L78.0977 235.705C78.0977 236.202 78.043 236.66 77.9336 237.079C77.8242 237.494 77.6556 237.856 77.4277 238.166C77.1999 238.471 76.9082 238.711 76.5527 238.884C76.1973 239.052 75.7712 239.137 75.2744 239.137C74.9144 239.137 74.584 239.084 74.2832 238.979C73.9824 238.875 73.7227 238.713 73.5039 238.494C73.2897 238.275 73.1234 237.991 73.0049 237.64C72.8864 237.289 72.8271 236.869 72.8271 236.382V231.604H74.4746V236.396C74.4746 236.664 74.5065 236.89 74.5703 237.072C74.6341 237.25 74.7207 237.394 74.8301 237.503C74.9395 237.612 75.0671 237.69 75.2129 237.735C75.3587 237.781 75.5137 237.804 75.6777 237.804C76.1471 237.804 76.5163 237.713 76.7852 237.53C77.0586 237.343 77.2523 237.093 77.3662 236.778C77.4847 236.464 77.5439 236.111 77.5439 235.719ZM82.2881 233.183V239H80.6406V231.604H82.1924L82.2881 233.183ZM81.9941 235.028L81.4609 235.021C81.4655 234.497 81.5384 234.017 81.6797 233.579C81.8255 233.142 82.026 232.766 82.2812 232.451C82.541 232.137 82.8509 231.895 83.2109 231.727C83.571 231.553 83.972 231.467 84.4141 231.467C84.7695 231.467 85.0908 231.517 85.3779 231.617C85.6696 231.713 85.918 231.87 86.123 232.089C86.3327 232.308 86.4922 232.592 86.6016 232.943C86.7109 233.29 86.7656 233.716 86.7656 234.222V239H85.1113V234.215C85.1113 233.859 85.0589 233.579 84.9541 233.374C84.8538 233.164 84.7057 233.016 84.5098 232.93C84.3184 232.839 84.0791 232.793 83.792 232.793C83.5094 232.793 83.2565 232.852 83.0332 232.971C82.8099 233.089 82.6208 233.251 82.4658 233.456C82.3154 233.661 82.1992 233.898 82.1172 234.167C82.0352 234.436 81.9941 234.723 81.9941 235.028ZM92.5967 236.997C92.5967 236.833 92.5557 236.685 92.4736 236.553C92.3916 236.416 92.2344 236.293 92.002 236.184C91.7741 236.074 91.4368 235.974 90.9902 235.883C90.5983 235.796 90.2383 235.694 89.9102 235.575C89.5866 235.452 89.3086 235.304 89.0762 235.131C88.8438 234.958 88.6637 234.753 88.5361 234.516C88.4085 234.279 88.3447 234.005 88.3447 233.695C88.3447 233.395 88.4108 233.11 88.543 232.841C88.6751 232.572 88.8643 232.335 89.1104 232.13C89.3564 231.925 89.6549 231.763 90.0059 231.645C90.3613 231.526 90.7578 231.467 91.1953 231.467C91.8151 231.467 92.346 231.572 92.7881 231.781C93.2347 231.986 93.5765 232.267 93.8135 232.622C94.0505 232.973 94.1689 233.369 94.1689 233.812H92.5215C92.5215 233.616 92.4714 233.433 92.3711 233.265C92.2754 233.091 92.1296 232.952 91.9336 232.848C91.7376 232.738 91.4915 232.684 91.1953 232.684C90.9128 232.684 90.6781 232.729 90.4912 232.82C90.3089 232.907 90.1722 233.021 90.0811 233.162C89.9945 233.303 89.9512 233.458 89.9512 233.627C89.9512 233.75 89.974 233.862 90.0195 233.962C90.0697 234.058 90.1517 234.146 90.2656 234.229C90.3796 234.306 90.5345 234.379 90.7305 234.447C90.931 234.516 91.1816 234.582 91.4824 234.646C92.0475 234.764 92.5329 234.917 92.9385 235.104C93.3486 235.286 93.6631 235.523 93.8818 235.814C94.1006 236.102 94.21 236.466 94.21 236.908C94.21 237.236 94.1393 237.537 93.998 237.811C93.8613 238.079 93.6608 238.314 93.3965 238.515C93.1322 238.711 92.8154 238.863 92.4463 238.973C92.0817 239.082 91.6715 239.137 91.2158 239.137C90.5459 239.137 89.9785 239.018 89.5137 238.781C89.0488 238.54 88.6956 238.232 88.4541 237.858C88.2171 237.48 88.0986 237.088 88.0986 236.683H89.6914C89.7096 236.988 89.7939 237.232 89.9443 237.414C90.0993 237.592 90.2907 237.722 90.5186 237.804C90.751 237.881 90.9902 237.92 91.2363 237.92C91.5326 237.92 91.7809 237.881 91.9814 237.804C92.182 237.722 92.3346 237.612 92.4395 237.476C92.5443 237.334 92.5967 237.175 92.5967 236.997ZM51.9297 257.76H53.6387C53.584 258.411 53.4017 258.993 53.0918 259.503C52.7819 260.009 52.3467 260.408 51.7861 260.699C51.2256 260.991 50.5443 261.137 49.7422 261.137C49.127 261.137 48.5732 261.027 48.0811 260.809C47.5889 260.585 47.1673 260.271 46.8164 259.865C46.4655 259.455 46.1966 258.961 46.0098 258.382C45.8275 257.803 45.7363 257.156 45.7363 256.44V255.613C45.7363 254.898 45.8298 254.251 46.0166 253.672C46.208 253.093 46.4814 252.599 46.8369 252.188C47.1924 251.774 47.6185 251.457 48.1152 251.238C48.6165 251.02 49.1794 250.91 49.8037 250.91C50.5967 250.91 51.2666 251.056 51.8135 251.348C52.3604 251.639 52.7842 252.043 53.085 252.558C53.3903 253.073 53.5771 253.663 53.6455 254.328H51.9365C51.891 253.9 51.7907 253.533 51.6357 253.228C51.4854 252.922 51.262 252.69 50.9658 252.53C50.6696 252.366 50.2822 252.284 49.8037 252.284C49.4118 252.284 49.07 252.357 48.7783 252.503C48.4867 252.649 48.2428 252.863 48.0469 253.146C47.8509 253.428 47.7028 253.777 47.6025 254.191C47.5068 254.602 47.459 255.071 47.459 255.6V256.44C47.459 256.942 47.5023 257.397 47.5889 257.808C47.68 258.213 47.8167 258.562 47.999 258.854C48.1859 259.145 48.4229 259.371 48.71 259.53C48.9971 259.69 49.3411 259.77 49.7422 259.77C50.2298 259.77 50.624 259.692 50.9248 259.537C51.2301 259.382 51.4603 259.157 51.6152 258.86C51.7747 258.56 51.8796 258.193 51.9297 257.76ZM59.2031 259.517V255.989C59.2031 255.725 59.1553 255.497 59.0596 255.306C58.9639 255.114 58.818 254.966 58.6221 254.861C58.4307 254.757 58.1891 254.704 57.8975 254.704C57.6286 254.704 57.3962 254.75 57.2002 254.841C57.0042 254.932 56.8516 255.055 56.7422 255.21C56.6328 255.365 56.5781 255.54 56.5781 255.736H54.9375C54.9375 255.445 55.0081 255.162 55.1494 254.889C55.2907 254.615 55.4958 254.371 55.7646 254.157C56.0335 253.943 56.3548 253.774 56.7285 253.651C57.1022 253.528 57.5215 253.467 57.9863 253.467C58.5423 253.467 59.0345 253.56 59.4629 253.747C59.8958 253.934 60.2354 254.216 60.4814 254.595C60.7321 254.968 60.8574 255.438 60.8574 256.003V259.291C60.8574 259.628 60.8802 259.931 60.9258 260.2C60.9759 260.465 61.0465 260.695 61.1377 260.891V261H59.4492C59.3717 260.822 59.3102 260.597 59.2646 260.323C59.2236 260.045 59.2031 259.776 59.2031 259.517ZM59.4424 256.502L59.4561 257.521H58.2734C57.9681 257.521 57.6992 257.55 57.4668 257.609C57.2344 257.664 57.0407 257.746 56.8857 257.855C56.7308 257.965 56.6146 258.097 56.5371 258.252C56.4596 258.407 56.4209 258.582 56.4209 258.778C56.4209 258.974 56.4665 259.154 56.5576 259.318C56.6488 259.478 56.7809 259.603 56.9541 259.694C57.1318 259.785 57.346 259.831 57.5967 259.831C57.9339 259.831 58.2279 259.763 58.4785 259.626C58.7337 259.485 58.9342 259.314 59.0801 259.113C59.2259 258.908 59.3034 258.715 59.3125 258.532L59.8457 259.264C59.791 259.451 59.6976 259.651 59.5654 259.865C59.4333 260.079 59.2601 260.285 59.0459 260.48C58.8363 260.672 58.5833 260.829 58.2871 260.952C57.9954 261.075 57.6582 261.137 57.2754 261.137C56.7923 261.137 56.3617 261.041 55.9834 260.85C55.6051 260.654 55.3089 260.392 55.0947 260.063C54.8805 259.731 54.7734 259.355 54.7734 258.936C54.7734 258.544 54.8464 258.197 54.9922 257.896C55.1426 257.591 55.3613 257.336 55.6484 257.131C55.9401 256.926 56.2956 256.771 56.7148 256.666C57.1341 256.557 57.6126 256.502 58.1504 256.502H59.4424ZM64.3438 250.5V261H62.6895V250.5H64.3438ZM67.9121 253.604V261H66.2578V253.604H67.9121ZM66.1484 251.662C66.1484 251.411 66.2305 251.204 66.3945 251.04C66.5632 250.871 66.7956 250.787 67.0918 250.787C67.3835 250.787 67.6136 250.871 67.7822 251.04C67.9508 251.204 68.0352 251.411 68.0352 251.662C68.0352 251.908 67.9508 252.113 67.7822 252.277C67.6136 252.441 67.3835 252.523 67.0918 252.523C66.7956 252.523 66.5632 252.441 66.3945 252.277C66.2305 252.113 66.1484 251.908 66.1484 251.662ZM69.7236 250.5H71.3711V259.421L71.2139 261H69.7236V250.5ZM76.1973 257.233V257.377C76.1973 257.924 76.1357 258.427 76.0127 258.888C75.8942 259.343 75.7119 259.74 75.4658 260.077C75.2243 260.414 74.9235 260.676 74.5635 260.863C74.208 261.046 73.7956 261.137 73.3262 261.137C72.8659 261.137 72.4648 261.05 72.123 260.877C71.7812 260.704 71.4941 260.458 71.2617 260.139C71.0339 259.82 70.8493 259.439 70.708 258.997C70.5667 258.555 70.4665 258.067 70.4072 257.534V257.076C70.4665 256.538 70.5667 256.051 70.708 255.613C70.8493 255.171 71.0339 254.791 71.2617 254.472C71.4941 254.148 71.779 253.9 72.1162 253.727C72.458 253.553 72.8568 253.467 73.3125 253.467C73.7865 253.467 74.2035 253.558 74.5635 253.74C74.9281 253.923 75.2311 254.182 75.4727 254.52C75.7142 254.852 75.8942 255.249 76.0127 255.709C76.1357 256.169 76.1973 256.677 76.1973 257.233ZM74.5498 257.377V257.233C74.5498 256.901 74.5225 256.589 74.4678 256.297C74.4131 256.001 74.3219 255.741 74.1943 255.518C74.0713 255.294 73.9027 255.119 73.6885 254.991C73.4788 254.859 73.2168 254.793 72.9023 254.793C72.6107 254.793 72.36 254.843 72.1504 254.943C71.9408 255.044 71.7653 255.18 71.624 255.354C71.4827 255.527 71.3711 255.727 71.2891 255.955C71.2116 256.183 71.1592 256.429 71.1318 256.693V257.931C71.1729 258.272 71.2594 258.587 71.3916 258.874C71.5283 259.157 71.7197 259.384 71.9658 259.558C72.2119 259.726 72.5286 259.811 72.916 259.811C73.2214 259.811 73.4788 259.749 73.6885 259.626C73.8981 259.503 74.0645 259.332 74.1875 259.113C74.3151 258.89 74.4062 258.63 74.4609 258.334C74.5202 258.038 74.5498 257.719 74.5498 257.377ZM79.2461 255.012V261H77.5986V253.604H79.1709L79.2461 255.012ZM81.5088 253.556L81.4951 255.087C81.3949 255.069 81.2855 255.055 81.167 255.046C81.0531 255.037 80.9391 255.032 80.8252 255.032C80.5426 255.032 80.2943 255.073 80.0801 255.155C79.8659 255.233 79.6859 255.347 79.54 255.497C79.3988 255.643 79.2894 255.821 79.2119 256.03C79.1344 256.24 79.0889 256.475 79.0752 256.734L78.6992 256.762C78.6992 256.297 78.7448 255.866 78.8359 255.47C78.9271 255.073 79.0638 254.725 79.2461 254.424C79.4329 254.123 79.6654 253.888 79.9434 253.72C80.2259 253.551 80.5518 253.467 80.9209 253.467C81.0212 253.467 81.1283 253.476 81.2422 253.494C81.3607 253.512 81.4495 253.533 81.5088 253.556ZM86.4648 259.517V255.989C86.4648 255.725 86.417 255.497 86.3213 255.306C86.2256 255.114 86.0798 254.966 85.8838 254.861C85.6924 254.757 85.4508 254.704 85.1592 254.704C84.8903 254.704 84.6579 254.75 84.4619 254.841C84.266 254.932 84.1133 255.055 84.0039 255.21C83.8945 255.365 83.8398 255.54 83.8398 255.736H82.1992C82.1992 255.445 82.2699 255.162 82.4111 254.889C82.5524 254.615 82.7575 254.371 83.0264 254.157C83.2952 253.943 83.6165 253.774 83.9902 253.651C84.3639 253.528 84.7832 253.467 85.248 253.467C85.804 253.467 86.2962 253.56 86.7246 253.747C87.1576 253.934 87.4971 254.216 87.7432 254.595C87.9938 254.968 88.1191 255.438 88.1191 256.003V259.291C88.1191 259.628 88.1419 259.931 88.1875 260.2C88.2376 260.465 88.3083 260.695 88.3994 260.891V261H86.7109C86.6335 260.822 86.5719 260.597 86.5264 260.323C86.4854 260.045 86.4648 259.776 86.4648 259.517ZM86.7041 256.502L86.7178 257.521H85.5352C85.2298 257.521 84.9609 257.55 84.7285 257.609C84.4961 257.664 84.3024 257.746 84.1475 257.855C83.9925 257.965 83.8763 258.097 83.7988 258.252C83.7214 258.407 83.6826 258.582 83.6826 258.778C83.6826 258.974 83.7282 259.154 83.8193 259.318C83.9105 259.478 84.0426 259.603 84.2158 259.694C84.3936 259.785 84.6077 259.831 84.8584 259.831C85.1956 259.831 85.4896 259.763 85.7402 259.626C85.9954 259.485 86.196 259.314 86.3418 259.113C86.4876 258.908 86.5651 258.715 86.5742 258.532L87.1074 259.264C87.0527 259.451 86.9593 259.651 86.8271 259.865C86.695 260.079 86.5218 260.285 86.3076 260.48C86.098 260.672 85.8451 260.829 85.5488 260.952C85.2572 261.075 84.9199 261.137 84.5371 261.137C84.054 261.137 83.6234 261.041 83.2451 260.85C82.8669 260.654 82.5706 260.392 82.3564 260.063C82.1423 259.731 82.0352 259.355 82.0352 258.936C82.0352 258.544 82.1081 258.197 82.2539 257.896C82.4043 257.591 82.623 257.336 82.9102 257.131C83.2018 256.926 83.5573 256.771 83.9766 256.666C84.3958 256.557 84.8743 256.502 85.4121 256.502H86.7041ZM93.2324 253.604V254.807H89.0625V253.604H93.2324ZM90.2656 251.792H91.9131V258.956C91.9131 259.184 91.945 259.359 92.0088 259.482C92.0771 259.601 92.1706 259.681 92.2891 259.722C92.4076 259.763 92.5465 259.783 92.7061 259.783C92.82 259.783 92.9294 259.776 93.0342 259.763C93.139 259.749 93.2233 259.735 93.2871 259.722L93.2939 260.979C93.1572 261.021 92.9977 261.057 92.8154 261.089C92.6377 261.121 92.4326 261.137 92.2002 261.137C91.8219 261.137 91.487 261.071 91.1953 260.938C90.9036 260.802 90.6758 260.581 90.5117 260.275C90.3477 259.97 90.2656 259.564 90.2656 259.059V251.792ZM96.2676 253.604V261H94.6133V253.604H96.2676ZM94.5039 251.662C94.5039 251.411 94.5859 251.204 94.75 251.04C94.9186 250.871 95.151 250.787 95.4473 250.787C95.7389 250.787 95.9691 250.871 96.1377 251.04C96.3063 251.204 96.3906 251.411 96.3906 251.662C96.3906 251.908 96.3063 252.113 96.1377 252.277C95.9691 252.441 95.7389 252.523 95.4473 252.523C95.151 252.523 94.9186 252.441 94.75 252.277C94.5859 252.113 94.5039 251.908 94.5039 251.662ZM97.7578 257.384V257.227C97.7578 256.693 97.8353 256.199 97.9902 255.743C98.1452 255.283 98.3685 254.884 98.6602 254.547C98.9564 254.205 99.3164 253.941 99.7402 253.754C100.169 253.562 100.652 253.467 101.189 253.467C101.732 253.467 102.215 253.562 102.639 253.754C103.067 253.941 103.429 254.205 103.726 254.547C104.022 254.884 104.247 255.283 104.402 255.743C104.557 256.199 104.635 256.693 104.635 257.227V257.384C104.635 257.917 104.557 258.411 104.402 258.867C104.247 259.323 104.022 259.722 103.726 260.063C103.429 260.401 103.069 260.665 102.646 260.856C102.222 261.043 101.741 261.137 101.203 261.137C100.661 261.137 100.175 261.043 99.7471 260.856C99.3232 260.665 98.9632 260.401 98.667 260.063C98.3708 259.722 98.1452 259.323 97.9902 258.867C97.8353 258.411 97.7578 257.917 97.7578 257.384ZM99.4053 257.227V257.384C99.4053 257.716 99.4395 258.031 99.5078 258.327C99.5762 258.623 99.6833 258.883 99.8291 259.106C99.9749 259.33 100.162 259.505 100.39 259.633C100.618 259.76 100.889 259.824 101.203 259.824C101.508 259.824 101.773 259.76 101.996 259.633C102.224 259.505 102.411 259.33 102.557 259.106C102.702 258.883 102.81 258.623 102.878 258.327C102.951 258.031 102.987 257.716 102.987 257.384V257.227C102.987 256.898 102.951 256.589 102.878 256.297C102.81 256.001 102.7 255.739 102.55 255.511C102.404 255.283 102.217 255.105 101.989 254.978C101.766 254.845 101.499 254.779 101.189 254.779C100.88 254.779 100.611 254.845 100.383 254.978C100.16 255.105 99.9749 255.283 99.8291 255.511C99.6833 255.739 99.5762 256.001 99.5078 256.297C99.4395 256.589 99.4053 256.898 99.4053 257.227ZM107.649 255.183V261H106.002V253.604H107.554L107.649 255.183ZM107.355 257.028L106.822 257.021C106.827 256.497 106.9 256.017 107.041 255.579C107.187 255.142 107.387 254.766 107.643 254.451C107.902 254.137 108.212 253.895 108.572 253.727C108.932 253.553 109.333 253.467 109.775 253.467C110.131 253.467 110.452 253.517 110.739 253.617C111.031 253.713 111.279 253.87 111.484 254.089C111.694 254.308 111.854 254.592 111.963 254.943C112.072 255.29 112.127 255.716 112.127 256.222V261H110.473V256.215C110.473 255.859 110.42 255.579 110.315 255.374C110.215 255.164 110.067 255.016 109.871 254.93C109.68 254.839 109.44 254.793 109.153 254.793C108.871 254.793 108.618 254.852 108.395 254.971C108.171 255.089 107.982 255.251 107.827 255.456C107.677 255.661 107.561 255.898 107.479 256.167C107.396 256.436 107.355 256.723 107.355 257.028Z" fill="black" fill-opacity="0.85"/>
<path d="M94.1065 210.251H66.4637V185.18C66.4637 185.003 66.319 184.858 66.1422 184.858H63.8922C63.7154 184.858 63.5708 185.003 63.5708 185.18V212.823C63.5708 212.999 63.7154 213.144 63.8922 213.144H94.1065C94.2833 213.144 94.4279 212.999 94.4279 212.823V210.573C94.4279 210.396 94.2833 210.251 94.1065 210.251ZM70.7146 204.052C70.8391 204.176 71.04 204.176 71.1686 204.052L76.7253 198.523L81.8521 203.682C81.9766 203.807 82.1815 203.807 82.3061 203.682L93.3713 192.621C93.4958 192.496 93.4958 192.291 93.3713 192.167L91.7802 190.576C91.7198 190.516 91.6382 190.482 91.5532 190.482C91.4682 190.482 91.3866 190.516 91.3262 190.576L82.0851 199.813L76.9663 194.662C76.9059 194.602 76.8243 194.569 76.7393 194.569C76.6543 194.569 76.5727 194.602 76.5123 194.662L69.1275 202.003C69.0677 202.063 69.0341 202.145 69.0341 202.23C69.0341 202.315 69.0677 202.396 69.1275 202.457L70.7146 204.052Z" fill="black" fill-opacity="0.85"/>
<path d="M70.7295 290.853C77.2457 331.947 90.9039 360.735 96.9186 369.993" stroke="black" stroke-width="2"/>
<path d="M86.6622 367.985L97.8062 370.603L98.8336 360.347" stroke="black" stroke-width="2" stroke-linecap="round"/>
<path d="M83.8027 442.437C83.8027 442.231 83.7708 442.049 83.707 441.89C83.6478 441.73 83.5407 441.584 83.3857 441.452C83.2308 441.32 83.012 441.192 82.7295 441.069C82.4515 440.942 82.096 440.812 81.6631 440.68C81.1891 440.534 80.7516 440.372 80.3506 440.194C79.9541 440.012 79.6077 439.802 79.3115 439.565C79.0153 439.324 78.7852 439.048 78.6211 438.738C78.457 438.424 78.375 438.062 78.375 437.651C78.375 437.246 78.4593 436.877 78.6279 436.544C78.8011 436.211 79.0449 435.924 79.3594 435.683C79.6784 435.437 80.0544 435.247 80.4873 435.115C80.9202 434.979 81.3988 434.91 81.9229 434.91C82.6611 434.91 83.2969 435.047 83.8301 435.32C84.3678 435.594 84.7803 435.961 85.0674 436.421C85.359 436.881 85.5049 437.389 85.5049 437.945H83.8027C83.8027 437.617 83.7321 437.328 83.5908 437.077C83.4541 436.822 83.2445 436.621 82.9619 436.476C82.6839 436.33 82.3307 436.257 81.9023 436.257C81.4967 436.257 81.1595 436.318 80.8906 436.441C80.6217 436.564 80.4212 436.731 80.2891 436.94C80.1569 437.15 80.0908 437.387 80.0908 437.651C80.0908 437.838 80.1341 438.009 80.2207 438.164C80.3073 438.314 80.4395 438.456 80.6172 438.588C80.7949 438.715 81.0182 438.836 81.2871 438.95C81.556 439.064 81.8727 439.174 82.2373 439.278C82.7887 439.442 83.2695 439.625 83.6797 439.825C84.0898 440.021 84.4316 440.244 84.7051 440.495C84.9785 440.746 85.1836 441.031 85.3203 441.35C85.457 441.664 85.5254 442.022 85.5254 442.423C85.5254 442.842 85.4411 443.22 85.2725 443.558C85.1038 443.89 84.8623 444.175 84.5479 444.412C84.238 444.645 83.8643 444.825 83.4268 444.952C82.9938 445.075 82.5107 445.137 81.9775 445.137C81.499 445.137 81.0273 445.073 80.5625 444.945C80.1022 444.818 79.6829 444.624 79.3047 444.364C78.9264 444.1 78.6257 443.772 78.4023 443.38C78.179 442.983 78.0674 442.521 78.0674 441.992H79.7832C79.7832 442.316 79.8379 442.591 79.9473 442.819C80.0612 443.047 80.2184 443.234 80.4189 443.38C80.6195 443.521 80.8519 443.626 81.1162 443.694C81.3851 443.763 81.6722 443.797 81.9775 443.797C82.3786 443.797 82.7135 443.74 82.9824 443.626C83.2559 443.512 83.4609 443.353 83.5977 443.147C83.7344 442.942 83.8027 442.705 83.8027 442.437ZM91.3291 443.257V437.604H92.9834V445H91.4248L91.3291 443.257ZM91.5615 441.719L92.1152 441.705C92.1152 442.202 92.0605 442.66 91.9512 443.079C91.8418 443.494 91.6732 443.856 91.4453 444.166C91.2174 444.471 90.9258 444.711 90.5703 444.884C90.2148 445.052 89.7887 445.137 89.292 445.137C88.932 445.137 88.6016 445.084 88.3008 444.979C88 444.875 87.7402 444.713 87.5215 444.494C87.3073 444.275 87.141 443.991 87.0225 443.64C86.904 443.289 86.8447 442.869 86.8447 442.382V437.604H88.4922V442.396C88.4922 442.664 88.5241 442.89 88.5879 443.072C88.6517 443.25 88.7383 443.394 88.8477 443.503C88.957 443.612 89.0846 443.69 89.2305 443.735C89.3763 443.781 89.5312 443.804 89.6953 443.804C90.1647 443.804 90.5339 443.713 90.8027 443.53C91.0762 443.343 91.2699 443.093 91.3838 442.778C91.5023 442.464 91.5615 442.111 91.5615 441.719ZM97.6934 443.824C97.9622 443.824 98.2038 443.772 98.418 443.667C98.6367 443.558 98.8122 443.407 98.9443 443.216C99.0811 443.024 99.1562 442.803 99.1699 442.553H100.722C100.713 443.031 100.571 443.466 100.298 443.858C100.024 444.25 99.6621 444.562 99.2109 444.795C98.7598 445.023 98.2607 445.137 97.7139 445.137C97.1488 445.137 96.6566 445.041 96.2373 444.85C95.818 444.654 95.4694 444.385 95.1914 444.043C94.9134 443.701 94.7038 443.307 94.5625 442.86C94.4258 442.414 94.3574 441.935 94.3574 441.425V441.186C94.3574 440.675 94.4258 440.197 94.5625 439.75C94.7038 439.299 94.9134 438.902 95.1914 438.561C95.4694 438.219 95.818 437.952 96.2373 437.761C96.6566 437.565 97.1465 437.467 97.707 437.467C98.2995 437.467 98.819 437.585 99.2656 437.822C99.7122 438.055 100.063 438.381 100.318 438.8C100.578 439.215 100.713 439.698 100.722 440.249H99.1699C99.1562 439.976 99.0879 439.729 98.9648 439.511C98.8464 439.287 98.6777 439.11 98.459 438.978C98.2448 438.845 97.9873 438.779 97.6865 438.779C97.3538 438.779 97.0781 438.848 96.8594 438.984C96.6406 439.117 96.4697 439.299 96.3467 439.531C96.2236 439.759 96.1348 440.017 96.0801 440.304C96.0299 440.586 96.0049 440.88 96.0049 441.186V441.425C96.0049 441.73 96.0299 442.026 96.0801 442.313C96.1302 442.601 96.2168 442.858 96.3398 443.086C96.4674 443.309 96.6406 443.489 96.8594 443.626C97.0781 443.758 97.3561 443.824 97.6934 443.824ZM105.008 443.824C105.277 443.824 105.518 443.772 105.732 443.667C105.951 443.558 106.127 443.407 106.259 443.216C106.396 443.024 106.471 442.803 106.484 442.553H108.036C108.027 443.031 107.886 443.466 107.612 443.858C107.339 444.25 106.977 444.562 106.525 444.795C106.074 445.023 105.575 445.137 105.028 445.137C104.463 445.137 103.971 445.041 103.552 444.85C103.132 444.654 102.784 444.385 102.506 444.043C102.228 443.701 102.018 443.307 101.877 442.86C101.74 442.414 101.672 441.935 101.672 441.425V441.186C101.672 440.675 101.74 440.197 101.877 439.75C102.018 439.299 102.228 438.902 102.506 438.561C102.784 438.219 103.132 437.952 103.552 437.761C103.971 437.565 104.461 437.467 105.021 437.467C105.614 437.467 106.133 437.585 106.58 437.822C107.027 438.055 107.378 438.381 107.633 438.8C107.893 439.215 108.027 439.698 108.036 440.249H106.484C106.471 439.976 106.402 439.729 106.279 439.511C106.161 439.287 105.992 439.11 105.773 438.978C105.559 438.845 105.302 438.779 105.001 438.779C104.668 438.779 104.393 438.848 104.174 438.984C103.955 439.117 103.784 439.299 103.661 439.531C103.538 439.759 103.449 440.017 103.395 440.304C103.344 440.586 103.319 440.88 103.319 441.186V441.425C103.319 441.73 103.344 442.026 103.395 442.313C103.445 442.601 103.531 442.858 103.654 443.086C103.782 443.309 103.955 443.489 104.174 443.626C104.393 443.758 104.671 443.824 105.008 443.824ZM112.562 445.137C112.015 445.137 111.52 445.048 111.078 444.87C110.641 444.688 110.267 444.435 109.957 444.111C109.652 443.788 109.417 443.407 109.253 442.97C109.089 442.532 109.007 442.061 109.007 441.555V441.281C109.007 440.702 109.091 440.178 109.26 439.709C109.428 439.24 109.663 438.839 109.964 438.506C110.265 438.169 110.62 437.911 111.03 437.733C111.44 437.556 111.885 437.467 112.363 437.467C112.892 437.467 113.354 437.556 113.751 437.733C114.147 437.911 114.476 438.162 114.735 438.485C115 438.804 115.196 439.185 115.323 439.627C115.455 440.069 115.521 440.557 115.521 441.09V441.794H109.807V440.611H113.895V440.481C113.885 440.185 113.826 439.907 113.717 439.647C113.612 439.388 113.45 439.178 113.231 439.019C113.013 438.859 112.721 438.779 112.356 438.779C112.083 438.779 111.839 438.839 111.625 438.957C111.415 439.071 111.24 439.237 111.099 439.456C110.957 439.675 110.848 439.939 110.771 440.249C110.698 440.554 110.661 440.898 110.661 441.281V441.555C110.661 441.878 110.704 442.179 110.791 442.457C110.882 442.73 111.014 442.97 111.188 443.175C111.361 443.38 111.57 443.542 111.816 443.66C112.062 443.774 112.343 443.831 112.657 443.831C113.054 443.831 113.407 443.751 113.717 443.592C114.027 443.432 114.296 443.207 114.523 442.915L115.392 443.756C115.232 443.988 115.025 444.212 114.77 444.426C114.514 444.635 114.202 444.806 113.833 444.938C113.468 445.071 113.045 445.137 112.562 445.137ZM120.956 442.997C120.956 442.833 120.915 442.685 120.833 442.553C120.751 442.416 120.594 442.293 120.361 442.184C120.133 442.074 119.796 441.974 119.35 441.883C118.958 441.796 118.598 441.694 118.27 441.575C117.946 441.452 117.668 441.304 117.436 441.131C117.203 440.958 117.023 440.753 116.896 440.516C116.768 440.279 116.704 440.005 116.704 439.695C116.704 439.395 116.77 439.11 116.902 438.841C117.035 438.572 117.224 438.335 117.47 438.13C117.716 437.925 118.014 437.763 118.365 437.645C118.721 437.526 119.117 437.467 119.555 437.467C120.174 437.467 120.705 437.572 121.147 437.781C121.594 437.986 121.936 438.267 122.173 438.622C122.41 438.973 122.528 439.369 122.528 439.812H120.881C120.881 439.616 120.831 439.433 120.73 439.265C120.635 439.091 120.489 438.952 120.293 438.848C120.097 438.738 119.851 438.684 119.555 438.684C119.272 438.684 119.037 438.729 118.851 438.82C118.668 438.907 118.532 439.021 118.44 439.162C118.354 439.303 118.311 439.458 118.311 439.627C118.311 439.75 118.333 439.862 118.379 439.962C118.429 440.058 118.511 440.146 118.625 440.229C118.739 440.306 118.894 440.379 119.09 440.447C119.29 440.516 119.541 440.582 119.842 440.646C120.407 440.764 120.892 440.917 121.298 441.104C121.708 441.286 122.022 441.523 122.241 441.814C122.46 442.102 122.569 442.466 122.569 442.908C122.569 443.236 122.499 443.537 122.357 443.811C122.221 444.079 122.02 444.314 121.756 444.515C121.492 444.711 121.175 444.863 120.806 444.973C120.441 445.082 120.031 445.137 119.575 445.137C118.905 445.137 118.338 445.018 117.873 444.781C117.408 444.54 117.055 444.232 116.813 443.858C116.576 443.48 116.458 443.088 116.458 442.683H118.051C118.069 442.988 118.153 443.232 118.304 443.414C118.459 443.592 118.65 443.722 118.878 443.804C119.11 443.881 119.35 443.92 119.596 443.92C119.892 443.92 120.14 443.881 120.341 443.804C120.541 443.722 120.694 443.612 120.799 443.476C120.904 443.334 120.956 443.175 120.956 442.997ZM128.161 442.997C128.161 442.833 128.12 442.685 128.038 442.553C127.956 442.416 127.799 442.293 127.566 442.184C127.339 442.074 127.001 441.974 126.555 441.883C126.163 441.796 125.803 441.694 125.475 441.575C125.151 441.452 124.873 441.304 124.641 441.131C124.408 440.958 124.228 440.753 124.101 440.516C123.973 440.279 123.909 440.005 123.909 439.695C123.909 439.395 123.975 439.11 124.107 438.841C124.24 438.572 124.429 438.335 124.675 438.13C124.921 437.925 125.219 437.763 125.57 437.645C125.926 437.526 126.322 437.467 126.76 437.467C127.38 437.467 127.91 437.572 128.353 437.781C128.799 437.986 129.141 438.267 129.378 438.622C129.615 438.973 129.733 439.369 129.733 439.812H128.086C128.086 439.616 128.036 439.433 127.936 439.265C127.84 439.091 127.694 438.952 127.498 438.848C127.302 438.738 127.056 438.684 126.76 438.684C126.477 438.684 126.243 438.729 126.056 438.82C125.873 438.907 125.737 439.021 125.646 439.162C125.559 439.303 125.516 439.458 125.516 439.627C125.516 439.75 125.538 439.862 125.584 439.962C125.634 440.058 125.716 440.146 125.83 440.229C125.944 440.306 126.099 440.379 126.295 440.447C126.495 440.516 126.746 440.582 127.047 440.646C127.612 440.764 128.097 440.917 128.503 441.104C128.913 441.286 129.228 441.523 129.446 441.814C129.665 442.102 129.774 442.466 129.774 442.908C129.774 443.236 129.704 443.537 129.562 443.811C129.426 444.079 129.225 444.314 128.961 444.515C128.697 444.711 128.38 444.863 128.011 444.973C127.646 445.082 127.236 445.137 126.78 445.137C126.11 445.137 125.543 445.018 125.078 444.781C124.613 444.54 124.26 444.232 124.019 443.858C123.782 443.48 123.663 443.088 123.663 442.683H125.256C125.274 442.988 125.358 443.232 125.509 443.414C125.664 443.592 125.855 443.722 126.083 443.804C126.315 443.881 126.555 443.92 126.801 443.92C127.097 443.92 127.345 443.881 127.546 443.804C127.746 443.722 127.899 443.612 128.004 443.476C128.109 443.334 128.161 443.175 128.161 442.997ZM133.445 445H131.798V436.893C131.798 436.341 131.9 435.879 132.105 435.505C132.315 435.127 132.614 434.842 133.001 434.65C133.388 434.454 133.846 434.356 134.375 434.356C134.539 434.356 134.701 434.368 134.86 434.391C135.02 434.409 135.175 434.438 135.325 434.479L135.284 435.751C135.193 435.728 135.093 435.712 134.983 435.703C134.879 435.694 134.765 435.689 134.642 435.689C134.391 435.689 134.174 435.737 133.992 435.833C133.814 435.924 133.678 436.059 133.582 436.236C133.491 436.414 133.445 436.633 133.445 436.893V445ZM134.97 437.604V438.807H130.663V437.604H134.97ZM140.616 443.257V437.604H142.271V445H140.712L140.616 443.257ZM140.849 441.719L141.402 441.705C141.402 442.202 141.348 442.66 141.238 443.079C141.129 443.494 140.96 443.856 140.732 444.166C140.505 444.471 140.213 444.711 139.857 444.884C139.502 445.052 139.076 445.137 138.579 445.137C138.219 445.137 137.889 445.084 137.588 444.979C137.287 444.875 137.027 444.713 136.809 444.494C136.594 444.275 136.428 443.991 136.31 443.64C136.191 443.289 136.132 442.869 136.132 442.382V437.604H137.779V442.396C137.779 442.664 137.811 442.89 137.875 443.072C137.939 443.25 138.025 443.394 138.135 443.503C138.244 443.612 138.372 443.69 138.518 443.735C138.663 443.781 138.818 443.804 138.982 443.804C139.452 443.804 139.821 443.713 140.09 443.53C140.363 443.343 140.557 443.093 140.671 442.778C140.789 442.464 140.849 442.111 140.849 441.719ZM145.723 434.5V445H144.068V434.5H145.723ZM149.291 434.5V445H147.637V434.5H149.291ZM153.242 444.193L155.252 437.604H157.016L154.049 446.128C153.98 446.31 153.892 446.508 153.782 446.723C153.673 446.937 153.529 447.14 153.352 447.331C153.178 447.527 152.962 447.684 152.702 447.803C152.442 447.926 152.128 447.987 151.759 447.987C151.613 447.987 151.472 447.974 151.335 447.946C151.203 447.924 151.077 447.898 150.959 447.871L150.952 446.613C150.998 446.618 151.052 446.622 151.116 446.627C151.185 446.632 151.239 446.634 151.28 446.634C151.554 446.634 151.782 446.6 151.964 446.531C152.146 446.467 152.294 446.363 152.408 446.217C152.527 446.071 152.627 445.875 152.709 445.629L153.242 444.193ZM152.107 437.604L153.864 443.141L154.158 444.877L153.017 445.171L150.33 437.604H152.107ZM163.1 439.025V447.844H161.452V437.604H162.97L163.1 439.025ZM167.919 441.233V441.377C167.919 441.915 167.855 442.414 167.728 442.874C167.604 443.33 167.42 443.729 167.174 444.07C166.932 444.408 166.634 444.67 166.278 444.856C165.923 445.043 165.513 445.137 165.048 445.137C164.588 445.137 164.184 445.052 163.838 444.884C163.496 444.711 163.207 444.467 162.97 444.152C162.733 443.838 162.541 443.469 162.396 443.045C162.254 442.617 162.154 442.147 162.095 441.637V441.083C162.154 440.541 162.254 440.049 162.396 439.606C162.541 439.164 162.733 438.784 162.97 438.465C163.207 438.146 163.496 437.9 163.838 437.727C164.18 437.553 164.578 437.467 165.034 437.467C165.499 437.467 165.911 437.558 166.271 437.74C166.632 437.918 166.935 438.173 167.181 438.506C167.427 438.834 167.611 439.23 167.734 439.695C167.857 440.156 167.919 440.668 167.919 441.233ZM166.271 441.377V441.233C166.271 440.892 166.24 440.575 166.176 440.283C166.112 439.987 166.012 439.727 165.875 439.504C165.738 439.281 165.563 439.107 165.349 438.984C165.139 438.857 164.886 438.793 164.59 438.793C164.298 438.793 164.048 438.843 163.838 438.943C163.628 439.039 163.453 439.174 163.312 439.347C163.17 439.52 163.061 439.723 162.983 439.955C162.906 440.183 162.851 440.431 162.819 440.7V442.026C162.874 442.354 162.967 442.655 163.1 442.929C163.232 443.202 163.419 443.421 163.66 443.585C163.906 443.744 164.221 443.824 164.604 443.824C164.9 443.824 165.153 443.76 165.362 443.633C165.572 443.505 165.743 443.33 165.875 443.106C166.012 442.879 166.112 442.617 166.176 442.32C166.24 442.024 166.271 441.71 166.271 441.377ZM170.975 439.012V445H169.327V437.604H170.899L170.975 439.012ZM173.237 437.556L173.224 439.087C173.123 439.069 173.014 439.055 172.896 439.046C172.782 439.037 172.668 439.032 172.554 439.032C172.271 439.032 172.023 439.073 171.809 439.155C171.594 439.233 171.414 439.347 171.269 439.497C171.127 439.643 171.018 439.821 170.94 440.03C170.863 440.24 170.817 440.475 170.804 440.734L170.428 440.762C170.428 440.297 170.473 439.866 170.564 439.47C170.656 439.073 170.792 438.725 170.975 438.424C171.161 438.123 171.394 437.888 171.672 437.72C171.954 437.551 172.28 437.467 172.649 437.467C172.75 437.467 172.857 437.476 172.971 437.494C173.089 437.512 173.178 437.533 173.237 437.556ZM176.033 437.604V445H174.379V437.604H176.033ZM174.27 435.662C174.27 435.411 174.352 435.204 174.516 435.04C174.684 434.871 174.917 434.787 175.213 434.787C175.505 434.787 175.735 434.871 175.903 435.04C176.072 435.204 176.156 435.411 176.156 435.662C176.156 435.908 176.072 436.113 175.903 436.277C175.735 436.441 175.505 436.523 175.213 436.523C174.917 436.523 174.684 436.441 174.516 436.277C174.352 436.113 174.27 435.908 174.27 435.662ZM179.472 439.183V445H177.824V437.604H179.376L179.472 439.183ZM179.178 441.028L178.645 441.021C178.649 440.497 178.722 440.017 178.863 439.579C179.009 439.142 179.21 438.766 179.465 438.451C179.725 438.137 180.035 437.895 180.395 437.727C180.755 437.553 181.156 437.467 181.598 437.467C181.953 437.467 182.274 437.517 182.562 437.617C182.853 437.713 183.102 437.87 183.307 438.089C183.516 438.308 183.676 438.592 183.785 438.943C183.895 439.29 183.949 439.716 183.949 440.222V445H182.295V440.215C182.295 439.859 182.243 439.579 182.138 439.374C182.037 439.164 181.889 439.016 181.693 438.93C181.502 438.839 181.263 438.793 180.976 438.793C180.693 438.793 180.44 438.852 180.217 438.971C179.993 439.089 179.804 439.251 179.649 439.456C179.499 439.661 179.383 439.898 179.301 440.167C179.219 440.436 179.178 440.723 179.178 441.028ZM189.021 437.604V438.807H184.852V437.604H189.021ZM186.055 435.792H187.702V442.956C187.702 443.184 187.734 443.359 187.798 443.482C187.866 443.601 187.96 443.681 188.078 443.722C188.197 443.763 188.336 443.783 188.495 443.783C188.609 443.783 188.718 443.776 188.823 443.763C188.928 443.749 189.012 443.735 189.076 443.722L189.083 444.979C188.946 445.021 188.787 445.057 188.604 445.089C188.427 445.121 188.222 445.137 187.989 445.137C187.611 445.137 187.276 445.071 186.984 444.938C186.693 444.802 186.465 444.581 186.301 444.275C186.137 443.97 186.055 443.564 186.055 443.059V435.792ZM89.9209 461.025V469.844H88.2734V459.604H89.791L89.9209 461.025ZM94.7402 463.233V463.377C94.7402 463.915 94.6764 464.414 94.5488 464.874C94.4258 465.33 94.2412 465.729 93.9951 466.07C93.7536 466.408 93.4551 466.67 93.0996 466.856C92.7441 467.043 92.334 467.137 91.8691 467.137C91.4089 467.137 91.0055 467.052 90.6592 466.884C90.3174 466.711 90.028 466.467 89.791 466.152C89.554 465.838 89.3626 465.469 89.2168 465.045C89.0755 464.617 88.9753 464.147 88.916 463.637V463.083C88.9753 462.541 89.0755 462.049 89.2168 461.606C89.3626 461.164 89.554 460.784 89.791 460.465C90.028 460.146 90.3174 459.9 90.6592 459.727C91.001 459.553 91.3997 459.467 91.8555 459.467C92.3203 459.467 92.7327 459.558 93.0928 459.74C93.4528 459.918 93.7559 460.173 94.002 460.506C94.248 460.834 94.4326 461.23 94.5557 461.695C94.6787 462.156 94.7402 462.668 94.7402 463.233ZM93.0928 463.377V463.233C93.0928 462.892 93.0609 462.575 92.9971 462.283C92.9333 461.987 92.833 461.727 92.6963 461.504C92.5596 461.281 92.3841 461.107 92.1699 460.984C91.9603 460.857 91.7074 460.793 91.4111 460.793C91.1195 460.793 90.8688 460.843 90.6592 460.943C90.4495 461.039 90.2741 461.174 90.1328 461.347C89.9915 461.52 89.8822 461.723 89.8047 461.955C89.7272 462.183 89.6725 462.431 89.6406 462.7V464.026C89.6953 464.354 89.7887 464.655 89.9209 464.929C90.0531 465.202 90.2399 465.421 90.4814 465.585C90.7275 465.744 91.042 465.824 91.4248 465.824C91.721 465.824 91.974 465.76 92.1836 465.633C92.3932 465.505 92.5641 465.33 92.6963 465.106C92.833 464.879 92.9333 464.617 92.9971 464.32C93.0609 464.024 93.0928 463.71 93.0928 463.377ZM97.7959 461.012V467H96.1484V459.604H97.7207L97.7959 461.012ZM100.059 459.556L100.045 461.087C99.9447 461.069 99.8353 461.055 99.7168 461.046C99.6029 461.037 99.4889 461.032 99.375 461.032C99.0924 461.032 98.8441 461.073 98.6299 461.155C98.4157 461.233 98.2357 461.347 98.0898 461.497C97.9486 461.643 97.8392 461.821 97.7617 462.03C97.6842 462.24 97.6387 462.475 97.625 462.734L97.249 462.762C97.249 462.297 97.2946 461.866 97.3857 461.47C97.4769 461.073 97.6136 460.725 97.7959 460.424C97.9827 460.123 98.2152 459.888 98.4932 459.72C98.7757 459.551 99.1016 459.467 99.4707 459.467C99.571 459.467 99.6781 459.476 99.792 459.494C99.9105 459.512 99.9993 459.533 100.059 459.556ZM100.599 463.384V463.227C100.599 462.693 100.676 462.199 100.831 461.743C100.986 461.283 101.209 460.884 101.501 460.547C101.797 460.205 102.157 459.941 102.581 459.754C103.009 459.562 103.493 459.467 104.03 459.467C104.573 459.467 105.056 459.562 105.479 459.754C105.908 459.941 106.27 460.205 106.566 460.547C106.863 460.884 107.088 461.283 107.243 461.743C107.398 462.199 107.476 462.693 107.476 463.227V463.384C107.476 463.917 107.398 464.411 107.243 464.867C107.088 465.323 106.863 465.722 106.566 466.063C106.27 466.401 105.91 466.665 105.486 466.856C105.062 467.043 104.582 467.137 104.044 467.137C103.502 467.137 103.016 467.043 102.588 466.856C102.164 466.665 101.804 466.401 101.508 466.063C101.212 465.722 100.986 465.323 100.831 464.867C100.676 464.411 100.599 463.917 100.599 463.384ZM102.246 463.227V463.384C102.246 463.716 102.28 464.031 102.349 464.327C102.417 464.623 102.524 464.883 102.67 465.106C102.816 465.33 103.003 465.505 103.23 465.633C103.458 465.76 103.729 465.824 104.044 465.824C104.349 465.824 104.614 465.76 104.837 465.633C105.065 465.505 105.252 465.33 105.397 465.106C105.543 464.883 105.65 464.623 105.719 464.327C105.792 464.031 105.828 463.716 105.828 463.384V463.227C105.828 462.898 105.792 462.589 105.719 462.297C105.65 462.001 105.541 461.739 105.391 461.511C105.245 461.283 105.058 461.105 104.83 460.978C104.607 460.845 104.34 460.779 104.03 460.779C103.72 460.779 103.451 460.845 103.224 460.978C103 461.105 102.816 461.283 102.67 461.511C102.524 461.739 102.417 462.001 102.349 462.297C102.28 462.589 102.246 462.898 102.246 463.227ZM108.938 459.604H110.593V467.643C110.593 468.148 110.506 468.575 110.333 468.921C110.16 469.272 109.905 469.536 109.567 469.714C109.23 469.896 108.818 469.987 108.33 469.987C108.184 469.987 108.034 469.976 107.879 469.953C107.719 469.935 107.569 469.908 107.428 469.871L107.435 468.586C107.53 468.604 107.633 468.618 107.742 468.627C107.847 468.641 107.947 468.647 108.043 468.647C108.239 468.647 108.403 468.613 108.535 468.545C108.667 468.477 108.768 468.369 108.836 468.224C108.904 468.078 108.938 467.884 108.938 467.643V459.604ZM108.795 457.662C108.795 457.411 108.879 457.204 109.048 457.04C109.216 456.871 109.447 456.787 109.738 456.787C110.035 456.787 110.265 456.871 110.429 457.04C110.597 457.204 110.682 457.411 110.682 457.662C110.682 457.908 110.597 458.113 110.429 458.277C110.265 458.441 110.035 458.523 109.738 458.523C109.447 458.523 109.216 458.441 109.048 458.277C108.879 458.113 108.795 457.908 108.795 457.662ZM115.631 467.137C115.084 467.137 114.59 467.048 114.147 466.87C113.71 466.688 113.336 466.435 113.026 466.111C112.721 465.788 112.486 465.407 112.322 464.97C112.158 464.532 112.076 464.061 112.076 463.555V463.281C112.076 462.702 112.16 462.178 112.329 461.709C112.498 461.24 112.732 460.839 113.033 460.506C113.334 460.169 113.689 459.911 114.1 459.733C114.51 459.556 114.954 459.467 115.433 459.467C115.961 459.467 116.424 459.556 116.82 459.733C117.217 459.911 117.545 460.162 117.805 460.485C118.069 460.804 118.265 461.185 118.393 461.627C118.525 462.069 118.591 462.557 118.591 463.09V463.794H112.876V462.611H116.964V462.481C116.955 462.185 116.896 461.907 116.786 461.647C116.681 461.388 116.52 461.178 116.301 461.019C116.082 460.859 115.79 460.779 115.426 460.779C115.152 460.779 114.909 460.839 114.694 460.957C114.485 461.071 114.309 461.237 114.168 461.456C114.027 461.675 113.917 461.939 113.84 462.249C113.767 462.554 113.73 462.898 113.73 463.281V463.555C113.73 463.878 113.774 464.179 113.86 464.457C113.951 464.73 114.084 464.97 114.257 465.175C114.43 465.38 114.64 465.542 114.886 465.66C115.132 465.774 115.412 465.831 115.727 465.831C116.123 465.831 116.476 465.751 116.786 465.592C117.096 465.432 117.365 465.207 117.593 464.915L118.461 465.756C118.301 465.988 118.094 466.212 117.839 466.426C117.584 466.635 117.271 466.806 116.902 466.938C116.538 467.071 116.114 467.137 115.631 467.137ZM122.897 465.824C123.166 465.824 123.408 465.772 123.622 465.667C123.841 465.558 124.016 465.407 124.148 465.216C124.285 465.024 124.36 464.803 124.374 464.553H125.926C125.917 465.031 125.775 465.466 125.502 465.858C125.229 466.25 124.866 466.562 124.415 466.795C123.964 467.023 123.465 467.137 122.918 467.137C122.353 467.137 121.861 467.041 121.441 466.85C121.022 466.654 120.674 466.385 120.396 466.043C120.118 465.701 119.908 465.307 119.767 464.86C119.63 464.414 119.562 463.935 119.562 463.425V463.186C119.562 462.675 119.63 462.197 119.767 461.75C119.908 461.299 120.118 460.902 120.396 460.561C120.674 460.219 121.022 459.952 121.441 459.761C121.861 459.565 122.351 459.467 122.911 459.467C123.504 459.467 124.023 459.585 124.47 459.822C124.916 460.055 125.267 460.381 125.522 460.8C125.782 461.215 125.917 461.698 125.926 462.249H124.374C124.36 461.976 124.292 461.729 124.169 461.511C124.05 461.287 123.882 461.11 123.663 460.978C123.449 460.845 123.191 460.779 122.891 460.779C122.558 460.779 122.282 460.848 122.063 460.984C121.845 461.117 121.674 461.299 121.551 461.531C121.428 461.759 121.339 462.017 121.284 462.304C121.234 462.586 121.209 462.88 121.209 463.186V463.425C121.209 463.73 121.234 464.026 121.284 464.313C121.334 464.601 121.421 464.858 121.544 465.086C121.672 465.309 121.845 465.489 122.063 465.626C122.282 465.758 122.56 465.824 122.897 465.824ZM130.581 459.604V460.807H126.411V459.604H130.581ZM127.614 457.792H129.262V464.956C129.262 465.184 129.294 465.359 129.357 465.482C129.426 465.601 129.519 465.681 129.638 465.722C129.756 465.763 129.895 465.783 130.055 465.783C130.169 465.783 130.278 465.776 130.383 465.763C130.488 465.749 130.572 465.735 130.636 465.722L130.643 466.979C130.506 467.021 130.346 467.057 130.164 467.089C129.986 467.121 129.781 467.137 129.549 467.137C129.171 467.137 128.836 467.071 128.544 466.938C128.252 466.802 128.024 466.581 127.86 466.275C127.696 465.97 127.614 465.564 127.614 465.059V457.792ZM137.458 467H135.804V459.125C135.804 458.528 135.922 458.024 136.159 457.614C136.401 457.204 136.745 456.892 137.191 456.678C137.643 456.464 138.178 456.356 138.798 456.356C139.162 456.356 139.513 456.395 139.851 456.473C140.192 456.55 140.546 456.648 140.91 456.767L140.657 458.106C140.425 458.029 140.167 457.956 139.885 457.888C139.602 457.815 139.276 457.778 138.907 457.778C138.41 457.778 138.044 457.892 137.807 458.12C137.574 458.343 137.458 458.678 137.458 459.125V467ZM138.941 459.604V460.807H134.669V459.604H138.941ZM141.689 459.604V467H140.042V459.604H141.689ZM145.183 461.012V467H143.535V459.604H145.107L145.183 461.012ZM147.445 459.556L147.432 461.087C147.331 461.069 147.222 461.055 147.104 461.046C146.99 461.037 146.876 461.032 146.762 461.032C146.479 461.032 146.231 461.073 146.017 461.155C145.802 461.233 145.622 461.347 145.477 461.497C145.335 461.643 145.226 461.821 145.148 462.03C145.071 462.24 145.025 462.475 145.012 462.734L144.636 462.762C144.636 462.297 144.681 461.866 144.772 461.47C144.864 461.073 145 460.725 145.183 460.424C145.369 460.123 145.602 459.888 145.88 459.72C146.162 459.551 146.488 459.467 146.857 459.467C146.958 459.467 147.065 459.476 147.179 459.494C147.297 459.512 147.386 459.533 147.445 459.556ZM152.627 464.997C152.627 464.833 152.586 464.685 152.504 464.553C152.422 464.416 152.265 464.293 152.032 464.184C151.804 464.074 151.467 463.974 151.021 463.883C150.629 463.796 150.269 463.694 149.94 463.575C149.617 463.452 149.339 463.304 149.106 463.131C148.874 462.958 148.694 462.753 148.566 462.516C148.439 462.279 148.375 462.005 148.375 461.695C148.375 461.395 148.441 461.11 148.573 460.841C148.705 460.572 148.895 460.335 149.141 460.13C149.387 459.925 149.685 459.763 150.036 459.645C150.392 459.526 150.788 459.467 151.226 459.467C151.845 459.467 152.376 459.572 152.818 459.781C153.265 459.986 153.607 460.267 153.844 460.622C154.081 460.973 154.199 461.369 154.199 461.812H152.552C152.552 461.616 152.502 461.433 152.401 461.265C152.306 461.091 152.16 460.952 151.964 460.848C151.768 460.738 151.522 460.684 151.226 460.684C150.943 460.684 150.708 460.729 150.521 460.82C150.339 460.907 150.202 461.021 150.111 461.162C150.025 461.303 149.981 461.458 149.981 461.627C149.981 461.75 150.004 461.862 150.05 461.962C150.1 462.058 150.182 462.146 150.296 462.229C150.41 462.306 150.565 462.379 150.761 462.447C150.961 462.516 151.212 462.582 151.513 462.646C152.078 462.764 152.563 462.917 152.969 463.104C153.379 463.286 153.693 463.523 153.912 463.814C154.131 464.102 154.24 464.466 154.24 464.908C154.24 465.236 154.17 465.537 154.028 465.811C153.892 466.079 153.691 466.314 153.427 466.515C153.162 466.711 152.846 466.863 152.477 466.973C152.112 467.082 151.702 467.137 151.246 467.137C150.576 467.137 150.009 467.018 149.544 466.781C149.079 466.54 148.726 466.232 148.484 465.858C148.247 465.48 148.129 465.088 148.129 464.683H149.722C149.74 464.988 149.824 465.232 149.975 465.414C150.13 465.592 150.321 465.722 150.549 465.804C150.781 465.881 151.021 465.92 151.267 465.92C151.563 465.92 151.811 465.881 152.012 465.804C152.212 465.722 152.365 465.612 152.47 465.476C152.575 465.334 152.627 465.175 152.627 464.997ZM159.073 459.604V460.807H154.903V459.604H159.073ZM156.106 457.792H157.754V464.956C157.754 465.184 157.786 465.359 157.85 465.482C157.918 465.601 158.011 465.681 158.13 465.722C158.248 465.763 158.387 465.783 158.547 465.783C158.661 465.783 158.77 465.776 158.875 465.763C158.98 465.749 159.064 465.735 159.128 465.722L159.135 466.979C158.998 467.021 158.839 467.057 158.656 467.089C158.479 467.121 158.273 467.137 158.041 467.137C157.663 467.137 157.328 467.071 157.036 466.938C156.744 466.802 156.517 466.581 156.353 466.275C156.188 465.97 156.106 465.564 156.106 465.059V457.792ZM167.222 459.604V460.807H163.052V459.604H167.222ZM164.255 457.792H165.902V464.956C165.902 465.184 165.934 465.359 165.998 465.482C166.066 465.601 166.16 465.681 166.278 465.722C166.397 465.763 166.536 465.783 166.695 465.783C166.809 465.783 166.919 465.776 167.023 465.763C167.128 465.749 167.213 465.735 167.276 465.722L167.283 466.979C167.146 467.021 166.987 467.057 166.805 467.089C166.627 467.121 166.422 467.137 166.189 467.137C165.811 467.137 165.476 467.071 165.185 466.938C164.893 466.802 164.665 466.581 164.501 466.275C164.337 465.97 164.255 465.564 164.255 465.059V457.792ZM170.147 461.012V467H168.5V459.604H170.072L170.147 461.012ZM172.41 459.556L172.396 461.087C172.296 461.069 172.187 461.055 172.068 461.046C171.954 461.037 171.84 461.032 171.727 461.032C171.444 461.032 171.196 461.073 170.981 461.155C170.767 461.233 170.587 461.347 170.441 461.497C170.3 461.643 170.191 461.821 170.113 462.03C170.036 462.24 169.99 462.475 169.977 462.734L169.601 462.762C169.601 462.297 169.646 461.866 169.737 461.47C169.828 461.073 169.965 460.725 170.147 460.424C170.334 460.123 170.567 459.888 170.845 459.72C171.127 459.551 171.453 459.467 171.822 459.467C171.923 459.467 172.03 459.476 172.144 459.494C172.262 459.512 172.351 459.533 172.41 459.556ZM175.712 466.193L177.722 459.604H179.485L176.519 468.128C176.45 468.31 176.361 468.508 176.252 468.723C176.143 468.937 175.999 469.14 175.821 469.331C175.648 469.527 175.432 469.684 175.172 469.803C174.912 469.926 174.598 469.987 174.229 469.987C174.083 469.987 173.941 469.974 173.805 469.946C173.673 469.924 173.547 469.898 173.429 469.871L173.422 468.613C173.467 468.618 173.522 468.622 173.586 468.627C173.654 468.632 173.709 468.634 173.75 468.634C174.023 468.634 174.251 468.6 174.434 468.531C174.616 468.467 174.764 468.363 174.878 468.217C174.996 468.071 175.097 467.875 175.179 467.629L175.712 466.193ZM174.577 459.604L176.334 465.141L176.628 466.877L175.486 467.171L172.8 459.604H174.577Z" fill="black" fill-opacity="0.85"/>
<g clip-path="url(#clip0_54_183759)">
<path d="M110 399V395C110 393.939 110.421 392.922 111.172 392.172C111.922 391.421 112.939 391 114 391H118" stroke="black" stroke-opacity="0.85" stroke-width="2" stroke-linecap="round" stroke-linejoin="round"/>
<path d="M110 415V419C110 420.061 110.421 421.078 111.172 421.828C111.922 422.579 112.939 423 114 423H118" stroke="black" stroke-opacity="0.85" stroke-width="2" stroke-linecap="round" stroke-linejoin="round"/>
<path d="M134 391H138C139.061 391 140.078 391.421 140.828 392.172C141.579 392.922 142 393.939 142 395V399" stroke="black" stroke-opacity="0.85" stroke-width="2" stroke-linecap="round" stroke-linejoin="round"/>
<path d="M134 423H138C139.061 423 140.078 422.579 140.828 421.828C141.579 421.078 142 420.061 142 419V415" stroke="black" stroke-opacity="0.85" stroke-width="2" stroke-linecap="round" stroke-linejoin="round"/>
<path d="M126 408L134 403" stroke="black" stroke-opacity="0.85" stroke-width="2" stroke-linecap="round" stroke-linejoin="round"/>
<path d="M118 403L126 408V417L134 412V403L126 398L118 403Z" stroke="black" stroke-opacity="0.85" stroke-width="2" stroke-linecap="round" stroke-linejoin="round"/>
<path d="M118 403V412L126 417" stroke="black" stroke-opacity="0.85" stroke-width="2" stroke-linecap="round" stroke-linejoin="round"/>
</g>
<defs>
<clipPath id="clip0_54_183759">
<rect width="48" height="48" fill="white" transform="translate(102 383)"/>
</clipPath>
</defs>
</svg>
