<svg width="181" height="49" viewBox="0 0 181 49" fill="none" xmlns="http://www.w3.org/2000/svg">
<path d="M50.3281 15.1719V17H44.6016V15.1719H50.3281ZM45.3594 5.625V17H43.0156V5.625H45.3594ZM56.3438 14.9766V8.54688H58.5938V17H56.4766L56.3438 14.9766ZM56.5938 13.2422L57.2578 13.2266C57.2578 13.7891 57.1927 14.3125 57.0625 14.7969C56.9323 15.276 56.737 15.6927 56.4766 16.0469C56.2161 16.3958 55.888 16.6693 55.4922 16.8672C55.0964 17.0599 54.6302 17.1562 54.0938 17.1562C53.6823 17.1562 53.3021 17.099 52.9531 16.9844C52.6094 16.8646 52.3125 16.6797 52.0625 16.4297C51.8177 16.1745 51.625 15.849 51.4844 15.4531C51.349 15.0521 51.2812 14.5703 51.2812 14.0078V8.54688H53.5312V14.0234C53.5312 14.2734 53.5599 14.4844 53.6172 14.6562C53.6797 14.8281 53.7656 14.9688 53.875 15.0781C53.9844 15.1875 54.112 15.2656 54.2578 15.3125C54.4089 15.3594 54.5755 15.3828 54.7578 15.3828C55.2214 15.3828 55.5859 15.2891 55.8516 15.1016C56.1224 14.9141 56.3125 14.6589 56.4219 14.3359C56.5365 14.0078 56.5938 13.6432 56.5938 13.2422ZM63.8047 15.3984C64.0807 15.3984 64.3255 15.3464 64.5391 15.2422C64.7526 15.1328 64.9193 14.9818 65.0391 14.7891C65.1641 14.5911 65.2292 14.3594 65.2344 14.0938H67.3516C67.3464 14.6875 67.1875 15.2161 66.875 15.6797C66.5625 16.138 66.1432 16.5 65.6172 16.7656C65.0911 17.026 64.5026 17.1562 63.8516 17.1562C63.1953 17.1562 62.6224 17.0469 62.1328 16.8281C61.6484 16.6094 61.2448 16.3073 60.9219 15.9219C60.599 15.5312 60.3568 15.0781 60.1953 14.5625C60.0339 14.0417 59.9531 13.4844 59.9531 12.8906V12.6641C59.9531 12.0651 60.0339 11.5078 60.1953 10.9922C60.3568 10.4714 60.599 10.0182 60.9219 9.63281C61.2448 9.24219 61.6484 8.9375 62.1328 8.71875C62.6172 8.5 63.1849 8.39062 63.8359 8.39062C64.5286 8.39062 65.1354 8.52344 65.6562 8.78906C66.1823 9.05469 66.5938 9.4349 66.8906 9.92969C67.1927 10.4193 67.3464 11 67.3516 11.6719H65.2344C65.2292 11.3906 65.1693 11.1354 65.0547 10.9062C64.9453 10.6771 64.7839 10.4948 64.5703 10.3594C64.362 10.2188 64.1042 10.1484 63.7969 10.1484C63.4688 10.1484 63.2005 10.2188 62.9922 10.3594C62.7839 10.4948 62.6224 10.6823 62.5078 10.9219C62.3932 11.1562 62.3125 11.4245 62.2656 11.7266C62.224 12.0234 62.2031 12.3359 62.2031 12.6641V12.8906C62.2031 13.2188 62.224 13.5339 62.2656 13.8359C62.3073 14.138 62.3854 14.4062 62.5 14.6406C62.6198 14.875 62.7839 15.0599 62.9922 15.1953C63.2005 15.3307 63.4714 15.3984 63.8047 15.3984ZM73.2188 15.0938V11.3281C73.2188 11.0573 73.1745 10.8255 73.0859 10.6328C72.9974 10.4349 72.8594 10.2812 72.6719 10.1719C72.4896 10.0625 72.2526 10.0078 71.9609 10.0078C71.7109 10.0078 71.4948 10.0521 71.3125 10.1406C71.1302 10.224 70.9896 10.3464 70.8906 10.5078C70.7917 10.6641 70.7422 10.849 70.7422 11.0625H68.4922C68.4922 10.7031 68.5755 10.362 68.7422 10.0391C68.9089 9.71615 69.151 9.43229 69.4688 9.1875C69.7865 8.9375 70.1641 8.74219 70.6016 8.60156C71.0443 8.46094 71.5391 8.39062 72.0859 8.39062C72.7422 8.39062 73.3255 8.5 73.8359 8.71875C74.3464 8.9375 74.7474 9.26562 75.0391 9.70312C75.3359 10.1406 75.4844 10.6875 75.4844 11.3438V14.9609C75.4844 15.4245 75.513 15.8047 75.5703 16.1016C75.6276 16.3932 75.7109 16.6484 75.8203 16.8672V17H73.5469C73.4375 16.7708 73.3542 16.4844 73.2969 16.1406C73.2448 15.7917 73.2188 15.4427 73.2188 15.0938ZM73.5156 11.8516L73.5312 13.125H72.2734C71.9766 13.125 71.7188 13.1589 71.5 13.2266C71.2812 13.2943 71.1016 13.3906 70.9609 13.5156C70.8203 13.6354 70.7161 13.776 70.6484 13.9375C70.5859 14.099 70.5547 14.276 70.5547 14.4688C70.5547 14.6615 70.599 14.8359 70.6875 14.9922C70.776 15.1432 70.9036 15.263 71.0703 15.3516C71.237 15.4349 71.4323 15.4766 71.6562 15.4766C71.9948 15.4766 72.2891 15.4089 72.5391 15.2734C72.7891 15.138 72.9818 14.9714 73.1172 14.7734C73.2578 14.5755 73.3307 14.388 73.3359 14.2109L73.9297 15.1641C73.8464 15.3776 73.7318 15.599 73.5859 15.8281C73.4453 16.0573 73.2656 16.2734 73.0469 16.4766C72.8281 16.6745 72.5651 16.8385 72.2578 16.9688C71.9505 17.0938 71.5859 17.1562 71.1641 17.1562C70.6276 17.1562 70.1406 17.0495 69.7031 16.8359C69.2708 16.6172 68.9271 16.3177 68.6719 15.9375C68.4219 15.5521 68.2969 15.1146 68.2969 14.625C68.2969 14.1823 68.3802 13.7891 68.5469 13.4453C68.7135 13.1016 68.9583 12.8125 69.2812 12.5781C69.6094 12.3385 70.0182 12.1589 70.5078 12.0391C70.9974 11.9141 71.5651 11.8516 72.2109 11.8516H73.5156ZM46.5078 41H44.0312L44.0469 39.1719H46.5078C47.1224 39.1719 47.6406 39.0339 48.0625 38.7578C48.4844 38.4766 48.8021 38.0677 49.0156 37.5312C49.2344 36.9948 49.3438 36.3464 49.3438 35.5859V35.0312C49.3438 34.4479 49.2812 33.9349 49.1562 33.4922C49.0365 33.0495 48.8568 32.6771 48.6172 32.375C48.3776 32.0729 48.0833 31.8464 47.7344 31.6953C47.3854 31.5391 46.9844 31.4609 46.5312 31.4609H43.9844V29.625H46.5312C47.2917 29.625 47.987 29.7552 48.6172 30.0156C49.2526 30.2708 49.8021 30.638 50.2656 31.1172C50.7292 31.5964 51.0859 32.1693 51.3359 32.8359C51.5911 33.4974 51.7188 34.2344 51.7188 35.0469V35.5859C51.7188 36.3932 51.5911 37.1302 51.3359 37.7969C51.0859 38.4635 50.7292 39.0365 50.2656 39.5156C49.8073 39.9896 49.2578 40.3568 48.6172 40.6172C47.9818 40.8724 47.2786 41 46.5078 41ZM45.3594 29.625V41H43.0156V29.625H45.3594ZM57.1719 41.1562C56.5156 41.1562 55.9271 41.0521 55.4062 40.8438C54.8854 40.6302 54.4427 40.3359 54.0781 39.9609C53.7188 39.5859 53.4427 39.151 53.25 38.6562C53.0573 38.1562 52.9609 37.625 52.9609 37.0625V36.75C52.9609 36.1094 53.0521 35.5234 53.2344 34.9922C53.4167 34.4609 53.6771 34 54.0156 33.6094C54.3594 33.2188 54.776 32.9193 55.2656 32.7109C55.7552 32.4974 56.3073 32.3906 56.9219 32.3906C57.5208 32.3906 58.0521 32.4896 58.5156 32.6875C58.9792 32.8854 59.3672 33.1667 59.6797 33.5312C59.9974 33.8958 60.237 34.3333 60.3984 34.8438C60.5599 35.349 60.6406 35.9115 60.6406 36.5312V37.4688H53.9219V35.9688H58.4297V35.7969C58.4297 35.4844 58.3724 35.2057 58.2578 34.9609C58.1484 34.7109 57.9818 34.513 57.7578 34.3672C57.5339 34.2214 57.2474 34.1484 56.8984 34.1484C56.6016 34.1484 56.3464 34.2135 56.1328 34.3438C55.9193 34.474 55.7448 34.6562 55.6094 34.8906C55.4792 35.125 55.3802 35.401 55.3125 35.7188C55.25 36.0312 55.2188 36.375 55.2188 36.75V37.0625C55.2188 37.401 55.2656 37.7135 55.3594 38C55.4583 38.2865 55.5964 38.5339 55.7734 38.7422C55.9557 38.9505 56.1745 39.112 56.4297 39.2266C56.6901 39.3411 56.9844 39.3984 57.3125 39.3984C57.7188 39.3984 58.0964 39.3203 58.4453 39.1641C58.7995 39.0026 59.1042 38.7604 59.3594 38.4375L60.4531 39.625C60.276 39.8802 60.0339 40.125 59.7266 40.3594C59.4245 40.5938 59.0599 40.7865 58.6328 40.9375C58.2057 41.0833 57.7188 41.1562 57.1719 41.1562ZM65.4141 39.3984C65.6901 39.3984 65.9349 39.3464 66.1484 39.2422C66.362 39.1328 66.5286 38.9818 66.6484 38.7891C66.7734 38.5911 66.8385 38.3594 66.8438 38.0938H68.9609C68.9557 38.6875 68.7969 39.2161 68.4844 39.6797C68.1719 40.138 67.7526 40.5 67.2266 40.7656C66.7005 41.026 66.112 41.1562 65.4609 41.1562C64.8047 41.1562 64.2318 41.0469 63.7422 40.8281C63.2578 40.6094 62.8542 40.3073 62.5312 39.9219C62.2083 39.5312 61.9661 39.0781 61.8047 38.5625C61.6432 38.0417 61.5625 37.4844 61.5625 36.8906V36.6641C61.5625 36.0651 61.6432 35.5078 61.8047 34.9922C61.9661 34.4714 62.2083 34.0182 62.5312 33.6328C62.8542 33.2422 63.2578 32.9375 63.7422 32.7188C64.2266 32.5 64.7943 32.3906 65.4453 32.3906C66.138 32.3906 66.7448 32.5234 67.2656 32.7891C67.7917 33.0547 68.2031 33.4349 68.5 33.9297C68.8021 34.4193 68.9557 35 68.9609 35.6719H66.8438C66.8385 35.3906 66.7786 35.1354 66.6641 34.9062C66.5547 34.6771 66.3932 34.4948 66.1797 34.3594C65.9714 34.2188 65.7135 34.1484 65.4062 34.1484C65.0781 34.1484 64.8099 34.2188 64.6016 34.3594C64.3932 34.4948 64.2318 34.6823 64.1172 34.9219C64.0026 35.1562 63.9219 35.4245 63.875 35.7266C63.8333 36.0234 63.8125 36.3359 63.8125 36.6641V36.8906C63.8125 37.2188 63.8333 37.5339 63.875 37.8359C63.9167 38.138 63.9948 38.4062 64.1094 38.6406C64.2292 38.875 64.3932 39.0599 64.6016 39.1953C64.8099 39.3307 65.0807 39.3984 65.4141 39.3984ZM74.1562 41.1562C73.5 41.1562 72.9115 41.0521 72.3906 40.8438C71.8698 40.6302 71.4271 40.3359 71.0625 39.9609C70.7031 39.5859 70.4271 39.151 70.2344 38.6562C70.0417 38.1562 69.9453 37.625 69.9453 37.0625V36.75C69.9453 36.1094 70.0365 35.5234 70.2188 34.9922C70.401 34.4609 70.6615 34 71 33.6094C71.3438 33.2188 71.7604 32.9193 72.25 32.7109C72.7396 32.4974 73.2917 32.3906 73.9062 32.3906C74.5052 32.3906 75.0365 32.4896 75.5 32.6875C75.9635 32.8854 76.3516 33.1667 76.6641 33.5312C76.9818 33.8958 77.2214 34.3333 77.3828 34.8438C77.5443 35.349 77.625 35.9115 77.625 36.5312V37.4688H70.9062V35.9688H75.4141V35.7969C75.4141 35.4844 75.3568 35.2057 75.2422 34.9609C75.1328 34.7109 74.9661 34.513 74.7422 34.3672C74.5182 34.2214 74.2318 34.1484 73.8828 34.1484C73.5859 34.1484 73.3307 34.2135 73.1172 34.3438C72.9036 34.474 72.7292 34.6562 72.5938 34.8906C72.4635 35.125 72.3646 35.401 72.2969 35.7188C72.2344 36.0312 72.2031 36.375 72.2031 36.75V37.0625C72.2031 37.401 72.25 37.7135 72.3438 38C72.4427 38.2865 72.5807 38.5339 72.7578 38.7422C72.9401 38.9505 73.1589 39.112 73.4141 39.2266C73.6745 39.3411 73.9688 39.3984 74.2969 39.3984C74.7031 39.3984 75.0807 39.3203 75.4297 39.1641C75.7839 39.0026 76.0885 38.7604 76.3438 38.4375L77.4375 39.625C77.2604 39.8802 77.0182 40.125 76.7109 40.3594C76.4089 40.5938 76.0443 40.7865 75.6172 40.9375C75.1901 41.0833 74.7031 41.1562 74.1562 41.1562ZM81.1562 34.2969V41H78.8984V32.5469H81.0156L81.1562 34.2969ZM80.8438 36.4766H80.2188C80.2188 35.888 80.2891 35.3464 80.4297 34.8516C80.5755 34.3516 80.7865 33.9193 81.0625 33.5547C81.3438 33.1849 81.6901 32.8984 82.1016 32.6953C82.513 32.4922 82.9896 32.3906 83.5312 32.3906C83.9062 32.3906 84.25 32.4479 84.5625 32.5625C84.875 32.6719 85.1432 32.8464 85.3672 33.0859C85.5964 33.3203 85.7734 33.6276 85.8984 34.0078C86.0234 34.3828 86.0859 34.8333 86.0859 35.3594V41H83.8359V35.6094C83.8359 35.224 83.7839 34.9271 83.6797 34.7188C83.5755 34.5104 83.4271 34.3646 83.2344 34.2812C83.0469 34.1979 82.8203 34.1562 82.5547 34.1562C82.263 34.1562 82.0078 34.2161 81.7891 34.3359C81.5755 34.4557 81.3984 34.6224 81.2578 34.8359C81.1172 35.0443 81.013 35.2891 80.9453 35.5703C80.8776 35.8516 80.8438 36.1536 80.8438 36.4766ZM85.875 36.2188L85.0703 36.3203C85.0703 35.7682 85.138 35.2552 85.2734 34.7812C85.4141 34.3073 85.6198 33.8906 85.8906 33.5312C86.1667 33.1719 86.5078 32.8932 86.9141 32.6953C87.3203 32.4922 87.7891 32.3906 88.3203 32.3906C88.7266 32.3906 89.0964 32.4505 89.4297 32.5703C89.763 32.6849 90.0469 32.8698 90.2812 33.125C90.5208 33.375 90.7031 33.7031 90.8281 34.1094C90.9583 34.5156 91.0234 35.013 91.0234 35.6016V41H88.7656V35.6016C88.7656 35.2109 88.7135 34.9141 88.6094 34.7109C88.5104 34.5026 88.3646 34.3594 88.1719 34.2812C87.9844 34.1979 87.7604 34.1562 87.5 34.1562C87.2292 34.1562 86.9922 34.2109 86.7891 34.3203C86.5859 34.4245 86.4167 34.5703 86.2812 34.7578C86.1458 34.9453 86.0443 35.1641 85.9766 35.4141C85.9089 35.6589 85.875 35.9271 85.875 36.2188ZM92.7656 29H95.0156V39.0625L94.7891 41H92.7656V29ZM100.367 36.6875V36.8516C100.367 37.4818 100.299 38.0599 100.164 38.5859C100.034 39.112 99.8307 39.5677 99.5547 39.9531C99.2786 40.3333 98.9349 40.6302 98.5234 40.8438C98.1172 41.0521 97.638 41.1562 97.0859 41.1562C96.5703 41.1562 96.1224 41.0521 95.7422 40.8438C95.3672 40.6354 95.0521 40.3411 94.7969 39.9609C94.5417 39.5807 94.3359 39.1354 94.1797 38.625C94.0234 38.1146 93.9062 37.5573 93.8281 36.9531V36.5938C93.9062 35.9896 94.0234 35.4323 94.1797 34.9219C94.3359 34.4115 94.5417 33.9661 94.7969 33.5859C95.0521 33.2057 95.3672 32.9115 95.7422 32.7031C96.1172 32.4948 96.5599 32.3906 97.0703 32.3906C97.6276 32.3906 98.112 32.4974 98.5234 32.7109C98.9401 32.9193 99.2839 33.2161 99.5547 33.6016C99.8307 33.9818 100.034 34.4349 100.164 34.9609C100.299 35.4818 100.367 36.0573 100.367 36.6875ZM98.1172 36.8516V36.6875C98.1172 36.3438 98.0911 36.0208 98.0391 35.7188C97.9922 35.4115 97.9089 35.1432 97.7891 34.9141C97.6693 34.6797 97.5052 34.4948 97.2969 34.3594C97.0938 34.224 96.8307 34.1562 96.5078 34.1562C96.2005 34.1562 95.9401 34.2083 95.7266 34.3125C95.513 34.4167 95.3359 34.5625 95.1953 34.75C95.0599 34.9375 94.9583 35.1615 94.8906 35.4219C94.8229 35.6771 94.7812 35.9583 94.7656 36.2656V37.2891C94.7812 37.7005 94.849 38.0651 94.9688 38.3828C95.0938 38.6953 95.2812 38.9427 95.5312 39.125C95.7865 39.3021 96.1172 39.3906 96.5234 39.3906C96.8411 39.3906 97.1042 39.3281 97.3125 39.2031C97.5208 39.0781 97.6823 38.901 97.7969 38.6719C97.9167 38.4427 98 38.1745 98.0469 37.8672C98.0938 37.5547 98.1172 37.2161 98.1172 36.8516ZM105.656 41.1562C105 41.1562 104.411 41.0521 103.891 40.8438C103.37 40.6302 102.927 40.3359 102.562 39.9609C102.203 39.5859 101.927 39.151 101.734 38.6562C101.542 38.1562 101.445 37.625 101.445 37.0625V36.75C101.445 36.1094 101.536 35.5234 101.719 34.9922C101.901 34.4609 102.161 34 102.5 33.6094C102.844 33.2188 103.26 32.9193 103.75 32.7109C104.24 32.4974 104.792 32.3906 105.406 32.3906C106.005 32.3906 106.536 32.4896 107 32.6875C107.464 32.8854 107.852 33.1667 108.164 33.5312C108.482 33.8958 108.721 34.3333 108.883 34.8438C109.044 35.349 109.125 35.9115 109.125 36.5312V37.4688H102.406V35.9688H106.914V35.7969C106.914 35.4844 106.857 35.2057 106.742 34.9609C106.633 34.7109 106.466 34.513 106.242 34.3672C106.018 34.2214 105.732 34.1484 105.383 34.1484C105.086 34.1484 104.831 34.2135 104.617 34.3438C104.404 34.474 104.229 34.6562 104.094 34.8906C103.964 35.125 103.865 35.401 103.797 35.7188C103.734 36.0312 103.703 36.375 103.703 36.75V37.0625C103.703 37.401 103.75 37.7135 103.844 38C103.943 38.2865 104.081 38.5339 104.258 38.7422C104.44 38.9505 104.659 39.112 104.914 39.2266C105.174 39.3411 105.469 39.3984 105.797 39.3984C106.203 39.3984 106.581 39.3203 106.93 39.1641C107.284 39.0026 107.589 38.7604 107.844 38.4375L108.938 39.625C108.76 39.8802 108.518 40.125 108.211 40.3594C107.909 40.5938 107.544 40.7865 107.117 40.9375C106.69 41.0833 106.203 41.1562 105.656 41.1562ZM112.656 34.3906V41H110.406V32.5469H112.523L112.656 34.3906ZM115.203 32.4922L115.164 34.5781C115.055 34.5625 114.922 34.5495 114.766 34.5391C114.615 34.5234 114.477 34.5156 114.352 34.5156C114.034 34.5156 113.758 34.5573 113.523 34.6406C113.294 34.7188 113.102 34.8359 112.945 34.9922C112.794 35.1484 112.68 35.3385 112.602 35.5625C112.529 35.7865 112.487 36.0417 112.477 36.3281L112.023 36.1875C112.023 35.6406 112.078 35.138 112.188 34.6797C112.297 34.2161 112.456 33.8125 112.664 33.4688C112.878 33.125 113.138 32.8594 113.445 32.6719C113.753 32.4844 114.104 32.3906 114.5 32.3906C114.625 32.3906 114.753 32.401 114.883 32.4219C115.013 32.4375 115.12 32.4609 115.203 32.4922ZM127.883 29.625V30.8359L123.484 41H121.109L125.508 31.3828H119.844V29.625H127.883ZM131.57 39.1016L131.562 40.6094C131.562 41.1875 131.417 41.7708 131.125 42.3594C130.839 42.9479 130.474 43.4297 130.031 43.8047L128.859 43.2031C128.99 42.9635 129.117 42.724 129.242 42.4844C129.367 42.2448 129.471 41.9818 129.555 41.6953C129.638 41.4089 129.68 41.0833 129.68 40.7188V39.1016H131.57ZM145.047 39.2422V41H137.266V39.5L140.945 35.5547C141.315 35.1432 141.607 34.7812 141.82 34.4688C142.034 34.151 142.188 33.8672 142.281 33.6172C142.38 33.362 142.43 33.1198 142.43 32.8906C142.43 32.5469 142.372 32.2526 142.258 32.0078C142.143 31.7578 141.974 31.5651 141.75 31.4297C141.531 31.2943 141.26 31.2266 140.938 31.2266C140.594 31.2266 140.297 31.3099 140.047 31.4766C139.802 31.6432 139.615 31.875 139.484 32.1719C139.359 32.4688 139.297 32.8047 139.297 33.1797H137.039C137.039 32.5026 137.201 31.8828 137.523 31.3203C137.846 30.7526 138.302 30.3021 138.891 29.9688C139.479 29.6302 140.177 29.4609 140.984 29.4609C141.781 29.4609 142.453 29.5911 143 29.8516C143.552 30.1068 143.969 30.4766 144.25 30.9609C144.536 31.4401 144.68 32.013 144.68 32.6797C144.68 33.0547 144.62 33.4219 144.5 33.7812C144.38 34.1354 144.208 34.4896 143.984 34.8438C143.766 35.1927 143.5 35.5469 143.188 35.9062C142.875 36.2656 142.529 36.638 142.148 37.0234L140.172 39.2422H145.047ZM154.109 34.3125V36.2812C154.109 37.1354 154.018 37.8724 153.836 38.4922C153.654 39.1068 153.391 39.612 153.047 40.0078C152.708 40.3984 152.305 40.6875 151.836 40.875C151.367 41.0625 150.846 41.1562 150.273 41.1562C149.815 41.1562 149.388 41.099 148.992 40.9844C148.596 40.8646 148.24 40.6797 147.922 40.4297C147.609 40.1797 147.339 39.8646 147.109 39.4844C146.885 39.099 146.714 38.6406 146.594 38.1094C146.474 37.5781 146.414 36.9688 146.414 36.2812V34.3125C146.414 33.4583 146.505 32.7266 146.688 32.1172C146.875 31.5026 147.138 31 147.477 30.6094C147.82 30.2188 148.227 29.9323 148.695 29.75C149.164 29.5625 149.685 29.4688 150.258 29.4688C150.716 29.4688 151.141 29.5286 151.531 29.6484C151.927 29.763 152.284 29.9427 152.602 30.1875C152.919 30.4323 153.19 30.7474 153.414 31.1328C153.638 31.513 153.81 31.9688 153.93 32.5C154.049 33.026 154.109 33.6302 154.109 34.3125ZM151.852 36.5781V34.0078C151.852 33.5964 151.828 33.237 151.781 32.9297C151.74 32.6224 151.674 32.362 151.586 32.1484C151.497 31.9297 151.388 31.7526 151.258 31.6172C151.128 31.4818 150.979 31.3828 150.812 31.3203C150.646 31.2578 150.461 31.2266 150.258 31.2266C150.003 31.2266 149.776 31.276 149.578 31.375C149.385 31.474 149.221 31.6328 149.086 31.8516C148.951 32.0651 148.846 32.3516 148.773 32.7109C148.706 33.0651 148.672 33.4974 148.672 34.0078V36.5781C148.672 36.9896 148.693 37.3516 148.734 37.6641C148.781 37.9766 148.849 38.2448 148.938 38.4688C149.031 38.6875 149.141 38.8672 149.266 39.0078C149.396 39.1432 149.544 39.2422 149.711 39.3047C149.883 39.3672 150.07 39.3984 150.273 39.3984C150.523 39.3984 150.745 39.349 150.938 39.25C151.135 39.1458 151.302 38.9844 151.438 38.7656C151.578 38.5417 151.682 38.25 151.75 37.8906C151.818 37.5312 151.852 37.0938 151.852 36.5781ZM163.422 39.2422V41H155.641V39.5L159.32 35.5547C159.69 35.1432 159.982 34.7812 160.195 34.4688C160.409 34.151 160.562 33.8672 160.656 33.6172C160.755 33.362 160.805 33.1198 160.805 32.8906C160.805 32.5469 160.747 32.2526 160.633 32.0078C160.518 31.7578 160.349 31.5651 160.125 31.4297C159.906 31.2943 159.635 31.2266 159.312 31.2266C158.969 31.2266 158.672 31.3099 158.422 31.4766C158.177 31.6432 157.99 31.875 157.859 32.1719C157.734 32.4688 157.672 32.8047 157.672 33.1797H155.414C155.414 32.5026 155.576 31.8828 155.898 31.3203C156.221 30.7526 156.677 30.3021 157.266 29.9688C157.854 29.6302 158.552 29.4609 159.359 29.4609C160.156 29.4609 160.828 29.5911 161.375 29.8516C161.927 30.1068 162.344 30.4766 162.625 30.9609C162.911 31.4401 163.055 32.013 163.055 32.6797C163.055 33.0547 162.995 33.4219 162.875 33.7812C162.755 34.1354 162.583 34.4896 162.359 34.8438C162.141 35.1927 161.875 35.5469 161.562 35.9062C161.25 36.2656 160.904 36.638 160.523 37.0234L158.547 39.2422H163.422ZM170.312 29.6016V41H168.062V32.1953L165.359 33.0547V31.2812L170.07 29.6016H170.312Z" fill="white"/>
<rect x="92" y="5" width="81" height="14" rx="3" fill="white"/>
<path d="M107.211 12.2559H105.02L105.008 11.0488H106.848C107.172 11.0488 107.438 11.0078 107.645 10.9258C107.852 10.8398 108.006 10.7168 108.107 10.5566C108.213 10.3926 108.266 10.1934 108.266 9.95898C108.266 9.69336 108.215 9.47852 108.113 9.31445C108.016 9.15039 107.861 9.03125 107.65 8.95703C107.443 8.88281 107.176 8.8457 106.848 8.8457H105.629V16H103.871V7.46875H106.848C107.344 7.46875 107.787 7.51562 108.178 7.60938C108.572 7.70312 108.906 7.8457 109.18 8.03711C109.453 8.22852 109.662 8.4707 109.807 8.76367C109.951 9.05273 110.023 9.39648 110.023 9.79492C110.023 10.1465 109.943 10.4707 109.783 10.7676C109.627 11.0645 109.379 11.3066 109.039 11.4941C108.703 11.6816 108.264 11.7852 107.721 11.8047L107.211 12.2559ZM107.135 16H104.539L105.225 14.6289H107.135C107.443 14.6289 107.695 14.5801 107.891 14.4824C108.086 14.3809 108.23 14.2441 108.324 14.0723C108.418 13.9004 108.465 13.7031 108.465 13.4805C108.465 13.2305 108.422 13.0137 108.336 12.8301C108.254 12.6465 108.121 12.5059 107.938 12.4082C107.754 12.3066 107.512 12.2559 107.211 12.2559H105.518L105.529 11.0488H107.639L108.043 11.5234C108.562 11.5156 108.98 11.6074 109.297 11.7988C109.617 11.9863 109.85 12.2305 109.994 12.5312C110.143 12.832 110.217 13.1543 110.217 13.498C110.217 14.0449 110.098 14.5059 109.859 14.8809C109.621 15.252 109.271 15.5312 108.811 15.7188C108.354 15.9062 107.795 16 107.135 16ZM114.348 16.1172C113.855 16.1172 113.414 16.0391 113.023 15.8828C112.633 15.7227 112.301 15.502 112.027 15.2207C111.758 14.9395 111.551 14.6133 111.406 14.2422C111.262 13.8672 111.189 13.4688 111.189 13.0469V12.8125C111.189 12.332 111.258 11.8926 111.395 11.4941C111.531 11.0957 111.727 10.75 111.98 10.457C112.238 10.1641 112.551 9.93945 112.918 9.7832C113.285 9.62305 113.699 9.54297 114.16 9.54297C114.609 9.54297 115.008 9.61719 115.355 9.76562C115.703 9.91406 115.994 10.125 116.229 10.3984C116.467 10.6719 116.646 11 116.768 11.3828C116.889 11.7617 116.949 12.1836 116.949 12.6484V13.3516H111.91V12.2266H115.291V12.0977C115.291 11.8633 115.248 11.6543 115.162 11.4707C115.08 11.2832 114.955 11.1348 114.787 11.0254C114.619 10.916 114.404 10.8613 114.143 10.8613C113.92 10.8613 113.729 10.9102 113.568 11.0078C113.408 11.1055 113.277 11.2422 113.176 11.418C113.078 11.5938 113.004 11.8008 112.953 12.0391C112.906 12.2734 112.883 12.5312 112.883 12.8125V13.0469C112.883 13.3008 112.918 13.5352 112.988 13.75C113.062 13.9648 113.166 14.1504 113.299 14.3066C113.436 14.4629 113.6 14.584 113.791 14.6699C113.986 14.7559 114.207 14.7988 114.453 14.7988C114.758 14.7988 115.041 14.7402 115.303 14.623C115.568 14.502 115.797 14.3203 115.988 14.0781L116.809 14.9688C116.676 15.1602 116.494 15.3438 116.264 15.5195C116.037 15.6953 115.764 15.8398 115.443 15.9531C115.123 16.0625 114.758 16.1172 114.348 16.1172ZM121.016 9.66016V10.8555H117.324V9.66016H121.016ZM118.238 8.0957H119.926V14.0898C119.926 14.2734 119.949 14.4141 119.996 14.5117C120.047 14.6094 120.121 14.6777 120.219 14.7168C120.316 14.752 120.439 14.7695 120.588 14.7695C120.693 14.7695 120.787 14.7656 120.869 14.7578C120.955 14.7461 121.027 14.7344 121.086 14.7227L121.092 15.9648C120.947 16.0117 120.791 16.0488 120.623 16.0762C120.455 16.1035 120.27 16.1172 120.066 16.1172C119.695 16.1172 119.371 16.0566 119.094 15.9355C118.82 15.8105 118.609 15.6113 118.461 15.3379C118.312 15.0645 118.238 14.7051 118.238 14.2598V8.0957ZM125.398 14.5703V11.7461C125.398 11.543 125.365 11.3691 125.299 11.2246C125.232 11.0762 125.129 10.9609 124.988 10.8789C124.852 10.7969 124.674 10.7559 124.455 10.7559C124.268 10.7559 124.105 10.7891 123.969 10.8555C123.832 10.918 123.727 11.0098 123.652 11.1309C123.578 11.248 123.541 11.3867 123.541 11.5469H121.854C121.854 11.2773 121.916 11.0215 122.041 10.7793C122.166 10.5371 122.348 10.3242 122.586 10.1406C122.824 9.95312 123.107 9.80664 123.436 9.70117C123.768 9.5957 124.139 9.54297 124.549 9.54297C125.041 9.54297 125.479 9.625 125.861 9.78906C126.244 9.95312 126.545 10.1992 126.764 10.5273C126.986 10.8555 127.098 11.2656 127.098 11.7578V14.4707C127.098 14.8184 127.119 15.1035 127.162 15.3262C127.205 15.5449 127.268 15.7363 127.35 15.9004V16H125.645C125.562 15.8281 125.5 15.6133 125.457 15.3555C125.418 15.0938 125.398 14.832 125.398 14.5703ZM125.621 12.1387L125.633 13.0938H124.689C124.467 13.0938 124.273 13.1191 124.109 13.1699C123.945 13.2207 123.811 13.293 123.705 13.3867C123.6 13.4766 123.521 13.582 123.471 13.7031C123.424 13.8242 123.4 13.957 123.4 14.1016C123.4 14.2461 123.434 14.377 123.5 14.4941C123.566 14.6074 123.662 14.6973 123.787 14.7637C123.912 14.8262 124.059 14.8574 124.227 14.8574C124.48 14.8574 124.701 14.8066 124.889 14.7051C125.076 14.6035 125.221 14.4785 125.322 14.3301C125.428 14.1816 125.482 14.041 125.486 13.9082L125.932 14.623C125.869 14.7832 125.783 14.9492 125.674 15.1211C125.568 15.293 125.434 15.4551 125.27 15.6074C125.105 15.7559 124.908 15.8789 124.678 15.9766C124.447 16.0703 124.174 16.1172 123.857 16.1172C123.455 16.1172 123.09 16.0371 122.762 15.877C122.438 15.7129 122.18 15.4883 121.988 15.2031C121.801 14.9141 121.707 14.5859 121.707 14.2188C121.707 13.8867 121.77 13.5918 121.895 13.334C122.02 13.0762 122.203 12.8594 122.445 12.6836C122.691 12.5039 122.998 12.3691 123.365 12.2793C123.732 12.1855 124.158 12.1387 124.643 12.1387H125.621ZM134.99 7.46875V16H133.238V7.46875H134.99ZM137.615 7.46875V8.8457H130.654V7.46875H137.615ZM140.879 16.1172C140.387 16.1172 139.945 16.0391 139.555 15.8828C139.164 15.7227 138.832 15.502 138.559 15.2207C138.289 14.9395 138.082 14.6133 137.938 14.2422C137.793 13.8672 137.721 13.4688 137.721 13.0469V12.8125C137.721 12.332 137.789 11.8926 137.926 11.4941C138.062 11.0957 138.258 10.75 138.512 10.457C138.77 10.1641 139.082 9.93945 139.449 9.7832C139.816 9.62305 140.23 9.54297 140.691 9.54297C141.141 9.54297 141.539 9.61719 141.887 9.76562C142.234 9.91406 142.525 10.125 142.76 10.3984C142.998 10.6719 143.178 11 143.299 11.3828C143.42 11.7617 143.48 12.1836 143.48 12.6484V13.3516H138.441V12.2266H141.822V12.0977C141.822 11.8633 141.779 11.6543 141.693 11.4707C141.611 11.2832 141.486 11.1348 141.318 11.0254C141.15 10.916 140.936 10.8613 140.674 10.8613C140.451 10.8613 140.26 10.9102 140.1 11.0078C139.939 11.1055 139.809 11.2422 139.707 11.418C139.609 11.5938 139.535 11.8008 139.484 12.0391C139.438 12.2734 139.414 12.5312 139.414 12.8125V13.0469C139.414 13.3008 139.449 13.5352 139.52 13.75C139.594 13.9648 139.697 14.1504 139.83 14.3066C139.967 14.4629 140.131 14.584 140.322 14.6699C140.518 14.7559 140.738 14.7988 140.984 14.7988C141.289 14.7988 141.572 14.7402 141.834 14.623C142.1 14.502 142.328 14.3203 142.52 14.0781L143.34 14.9688C143.207 15.1602 143.025 15.3438 142.795 15.5195C142.568 15.6953 142.295 15.8398 141.975 15.9531C141.654 16.0625 141.289 16.1172 140.879 16.1172ZM147.869 14.248C147.869 14.127 147.834 14.0176 147.764 13.9199C147.693 13.8223 147.562 13.7324 147.371 13.6504C147.184 13.5645 146.912 13.4863 146.557 13.416C146.236 13.3457 145.938 13.2578 145.66 13.1523C145.387 13.043 145.148 12.9121 144.945 12.7598C144.746 12.6074 144.59 12.4277 144.477 12.2207C144.363 12.0098 144.307 11.7695 144.307 11.5C144.307 11.2344 144.363 10.9844 144.477 10.75C144.594 10.5156 144.76 10.3086 144.975 10.1289C145.193 9.94531 145.459 9.80273 145.771 9.70117C146.088 9.5957 146.443 9.54297 146.838 9.54297C147.389 9.54297 147.861 9.63086 148.256 9.80664C148.654 9.98242 148.959 10.2246 149.17 10.5332C149.385 10.8379 149.492 11.1855 149.492 11.5762H147.805C147.805 11.4121 147.77 11.2656 147.699 11.1367C147.633 11.0039 147.527 10.9004 147.383 10.8262C147.242 10.748 147.059 10.709 146.832 10.709C146.645 10.709 146.482 10.7422 146.346 10.8086C146.209 10.8711 146.104 10.957 146.029 11.0664C145.959 11.1719 145.924 11.2891 145.924 11.418C145.924 11.5156 145.943 11.6035 145.982 11.6816C146.025 11.7559 146.094 11.8242 146.188 11.8867C146.281 11.9492 146.402 12.0078 146.551 12.0625C146.703 12.1133 146.891 12.1602 147.113 12.2031C147.57 12.2969 147.979 12.4199 148.338 12.5723C148.697 12.7207 148.982 12.9238 149.193 13.1816C149.404 13.4355 149.51 13.7695 149.51 14.1836C149.51 14.4648 149.447 14.7227 149.322 14.957C149.197 15.1914 149.018 15.3965 148.783 15.5723C148.549 15.7441 148.268 15.8789 147.939 15.9766C147.615 16.0703 147.25 16.1172 146.844 16.1172C146.254 16.1172 145.754 16.0117 145.344 15.8008C144.938 15.5898 144.629 15.3223 144.418 14.998C144.211 14.6699 144.107 14.334 144.107 13.9902H145.707C145.715 14.2207 145.773 14.4062 145.883 14.5469C145.996 14.6875 146.139 14.7891 146.311 14.8516C146.486 14.9141 146.676 14.9453 146.879 14.9453C147.098 14.9453 147.279 14.916 147.424 14.8574C147.568 14.7949 147.678 14.7129 147.752 14.6113C147.83 14.5059 147.869 14.3848 147.869 14.248ZM153.711 9.66016V10.8555H150.02V9.66016H153.711ZM150.934 8.0957H152.621V14.0898C152.621 14.2734 152.645 14.4141 152.691 14.5117C152.742 14.6094 152.816 14.6777 152.914 14.7168C153.012 14.752 153.135 14.7695 153.283 14.7695C153.389 14.7695 153.482 14.7656 153.564 14.7578C153.65 14.7461 153.723 14.7344 153.781 14.7227L153.787 15.9648C153.643 16.0117 153.486 16.0488 153.318 16.0762C153.15 16.1035 152.965 16.1172 152.762 16.1172C152.391 16.1172 152.066 16.0566 151.789 15.9355C151.516 15.8105 151.305 15.6113 151.156 15.3379C151.008 15.0645 150.934 14.7051 150.934 14.2598V8.0957ZM157.59 16.1172C157.098 16.1172 156.656 16.0391 156.266 15.8828C155.875 15.7227 155.543 15.502 155.27 15.2207C155 14.9395 154.793 14.6133 154.648 14.2422C154.504 13.8672 154.432 13.4688 154.432 13.0469V12.8125C154.432 12.332 154.5 11.8926 154.637 11.4941C154.773 11.0957 154.969 10.75 155.223 10.457C155.48 10.1641 155.793 9.93945 156.16 9.7832C156.527 9.62305 156.941 9.54297 157.402 9.54297C157.852 9.54297 158.25 9.61719 158.598 9.76562C158.945 9.91406 159.236 10.125 159.471 10.3984C159.709 10.6719 159.889 11 160.01 11.3828C160.131 11.7617 160.191 12.1836 160.191 12.6484V13.3516H155.152V12.2266H158.533V12.0977C158.533 11.8633 158.49 11.6543 158.404 11.4707C158.322 11.2832 158.197 11.1348 158.029 11.0254C157.861 10.916 157.646 10.8613 157.385 10.8613C157.162 10.8613 156.971 10.9102 156.811 11.0078C156.65 11.1055 156.52 11.2422 156.418 11.418C156.32 11.5938 156.246 11.8008 156.195 12.0391C156.148 12.2734 156.125 12.5312 156.125 12.8125V13.0469C156.125 13.3008 156.16 13.5352 156.23 13.75C156.305 13.9648 156.408 14.1504 156.541 14.3066C156.678 14.4629 156.842 14.584 157.033 14.6699C157.229 14.7559 157.449 14.7988 157.695 14.7988C158 14.7988 158.283 14.7402 158.545 14.623C158.811 14.502 159.039 14.3203 159.23 14.0781L160.051 14.9688C159.918 15.1602 159.736 15.3438 159.506 15.5195C159.279 15.6953 159.006 15.8398 158.686 15.9531C158.365 16.0625 158 16.1172 157.59 16.1172ZM162.84 11.043V16H161.152V9.66016H162.74L162.84 11.043ZM164.75 9.61914L164.721 11.1836C164.639 11.1719 164.539 11.1621 164.422 11.1543C164.309 11.1426 164.205 11.1367 164.111 11.1367C163.873 11.1367 163.666 11.168 163.49 11.2305C163.318 11.2891 163.174 11.377 163.057 11.4941C162.943 11.6113 162.857 11.7539 162.799 11.9219C162.744 12.0898 162.713 12.2812 162.705 12.4961L162.365 12.3906C162.365 11.9805 162.406 11.6035 162.488 11.2598C162.57 10.9121 162.689 10.6094 162.846 10.3516C163.006 10.0938 163.201 9.89453 163.432 9.75391C163.662 9.61328 163.926 9.54297 164.223 9.54297C164.316 9.54297 164.412 9.55078 164.51 9.56641C164.607 9.57812 164.688 9.5957 164.75 9.61914Z" fill="black" fill-opacity="0.85"/>
<path d="M29.0291 35.1C28.2712 33.3047 27.1713 31.674 25.7907 30.2987C24.4143 28.9194 22.7839 27.8197 20.9894 27.0603C20.9733 27.0522 20.9572 27.0482 20.9412 27.0402C23.4443 25.2321 25.0715 22.2871 25.0715 18.9643C25.0715 13.4598 20.6117 9 15.1072 9C9.60278 9 5.14296 13.4598 5.14296 18.9643C5.14296 22.2871 6.77019 25.2321 9.27331 27.0442C9.25724 27.0522 9.24117 27.0563 9.2251 27.0643C7.4251 27.8237 5.80992 28.9125 4.42376 30.3027C3.04447 31.6791 1.94476 33.3095 1.18537 35.104C0.439341 36.8608 0.0369922 38.7444 0.000100471 40.6527C-0.000971916 40.6956 0.00654962 40.7382 0.0222221 40.7782C0.0378946 40.8181 0.0614008 40.8545 0.0913557 40.8852C0.121311 40.9159 0.157108 40.9403 0.196639 40.9569C0.236169 40.9736 0.278634 40.9822 0.321529 40.9821H2.73224C2.90903 40.9821 3.04965 40.8415 3.05367 40.6688C3.13403 37.567 4.37956 34.6621 6.58135 32.4603C8.85948 30.1821 11.8849 28.9286 15.1072 28.9286C18.3296 28.9286 21.355 30.1821 23.6331 32.4603C25.8349 34.6621 27.0805 37.567 27.1608 40.6688C27.1648 40.8455 27.3055 40.9821 27.4822 40.9821H29.893C29.9359 40.9822 29.9783 40.9736 30.0178 40.9569C30.0574 40.9403 30.0932 40.9159 30.1231 40.8852C30.1531 40.8545 30.1766 40.8181 30.1923 40.7782C30.2079 40.7382 30.2155 40.6956 30.2144 40.6527C30.1742 38.7321 29.7764 36.8638 29.0291 35.1ZM15.1072 25.875C13.263 25.875 11.5273 25.1558 10.2215 23.85C8.91572 22.5442 8.19653 20.8085 8.19653 18.9643C8.19653 17.1201 8.91572 15.3844 10.2215 14.0786C11.5273 12.7728 13.263 12.0536 15.1072 12.0536C16.9514 12.0536 18.6872 12.7728 19.993 14.0786C21.2988 15.3844 22.018 17.1201 22.018 18.9643C22.018 20.8085 21.2988 22.5442 19.993 23.85C18.6872 25.1558 16.9514 25.875 15.1072 25.875Z" fill="white"/>
</svg>
