<svg width="568" height="103" viewBox="0 0 568 103" fill="none" xmlns="http://www.w3.org/2000/svg">
<path d="M269.81 48.0469H273.33C274.087 48.0469 274.731 48.1608 275.265 48.3887C275.798 48.6165 276.206 48.9538 276.488 49.4004C276.775 49.8424 276.919 50.3893 276.919 51.041C276.919 51.5378 276.828 51.9753 276.646 52.3535C276.463 52.7318 276.206 53.0508 275.873 53.3105C275.54 53.5658 275.144 53.764 274.684 53.9053L274.164 54.1582H270.999L270.985 52.7979H273.357C273.768 52.7979 274.109 52.7249 274.383 52.5791C274.656 52.4333 274.861 52.235 274.998 51.9844C275.139 51.7292 275.21 51.4421 275.21 51.123C275.21 50.7767 275.142 50.4759 275.005 50.2207C274.873 49.9609 274.668 49.7627 274.39 49.626C274.112 49.4847 273.758 49.4141 273.33 49.4141H271.525V58H269.81V48.0469ZM275.49 58L273.152 53.5293L274.95 53.5225L277.322 57.9111V58H275.49ZM282.914 56.2568V50.6035H284.568V58H283.01L282.914 56.2568ZM283.146 54.7188L283.7 54.7051C283.7 55.2018 283.646 55.6598 283.536 56.0791C283.427 56.4938 283.258 56.8561 283.03 57.166C282.802 57.4714 282.511 57.7106 282.155 57.8838C281.8 58.0524 281.374 58.1367 280.877 58.1367C280.517 58.1367 280.187 58.0843 279.886 57.9795C279.585 57.8747 279.325 57.7129 279.106 57.4941C278.892 57.2754 278.726 56.9906 278.607 56.6396C278.489 56.2887 278.43 55.8695 278.43 55.3818V50.6035H280.077V55.3955C280.077 55.6644 280.109 55.89 280.173 56.0723C280.237 56.25 280.323 56.3936 280.433 56.5029C280.542 56.6123 280.67 56.6898 280.815 56.7354C280.961 56.7809 281.116 56.8037 281.28 56.8037C281.75 56.8037 282.119 56.7126 282.388 56.5303C282.661 56.3434 282.855 56.0928 282.969 55.7783C283.087 55.4639 283.146 55.1107 283.146 54.7188ZM287.891 52.1826V58H286.243V50.6035H287.795L287.891 52.1826ZM287.597 54.0283L287.063 54.0215C287.068 53.4974 287.141 53.0166 287.282 52.5791C287.428 52.1416 287.629 51.7656 287.884 51.4512C288.144 51.1367 288.453 50.8952 288.813 50.7266C289.174 50.5534 289.575 50.4668 290.017 50.4668C290.372 50.4668 290.693 50.5169 290.98 50.6172C291.272 50.7129 291.521 50.8701 291.726 51.0889C291.935 51.3076 292.095 51.5924 292.204 51.9434C292.313 52.2897 292.368 52.7158 292.368 53.2217V58H290.714V53.2148C290.714 52.8594 290.661 52.5791 290.557 52.374C290.456 52.1644 290.308 52.0163 290.112 51.9297C289.921 51.8385 289.682 51.793 289.395 51.793C289.112 51.793 288.859 51.8522 288.636 51.9707C288.412 52.0892 288.223 52.251 288.068 52.4561C287.918 52.6611 287.802 52.8981 287.72 53.167C287.638 53.4359 287.597 53.723 287.597 54.0283ZM257.977 72.6035V80H256.322V72.6035H257.977ZM256.213 70.6621C256.213 70.4115 256.295 70.2041 256.459 70.04C256.628 69.8714 256.86 69.7871 257.156 69.7871C257.448 69.7871 257.678 69.8714 257.847 70.04C258.015 70.2041 258.1 70.4115 258.1 70.6621C258.1 70.9082 258.015 71.1133 257.847 71.2773C257.678 71.4414 257.448 71.5234 257.156 71.5234C256.86 71.5234 256.628 71.4414 256.459 71.2773C256.295 71.1133 256.213 70.9082 256.213 70.6621ZM261.415 74.1826V80H259.768V72.6035H261.319L261.415 74.1826ZM261.121 76.0283L260.588 76.0215C260.592 75.4974 260.665 75.0166 260.807 74.5791C260.952 74.1416 261.153 73.7656 261.408 73.4512C261.668 73.1367 261.978 72.8952 262.338 72.7266C262.698 72.5534 263.099 72.4668 263.541 72.4668C263.896 72.4668 264.218 72.5169 264.505 72.6172C264.797 72.7129 265.045 72.8701 265.25 73.0889C265.46 73.3076 265.619 73.5924 265.729 73.9434C265.838 74.2897 265.893 74.7158 265.893 75.2217V80H264.238V75.2148C264.238 74.8594 264.186 74.5791 264.081 74.374C263.981 74.1644 263.833 74.0163 263.637 73.9297C263.445 73.8385 263.206 73.793 262.919 73.793C262.636 73.793 262.383 73.8522 262.16 73.9707C261.937 74.0892 261.748 74.251 261.593 74.4561C261.442 74.6611 261.326 74.8981 261.244 75.167C261.162 75.4359 261.121 75.723 261.121 76.0283ZM271.833 70.0469V80H270.131V70.0469H271.833ZM274.957 70.0469V71.4141H267.034V70.0469H274.957ZM278.102 70.0469V80H276.386V70.0469H278.102ZM281.704 74.1826V80H280.057V72.6035H281.608L281.704 74.1826ZM281.41 76.0283L280.877 76.0215C280.882 75.4974 280.954 75.0166 281.096 74.5791C281.242 74.1416 281.442 73.7656 281.697 73.4512C281.957 73.1367 282.267 72.8952 282.627 72.7266C282.987 72.5534 283.388 72.4668 283.83 72.4668C284.186 72.4668 284.507 72.5169 284.794 72.6172C285.086 72.7129 285.334 72.8701 285.539 73.0889C285.749 73.3076 285.908 73.5924 286.018 73.9434C286.127 74.2897 286.182 74.7158 286.182 75.2217V80H284.527V75.2148C284.527 74.8594 284.475 74.5791 284.37 74.374C284.27 74.1644 284.122 74.0163 283.926 73.9297C283.734 73.8385 283.495 73.793 283.208 73.793C282.925 73.793 282.673 73.8522 282.449 73.9707C282.226 74.0892 282.037 74.251 281.882 74.4561C281.731 74.6611 281.615 74.8981 281.533 75.167C281.451 75.4359 281.41 75.723 281.41 76.0283ZM289.524 69.5V80H287.87V69.5H289.524ZM294.118 72.6035L290.898 76.1719L289.135 77.9766L288.704 76.582L290.037 74.9346L292.129 72.6035H294.118ZM292.484 80L290.085 76.5273L291.124 75.3721L294.392 80H292.484ZM298.288 80.1367C297.741 80.1367 297.247 80.0479 296.805 79.8701C296.367 79.6878 295.993 79.4349 295.684 79.1113C295.378 78.7878 295.144 78.4072 294.979 77.9697C294.815 77.5322 294.733 77.0605 294.733 76.5547V76.2812C294.733 75.7025 294.818 75.1784 294.986 74.709C295.155 74.2396 295.39 73.8385 295.69 73.5059C295.991 73.1686 296.347 72.9111 296.757 72.7334C297.167 72.5557 297.611 72.4668 298.09 72.4668C298.618 72.4668 299.081 72.5557 299.478 72.7334C299.874 72.9111 300.202 73.1618 300.462 73.4854C300.726 73.8044 300.922 74.1849 301.05 74.627C301.182 75.069 301.248 75.5566 301.248 76.0898V76.7939H295.533V75.6113H299.621V75.4814C299.612 75.1852 299.553 74.9072 299.443 74.6475C299.339 74.3877 299.177 74.1781 298.958 74.0186C298.739 73.859 298.448 73.7793 298.083 73.7793C297.81 73.7793 297.566 73.8385 297.352 73.957C297.142 74.071 296.966 74.2373 296.825 74.4561C296.684 74.6748 296.575 74.9391 296.497 75.249C296.424 75.5544 296.388 75.8984 296.388 76.2812V76.5547C296.388 76.8783 296.431 77.179 296.518 77.457C296.609 77.7305 296.741 77.9697 296.914 78.1748C297.087 78.3799 297.297 78.5417 297.543 78.6602C297.789 78.7741 298.069 78.8311 298.384 78.8311C298.78 78.8311 299.133 78.7513 299.443 78.5918C299.753 78.4323 300.022 78.2067 300.25 77.915L301.118 78.7559C300.959 78.9883 300.751 79.2116 300.496 79.4258C300.241 79.6354 299.929 79.8063 299.56 79.9385C299.195 80.0706 298.771 80.1367 298.288 80.1367ZM304.188 74.0117V80H302.54V72.6035H304.112L304.188 74.0117ZM306.45 72.5557L306.437 74.0869C306.336 74.0687 306.227 74.055 306.108 74.0459C305.994 74.0368 305.881 74.0322 305.767 74.0322C305.484 74.0322 305.236 74.0732 305.021 74.1553C304.807 74.2327 304.627 74.3467 304.481 74.4971C304.34 74.6429 304.231 74.8206 304.153 75.0303C304.076 75.2399 304.03 75.4746 304.017 75.7344L303.641 75.7617C303.641 75.2969 303.686 74.8662 303.777 74.4697C303.868 74.0732 304.005 73.7246 304.188 73.4238C304.374 73.123 304.607 72.8883 304.885 72.7197C305.167 72.5511 305.493 72.4668 305.862 72.4668C305.963 72.4668 306.07 72.4759 306.184 72.4941C306.302 72.5124 306.391 72.5329 306.45 72.5557ZM253.93 98.7598H255.639C255.584 99.4115 255.402 99.9925 255.092 100.503C254.782 101.009 254.347 101.408 253.786 101.699C253.226 101.991 252.544 102.137 251.742 102.137C251.127 102.137 250.573 102.027 250.081 101.809C249.589 101.585 249.167 101.271 248.816 100.865C248.465 100.455 248.197 99.9606 248.01 99.3818C247.827 98.8031 247.736 98.1559 247.736 97.4404V96.6133C247.736 95.8978 247.83 95.2507 248.017 94.6719C248.208 94.0931 248.481 93.5986 248.837 93.1885C249.192 92.7738 249.618 92.457 250.115 92.2383C250.617 92.0195 251.179 91.9102 251.804 91.9102C252.597 91.9102 253.267 92.056 253.813 92.3477C254.36 92.6393 254.784 93.0426 255.085 93.5576C255.39 94.0726 255.577 94.6628 255.646 95.3281H253.937C253.891 94.8997 253.791 94.5329 253.636 94.2275C253.485 93.9222 253.262 93.6898 252.966 93.5303C252.67 93.3662 252.282 93.2842 251.804 93.2842C251.412 93.2842 251.07 93.3571 250.778 93.5029C250.487 93.6488 250.243 93.863 250.047 94.1455C249.851 94.4281 249.703 94.7767 249.603 95.1914C249.507 95.6016 249.459 96.071 249.459 96.5996V97.4404C249.459 97.9417 249.502 98.3975 249.589 98.8076C249.68 99.2132 249.817 99.5618 249.999 99.8535C250.186 100.145 250.423 100.371 250.71 100.53C250.997 100.69 251.341 100.77 251.742 100.77C252.23 100.77 252.624 100.692 252.925 100.537C253.23 100.382 253.46 100.157 253.615 99.8604C253.775 99.5596 253.88 99.1927 253.93 98.7598ZM261.203 100.517V96.9893C261.203 96.7249 261.155 96.4971 261.06 96.3057C260.964 96.1143 260.818 95.9661 260.622 95.8613C260.431 95.7565 260.189 95.7041 259.897 95.7041C259.629 95.7041 259.396 95.7497 259.2 95.8408C259.004 95.932 258.852 96.055 258.742 96.21C258.633 96.3649 258.578 96.5404 258.578 96.7363H256.938C256.938 96.4447 257.008 96.1621 257.149 95.8887C257.291 95.6152 257.496 95.3714 257.765 95.1572C258.034 94.943 258.355 94.7744 258.729 94.6514C259.102 94.5283 259.521 94.4668 259.986 94.4668C260.542 94.4668 261.035 94.5602 261.463 94.7471C261.896 94.9339 262.235 95.2165 262.481 95.5947C262.732 95.9684 262.857 96.4378 262.857 97.0029V100.291C262.857 100.628 262.88 100.931 262.926 101.2C262.976 101.465 263.047 101.695 263.138 101.891V102H261.449C261.372 101.822 261.31 101.597 261.265 101.323C261.224 101.045 261.203 100.776 261.203 100.517ZM261.442 97.502L261.456 98.5205H260.273C259.968 98.5205 259.699 98.5501 259.467 98.6094C259.234 98.6641 259.041 98.7461 258.886 98.8555C258.731 98.9648 258.615 99.097 258.537 99.252C258.46 99.4069 258.421 99.5824 258.421 99.7783C258.421 99.9743 258.466 100.154 258.558 100.318C258.649 100.478 258.781 100.603 258.954 100.694C259.132 100.785 259.346 100.831 259.597 100.831C259.934 100.831 260.228 100.763 260.479 100.626C260.734 100.485 260.934 100.314 261.08 100.113C261.226 99.9082 261.303 99.7145 261.312 99.5322L261.846 100.264C261.791 100.451 261.698 100.651 261.565 100.865C261.433 101.079 261.26 101.285 261.046 101.48C260.836 101.672 260.583 101.829 260.287 101.952C259.995 102.075 259.658 102.137 259.275 102.137C258.792 102.137 258.362 102.041 257.983 101.85C257.605 101.654 257.309 101.392 257.095 101.063C256.881 100.731 256.773 100.355 256.773 99.9355C256.773 99.5436 256.846 99.1973 256.992 98.8965C257.143 98.5911 257.361 98.3359 257.648 98.1309C257.94 97.9258 258.296 97.7708 258.715 97.666C259.134 97.5566 259.613 97.502 260.15 97.502H261.442ZM266.344 91.5V102H264.689V91.5H266.344ZM269.912 94.6035V102H268.258V94.6035H269.912ZM268.148 92.6621C268.148 92.4115 268.23 92.2041 268.395 92.04C268.563 91.8714 268.796 91.7871 269.092 91.7871C269.383 91.7871 269.614 91.8714 269.782 92.04C269.951 92.2041 270.035 92.4115 270.035 92.6621C270.035 92.9082 269.951 93.1133 269.782 93.2773C269.614 93.4414 269.383 93.5234 269.092 93.5234C268.796 93.5234 268.563 93.4414 268.395 93.2773C268.23 93.1133 268.148 92.9082 268.148 92.6621ZM271.724 91.5H273.371V100.421L273.214 102H271.724V91.5ZM278.197 98.2334V98.377C278.197 98.9238 278.136 99.4274 278.013 99.8877C277.894 100.343 277.712 100.74 277.466 101.077C277.224 101.414 276.924 101.676 276.563 101.863C276.208 102.046 275.796 102.137 275.326 102.137C274.866 102.137 274.465 102.05 274.123 101.877C273.781 101.704 273.494 101.458 273.262 101.139C273.034 100.82 272.849 100.439 272.708 99.9971C272.567 99.555 272.466 99.0674 272.407 98.5342V98.0762C272.466 97.5384 272.567 97.0508 272.708 96.6133C272.849 96.1712 273.034 95.7907 273.262 95.4717C273.494 95.1481 273.779 94.8997 274.116 94.7266C274.458 94.5534 274.857 94.4668 275.312 94.4668C275.786 94.4668 276.203 94.5579 276.563 94.7402C276.928 94.9225 277.231 95.1823 277.473 95.5195C277.714 95.8522 277.894 96.2487 278.013 96.709C278.136 97.1693 278.197 97.6774 278.197 98.2334ZM276.55 98.377V98.2334C276.55 97.9007 276.522 97.5885 276.468 97.2969C276.413 97.0007 276.322 96.7409 276.194 96.5176C276.071 96.2943 275.903 96.1188 275.688 95.9912C275.479 95.859 275.217 95.793 274.902 95.793C274.611 95.793 274.36 95.8431 274.15 95.9434C273.941 96.0436 273.765 96.1803 273.624 96.3535C273.483 96.5267 273.371 96.7272 273.289 96.9551C273.212 97.1829 273.159 97.429 273.132 97.6934V98.9307C273.173 99.2725 273.259 99.5869 273.392 99.874C273.528 100.157 273.72 100.384 273.966 100.558C274.212 100.726 274.529 100.811 274.916 100.811C275.221 100.811 275.479 100.749 275.688 100.626C275.898 100.503 276.064 100.332 276.188 100.113C276.315 99.89 276.406 99.6302 276.461 99.334C276.52 99.0378 276.55 98.7188 276.55 98.377ZM281.246 96.0117V102H279.599V94.6035H281.171L281.246 96.0117ZM283.509 94.5557L283.495 96.0869C283.395 96.0687 283.285 96.055 283.167 96.0459C283.053 96.0368 282.939 96.0322 282.825 96.0322C282.543 96.0322 282.294 96.0732 282.08 96.1553C281.866 96.2327 281.686 96.3467 281.54 96.4971C281.399 96.6429 281.289 96.8206 281.212 97.0303C281.134 97.2399 281.089 97.4746 281.075 97.7344L280.699 97.7617C280.699 97.2969 280.745 96.8662 280.836 96.4697C280.927 96.0732 281.064 95.7246 281.246 95.4238C281.433 95.123 281.665 94.8883 281.943 94.7197C282.226 94.5511 282.552 94.4668 282.921 94.4668C283.021 94.4668 283.128 94.4759 283.242 94.4941C283.361 94.5124 283.45 94.5329 283.509 94.5557ZM288.465 100.517V96.9893C288.465 96.7249 288.417 96.4971 288.321 96.3057C288.226 96.1143 288.08 95.9661 287.884 95.8613C287.692 95.7565 287.451 95.7041 287.159 95.7041C286.89 95.7041 286.658 95.7497 286.462 95.8408C286.266 95.932 286.113 96.055 286.004 96.21C285.895 96.3649 285.84 96.5404 285.84 96.7363H284.199C284.199 96.4447 284.27 96.1621 284.411 95.8887C284.552 95.6152 284.757 95.3714 285.026 95.1572C285.295 94.943 285.617 94.7744 285.99 94.6514C286.364 94.5283 286.783 94.4668 287.248 94.4668C287.804 94.4668 288.296 94.5602 288.725 94.7471C289.158 94.9339 289.497 95.2165 289.743 95.5947C289.994 95.9684 290.119 96.4378 290.119 97.0029V100.291C290.119 100.628 290.142 100.931 290.188 101.2C290.238 101.465 290.308 101.695 290.399 101.891V102H288.711C288.633 101.822 288.572 101.597 288.526 101.323C288.485 101.045 288.465 100.776 288.465 100.517ZM288.704 97.502L288.718 98.5205H287.535C287.23 98.5205 286.961 98.5501 286.729 98.6094C286.496 98.6641 286.302 98.7461 286.147 98.8555C285.993 98.9648 285.876 99.097 285.799 99.252C285.721 99.4069 285.683 99.5824 285.683 99.7783C285.683 99.9743 285.728 100.154 285.819 100.318C285.91 100.478 286.043 100.603 286.216 100.694C286.394 100.785 286.608 100.831 286.858 100.831C287.196 100.831 287.49 100.763 287.74 100.626C287.995 100.485 288.196 100.314 288.342 100.113C288.488 99.9082 288.565 99.7145 288.574 99.5322L289.107 100.264C289.053 100.451 288.959 100.651 288.827 100.865C288.695 101.079 288.522 101.285 288.308 101.48C288.098 101.672 287.845 101.829 287.549 101.952C287.257 102.075 286.92 102.137 286.537 102.137C286.054 102.137 285.623 102.041 285.245 101.85C284.867 101.654 284.571 101.392 284.356 101.063C284.142 100.731 284.035 100.355 284.035 99.9355C284.035 99.5436 284.108 99.1973 284.254 98.8965C284.404 98.5911 284.623 98.3359 284.91 98.1309C285.202 97.9258 285.557 97.7708 285.977 97.666C286.396 97.5566 286.874 97.502 287.412 97.502H288.704ZM295.232 94.6035V95.8066H291.062V94.6035H295.232ZM292.266 92.792H293.913V99.9561C293.913 100.184 293.945 100.359 294.009 100.482C294.077 100.601 294.171 100.681 294.289 100.722C294.408 100.763 294.547 100.783 294.706 100.783C294.82 100.783 294.929 100.776 295.034 100.763C295.139 100.749 295.223 100.735 295.287 100.722L295.294 101.979C295.157 102.021 294.998 102.057 294.815 102.089C294.638 102.121 294.433 102.137 294.2 102.137C293.822 102.137 293.487 102.071 293.195 101.938C292.904 101.802 292.676 101.581 292.512 101.275C292.348 100.97 292.266 100.564 292.266 100.059V92.792ZM298.268 94.6035V102H296.613V94.6035H298.268ZM296.504 92.6621C296.504 92.4115 296.586 92.2041 296.75 92.04C296.919 91.8714 297.151 91.7871 297.447 91.7871C297.739 91.7871 297.969 91.8714 298.138 92.04C298.306 92.2041 298.391 92.4115 298.391 92.6621C298.391 92.9082 298.306 93.1133 298.138 93.2773C297.969 93.4414 297.739 93.5234 297.447 93.5234C297.151 93.5234 296.919 93.4414 296.75 93.2773C296.586 93.1133 296.504 92.9082 296.504 92.6621ZM299.758 98.3838V98.2266C299.758 97.6934 299.835 97.1989 299.99 96.7432C300.145 96.2829 300.368 95.8841 300.66 95.5469C300.956 95.2051 301.316 94.9408 301.74 94.7539C302.169 94.5625 302.652 94.4668 303.189 94.4668C303.732 94.4668 304.215 94.5625 304.639 94.7539C305.067 94.9408 305.429 95.2051 305.726 95.5469C306.022 95.8841 306.247 96.2829 306.402 96.7432C306.557 97.1989 306.635 97.6934 306.635 98.2266V98.3838C306.635 98.917 306.557 99.4115 306.402 99.8672C306.247 100.323 306.022 100.722 305.726 101.063C305.429 101.401 305.069 101.665 304.646 101.856C304.222 102.043 303.741 102.137 303.203 102.137C302.661 102.137 302.175 102.043 301.747 101.856C301.323 101.665 300.963 101.401 300.667 101.063C300.371 100.722 300.145 100.323 299.99 99.8672C299.835 99.4115 299.758 98.917 299.758 98.3838ZM301.405 98.2266V98.3838C301.405 98.7165 301.439 99.0309 301.508 99.3271C301.576 99.6234 301.683 99.8831 301.829 100.106C301.975 100.33 302.162 100.505 302.39 100.633C302.618 100.76 302.889 100.824 303.203 100.824C303.508 100.824 303.773 100.76 303.996 100.633C304.224 100.505 304.411 100.33 304.557 100.106C304.702 99.8831 304.81 99.6234 304.878 99.3271C304.951 99.0309 304.987 98.7165 304.987 98.3838V98.2266C304.987 97.8984 304.951 97.5885 304.878 97.2969C304.81 97.0007 304.7 96.7386 304.55 96.5107C304.404 96.2829 304.217 96.1051 303.989 95.9775C303.766 95.8454 303.499 95.7793 303.189 95.7793C302.88 95.7793 302.611 95.8454 302.383 95.9775C302.16 96.1051 301.975 96.2829 301.829 96.5107C301.683 96.7386 301.576 97.0007 301.508 97.2969C301.439 97.5885 301.405 97.8984 301.405 98.2266ZM309.649 96.1826V102H308.002V94.6035H309.554L309.649 96.1826ZM309.355 98.0283L308.822 98.0215C308.827 97.4974 308.9 97.0166 309.041 96.5791C309.187 96.1416 309.387 95.7656 309.643 95.4512C309.902 95.1367 310.212 94.8952 310.572 94.7266C310.932 94.5534 311.333 94.4668 311.775 94.4668C312.131 94.4668 312.452 94.5169 312.739 94.6172C313.031 94.7129 313.279 94.8701 313.484 95.0889C313.694 95.3076 313.854 95.5924 313.963 95.9434C314.072 96.2897 314.127 96.7158 314.127 97.2217V102H312.473V97.2148C312.473 96.8594 312.42 96.5791 312.315 96.374C312.215 96.1644 312.067 96.0163 311.871 95.9297C311.68 95.8385 311.44 95.793 311.153 95.793C310.871 95.793 310.618 95.8522 310.395 95.9707C310.171 96.0892 309.982 96.251 309.827 96.4561C309.677 96.6611 309.561 96.8981 309.479 97.167C309.396 97.4359 309.355 97.723 309.355 98.0283Z" fill="black" fill-opacity="0.85"/>
<path d="M296.107 29.2513H268.464V4.17983C268.464 4.00304 268.319 3.8584 268.142 3.8584H265.892C265.715 3.8584 265.571 4.00304 265.571 4.17983V31.8227C265.571 31.9995 265.715 32.1441 265.892 32.1441H296.107C296.283 32.1441 296.428 31.9995 296.428 31.8227V29.5727C296.428 29.3959 296.283 29.2513 296.107 29.2513ZM272.715 23.0517C272.839 23.1763 273.04 23.1763 273.169 23.0517L278.725 17.5231L283.852 22.6821C283.977 22.8066 284.182 22.8066 284.306 22.6821L295.371 11.6209C295.496 11.4963 295.496 11.2914 295.371 11.1669L293.78 9.57581C293.72 9.51599 293.638 9.48243 293.553 9.48243C293.468 9.48243 293.387 9.51599 293.326 9.57581L284.085 18.8129L278.966 13.662C278.906 13.6022 278.824 13.5686 278.739 13.5686C278.654 13.5686 278.573 13.6022 278.512 13.662L271.127 21.0026C271.068 21.063 271.034 21.1446 271.034 21.2296C271.034 21.3146 271.068 21.3962 271.127 21.4566L272.715 23.0517Z" fill="black" fill-opacity="0.85"/>
<path d="M457.803 59.4365C457.803 59.2314 457.771 59.0492 457.707 58.8896C457.648 58.7301 457.541 58.5843 457.386 58.4521C457.231 58.32 457.012 58.1924 456.729 58.0693C456.451 57.9417 456.096 57.8118 455.663 57.6797C455.189 57.5339 454.752 57.3721 454.351 57.1943C453.954 57.012 453.608 56.8024 453.312 56.5654C453.015 56.3239 452.785 56.0482 452.621 55.7383C452.457 55.4238 452.375 55.0615 452.375 54.6514C452.375 54.2458 452.459 53.8766 452.628 53.5439C452.801 53.2113 453.045 52.9242 453.359 52.6826C453.678 52.4365 454.054 52.2474 454.487 52.1152C454.92 51.9785 455.399 51.9102 455.923 51.9102C456.661 51.9102 457.297 52.0469 457.83 52.3203C458.368 52.5938 458.78 52.9606 459.067 53.4209C459.359 53.8812 459.505 54.3893 459.505 54.9453H457.803C457.803 54.6172 457.732 54.3278 457.591 54.0771C457.454 53.8219 457.244 53.6214 456.962 53.4756C456.684 53.3298 456.331 53.2568 455.902 53.2568C455.497 53.2568 455.16 53.3184 454.891 53.4414C454.622 53.5645 454.421 53.7308 454.289 53.9404C454.157 54.1501 454.091 54.387 454.091 54.6514C454.091 54.8382 454.134 55.0091 454.221 55.1641C454.307 55.3145 454.439 55.4557 454.617 55.5879C454.795 55.7155 455.018 55.8363 455.287 55.9502C455.556 56.0641 455.873 56.1735 456.237 56.2783C456.789 56.4424 457.27 56.6247 457.68 56.8252C458.09 57.0212 458.432 57.2445 458.705 57.4951C458.979 57.7458 459.184 58.0306 459.32 58.3496C459.457 58.6641 459.525 59.0218 459.525 59.4229C459.525 59.8421 459.441 60.2204 459.272 60.5576C459.104 60.8903 458.862 61.1751 458.548 61.4121C458.238 61.6445 457.864 61.8245 457.427 61.9521C456.994 62.0752 456.511 62.1367 455.978 62.1367C455.499 62.1367 455.027 62.0729 454.562 61.9453C454.102 61.8177 453.683 61.624 453.305 61.3643C452.926 61.0999 452.626 60.7718 452.402 60.3799C452.179 59.9834 452.067 59.5208 452.067 58.9922H453.783C453.783 59.3158 453.838 59.5915 453.947 59.8193C454.061 60.0472 454.218 60.234 454.419 60.3799C454.619 60.5212 454.852 60.626 455.116 60.6943C455.385 60.7627 455.672 60.7969 455.978 60.7969C456.379 60.7969 456.714 60.7399 456.982 60.626C457.256 60.512 457.461 60.3525 457.598 60.1475C457.734 59.9424 457.803 59.7054 457.803 59.4365ZM465.329 60.2568V54.6035H466.983V62H465.425L465.329 60.2568ZM465.562 58.7188L466.115 58.7051C466.115 59.2018 466.061 59.6598 465.951 60.0791C465.842 60.4938 465.673 60.8561 465.445 61.166C465.217 61.4714 464.926 61.7106 464.57 61.8838C464.215 62.0524 463.789 62.1367 463.292 62.1367C462.932 62.1367 462.602 62.0843 462.301 61.9795C462 61.8747 461.74 61.7129 461.521 61.4941C461.307 61.2754 461.141 60.9906 461.022 60.6396C460.904 60.2887 460.845 59.8695 460.845 59.3818V54.6035H462.492V59.3955C462.492 59.6644 462.524 59.89 462.588 60.0723C462.652 60.25 462.738 60.3936 462.848 60.5029C462.957 60.6123 463.085 60.6898 463.23 60.7354C463.376 60.7809 463.531 60.8037 463.695 60.8037C464.165 60.8037 464.534 60.7126 464.803 60.5303C465.076 60.3434 465.27 60.0928 465.384 59.7783C465.502 59.4639 465.562 59.1107 465.562 58.7188ZM471.693 60.8242C471.962 60.8242 472.204 60.7718 472.418 60.667C472.637 60.5576 472.812 60.4072 472.944 60.2158C473.081 60.0244 473.156 59.8034 473.17 59.5527H474.722C474.713 60.0312 474.571 60.4665 474.298 60.8584C474.024 61.2503 473.662 61.5625 473.211 61.7949C472.76 62.0228 472.261 62.1367 471.714 62.1367C471.149 62.1367 470.657 62.041 470.237 61.8496C469.818 61.6536 469.469 61.3848 469.191 61.043C468.913 60.7012 468.704 60.307 468.562 59.8604C468.426 59.4137 468.357 58.9352 468.357 58.4248V58.1855C468.357 57.6751 468.426 57.1966 468.562 56.75C468.704 56.2988 468.913 55.9023 469.191 55.5605C469.469 55.2188 469.818 54.9521 470.237 54.7607C470.657 54.5648 471.146 54.4668 471.707 54.4668C472.299 54.4668 472.819 54.5853 473.266 54.8223C473.712 55.0547 474.063 55.3805 474.318 55.7998C474.578 56.2145 474.713 56.6976 474.722 57.249H473.17C473.156 56.9756 473.088 56.7295 472.965 56.5107C472.846 56.2874 472.678 56.1097 472.459 55.9775C472.245 55.8454 471.987 55.7793 471.687 55.7793C471.354 55.7793 471.078 55.8477 470.859 55.9844C470.641 56.1165 470.47 56.2988 470.347 56.5312C470.224 56.7591 470.135 57.0166 470.08 57.3037C470.03 57.5863 470.005 57.8802 470.005 58.1855V58.4248C470.005 58.7301 470.03 59.0264 470.08 59.3135C470.13 59.6006 470.217 59.8581 470.34 60.0859C470.467 60.3092 470.641 60.4893 470.859 60.626C471.078 60.7581 471.356 60.8242 471.693 60.8242ZM479.008 60.8242C479.277 60.8242 479.518 60.7718 479.732 60.667C479.951 60.5576 480.127 60.4072 480.259 60.2158C480.396 60.0244 480.471 59.8034 480.484 59.5527H482.036C482.027 60.0312 481.886 60.4665 481.612 60.8584C481.339 61.2503 480.977 61.5625 480.525 61.7949C480.074 62.0228 479.575 62.1367 479.028 62.1367C478.463 62.1367 477.971 62.041 477.552 61.8496C477.132 61.6536 476.784 61.3848 476.506 61.043C476.228 60.7012 476.018 60.307 475.877 59.8604C475.74 59.4137 475.672 58.9352 475.672 58.4248V58.1855C475.672 57.6751 475.74 57.1966 475.877 56.75C476.018 56.2988 476.228 55.9023 476.506 55.5605C476.784 55.2188 477.132 54.9521 477.552 54.7607C477.971 54.5648 478.461 54.4668 479.021 54.4668C479.614 54.4668 480.133 54.5853 480.58 54.8223C481.027 55.0547 481.378 55.3805 481.633 55.7998C481.893 56.2145 482.027 56.6976 482.036 57.249H480.484C480.471 56.9756 480.402 56.7295 480.279 56.5107C480.161 56.2874 479.992 56.1097 479.773 55.9775C479.559 55.8454 479.302 55.7793 479.001 55.7793C478.668 55.7793 478.393 55.8477 478.174 55.9844C477.955 56.1165 477.784 56.2988 477.661 56.5312C477.538 56.7591 477.449 57.0166 477.395 57.3037C477.344 57.5863 477.319 57.8802 477.319 58.1855V58.4248C477.319 58.7301 477.344 59.0264 477.395 59.3135C477.445 59.6006 477.531 59.8581 477.654 60.0859C477.782 60.3092 477.955 60.4893 478.174 60.626C478.393 60.7581 478.671 60.8242 479.008 60.8242ZM486.562 62.1367C486.015 62.1367 485.52 62.0479 485.078 61.8701C484.641 61.6878 484.267 61.4349 483.957 61.1113C483.652 60.7878 483.417 60.4072 483.253 59.9697C483.089 59.5322 483.007 59.0605 483.007 58.5547V58.2812C483.007 57.7025 483.091 57.1784 483.26 56.709C483.428 56.2396 483.663 55.8385 483.964 55.5059C484.265 55.1686 484.62 54.9111 485.03 54.7334C485.44 54.5557 485.885 54.4668 486.363 54.4668C486.892 54.4668 487.354 54.5557 487.751 54.7334C488.147 54.9111 488.476 55.1618 488.735 55.4854C489 55.8044 489.196 56.1849 489.323 56.627C489.455 57.069 489.521 57.5566 489.521 58.0898V58.7939H483.807V57.6113H487.895V57.4814C487.885 57.1852 487.826 56.9072 487.717 56.6475C487.612 56.3877 487.45 56.1781 487.231 56.0186C487.013 55.859 486.721 55.7793 486.356 55.7793C486.083 55.7793 485.839 55.8385 485.625 55.957C485.415 56.071 485.24 56.2373 485.099 56.4561C484.957 56.6748 484.848 56.9391 484.771 57.249C484.698 57.5544 484.661 57.8984 484.661 58.2812V58.5547C484.661 58.8783 484.704 59.179 484.791 59.457C484.882 59.7305 485.014 59.9697 485.188 60.1748C485.361 60.3799 485.57 60.5417 485.816 60.6602C486.062 60.7741 486.343 60.8311 486.657 60.8311C487.054 60.8311 487.407 60.7513 487.717 60.5918C488.027 60.4323 488.296 60.2067 488.523 59.915L489.392 60.7559C489.232 60.9883 489.025 61.2116 488.77 61.4258C488.514 61.6354 488.202 61.8063 487.833 61.9385C487.468 62.0706 487.045 62.1367 486.562 62.1367ZM494.956 59.9971C494.956 59.833 494.915 59.6849 494.833 59.5527C494.751 59.416 494.594 59.293 494.361 59.1836C494.133 59.0742 493.796 58.974 493.35 58.8828C492.958 58.7962 492.598 58.6937 492.27 58.5752C491.946 58.4521 491.668 58.304 491.436 58.1309C491.203 57.9577 491.023 57.7526 490.896 57.5156C490.768 57.2786 490.704 57.0052 490.704 56.6953C490.704 56.3945 490.77 56.1097 490.902 55.8408C491.035 55.5719 491.224 55.335 491.47 55.1299C491.716 54.9248 492.014 54.763 492.365 54.6445C492.721 54.526 493.117 54.4668 493.555 54.4668C494.174 54.4668 494.705 54.5716 495.147 54.7812C495.594 54.9863 495.936 55.2666 496.173 55.6221C496.41 55.973 496.528 56.3695 496.528 56.8115H494.881C494.881 56.6156 494.831 56.4333 494.73 56.2646C494.635 56.0915 494.489 55.9525 494.293 55.8477C494.097 55.7383 493.851 55.6836 493.555 55.6836C493.272 55.6836 493.037 55.7292 492.851 55.8203C492.668 55.9069 492.532 56.0208 492.44 56.1621C492.354 56.3034 492.311 56.4583 492.311 56.627C492.311 56.75 492.333 56.8617 492.379 56.9619C492.429 57.0576 492.511 57.1465 492.625 57.2285C492.739 57.306 492.894 57.3789 493.09 57.4473C493.29 57.5156 493.541 57.5817 493.842 57.6455C494.407 57.764 494.892 57.9167 495.298 58.1035C495.708 58.2858 496.022 58.5228 496.241 58.8145C496.46 59.1016 496.569 59.4661 496.569 59.9082C496.569 60.2363 496.499 60.5371 496.357 60.8105C496.221 61.0794 496.02 61.3141 495.756 61.5146C495.492 61.7106 495.175 61.8633 494.806 61.9727C494.441 62.082 494.031 62.1367 493.575 62.1367C492.905 62.1367 492.338 62.0182 491.873 61.7812C491.408 61.5397 491.055 61.2321 490.813 60.8584C490.576 60.4801 490.458 60.0882 490.458 59.6826H492.051C492.069 59.988 492.153 60.2318 492.304 60.4141C492.459 60.5918 492.65 60.7217 492.878 60.8037C493.11 60.8812 493.35 60.9199 493.596 60.9199C493.892 60.9199 494.14 60.8812 494.341 60.8037C494.541 60.7217 494.694 60.6123 494.799 60.4756C494.904 60.3343 494.956 60.1748 494.956 59.9971ZM502.161 59.9971C502.161 59.833 502.12 59.6849 502.038 59.5527C501.956 59.416 501.799 59.293 501.566 59.1836C501.339 59.0742 501.001 58.974 500.555 58.8828C500.163 58.7962 499.803 58.6937 499.475 58.5752C499.151 58.4521 498.873 58.304 498.641 58.1309C498.408 57.9577 498.228 57.7526 498.101 57.5156C497.973 57.2786 497.909 57.0052 497.909 56.6953C497.909 56.3945 497.975 56.1097 498.107 55.8408C498.24 55.5719 498.429 55.335 498.675 55.1299C498.921 54.9248 499.219 54.763 499.57 54.6445C499.926 54.526 500.322 54.4668 500.76 54.4668C501.38 54.4668 501.91 54.5716 502.353 54.7812C502.799 54.9863 503.141 55.2666 503.378 55.6221C503.615 55.973 503.733 56.3695 503.733 56.8115H502.086C502.086 56.6156 502.036 56.4333 501.936 56.2646C501.84 56.0915 501.694 55.9525 501.498 55.8477C501.302 55.7383 501.056 55.6836 500.76 55.6836C500.477 55.6836 500.243 55.7292 500.056 55.8203C499.873 55.9069 499.737 56.0208 499.646 56.1621C499.559 56.3034 499.516 56.4583 499.516 56.627C499.516 56.75 499.538 56.8617 499.584 56.9619C499.634 57.0576 499.716 57.1465 499.83 57.2285C499.944 57.306 500.099 57.3789 500.295 57.4473C500.495 57.5156 500.746 57.5817 501.047 57.6455C501.612 57.764 502.097 57.9167 502.503 58.1035C502.913 58.2858 503.228 58.5228 503.446 58.8145C503.665 59.1016 503.774 59.4661 503.774 59.9082C503.774 60.2363 503.704 60.5371 503.562 60.8105C503.426 61.0794 503.225 61.3141 502.961 61.5146C502.697 61.7106 502.38 61.8633 502.011 61.9727C501.646 62.082 501.236 62.1367 500.78 62.1367C500.11 62.1367 499.543 62.0182 499.078 61.7812C498.613 61.5397 498.26 61.2321 498.019 60.8584C497.782 60.4801 497.663 60.0882 497.663 59.6826H499.256C499.274 59.988 499.358 60.2318 499.509 60.4141C499.664 60.5918 499.855 60.7217 500.083 60.8037C500.315 60.8812 500.555 60.9199 500.801 60.9199C501.097 60.9199 501.345 60.8812 501.546 60.8037C501.746 60.7217 501.899 60.6123 502.004 60.4756C502.109 60.3343 502.161 60.1748 502.161 59.9971ZM507.445 62H505.798V53.8926C505.798 53.3411 505.9 52.8786 506.105 52.5049C506.315 52.1266 506.614 51.8418 507.001 51.6504C507.388 51.4544 507.846 51.3564 508.375 51.3564C508.539 51.3564 508.701 51.3678 508.86 51.3906C509.02 51.4089 509.175 51.4385 509.325 51.4795L509.284 52.751C509.193 52.7282 509.093 52.7122 508.983 52.7031C508.879 52.694 508.765 52.6895 508.642 52.6895C508.391 52.6895 508.174 52.7373 507.992 52.833C507.814 52.9242 507.678 53.0586 507.582 53.2363C507.491 53.4141 507.445 53.6328 507.445 53.8926V62ZM508.97 54.6035V55.8066H504.663V54.6035H508.97ZM514.616 60.2568V54.6035H516.271V62H514.712L514.616 60.2568ZM514.849 58.7188L515.402 58.7051C515.402 59.2018 515.348 59.6598 515.238 60.0791C515.129 60.4938 514.96 60.8561 514.732 61.166C514.505 61.4714 514.213 61.7106 513.857 61.8838C513.502 62.0524 513.076 62.1367 512.579 62.1367C512.219 62.1367 511.889 62.0843 511.588 61.9795C511.287 61.8747 511.027 61.7129 510.809 61.4941C510.594 61.2754 510.428 60.9906 510.31 60.6396C510.191 60.2887 510.132 59.8695 510.132 59.3818V54.6035H511.779V59.3955C511.779 59.6644 511.811 59.89 511.875 60.0723C511.939 60.25 512.025 60.3936 512.135 60.5029C512.244 60.6123 512.372 60.6898 512.518 60.7354C512.663 60.7809 512.818 60.8037 512.982 60.8037C513.452 60.8037 513.821 60.7126 514.09 60.5303C514.363 60.3434 514.557 60.0928 514.671 59.7783C514.789 59.4639 514.849 59.1107 514.849 58.7188ZM519.723 51.5V62H518.068V51.5H519.723ZM523.291 51.5V62H521.637V51.5H523.291ZM527.242 61.1934L529.252 54.6035H531.016L528.049 63.1279C527.98 63.3102 527.892 63.5085 527.782 63.7227C527.673 63.9368 527.529 64.1396 527.352 64.3311C527.178 64.527 526.962 64.6842 526.702 64.8027C526.442 64.9258 526.128 64.9873 525.759 64.9873C525.613 64.9873 525.472 64.9736 525.335 64.9463C525.203 64.9235 525.077 64.8984 524.959 64.8711L524.952 63.6133C524.998 63.6178 525.052 63.6224 525.116 63.627C525.185 63.6315 525.239 63.6338 525.28 63.6338C525.554 63.6338 525.782 63.5996 525.964 63.5312C526.146 63.4674 526.294 63.3626 526.408 63.2168C526.527 63.071 526.627 62.875 526.709 62.6289L527.242 61.1934ZM526.107 54.6035L527.864 60.1406L528.158 61.877L527.017 62.1709L524.33 54.6035H526.107ZM537.1 56.0254V64.8438H535.452V54.6035H536.97L537.1 56.0254ZM541.919 58.2334V58.377C541.919 58.9147 541.855 59.4137 541.728 59.874C541.604 60.3298 541.42 60.7285 541.174 61.0703C540.932 61.4076 540.634 61.6696 540.278 61.8564C539.923 62.0433 539.513 62.1367 539.048 62.1367C538.588 62.1367 538.184 62.0524 537.838 61.8838C537.496 61.7106 537.207 61.4668 536.97 61.1523C536.733 60.8379 536.541 60.4688 536.396 60.0449C536.254 59.6165 536.154 59.1471 536.095 58.6367V58.083C536.154 57.5407 536.254 57.0485 536.396 56.6064C536.541 56.1644 536.733 55.7839 536.97 55.4648C537.207 55.1458 537.496 54.8997 537.838 54.7266C538.18 54.5534 538.578 54.4668 539.034 54.4668C539.499 54.4668 539.911 54.5579 540.271 54.7402C540.632 54.918 540.935 55.1732 541.181 55.5059C541.427 55.834 541.611 56.2305 541.734 56.6953C541.857 57.1556 541.919 57.6683 541.919 58.2334ZM540.271 58.377V58.2334C540.271 57.8916 540.24 57.5749 540.176 57.2832C540.112 56.987 540.012 56.7272 539.875 56.5039C539.738 56.2806 539.563 56.1074 539.349 55.9844C539.139 55.8568 538.886 55.793 538.59 55.793C538.298 55.793 538.048 55.8431 537.838 55.9434C537.628 56.0391 537.453 56.1735 537.312 56.3467C537.17 56.5199 537.061 56.7227 536.983 56.9551C536.906 57.1829 536.851 57.4313 536.819 57.7002V59.0264C536.874 59.3545 536.967 59.6553 537.1 59.9287C537.232 60.2021 537.419 60.4209 537.66 60.585C537.906 60.7445 538.221 60.8242 538.604 60.8242C538.9 60.8242 539.153 60.7604 539.362 60.6328C539.572 60.5052 539.743 60.3298 539.875 60.1064C540.012 59.8786 540.112 59.6165 540.176 59.3203C540.24 59.0241 540.271 58.7096 540.271 58.377ZM544.975 56.0117V62H543.327V54.6035H544.899L544.975 56.0117ZM547.237 54.5557L547.224 56.0869C547.123 56.0687 547.014 56.055 546.896 56.0459C546.782 56.0368 546.668 56.0322 546.554 56.0322C546.271 56.0322 546.023 56.0732 545.809 56.1553C545.594 56.2327 545.414 56.3467 545.269 56.4971C545.127 56.6429 545.018 56.8206 544.94 57.0303C544.863 57.2399 544.817 57.4746 544.804 57.7344L544.428 57.7617C544.428 57.2969 544.473 56.8662 544.564 56.4697C544.656 56.0732 544.792 55.7246 544.975 55.4238C545.161 55.123 545.394 54.8883 545.672 54.7197C545.954 54.5511 546.28 54.4668 546.649 54.4668C546.75 54.4668 546.857 54.4759 546.971 54.4941C547.089 54.5124 547.178 54.5329 547.237 54.5557ZM550.033 54.6035V62H548.379V54.6035H550.033ZM548.27 52.6621C548.27 52.4115 548.352 52.2041 548.516 52.04C548.684 51.8714 548.917 51.7871 549.213 51.7871C549.505 51.7871 549.735 51.8714 549.903 52.04C550.072 52.2041 550.156 52.4115 550.156 52.6621C550.156 52.9082 550.072 53.1133 549.903 53.2773C549.735 53.4414 549.505 53.5234 549.213 53.5234C548.917 53.5234 548.684 53.4414 548.516 53.2773C548.352 53.1133 548.27 52.9082 548.27 52.6621ZM553.472 56.1826V62H551.824V54.6035H553.376L553.472 56.1826ZM553.178 58.0283L552.645 58.0215C552.649 57.4974 552.722 57.0166 552.863 56.5791C553.009 56.1416 553.21 55.7656 553.465 55.4512C553.725 55.1367 554.035 54.8952 554.395 54.7266C554.755 54.5534 555.156 54.4668 555.598 54.4668C555.953 54.4668 556.274 54.5169 556.562 54.6172C556.853 54.7129 557.102 54.8701 557.307 55.0889C557.516 55.3076 557.676 55.5924 557.785 55.9434C557.895 56.2897 557.949 56.7158 557.949 57.2217V62H556.295V57.2148C556.295 56.8594 556.243 56.5791 556.138 56.374C556.037 56.1644 555.889 56.0163 555.693 55.9297C555.502 55.8385 555.263 55.793 554.976 55.793C554.693 55.793 554.44 55.8522 554.217 55.9707C553.993 56.0892 553.804 56.251 553.649 56.4561C553.499 56.6611 553.383 56.8981 553.301 57.167C553.219 57.4359 553.178 57.723 553.178 58.0283ZM563.021 54.6035V55.8066H558.852V54.6035H563.021ZM560.055 52.792H561.702V59.9561C561.702 60.1839 561.734 60.3594 561.798 60.4824C561.866 60.6009 561.96 60.6807 562.078 60.7217C562.197 60.7627 562.336 60.7832 562.495 60.7832C562.609 60.7832 562.718 60.7764 562.823 60.7627C562.928 60.749 563.012 60.7354 563.076 60.7217L563.083 61.9795C562.946 62.0205 562.787 62.057 562.604 62.0889C562.427 62.1208 562.222 62.1367 561.989 62.1367C561.611 62.1367 561.276 62.0706 560.984 61.9385C560.693 61.8018 560.465 61.5807 560.301 61.2754C560.137 60.9701 560.055 60.5645 560.055 60.0586V52.792ZM463.921 78.0254V86.8438H462.273V76.6035H463.791L463.921 78.0254ZM468.74 80.2334V80.377C468.74 80.9147 468.676 81.4137 468.549 81.874C468.426 82.3298 468.241 82.7285 467.995 83.0703C467.754 83.4076 467.455 83.6696 467.1 83.8564C466.744 84.0433 466.334 84.1367 465.869 84.1367C465.409 84.1367 465.006 84.0524 464.659 83.8838C464.317 83.7106 464.028 83.4668 463.791 83.1523C463.554 82.8379 463.363 82.4688 463.217 82.0449C463.076 81.6165 462.975 81.1471 462.916 80.6367V80.083C462.975 79.5407 463.076 79.0485 463.217 78.6064C463.363 78.1644 463.554 77.7839 463.791 77.4648C464.028 77.1458 464.317 76.8997 464.659 76.7266C465.001 76.5534 465.4 76.4668 465.855 76.4668C466.32 76.4668 466.733 76.5579 467.093 76.7402C467.453 76.918 467.756 77.1732 468.002 77.5059C468.248 77.834 468.433 78.2305 468.556 78.6953C468.679 79.1556 468.74 79.6683 468.74 80.2334ZM467.093 80.377V80.2334C467.093 79.8916 467.061 79.5749 466.997 79.2832C466.933 78.987 466.833 78.7272 466.696 78.5039C466.56 78.2806 466.384 78.1074 466.17 77.9844C465.96 77.8568 465.707 77.793 465.411 77.793C465.119 77.793 464.869 77.8431 464.659 77.9434C464.45 78.0391 464.274 78.1735 464.133 78.3467C463.992 78.5199 463.882 78.7227 463.805 78.9551C463.727 79.1829 463.673 79.4313 463.641 79.7002V81.0264C463.695 81.3545 463.789 81.6553 463.921 81.9287C464.053 82.2021 464.24 82.4209 464.481 82.585C464.728 82.7445 465.042 82.8242 465.425 82.8242C465.721 82.8242 465.974 82.7604 466.184 82.6328C466.393 82.5052 466.564 82.3298 466.696 82.1064C466.833 81.8786 466.933 81.6165 466.997 81.3203C467.061 81.0241 467.093 80.7096 467.093 80.377ZM471.796 78.0117V84H470.148V76.6035H471.721L471.796 78.0117ZM474.059 76.5557L474.045 78.0869C473.945 78.0687 473.835 78.055 473.717 78.0459C473.603 78.0368 473.489 78.0322 473.375 78.0322C473.092 78.0322 472.844 78.0732 472.63 78.1553C472.416 78.2327 472.236 78.3467 472.09 78.4971C471.949 78.6429 471.839 78.8206 471.762 79.0303C471.684 79.2399 471.639 79.4746 471.625 79.7344L471.249 79.7617C471.249 79.2969 471.295 78.8662 471.386 78.4697C471.477 78.0732 471.614 77.7246 471.796 77.4238C471.983 77.123 472.215 76.8883 472.493 76.7197C472.776 76.5511 473.102 76.4668 473.471 76.4668C473.571 76.4668 473.678 76.4759 473.792 76.4941C473.91 76.5124 473.999 76.5329 474.059 76.5557ZM474.599 80.3838V80.2266C474.599 79.6934 474.676 79.1989 474.831 78.7432C474.986 78.2829 475.209 77.8841 475.501 77.5469C475.797 77.2051 476.157 76.9408 476.581 76.7539C477.009 76.5625 477.493 76.4668 478.03 76.4668C478.573 76.4668 479.056 76.5625 479.479 76.7539C479.908 76.9408 480.27 77.2051 480.566 77.5469C480.863 77.8841 481.088 78.2829 481.243 78.7432C481.398 79.1989 481.476 79.6934 481.476 80.2266V80.3838C481.476 80.917 481.398 81.4115 481.243 81.8672C481.088 82.3229 480.863 82.7217 480.566 83.0635C480.27 83.4007 479.91 83.665 479.486 83.8564C479.062 84.0433 478.582 84.1367 478.044 84.1367C477.502 84.1367 477.016 84.0433 476.588 83.8564C476.164 83.665 475.804 83.4007 475.508 83.0635C475.212 82.7217 474.986 82.3229 474.831 81.8672C474.676 81.4115 474.599 80.917 474.599 80.3838ZM476.246 80.2266V80.3838C476.246 80.7165 476.28 81.0309 476.349 81.3271C476.417 81.6234 476.524 81.8831 476.67 82.1064C476.816 82.3298 477.003 82.5052 477.23 82.6328C477.458 82.7604 477.729 82.8242 478.044 82.8242C478.349 82.8242 478.614 82.7604 478.837 82.6328C479.065 82.5052 479.252 82.3298 479.397 82.1064C479.543 81.8831 479.65 81.6234 479.719 81.3271C479.792 81.0309 479.828 80.7165 479.828 80.3838V80.2266C479.828 79.8984 479.792 79.5885 479.719 79.2969C479.65 79.0007 479.541 78.7386 479.391 78.5107C479.245 78.2829 479.058 78.1051 478.83 77.9775C478.607 77.8454 478.34 77.7793 478.03 77.7793C477.72 77.7793 477.451 77.8454 477.224 77.9775C477 78.1051 476.816 78.2829 476.67 78.5107C476.524 78.7386 476.417 79.0007 476.349 79.2969C476.28 79.5885 476.246 79.8984 476.246 80.2266ZM482.938 76.6035H484.593V84.6426C484.593 85.1484 484.506 85.5745 484.333 85.9209C484.16 86.2718 483.905 86.5361 483.567 86.7139C483.23 86.8962 482.818 86.9873 482.33 86.9873C482.184 86.9873 482.034 86.9759 481.879 86.9531C481.719 86.9349 481.569 86.9076 481.428 86.8711L481.435 85.5859C481.53 85.6042 481.633 85.6178 481.742 85.627C481.847 85.6406 481.947 85.6475 482.043 85.6475C482.239 85.6475 482.403 85.6133 482.535 85.5449C482.667 85.4766 482.768 85.3695 482.836 85.2236C482.904 85.0778 482.938 84.8841 482.938 84.6426V76.6035ZM482.795 74.6621C482.795 74.4115 482.879 74.2041 483.048 74.04C483.216 73.8714 483.447 73.7871 483.738 73.7871C484.035 73.7871 484.265 73.8714 484.429 74.04C484.597 74.2041 484.682 74.4115 484.682 74.6621C484.682 74.9082 484.597 75.1133 484.429 75.2773C484.265 75.4414 484.035 75.5234 483.738 75.5234C483.447 75.5234 483.216 75.4414 483.048 75.2773C482.879 75.1133 482.795 74.9082 482.795 74.6621ZM489.631 84.1367C489.084 84.1367 488.59 84.0479 488.147 83.8701C487.71 83.6878 487.336 83.4349 487.026 83.1113C486.721 82.7878 486.486 82.4072 486.322 81.9697C486.158 81.5322 486.076 81.0605 486.076 80.5547V80.2812C486.076 79.7025 486.16 79.1784 486.329 78.709C486.498 78.2396 486.732 77.8385 487.033 77.5059C487.334 77.1686 487.689 76.9111 488.1 76.7334C488.51 76.5557 488.954 76.4668 489.433 76.4668C489.961 76.4668 490.424 76.5557 490.82 76.7334C491.217 76.9111 491.545 77.1618 491.805 77.4854C492.069 77.8044 492.265 78.1849 492.393 78.627C492.525 79.069 492.591 79.5566 492.591 80.0898V80.7939H486.876V79.6113H490.964V79.4814C490.955 79.1852 490.896 78.9072 490.786 78.6475C490.681 78.3877 490.52 78.1781 490.301 78.0186C490.082 77.859 489.79 77.7793 489.426 77.7793C489.152 77.7793 488.909 77.8385 488.694 77.957C488.485 78.071 488.309 78.2373 488.168 78.4561C488.027 78.6748 487.917 78.9391 487.84 79.249C487.767 79.5544 487.73 79.8984 487.73 80.2812V80.5547C487.73 80.8783 487.774 81.179 487.86 81.457C487.951 81.7305 488.084 81.9697 488.257 82.1748C488.43 82.3799 488.64 82.5417 488.886 82.6602C489.132 82.7741 489.412 82.8311 489.727 82.8311C490.123 82.8311 490.476 82.7513 490.786 82.5918C491.096 82.4323 491.365 82.2067 491.593 81.915L492.461 82.7559C492.301 82.9883 492.094 83.2116 491.839 83.4258C491.584 83.6354 491.271 83.8063 490.902 83.9385C490.538 84.0706 490.114 84.1367 489.631 84.1367ZM496.897 82.8242C497.166 82.8242 497.408 82.7718 497.622 82.667C497.841 82.5576 498.016 82.4072 498.148 82.2158C498.285 82.0244 498.36 81.8034 498.374 81.5527H499.926C499.917 82.0312 499.775 82.4665 499.502 82.8584C499.229 83.2503 498.866 83.5625 498.415 83.7949C497.964 84.0228 497.465 84.1367 496.918 84.1367C496.353 84.1367 495.861 84.041 495.441 83.8496C495.022 83.6536 494.674 83.3848 494.396 83.043C494.118 82.7012 493.908 82.307 493.767 81.8604C493.63 81.4137 493.562 80.9352 493.562 80.4248V80.1855C493.562 79.6751 493.63 79.1966 493.767 78.75C493.908 78.2988 494.118 77.9023 494.396 77.5605C494.674 77.2188 495.022 76.9521 495.441 76.7607C495.861 76.5648 496.351 76.4668 496.911 76.4668C497.504 76.4668 498.023 76.5853 498.47 76.8223C498.916 77.0547 499.267 77.3805 499.522 77.7998C499.782 78.2145 499.917 78.6976 499.926 79.249H498.374C498.36 78.9756 498.292 78.7295 498.169 78.5107C498.05 78.2874 497.882 78.1097 497.663 77.9775C497.449 77.8454 497.191 77.7793 496.891 77.7793C496.558 77.7793 496.282 77.8477 496.063 77.9844C495.845 78.1165 495.674 78.2988 495.551 78.5312C495.428 78.7591 495.339 79.0166 495.284 79.3037C495.234 79.5863 495.209 79.8802 495.209 80.1855V80.4248C495.209 80.7301 495.234 81.0264 495.284 81.3135C495.334 81.6006 495.421 81.8581 495.544 82.0859C495.672 82.3092 495.845 82.4893 496.063 82.626C496.282 82.7581 496.56 82.8242 496.897 82.8242ZM504.581 76.6035V77.8066H500.411V76.6035H504.581ZM501.614 74.792H503.262V81.9561C503.262 82.1839 503.294 82.3594 503.357 82.4824C503.426 82.6009 503.519 82.6807 503.638 82.7217C503.756 82.7627 503.895 82.7832 504.055 82.7832C504.169 82.7832 504.278 82.7764 504.383 82.7627C504.488 82.749 504.572 82.7354 504.636 82.7217L504.643 83.9795C504.506 84.0205 504.346 84.057 504.164 84.0889C503.986 84.1208 503.781 84.1367 503.549 84.1367C503.171 84.1367 502.836 84.0706 502.544 83.9385C502.252 83.8018 502.024 83.5807 501.86 83.2754C501.696 82.9701 501.614 82.5645 501.614 82.0586V74.792ZM511.458 84H509.804V76.125C509.804 75.528 509.922 75.0244 510.159 74.6143C510.401 74.2041 510.745 73.8919 511.191 73.6777C511.643 73.4635 512.178 73.3564 512.798 73.3564C513.162 73.3564 513.513 73.3952 513.851 73.4727C514.192 73.5501 514.546 73.6481 514.91 73.7666L514.657 75.1064C514.425 75.029 514.167 74.9561 513.885 74.8877C513.602 74.8148 513.276 74.7783 512.907 74.7783C512.41 74.7783 512.044 74.8923 511.807 75.1201C511.574 75.3434 511.458 75.6784 511.458 76.125V84ZM512.941 76.6035V77.8066H508.669V76.6035H512.941ZM515.689 76.6035V84H514.042V76.6035H515.689ZM519.183 78.0117V84H517.535V76.6035H519.107L519.183 78.0117ZM521.445 76.5557L521.432 78.0869C521.331 78.0687 521.222 78.055 521.104 78.0459C520.99 78.0368 520.876 78.0322 520.762 78.0322C520.479 78.0322 520.231 78.0732 520.017 78.1553C519.802 78.2327 519.622 78.3467 519.477 78.4971C519.335 78.6429 519.226 78.8206 519.148 79.0303C519.071 79.2399 519.025 79.4746 519.012 79.7344L518.636 79.7617C518.636 79.2969 518.681 78.8662 518.772 78.4697C518.864 78.0732 519 77.7246 519.183 77.4238C519.369 77.123 519.602 76.8883 519.88 76.7197C520.162 76.5511 520.488 76.4668 520.857 76.4668C520.958 76.4668 521.065 76.4759 521.179 76.4941C521.297 76.5124 521.386 76.5329 521.445 76.5557ZM526.627 81.9971C526.627 81.833 526.586 81.6849 526.504 81.5527C526.422 81.416 526.265 81.293 526.032 81.1836C525.804 81.0742 525.467 80.974 525.021 80.8828C524.629 80.7962 524.269 80.6937 523.94 80.5752C523.617 80.4521 523.339 80.304 523.106 80.1309C522.874 79.9577 522.694 79.7526 522.566 79.5156C522.439 79.2786 522.375 79.0052 522.375 78.6953C522.375 78.3945 522.441 78.1097 522.573 77.8408C522.705 77.5719 522.895 77.335 523.141 77.1299C523.387 76.9248 523.685 76.763 524.036 76.6445C524.392 76.526 524.788 76.4668 525.226 76.4668C525.845 76.4668 526.376 76.5716 526.818 76.7812C527.265 76.9863 527.607 77.2666 527.844 77.6221C528.081 77.973 528.199 78.3695 528.199 78.8115H526.552C526.552 78.6156 526.502 78.4333 526.401 78.2646C526.306 78.0915 526.16 77.9525 525.964 77.8477C525.768 77.7383 525.522 77.6836 525.226 77.6836C524.943 77.6836 524.708 77.7292 524.521 77.8203C524.339 77.9069 524.202 78.0208 524.111 78.1621C524.025 78.3034 523.981 78.4583 523.981 78.627C523.981 78.75 524.004 78.8617 524.05 78.9619C524.1 79.0576 524.182 79.1465 524.296 79.2285C524.41 79.306 524.565 79.3789 524.761 79.4473C524.961 79.5156 525.212 79.5817 525.513 79.6455C526.078 79.764 526.563 79.9167 526.969 80.1035C527.379 80.2858 527.693 80.5228 527.912 80.8145C528.131 81.1016 528.24 81.4661 528.24 81.9082C528.24 82.2363 528.17 82.5371 528.028 82.8105C527.892 83.0794 527.691 83.3141 527.427 83.5146C527.162 83.7106 526.846 83.8633 526.477 83.9727C526.112 84.082 525.702 84.1367 525.246 84.1367C524.576 84.1367 524.009 84.0182 523.544 83.7812C523.079 83.5397 522.726 83.2321 522.484 82.8584C522.247 82.4801 522.129 82.0882 522.129 81.6826H523.722C523.74 81.988 523.824 82.2318 523.975 82.4141C524.13 82.5918 524.321 82.7217 524.549 82.8037C524.781 82.8812 525.021 82.9199 525.267 82.9199C525.563 82.9199 525.811 82.8812 526.012 82.8037C526.212 82.7217 526.365 82.6123 526.47 82.4756C526.575 82.3343 526.627 82.1748 526.627 81.9971ZM533.073 76.6035V77.8066H528.903V76.6035H533.073ZM530.106 74.792H531.754V81.9561C531.754 82.1839 531.786 82.3594 531.85 82.4824C531.918 82.6009 532.011 82.6807 532.13 82.7217C532.248 82.7627 532.387 82.7832 532.547 82.7832C532.661 82.7832 532.77 82.7764 532.875 82.7627C532.98 82.749 533.064 82.7354 533.128 82.7217L533.135 83.9795C532.998 84.0205 532.839 84.057 532.656 84.0889C532.479 84.1208 532.273 84.1367 532.041 84.1367C531.663 84.1367 531.328 84.0706 531.036 83.9385C530.744 83.8018 530.517 83.5807 530.353 83.2754C530.188 82.9701 530.106 82.5645 530.106 82.0586V74.792ZM541.222 76.6035V77.8066H537.052V76.6035H541.222ZM538.255 74.792H539.902V81.9561C539.902 82.1839 539.934 82.3594 539.998 82.4824C540.066 82.6009 540.16 82.6807 540.278 82.7217C540.397 82.7627 540.536 82.7832 540.695 82.7832C540.809 82.7832 540.919 82.7764 541.023 82.7627C541.128 82.749 541.213 82.7354 541.276 82.7217L541.283 83.9795C541.146 84.0205 540.987 84.057 540.805 84.0889C540.627 84.1208 540.422 84.1367 540.189 84.1367C539.811 84.1367 539.476 84.0706 539.185 83.9385C538.893 83.8018 538.665 83.5807 538.501 83.2754C538.337 82.9701 538.255 82.5645 538.255 82.0586V74.792ZM544.147 78.0117V84H542.5V76.6035H544.072L544.147 78.0117ZM546.41 76.5557L546.396 78.0869C546.296 78.0687 546.187 78.055 546.068 78.0459C545.954 78.0368 545.84 78.0322 545.727 78.0322C545.444 78.0322 545.196 78.0732 544.981 78.1553C544.767 78.2327 544.587 78.3467 544.441 78.4971C544.3 78.6429 544.191 78.8206 544.113 79.0303C544.036 79.2399 543.99 79.4746 543.977 79.7344L543.601 79.7617C543.601 79.2969 543.646 78.8662 543.737 78.4697C543.828 78.0732 543.965 77.7246 544.147 77.4238C544.334 77.123 544.567 76.8883 544.845 76.7197C545.127 76.5511 545.453 76.4668 545.822 76.4668C545.923 76.4668 546.03 76.4759 546.144 76.4941C546.262 76.5124 546.351 76.5329 546.41 76.5557ZM549.712 83.1934L551.722 76.6035H553.485L550.519 85.1279C550.45 85.3102 550.361 85.5085 550.252 85.7227C550.143 85.9368 549.999 86.1396 549.821 86.3311C549.648 86.527 549.432 86.6842 549.172 86.8027C548.912 86.9258 548.598 86.9873 548.229 86.9873C548.083 86.9873 547.941 86.9736 547.805 86.9463C547.673 86.9235 547.547 86.8984 547.429 86.8711L547.422 85.6133C547.467 85.6178 547.522 85.6224 547.586 85.627C547.654 85.6315 547.709 85.6338 547.75 85.6338C548.023 85.6338 548.251 85.5996 548.434 85.5312C548.616 85.4674 548.764 85.3626 548.878 85.2168C548.996 85.071 549.097 84.875 549.179 84.6289L549.712 83.1934ZM548.577 76.6035L550.334 82.1406L550.628 83.877L549.486 84.1709L546.8 76.6035H548.577Z" fill="black" fill-opacity="0.85"/>
<path d="M345 32.8865C386.38 37.2282 417.723 31.4863 428.222 28.0727" stroke="black" stroke-width="2"/>
<path d="M423.628 37.46L429.041 27.3733L419.4 23.7264" stroke="black" stroke-width="2" stroke-linecap="round"/>
<path d="M121 27.7229C162.068 21.0407 193.745 25.2888 204.45 28.2481" stroke="black" stroke-width="2"/>
<path d="M199.304 19.0222L205.246 28.5585L195.821 32.7013" stroke="black" stroke-width="2" stroke-linecap="round"/>
<g clip-path="url(#clip0_7_178821)">
<path d="M484 16V12C484 10.9391 484.421 9.92172 485.172 9.17157C485.922 8.42143 486.939 8 488 8H492" stroke="black" stroke-opacity="0.85" stroke-width="2" stroke-linecap="round" stroke-linejoin="round"/>
<path d="M484 32V36C484 37.0609 484.421 38.0783 485.172 38.8284C485.922 39.5786 486.939 40 488 40H492" stroke="black" stroke-opacity="0.85" stroke-width="2" stroke-linecap="round" stroke-linejoin="round"/>
<path d="M508 8H512C513.061 8 514.078 8.42143 514.828 9.17157C515.579 9.92172 516 10.9391 516 12V16" stroke="black" stroke-opacity="0.85" stroke-width="2" stroke-linecap="round" stroke-linejoin="round"/>
<path d="M508 40H512C513.061 40 514.078 39.5786 514.828 38.8284C515.579 38.0783 516 37.0609 516 36V32" stroke="black" stroke-opacity="0.85" stroke-width="2" stroke-linecap="round" stroke-linejoin="round"/>
<path d="M500 25L508 20" stroke="black" stroke-opacity="0.85" stroke-width="2" stroke-linecap="round" stroke-linejoin="round"/>
<path d="M492 20L500 25V34L508 29V20L500 15L492 20Z" stroke="black" stroke-opacity="0.85" stroke-width="2" stroke-linecap="round" stroke-linejoin="round"/>
<path d="M492 20V29L500 34" stroke="black" stroke-opacity="0.85" stroke-width="2" stroke-linecap="round" stroke-linejoin="round"/>
</g>
<path d="M4.74414 56.502H2.20801L2.19434 55.251H4.40918C4.78288 55.251 5.09961 55.1963 5.35938 55.0869C5.6237 54.973 5.82422 54.8112 5.96094 54.6016C6.09766 54.3874 6.16602 54.1299 6.16602 53.8291C6.16602 53.4964 6.10221 53.2253 5.97461 53.0156C5.84701 52.806 5.65104 52.6533 5.38672 52.5576C5.12695 52.4619 4.79427 52.4141 4.38867 52.4141H2.72754V61H1.01172V51.0469H4.38867C4.93555 51.0469 5.42318 51.0993 5.85156 51.2041C6.28451 51.3089 6.65137 51.473 6.95215 51.6963C7.25749 51.915 7.48763 52.193 7.64258 52.5303C7.80208 52.8675 7.88184 53.2686 7.88184 53.7334C7.88184 54.1436 7.78385 54.5195 7.58789 54.8613C7.39193 55.1986 7.10254 55.4743 6.71973 55.6885C6.33691 55.9027 5.86068 56.0303 5.29102 56.0713L4.74414 56.502ZM4.66895 61H1.66797L2.44043 59.6396H4.66895C5.05632 59.6396 5.37988 59.5758 5.63965 59.4482C5.89941 59.3161 6.0931 59.1361 6.2207 58.9082C6.35286 58.6758 6.41895 58.4046 6.41895 58.0947C6.41895 57.7712 6.36198 57.4909 6.24805 57.2539C6.13411 57.0124 5.9541 56.8278 5.70801 56.7002C5.46191 56.568 5.14062 56.502 4.74414 56.502H2.81641L2.83008 55.251H5.33887L5.72852 55.7227C6.27539 55.7409 6.72428 55.8617 7.0752 56.085C7.43066 56.3083 7.69499 56.5977 7.86816 56.9531C8.04134 57.3086 8.12793 57.6914 8.12793 58.1016C8.12793 58.735 7.98893 59.266 7.71094 59.6943C7.4375 60.1227 7.04329 60.4486 6.52832 60.6719C6.01335 60.8906 5.39355 61 4.66895 61ZM14.1436 59.2568V53.6035H15.7979V61H14.2393L14.1436 59.2568ZM14.376 57.7188L14.9297 57.7051C14.9297 58.2018 14.875 58.6598 14.7656 59.0791C14.6562 59.4938 14.4876 59.8561 14.2598 60.166C14.0319 60.4714 13.7402 60.7106 13.3848 60.8838C13.0293 61.0524 12.6032 61.1367 12.1064 61.1367C11.7464 61.1367 11.416 61.0843 11.1152 60.9795C10.8145 60.8747 10.5547 60.7129 10.3359 60.4941C10.1217 60.2754 9.9554 59.9906 9.83691 59.6396C9.71842 59.2887 9.65918 58.8695 9.65918 58.3818V53.6035H11.3066V58.3955C11.3066 58.6644 11.3385 58.89 11.4023 59.0723C11.4661 59.25 11.5527 59.3936 11.6621 59.5029C11.7715 59.6123 11.8991 59.6898 12.0449 59.7354C12.1908 59.7809 12.3457 59.8037 12.5098 59.8037C12.9792 59.8037 13.3483 59.7126 13.6172 59.5303C13.8906 59.3434 14.0843 59.0928 14.1982 58.7783C14.3167 58.4639 14.376 58.1107 14.376 57.7188ZM19.6328 60.1934L21.6426 53.6035H23.4062L20.4395 62.1279C20.3711 62.3102 20.2822 62.5085 20.1729 62.7227C20.0635 62.9368 19.9199 63.1396 19.7422 63.3311C19.569 63.527 19.3525 63.6842 19.0928 63.8027C18.833 63.9258 18.5186 63.9873 18.1494 63.9873C18.0036 63.9873 17.8623 63.9736 17.7256 63.9463C17.5934 63.9235 17.4681 63.8984 17.3496 63.8711L17.3428 62.6133C17.3883 62.6178 17.443 62.6224 17.5068 62.627C17.5752 62.6315 17.6299 62.6338 17.6709 62.6338C17.9443 62.6338 18.1722 62.5996 18.3545 62.5312C18.5368 62.4674 18.6849 62.3626 18.7988 62.2168C18.9173 62.071 19.0176 61.875 19.0996 61.6289L19.6328 60.1934ZM18.498 53.6035L20.2549 59.1406L20.5488 60.877L19.4072 61.1709L16.7207 53.6035H18.498ZM35.8955 51.0469V61H34.1797L29.7158 53.8701V61H28V51.0469H29.7158L34.1934 58.1904V51.0469H35.8955ZM41.0361 61.1367C40.4893 61.1367 39.9948 61.0479 39.5527 60.8701C39.1152 60.6878 38.7415 60.4349 38.4316 60.1113C38.1263 59.7878 37.8916 59.4072 37.7275 58.9697C37.5635 58.5322 37.4814 58.0605 37.4814 57.5547V57.2812C37.4814 56.7025 37.5658 56.1784 37.7344 55.709C37.903 55.2396 38.1377 54.8385 38.4385 54.5059C38.7393 54.1686 39.0947 53.9111 39.5049 53.7334C39.915 53.5557 40.3594 53.4668 40.8379 53.4668C41.3665 53.4668 41.8291 53.5557 42.2256 53.7334C42.6221 53.9111 42.9502 54.1618 43.21 54.4854C43.4743 54.8044 43.6702 55.1849 43.7979 55.627C43.93 56.069 43.9961 56.5566 43.9961 57.0898V57.7939H38.2812V56.6113H42.3691V56.4814C42.36 56.1852 42.3008 55.9072 42.1914 55.6475C42.0866 55.3877 41.9248 55.1781 41.7061 55.0186C41.4873 54.859 41.1956 54.7793 40.8311 54.7793C40.5576 54.7793 40.3138 54.8385 40.0996 54.957C39.89 55.071 39.7145 55.2373 39.5732 55.4561C39.432 55.6748 39.3226 55.9391 39.2451 56.249C39.1722 56.5544 39.1357 56.8984 39.1357 57.2812V57.5547C39.1357 57.8783 39.179 58.179 39.2656 58.457C39.3568 58.7305 39.4889 58.9697 39.6621 59.1748C39.8353 59.3799 40.0449 59.5417 40.291 59.6602C40.5371 59.7741 40.8174 59.8311 41.1318 59.8311C41.5283 59.8311 41.8815 59.7513 42.1914 59.5918C42.5013 59.4323 42.7702 59.2067 42.998 58.915L43.8662 59.7559C43.7067 59.9883 43.4993 60.2116 43.2441 60.4258C42.9889 60.6354 42.6768 60.8063 42.3076 60.9385C41.943 61.0706 41.5192 61.1367 41.0361 61.1367ZM47.291 59.3594L49 53.6035H50.0527L49.7656 55.3262L48.043 61H47.0996L47.291 59.3594ZM46.2861 53.6035L47.6191 59.3867L47.7285 61H46.6758L44.6729 53.6035H46.2861ZM51.6523 59.3184L52.9443 53.6035H54.5508L52.5547 61H51.502L51.6523 59.3184ZM50.2305 53.6035L51.9189 59.291L52.1309 61H51.1875L49.4443 55.3193L49.1572 53.6035H50.2305ZM61.0381 51.0469V61H59.3223V51.0469H61.0381ZM65.0986 55.4014V56.7617H60.6006V55.4014H65.0986ZM65.666 51.0469V52.4141H60.6006V51.0469H65.666ZM68.6328 53.6035V61H66.9785V53.6035H68.6328ZM66.8691 51.6621C66.8691 51.4115 66.9512 51.2041 67.1152 51.04C67.2839 50.8714 67.5163 50.7871 67.8125 50.7871C68.1042 50.7871 68.3343 50.8714 68.5029 51.04C68.6715 51.2041 68.7559 51.4115 68.7559 51.6621C68.7559 51.9082 68.6715 52.1133 68.5029 52.2773C68.3343 52.4414 68.1042 52.5234 67.8125 52.5234C67.5163 52.5234 67.2839 52.4414 67.1152 52.2773C66.9512 52.1133 66.8691 51.9082 66.8691 51.6621ZM72.2012 50.5V61H70.5469V50.5H72.2012ZM78.1758 59.5166V55.9893C78.1758 55.7249 78.1279 55.4971 78.0322 55.3057C77.9365 55.1143 77.7907 54.9661 77.5947 54.8613C77.4033 54.7565 77.1618 54.7041 76.8701 54.7041C76.6012 54.7041 76.3688 54.7497 76.1729 54.8408C75.9769 54.932 75.8242 55.055 75.7148 55.21C75.6055 55.3649 75.5508 55.5404 75.5508 55.7363H73.9102C73.9102 55.4447 73.9808 55.1621 74.1221 54.8887C74.2633 54.6152 74.4684 54.3714 74.7373 54.1572C75.0062 53.943 75.3275 53.7744 75.7012 53.6514C76.0749 53.5283 76.4941 53.4668 76.959 53.4668C77.515 53.4668 78.0072 53.5602 78.4355 53.7471C78.8685 53.9339 79.208 54.2165 79.4541 54.5947C79.7048 54.9684 79.8301 55.4378 79.8301 56.0029V59.291C79.8301 59.6283 79.8529 59.9313 79.8984 60.2002C79.9486 60.4645 80.0192 60.6947 80.1104 60.8906V61H78.4219C78.3444 60.8223 78.2829 60.5967 78.2373 60.3232C78.1963 60.0452 78.1758 59.7764 78.1758 59.5166ZM78.415 56.502L78.4287 57.5205H77.2461C76.9408 57.5205 76.6719 57.5501 76.4395 57.6094C76.207 57.6641 76.0133 57.7461 75.8584 57.8555C75.7035 57.9648 75.5872 58.097 75.5098 58.252C75.4323 58.4069 75.3936 58.5824 75.3936 58.7783C75.3936 58.9743 75.4391 59.1543 75.5303 59.3184C75.6214 59.4779 75.7536 59.6032 75.9268 59.6943C76.1045 59.7855 76.3187 59.8311 76.5693 59.8311C76.9066 59.8311 77.2005 59.7627 77.4512 59.626C77.7064 59.4847 77.9069 59.3138 78.0527 59.1133C78.1986 58.9082 78.276 58.7145 78.2852 58.5322L78.8184 59.2637C78.7637 59.4505 78.6702 59.651 78.5381 59.8652C78.4059 60.0794 78.2327 60.2845 78.0186 60.4805C77.8089 60.6719 77.556 60.8291 77.2598 60.9521C76.9681 61.0752 76.6309 61.1367 76.248 61.1367C75.765 61.1367 75.3343 61.041 74.9561 60.8496C74.5778 60.6536 74.2816 60.3916 74.0674 60.0635C73.8532 59.7308 73.7461 59.3548 73.7461 58.9355C73.7461 58.5436 73.819 58.1973 73.9648 57.8965C74.1152 57.5911 74.334 57.3359 74.6211 57.1309C74.9128 56.9258 75.2682 56.7708 75.6875 56.666C76.1068 56.5566 76.5853 56.502 77.123 56.502H78.415ZM83.2002 55.1074V61H81.5527V53.6035H83.1045L83.2002 55.1074ZM82.9336 57.0283L82.373 57.0215C82.373 56.5111 82.4368 56.0394 82.5645 55.6064C82.6921 55.1735 82.8789 54.7975 83.125 54.4785C83.3711 54.1549 83.6764 53.9066 84.041 53.7334C84.4102 53.5557 84.8363 53.4668 85.3193 53.4668C85.6566 53.4668 85.9642 53.5169 86.2422 53.6172C86.5247 53.7129 86.7686 53.8656 86.9736 54.0752C87.1833 54.2848 87.3428 54.5537 87.4521 54.8818C87.5661 55.21 87.623 55.6064 87.623 56.0713V61H85.9756V56.2148C85.9756 55.8548 85.9209 55.5723 85.8115 55.3672C85.7067 55.1621 85.554 55.0163 85.3535 54.9297C85.1576 54.8385 84.9229 54.793 84.6494 54.793C84.3395 54.793 84.0752 54.8522 83.8564 54.9707C83.6423 55.0892 83.4668 55.251 83.3301 55.4561C83.1934 55.6611 83.0931 55.8981 83.0293 56.167C82.9655 56.4359 82.9336 56.723 82.9336 57.0283ZM87.5205 56.5908L86.748 56.7617C86.748 56.3151 86.8096 55.8936 86.9326 55.4971C87.0602 55.096 87.2448 54.7451 87.4863 54.4443C87.7324 54.139 88.0355 53.8997 88.3955 53.7266C88.7555 53.5534 89.168 53.4668 89.6328 53.4668C90.0111 53.4668 90.3483 53.5192 90.6445 53.624C90.9453 53.7243 91.2005 53.8838 91.4102 54.1025C91.6198 54.3213 91.7793 54.6061 91.8887 54.957C91.998 55.3034 92.0527 55.7227 92.0527 56.2148V61H90.3984V56.208C90.3984 55.8343 90.3438 55.5449 90.2344 55.3398C90.1296 55.1348 89.9792 54.9935 89.7832 54.916C89.5872 54.834 89.3525 54.793 89.0791 54.793C88.8239 54.793 88.5983 54.8408 88.4023 54.9365C88.2109 55.0277 88.0492 55.1576 87.917 55.3262C87.7848 55.4902 87.6846 55.6794 87.6162 55.8936C87.5524 56.1077 87.5205 56.3402 87.5205 56.5908ZM97.0088 61.1367C96.4619 61.1367 95.9674 61.0479 95.5254 60.8701C95.0879 60.6878 94.7142 60.4349 94.4043 60.1113C94.099 59.7878 93.8643 59.4072 93.7002 58.9697C93.5361 58.5322 93.4541 58.0605 93.4541 57.5547V57.2812C93.4541 56.7025 93.5384 56.1784 93.707 55.709C93.8757 55.2396 94.1104 54.8385 94.4111 54.5059C94.7119 54.1686 95.0674 53.9111 95.4775 53.7334C95.8877 53.5557 96.332 53.4668 96.8105 53.4668C97.3392 53.4668 97.8018 53.5557 98.1982 53.7334C98.5947 53.9111 98.9229 54.1618 99.1826 54.4854C99.4469 54.8044 99.6429 55.1849 99.7705 55.627C99.9027 56.069 99.9688 56.5566 99.9688 57.0898V57.7939H94.2539V56.6113H98.3418V56.4814C98.3327 56.1852 98.2734 55.9072 98.1641 55.6475C98.0592 55.3877 97.8975 55.1781 97.6787 55.0186C97.46 54.859 97.1683 54.7793 96.8037 54.7793C96.5303 54.7793 96.2865 54.8385 96.0723 54.957C95.8626 55.071 95.6872 55.2373 95.5459 55.4561C95.4046 55.6748 95.2952 55.9391 95.2178 56.249C95.1449 56.5544 95.1084 56.8984 95.1084 57.2812V57.5547C95.1084 57.8783 95.1517 58.179 95.2383 58.457C95.3294 58.7305 95.4616 58.9697 95.6348 59.1748C95.8079 59.3799 96.0176 59.5417 96.2637 59.6602C96.5098 59.7741 96.79 59.8311 97.1045 59.8311C97.501 59.8311 97.8542 59.7513 98.1641 59.5918C98.474 59.4323 98.7428 59.2067 98.9707 58.915L99.8389 59.7559C99.6794 59.9883 99.472 60.2116 99.2168 60.4258C98.9616 60.6354 98.6494 60.8063 98.2803 60.9385C97.9157 61.0706 97.4919 61.1367 97.0088 61.1367ZM102.888 55.1826V61H101.24V53.6035H102.792L102.888 55.1826ZM102.594 57.0283L102.061 57.0215C102.065 56.4974 102.138 56.0166 102.279 55.5791C102.425 55.1416 102.626 54.7656 102.881 54.4512C103.141 54.1367 103.451 53.8952 103.811 53.7266C104.171 53.5534 104.572 53.4668 105.014 53.4668C105.369 53.4668 105.69 53.5169 105.978 53.6172C106.269 53.7129 106.518 53.8701 106.723 54.0889C106.932 54.3076 107.092 54.5924 107.201 54.9434C107.311 55.2897 107.365 55.7158 107.365 56.2217V61H105.711V56.2148C105.711 55.8594 105.659 55.5791 105.554 55.374C105.453 55.1644 105.305 55.0163 105.109 54.9297C104.918 54.8385 104.679 54.793 104.392 54.793C104.109 54.793 103.856 54.8522 103.633 54.9707C103.41 55.0892 103.22 55.251 103.065 55.4561C102.915 55.6611 102.799 55.8981 102.717 56.167C102.635 56.4359 102.594 56.723 102.594 57.0283ZM112.438 53.6035V54.8066H108.268V53.6035H112.438ZM109.471 51.792H111.118V58.9561C111.118 59.1839 111.15 59.3594 111.214 59.4824C111.282 59.6009 111.376 59.6807 111.494 59.7217C111.613 59.7627 111.752 59.7832 111.911 59.7832C112.025 59.7832 112.134 59.7764 112.239 59.7627C112.344 59.749 112.428 59.7354 112.492 59.7217L112.499 60.9795C112.362 61.0205 112.203 61.057 112.021 61.0889C111.843 61.1208 111.638 61.1367 111.405 61.1367C111.027 61.1367 110.692 61.0706 110.4 60.9385C110.109 60.8018 109.881 60.5807 109.717 60.2754C109.553 59.9701 109.471 59.5645 109.471 59.0586V51.792Z" fill="black" fill-opacity="0.85"/>
<circle cx="50" cy="22" r="16.75" stroke="black" stroke-opacity="0.85" stroke-width="2.5"/>
<path d="M73 39.75C73.6904 39.75 74.25 39.1904 74.25 38.5C74.25 37.8096 73.6904 37.25 73 37.25V39.75ZM50 39.75H73V37.25H50V39.75Z" fill="black" fill-opacity="0.85"/>
<circle cx="50" cy="22" r="3.75" stroke="black" stroke-opacity="0.85" stroke-width="2.5"/>
<defs>
<clipPath id="clip0_7_178821">
<rect width="48" height="48" fill="white" transform="translate(476)"/>
</clipPath>
</defs>
</svg>
