<svg width="444" height="103" viewBox="0 0 444 103" fill="none" xmlns="http://www.w3.org/2000/svg">
<path d="M4.74414 73.502H2.20801L2.19434 72.251H4.40918C4.78288 72.251 5.09961 72.1963 5.35938 72.0869C5.6237 71.973 5.82422 71.8112 5.96094 71.6016C6.09766 71.3874 6.16602 71.1299 6.16602 70.8291C6.16602 70.4964 6.10221 70.2253 5.97461 70.0156C5.84701 69.806 5.65104 69.6533 5.38672 69.5576C5.12695 69.4619 4.79427 69.4141 4.38867 69.4141H2.72754V78H1.01172V68.0469H4.38867C4.93555 68.0469 5.42318 68.0993 5.85156 68.2041C6.28451 68.3089 6.65137 68.473 6.95215 68.6963C7.25749 68.915 7.48763 69.193 7.64258 69.5303C7.80208 69.8675 7.88184 70.2686 7.88184 70.7334C7.88184 71.1436 7.78385 71.5195 7.58789 71.8613C7.39193 72.1986 7.10254 72.4743 6.71973 72.6885C6.33691 72.9027 5.86068 73.0303 5.29102 73.0713L4.74414 73.502ZM4.66895 78H1.66797L2.44043 76.6396H4.66895C5.05632 76.6396 5.37988 76.5758 5.63965 76.4482C5.89941 76.3161 6.0931 76.1361 6.2207 75.9082C6.35286 75.6758 6.41895 75.4046 6.41895 75.0947C6.41895 74.7712 6.36198 74.4909 6.24805 74.2539C6.13411 74.0124 5.9541 73.8278 5.70801 73.7002C5.46191 73.568 5.14062 73.502 4.74414 73.502H2.81641L2.83008 72.251H5.33887L5.72852 72.7227C6.27539 72.7409 6.72428 72.8617 7.0752 73.085C7.43066 73.3083 7.69499 73.5977 7.86816 73.9531C8.04134 74.3086 8.12793 74.6914 8.12793 75.1016C8.12793 75.735 7.98893 76.266 7.71094 76.6943C7.4375 77.1227 7.04329 77.4486 6.52832 77.6719C6.01335 77.8906 5.39355 78 4.66895 78ZM13.8633 76.5166V72.9893C13.8633 72.7249 13.8154 72.4971 13.7197 72.3057C13.624 72.1143 13.4782 71.9661 13.2822 71.8613C13.0908 71.7565 12.8493 71.7041 12.5576 71.7041C12.2887 71.7041 12.0563 71.7497 11.8604 71.8408C11.6644 71.932 11.5117 72.055 11.4023 72.21C11.293 72.3649 11.2383 72.5404 11.2383 72.7363H9.59766C9.59766 72.4447 9.66829 72.1621 9.80957 71.8887C9.95085 71.6152 10.1559 71.3714 10.4248 71.1572C10.6937 70.943 11.015 70.7744 11.3887 70.6514C11.7624 70.5283 12.1816 70.4668 12.6465 70.4668C13.2025 70.4668 13.6947 70.5602 14.123 70.7471C14.556 70.9339 14.8955 71.2165 15.1416 71.5947C15.3923 71.9684 15.5176 72.4378 15.5176 73.0029V76.291C15.5176 76.6283 15.5404 76.9313 15.5859 77.2002C15.6361 77.4645 15.7067 77.6947 15.7979 77.8906V78H14.1094C14.0319 77.8223 13.9704 77.5967 13.9248 77.3232C13.8838 77.0452 13.8633 76.7764 13.8633 76.5166ZM14.1025 73.502L14.1162 74.5205H12.9336C12.6283 74.5205 12.3594 74.5501 12.127 74.6094C11.8945 74.6641 11.7008 74.7461 11.5459 74.8555C11.391 74.9648 11.2747 75.097 11.1973 75.252C11.1198 75.4069 11.0811 75.5824 11.0811 75.7783C11.0811 75.9743 11.1266 76.1543 11.2178 76.3184C11.3089 76.4779 11.4411 76.6032 11.6143 76.6943C11.792 76.7855 12.0062 76.8311 12.2568 76.8311C12.5941 76.8311 12.888 76.7627 13.1387 76.626C13.3939 76.4847 13.5944 76.3138 13.7402 76.1133C13.8861 75.9082 13.9635 75.7145 13.9727 75.5322L14.5059 76.2637C14.4512 76.4505 14.3577 76.651 14.2256 76.8652C14.0934 77.0794 13.9202 77.2845 13.7061 77.4805C13.4964 77.6719 13.2435 77.8291 12.9473 77.9521C12.6556 78.0752 12.3184 78.1367 11.9355 78.1367C11.4525 78.1367 11.0218 78.041 10.6436 77.8496C10.2653 77.6536 9.96908 77.3916 9.75488 77.0635C9.54069 76.7308 9.43359 76.3548 9.43359 75.9355C9.43359 75.5436 9.50651 75.1973 9.65234 74.8965C9.80273 74.5911 10.0215 74.3359 10.3086 74.1309C10.6003 73.9258 10.9557 73.7708 11.375 73.666C11.7943 73.5566 12.2728 73.502 12.8105 73.502H14.1025ZM21.3896 75.9971C21.3896 75.833 21.3486 75.6849 21.2666 75.5527C21.1846 75.416 21.0273 75.293 20.7949 75.1836C20.5671 75.0742 20.2298 74.974 19.7832 74.8828C19.3913 74.7962 19.0312 74.6937 18.7031 74.5752C18.3796 74.4521 18.1016 74.304 17.8691 74.1309C17.6367 73.9577 17.4567 73.7526 17.3291 73.5156C17.2015 73.2786 17.1377 73.0052 17.1377 72.6953C17.1377 72.3945 17.2038 72.1097 17.3359 71.8408C17.4681 71.5719 17.6572 71.335 17.9033 71.1299C18.1494 70.9248 18.4479 70.763 18.7988 70.6445C19.1543 70.526 19.5508 70.4668 19.9883 70.4668C20.6081 70.4668 21.139 70.5716 21.5811 70.7812C22.0277 70.9863 22.3695 71.2666 22.6064 71.6221C22.8434 71.973 22.9619 72.3695 22.9619 72.8115H21.3145C21.3145 72.6156 21.2643 72.4333 21.1641 72.2646C21.0684 72.0915 20.9225 71.9525 20.7266 71.8477C20.5306 71.7383 20.2845 71.6836 19.9883 71.6836C19.7057 71.6836 19.471 71.7292 19.2842 71.8203C19.1019 71.9069 18.9652 72.0208 18.874 72.1621C18.7874 72.3034 18.7441 72.4583 18.7441 72.627C18.7441 72.75 18.7669 72.8617 18.8125 72.9619C18.8626 73.0576 18.9447 73.1465 19.0586 73.2285C19.1725 73.306 19.3275 73.3789 19.5234 73.4473C19.724 73.5156 19.9746 73.5817 20.2754 73.6455C20.8405 73.764 21.3258 73.9167 21.7314 74.1035C22.1416 74.2858 22.4561 74.5228 22.6748 74.8145C22.8936 75.1016 23.0029 75.4661 23.0029 75.9082C23.0029 76.2363 22.9323 76.5371 22.791 76.8105C22.6543 77.0794 22.4538 77.3141 22.1895 77.5146C21.9251 77.7106 21.6084 77.8633 21.2393 77.9727C20.8747 78.082 20.4645 78.1367 20.0088 78.1367C19.3389 78.1367 18.7715 78.0182 18.3066 77.7812C17.8418 77.5397 17.4886 77.2321 17.2471 76.8584C17.0101 76.4801 16.8916 76.0882 16.8916 75.6826H18.4844C18.5026 75.988 18.5869 76.2318 18.7373 76.4141C18.8923 76.5918 19.0837 76.7217 19.3115 76.8037C19.5439 76.8812 19.7832 76.9199 20.0293 76.9199C20.3255 76.9199 20.5739 76.8812 20.7744 76.8037C20.9749 76.7217 21.1276 76.6123 21.2324 76.4756C21.3372 76.3343 21.3896 76.1748 21.3896 75.9971ZM27.7061 78.1367C27.1592 78.1367 26.6647 78.0479 26.2227 77.8701C25.7852 77.6878 25.4115 77.4349 25.1016 77.1113C24.7962 76.7878 24.5615 76.4072 24.3975 75.9697C24.2334 75.5322 24.1514 75.0605 24.1514 74.5547V74.2812C24.1514 73.7025 24.2357 73.1784 24.4043 72.709C24.5729 72.2396 24.8076 71.8385 25.1084 71.5059C25.4092 71.1686 25.7646 70.9111 26.1748 70.7334C26.585 70.5557 27.0293 70.4668 27.5078 70.4668C28.0365 70.4668 28.499 70.5557 28.8955 70.7334C29.292 70.9111 29.6201 71.1618 29.8799 71.4854C30.1442 71.8044 30.3402 72.1849 30.4678 72.627C30.5999 73.069 30.666 73.5566 30.666 74.0898V74.7939H24.9512V73.6113H29.0391V73.4814C29.0299 73.1852 28.9707 72.9072 28.8613 72.6475C28.7565 72.3877 28.5947 72.1781 28.376 72.0186C28.1572 71.859 27.8656 71.7793 27.501 71.7793C27.2275 71.7793 26.9837 71.8385 26.7695 71.957C26.5599 72.071 26.3844 72.2373 26.2432 72.4561C26.1019 72.6748 25.9925 72.9391 25.915 73.249C25.8421 73.5544 25.8057 73.8984 25.8057 74.2812V74.5547C25.8057 74.8783 25.849 75.179 25.9355 75.457C26.0267 75.7305 26.1589 75.9697 26.332 76.1748C26.5052 76.3799 26.7148 76.5417 26.9609 76.6602C27.207 76.7741 27.4873 76.8311 27.8018 76.8311C28.1982 76.8311 28.5514 76.7513 28.8613 76.5918C29.1712 76.4323 29.4401 76.2067 29.668 75.915L30.5361 76.7559C30.3766 76.9883 30.1693 77.2116 29.9141 77.4258C29.6589 77.6354 29.3467 77.8063 28.9775 77.9385C28.613 78.0706 28.1891 78.1367 27.7061 78.1367ZM39.3818 74.2881H36.791V72.9277H39.3818C39.833 72.9277 40.1976 72.8548 40.4756 72.709C40.7536 72.5632 40.9564 72.3626 41.084 72.1074C41.2161 71.8477 41.2822 71.5514 41.2822 71.2188C41.2822 70.9043 41.2161 70.6104 41.084 70.3369C40.9564 70.0589 40.7536 69.8356 40.4756 69.667C40.1976 69.4984 39.833 69.4141 39.3818 69.4141H37.3174V78H35.6016V68.0469H39.3818C40.152 68.0469 40.806 68.1836 41.3438 68.457C41.8861 68.7259 42.2985 69.0996 42.5811 69.5781C42.8636 70.0521 43.0049 70.5944 43.0049 71.2051C43.0049 71.8477 42.8636 72.3991 42.5811 72.8594C42.2985 73.3197 41.8861 73.6729 41.3438 73.9189C40.806 74.165 40.152 74.2881 39.3818 74.2881ZM46.0332 72.0117V78H44.3857V70.6035H45.958L46.0332 72.0117ZM48.2959 70.5557L48.2822 72.0869C48.182 72.0687 48.0726 72.055 47.9541 72.0459C47.8402 72.0368 47.7262 72.0322 47.6123 72.0322C47.3298 72.0322 47.0814 72.0732 46.8672 72.1553C46.653 72.2327 46.473 72.3467 46.3271 72.4971C46.1859 72.6429 46.0765 72.8206 45.999 73.0303C45.9215 73.2399 45.876 73.4746 45.8623 73.7344L45.4863 73.7617C45.4863 73.2969 45.5319 72.8662 45.623 72.4697C45.7142 72.0732 45.8509 71.7246 46.0332 71.4238C46.2201 71.123 46.4525 70.8883 46.7305 70.7197C47.013 70.5511 47.3389 70.4668 47.708 70.4668C47.8083 70.4668 47.9154 70.4759 48.0293 70.4941C48.1478 70.5124 48.2367 70.5329 48.2959 70.5557ZM51.0918 70.6035V78H49.4375V70.6035H51.0918ZM49.3281 68.6621C49.3281 68.4115 49.4102 68.2041 49.5742 68.04C49.7428 67.8714 49.9753 67.7871 50.2715 67.7871C50.5632 67.7871 50.7933 67.8714 50.9619 68.04C51.1305 68.2041 51.2148 68.4115 51.2148 68.6621C51.2148 68.9082 51.1305 69.1133 50.9619 69.2773C50.7933 69.4414 50.5632 69.5234 50.2715 69.5234C49.9753 69.5234 49.7428 69.4414 49.5742 69.2773C49.4102 69.1133 49.3281 68.9082 49.3281 68.6621ZM54.5303 72.1826V78H52.8828V70.6035H54.4346L54.5303 72.1826ZM54.2363 74.0283L53.7031 74.0215C53.7077 73.4974 53.7806 73.0166 53.9219 72.5791C54.0677 72.1416 54.2682 71.7656 54.5234 71.4512C54.7832 71.1367 55.0931 70.8952 55.4531 70.7266C55.8132 70.5534 56.2142 70.4668 56.6562 70.4668C57.0117 70.4668 57.333 70.5169 57.6201 70.6172C57.9118 70.7129 58.1602 70.8701 58.3652 71.0889C58.5749 71.3076 58.7344 71.5924 58.8438 71.9434C58.9531 72.2897 59.0078 72.7158 59.0078 73.2217V78H57.3535V73.2148C57.3535 72.8594 57.3011 72.5791 57.1963 72.374C57.096 72.1644 56.9479 72.0163 56.752 71.9297C56.5605 71.8385 56.3213 71.793 56.0342 71.793C55.7516 71.793 55.4987 71.8522 55.2754 71.9707C55.0521 72.0892 54.863 72.251 54.708 72.4561C54.5576 72.6611 54.4414 72.8981 54.3594 73.167C54.2773 73.4359 54.2363 73.723 54.2363 74.0283ZM64.0801 70.6035V71.8066H59.9102V70.6035H64.0801ZM61.1133 68.792H62.7607V75.9561C62.7607 76.1839 62.7926 76.3594 62.8564 76.4824C62.9248 76.6009 63.0182 76.6807 63.1367 76.7217C63.2552 76.7627 63.3942 76.7832 63.5537 76.7832C63.6676 76.7832 63.777 76.7764 63.8818 76.7627C63.9867 76.749 64.071 76.7354 64.1348 76.7217L64.1416 77.9795C64.0049 78.0205 63.8454 78.057 63.6631 78.0889C63.4854 78.1208 63.2803 78.1367 63.0479 78.1367C62.6696 78.1367 62.3346 78.0706 62.043 77.9385C61.7513 77.8018 61.5234 77.5807 61.3594 77.2754C61.1953 76.9701 61.1133 76.5645 61.1133 76.0586V68.792ZM72.7822 74.2881H70.1914V72.9277H72.7822C73.2334 72.9277 73.598 72.8548 73.876 72.709C74.154 72.5632 74.3568 72.3626 74.4844 72.1074C74.6165 71.8477 74.6826 71.5514 74.6826 71.2188C74.6826 70.9043 74.6165 70.6104 74.4844 70.3369C74.3568 70.0589 74.154 69.8356 73.876 69.667C73.598 69.4984 73.2334 69.4141 72.7822 69.4141H70.7178V78H69.002V68.0469H72.7822C73.5524 68.0469 74.2064 68.1836 74.7441 68.457C75.2865 68.7259 75.6989 69.0996 75.9814 69.5781C76.264 70.0521 76.4053 70.5944 76.4053 71.2051C76.4053 71.8477 76.264 72.3991 75.9814 72.8594C75.6989 73.3197 75.2865 73.6729 74.7441 73.9189C74.2064 74.165 73.5524 74.2881 72.7822 74.2881ZM79.4336 72.0117V78H77.7861V70.6035H79.3584L79.4336 72.0117ZM81.6963 70.5557L81.6826 72.0869C81.5824 72.0687 81.473 72.055 81.3545 72.0459C81.2406 72.0368 81.1266 72.0322 81.0127 72.0322C80.7301 72.0322 80.4818 72.0732 80.2676 72.1553C80.0534 72.2327 79.8734 72.3467 79.7275 72.4971C79.5863 72.6429 79.4769 72.8206 79.3994 73.0303C79.3219 73.2399 79.2764 73.4746 79.2627 73.7344L78.8867 73.7617C78.8867 73.2969 78.9323 72.8662 79.0234 72.4697C79.1146 72.0732 79.2513 71.7246 79.4336 71.4238C79.6204 71.123 79.8529 70.8883 80.1309 70.7197C80.4134 70.5511 80.7393 70.4668 81.1084 70.4668C81.2087 70.4668 81.3158 70.4759 81.4297 70.4941C81.5482 70.5124 81.637 70.5329 81.6963 70.5557ZM82.2363 74.3838V74.2266C82.2363 73.6934 82.3138 73.1989 82.4688 72.7432C82.6237 72.2829 82.847 71.8841 83.1387 71.5469C83.4349 71.2051 83.7949 70.9408 84.2188 70.7539C84.6471 70.5625 85.1302 70.4668 85.668 70.4668C86.2103 70.4668 86.6934 70.5625 87.1172 70.7539C87.5456 70.9408 87.9079 71.2051 88.2041 71.5469C88.5003 71.8841 88.7259 72.2829 88.8809 72.7432C89.0358 73.1989 89.1133 73.6934 89.1133 74.2266V74.3838C89.1133 74.917 89.0358 75.4115 88.8809 75.8672C88.7259 76.3229 88.5003 76.7217 88.2041 77.0635C87.9079 77.4007 87.5479 77.665 87.124 77.8564C86.7002 78.0433 86.2194 78.1367 85.6816 78.1367C85.1393 78.1367 84.654 78.0433 84.2256 77.8564C83.8018 77.665 83.4417 77.4007 83.1455 77.0635C82.8493 76.7217 82.6237 76.3229 82.4688 75.8672C82.3138 75.4115 82.2363 74.917 82.2363 74.3838ZM83.8838 74.2266V74.3838C83.8838 74.7165 83.918 75.0309 83.9863 75.3271C84.0547 75.6234 84.1618 75.8831 84.3076 76.1064C84.4535 76.3298 84.6403 76.5052 84.8682 76.6328C85.096 76.7604 85.3672 76.8242 85.6816 76.8242C85.987 76.8242 86.2513 76.7604 86.4746 76.6328C86.7025 76.5052 86.8893 76.3298 87.0352 76.1064C87.181 75.8831 87.2881 75.6234 87.3564 75.3271C87.4294 75.0309 87.4658 74.7165 87.4658 74.3838V74.2266C87.4658 73.8984 87.4294 73.5885 87.3564 73.2969C87.2881 73.0007 87.1787 72.7386 87.0283 72.5107C86.8825 72.2829 86.6956 72.1051 86.4678 71.9775C86.2445 71.8454 85.9779 71.7793 85.668 71.7793C85.3581 71.7793 85.0892 71.8454 84.8613 71.9775C84.638 72.1051 84.4535 72.2829 84.3076 72.5107C84.1618 72.7386 84.0547 73.0007 83.9863 73.2969C83.918 73.5885 83.8838 73.8984 83.8838 74.2266ZM92.6133 78H90.959V70.125C90.959 69.528 91.0775 69.0244 91.3145 68.6143C91.556 68.2041 91.9001 67.8919 92.3467 67.6777C92.7979 67.4635 93.3333 67.3564 93.9531 67.3564C94.3177 67.3564 94.6686 67.3952 95.0059 67.4727C95.3477 67.5501 95.7008 67.6481 96.0654 67.7666L95.8125 69.1064C95.5801 69.029 95.3226 68.9561 95.04 68.8877C94.7575 68.8148 94.4316 68.7783 94.0625 68.7783C93.5658 68.7783 93.1989 68.8923 92.9619 69.1201C92.7295 69.3434 92.6133 69.6784 92.6133 70.125V78ZM94.0967 70.6035V71.8066H89.8242V70.6035H94.0967ZM96.8447 70.6035V78H95.1973V70.6035H96.8447ZM100.447 67.5V78H98.793V67.5H100.447ZM105.513 78.1367C104.966 78.1367 104.471 78.0479 104.029 77.8701C103.592 77.6878 103.218 77.4349 102.908 77.1113C102.603 76.7878 102.368 76.4072 102.204 75.9697C102.04 75.5322 101.958 75.0605 101.958 74.5547V74.2812C101.958 73.7025 102.042 73.1784 102.211 72.709C102.38 72.2396 102.614 71.8385 102.915 71.5059C103.216 71.1686 103.571 70.9111 103.981 70.7334C104.392 70.5557 104.836 70.4668 105.314 70.4668C105.843 70.4668 106.306 70.5557 106.702 70.7334C107.099 70.9111 107.427 71.1618 107.687 71.4854C107.951 71.8044 108.147 72.1849 108.274 72.627C108.407 73.069 108.473 73.5566 108.473 74.0898V74.7939H102.758V73.6113H106.846V73.4814C106.837 73.1852 106.777 72.9072 106.668 72.6475C106.563 72.3877 106.401 72.1781 106.183 72.0186C105.964 71.859 105.672 71.7793 105.308 71.7793C105.034 71.7793 104.79 71.8385 104.576 71.957C104.367 72.071 104.191 72.2373 104.05 72.4561C103.909 72.6748 103.799 72.9391 103.722 73.249C103.649 73.5544 103.612 73.8984 103.612 74.2812V74.5547C103.612 74.8783 103.656 75.179 103.742 75.457C103.833 75.7305 103.965 75.9697 104.139 76.1748C104.312 76.3799 104.521 76.5417 104.768 76.6602C105.014 76.7741 105.294 76.8311 105.608 76.8311C106.005 76.8311 106.358 76.7513 106.668 76.5918C106.978 76.4323 107.247 76.2067 107.475 75.915L108.343 76.7559C108.183 76.9883 107.976 77.2116 107.721 77.4258C107.465 77.6354 107.153 77.8063 106.784 77.9385C106.42 78.0706 105.996 78.1367 105.513 78.1367Z" fill="black" fill-opacity="0.85"/>
<path d="M192.891 54.7598H194.6C194.545 55.4115 194.363 55.9925 194.053 56.5029C193.743 57.0088 193.308 57.4076 192.747 57.6992C192.187 57.9909 191.505 58.1367 190.703 58.1367C190.088 58.1367 189.534 58.0273 189.042 57.8086C188.55 57.5853 188.128 57.2708 187.777 56.8652C187.426 56.4551 187.158 55.9606 186.971 55.3818C186.788 54.8031 186.697 54.1559 186.697 53.4404V52.6133C186.697 51.8978 186.791 51.2507 186.978 50.6719C187.169 50.0931 187.442 49.5986 187.798 49.1885C188.153 48.7738 188.579 48.457 189.076 48.2383C189.577 48.0195 190.14 47.9102 190.765 47.9102C191.558 47.9102 192.228 48.056 192.774 48.3477C193.321 48.6393 193.745 49.0426 194.046 49.5576C194.351 50.0726 194.538 50.6628 194.606 51.3281H192.897C192.852 50.8997 192.752 50.5329 192.597 50.2275C192.446 49.9222 192.223 49.6898 191.927 49.5303C191.631 49.3662 191.243 49.2842 190.765 49.2842C190.373 49.2842 190.031 49.3571 189.739 49.5029C189.448 49.6488 189.204 49.863 189.008 50.1455C188.812 50.4281 188.664 50.7767 188.563 51.1914C188.468 51.6016 188.42 52.071 188.42 52.5996V53.4404C188.42 53.9417 188.463 54.3975 188.55 54.8076C188.641 55.2132 188.778 55.5618 188.96 55.8535C189.147 56.1452 189.384 56.3708 189.671 56.5303C189.958 56.6898 190.302 56.7695 190.703 56.7695C191.191 56.7695 191.585 56.6921 191.886 56.5371C192.191 56.3822 192.421 56.1566 192.576 55.8604C192.736 55.5596 192.84 55.1927 192.891 54.7598ZM200.164 56.5166V52.9893C200.164 52.7249 200.116 52.4971 200.021 52.3057C199.925 52.1143 199.779 51.9661 199.583 51.8613C199.392 51.7565 199.15 51.7041 198.858 51.7041C198.59 51.7041 198.357 51.7497 198.161 51.8408C197.965 51.932 197.812 52.055 197.703 52.21C197.594 52.3649 197.539 52.5404 197.539 52.7363H195.898C195.898 52.4447 195.969 52.1621 196.11 51.8887C196.252 51.6152 196.457 51.3714 196.726 51.1572C196.994 50.943 197.316 50.7744 197.689 50.6514C198.063 50.5283 198.482 50.4668 198.947 50.4668C199.503 50.4668 199.995 50.5602 200.424 50.7471C200.857 50.9339 201.196 51.2165 201.442 51.5947C201.693 51.9684 201.818 52.4378 201.818 53.0029V56.291C201.818 56.6283 201.841 56.9313 201.887 57.2002C201.937 57.4645 202.007 57.6947 202.099 57.8906V58H200.41C200.333 57.8223 200.271 57.5967 200.226 57.3232C200.185 57.0452 200.164 56.7764 200.164 56.5166ZM200.403 53.502L200.417 54.5205H199.234C198.929 54.5205 198.66 54.5501 198.428 54.6094C198.195 54.6641 198.002 54.7461 197.847 54.8555C197.692 54.9648 197.576 55.097 197.498 55.252C197.421 55.4069 197.382 55.5824 197.382 55.7783C197.382 55.9743 197.427 56.1543 197.519 56.3184C197.61 56.4779 197.742 56.6032 197.915 56.6943C198.093 56.7855 198.307 56.8311 198.558 56.8311C198.895 56.8311 199.189 56.7627 199.439 56.626C199.695 56.4847 199.895 56.3138 200.041 56.1133C200.187 55.9082 200.264 55.7145 200.273 55.5322L200.807 56.2637C200.752 56.4505 200.659 56.651 200.526 56.8652C200.394 57.0794 200.221 57.2845 200.007 57.4805C199.797 57.6719 199.544 57.8291 199.248 57.9521C198.956 58.0752 198.619 58.1367 198.236 58.1367C197.753 58.1367 197.323 58.041 196.944 57.8496C196.566 57.6536 196.27 57.3916 196.056 57.0635C195.841 56.7308 195.734 56.3548 195.734 55.9355C195.734 55.5436 195.807 55.1973 195.953 54.8965C196.104 54.5911 196.322 54.3359 196.609 54.1309C196.901 53.9258 197.257 53.7708 197.676 53.666C198.095 53.5566 198.574 53.502 199.111 53.502H200.403ZM205.305 47.5V58H203.65V47.5H205.305ZM208.873 50.6035V58H207.219V50.6035H208.873ZM207.109 48.6621C207.109 48.4115 207.191 48.2041 207.355 48.04C207.524 47.8714 207.757 47.7871 208.053 47.7871C208.344 47.7871 208.575 47.8714 208.743 48.04C208.912 48.2041 208.996 48.4115 208.996 48.6621C208.996 48.9082 208.912 49.1133 208.743 49.2773C208.575 49.4414 208.344 49.5234 208.053 49.5234C207.757 49.5234 207.524 49.4414 207.355 49.2773C207.191 49.1133 207.109 48.9082 207.109 48.6621ZM210.685 47.5H212.332V56.4209L212.175 58H210.685V47.5ZM217.158 54.2334V54.377C217.158 54.9238 217.097 55.4274 216.974 55.8877C216.855 56.3434 216.673 56.7399 216.427 57.0771C216.185 57.4144 215.884 57.6764 215.524 57.8633C215.169 58.0456 214.757 58.1367 214.287 58.1367C213.827 58.1367 213.426 58.0501 213.084 57.877C212.742 57.7038 212.455 57.4577 212.223 57.1387C211.995 56.8197 211.81 56.4391 211.669 55.9971C211.528 55.555 211.427 55.0674 211.368 54.5342V54.0762C211.427 53.5384 211.528 53.0508 211.669 52.6133C211.81 52.1712 211.995 51.7907 212.223 51.4717C212.455 51.1481 212.74 50.8997 213.077 50.7266C213.419 50.5534 213.818 50.4668 214.273 50.4668C214.747 50.4668 215.164 50.5579 215.524 50.7402C215.889 50.9225 216.192 51.1823 216.434 51.5195C216.675 51.8522 216.855 52.2487 216.974 52.709C217.097 53.1693 217.158 53.6774 217.158 54.2334ZM215.511 54.377V54.2334C215.511 53.9007 215.483 53.5885 215.429 53.2969C215.374 53.0007 215.283 52.7409 215.155 52.5176C215.032 52.2943 214.864 52.1188 214.649 51.9912C214.44 51.859 214.178 51.793 213.863 51.793C213.572 51.793 213.321 51.8431 213.111 51.9434C212.902 52.0436 212.726 52.1803 212.585 52.3535C212.444 52.5267 212.332 52.7272 212.25 52.9551C212.173 53.1829 212.12 53.429 212.093 53.6934V54.9307C212.134 55.2725 212.22 55.5869 212.353 55.874C212.489 56.1566 212.681 56.3844 212.927 56.5576C213.173 56.7262 213.49 56.8105 213.877 56.8105C214.182 56.8105 214.44 56.749 214.649 56.626C214.859 56.5029 215.025 56.332 215.148 56.1133C215.276 55.89 215.367 55.6302 215.422 55.334C215.481 55.0378 215.511 54.7188 215.511 54.377ZM220.207 52.0117V58H218.56V50.6035H220.132L220.207 52.0117ZM222.47 50.5557L222.456 52.0869C222.356 52.0687 222.246 52.055 222.128 52.0459C222.014 52.0368 221.9 52.0322 221.786 52.0322C221.504 52.0322 221.255 52.0732 221.041 52.1553C220.827 52.2327 220.647 52.3467 220.501 52.4971C220.36 52.6429 220.25 52.8206 220.173 53.0303C220.095 53.2399 220.05 53.4746 220.036 53.7344L219.66 53.7617C219.66 53.2969 219.706 52.8662 219.797 52.4697C219.888 52.0732 220.025 51.7246 220.207 51.4238C220.394 51.123 220.626 50.8883 220.904 50.7197C221.187 50.5511 221.513 50.4668 221.882 50.4668C221.982 50.4668 222.089 50.4759 222.203 50.4941C222.322 50.5124 222.41 50.5329 222.47 50.5557ZM227.426 56.5166V52.9893C227.426 52.7249 227.378 52.4971 227.282 52.3057C227.187 52.1143 227.041 51.9661 226.845 51.8613C226.653 51.7565 226.412 51.7041 226.12 51.7041C225.851 51.7041 225.619 51.7497 225.423 51.8408C225.227 51.932 225.074 52.055 224.965 52.21C224.855 52.3649 224.801 52.5404 224.801 52.7363H223.16C223.16 52.4447 223.231 52.1621 223.372 51.8887C223.513 51.6152 223.718 51.3714 223.987 51.1572C224.256 50.943 224.577 50.7744 224.951 50.6514C225.325 50.5283 225.744 50.4668 226.209 50.4668C226.765 50.4668 227.257 50.5602 227.686 50.7471C228.118 50.9339 228.458 51.2165 228.704 51.5947C228.955 51.9684 229.08 52.4378 229.08 53.0029V56.291C229.08 56.6283 229.103 56.9313 229.148 57.2002C229.199 57.4645 229.269 57.6947 229.36 57.8906V58H227.672C227.594 57.8223 227.533 57.5967 227.487 57.3232C227.446 57.0452 227.426 56.7764 227.426 56.5166ZM227.665 53.502L227.679 54.5205H226.496C226.191 54.5205 225.922 54.5501 225.689 54.6094C225.457 54.6641 225.263 54.7461 225.108 54.8555C224.953 54.9648 224.837 55.097 224.76 55.252C224.682 55.4069 224.644 55.5824 224.644 55.7783C224.644 55.9743 224.689 56.1543 224.78 56.3184C224.871 56.4779 225.004 56.6032 225.177 56.6943C225.354 56.7855 225.569 56.8311 225.819 56.8311C226.157 56.8311 226.451 56.7627 226.701 56.626C226.956 56.4847 227.157 56.3138 227.303 56.1133C227.449 55.9082 227.526 55.7145 227.535 55.5322L228.068 56.2637C228.014 56.4505 227.92 56.651 227.788 56.8652C227.656 57.0794 227.483 57.2845 227.269 57.4805C227.059 57.6719 226.806 57.8291 226.51 57.9521C226.218 58.0752 225.881 58.1367 225.498 58.1367C225.015 58.1367 224.584 58.041 224.206 57.8496C223.828 57.6536 223.532 57.3916 223.317 57.0635C223.103 56.7308 222.996 56.3548 222.996 55.9355C222.996 55.5436 223.069 55.1973 223.215 54.8965C223.365 54.5911 223.584 54.3359 223.871 54.1309C224.163 53.9258 224.518 53.7708 224.938 53.666C225.357 53.5566 225.835 53.502 226.373 53.502H227.665ZM234.193 50.6035V51.8066H230.023V50.6035H234.193ZM231.227 48.792H232.874V55.9561C232.874 56.1839 232.906 56.3594 232.97 56.4824C233.038 56.6009 233.132 56.6807 233.25 56.7217C233.368 56.7627 233.507 56.7832 233.667 56.7832C233.781 56.7832 233.89 56.7764 233.995 56.7627C234.1 56.749 234.184 56.7354 234.248 56.7217L234.255 57.9795C234.118 58.0205 233.959 58.057 233.776 58.0889C233.599 58.1208 233.394 58.1367 233.161 58.1367C232.783 58.1367 232.448 58.0706 232.156 57.9385C231.865 57.8018 231.637 57.5807 231.473 57.2754C231.309 56.9701 231.227 56.5645 231.227 56.0586V48.792ZM237.229 50.6035V58H235.574V50.6035H237.229ZM235.465 48.6621C235.465 48.4115 235.547 48.2041 235.711 48.04C235.88 47.8714 236.112 47.7871 236.408 47.7871C236.7 47.7871 236.93 47.8714 237.099 48.04C237.267 48.2041 237.352 48.4115 237.352 48.6621C237.352 48.9082 237.267 49.1133 237.099 49.2773C236.93 49.4414 236.7 49.5234 236.408 49.5234C236.112 49.5234 235.88 49.4414 235.711 49.2773C235.547 49.1133 235.465 48.9082 235.465 48.6621ZM238.719 54.3838V54.2266C238.719 53.6934 238.796 53.1989 238.951 52.7432C239.106 52.2829 239.329 51.8841 239.621 51.5469C239.917 51.2051 240.277 50.9408 240.701 50.7539C241.13 50.5625 241.613 50.4668 242.15 50.4668C242.693 50.4668 243.176 50.5625 243.6 50.7539C244.028 50.9408 244.39 51.2051 244.687 51.5469C244.983 51.8841 245.208 52.2829 245.363 52.7432C245.518 53.1989 245.596 53.6934 245.596 54.2266V54.3838C245.596 54.917 245.518 55.4115 245.363 55.8672C245.208 56.3229 244.983 56.7217 244.687 57.0635C244.39 57.4007 244.03 57.665 243.606 57.8564C243.183 58.0433 242.702 58.1367 242.164 58.1367C241.622 58.1367 241.136 58.0433 240.708 57.8564C240.284 57.665 239.924 57.4007 239.628 57.0635C239.332 56.7217 239.106 56.3229 238.951 55.8672C238.796 55.4115 238.719 54.917 238.719 54.3838ZM240.366 54.2266V54.3838C240.366 54.7165 240.4 55.0309 240.469 55.3271C240.537 55.6234 240.644 55.8831 240.79 56.1064C240.936 56.3298 241.123 56.5052 241.351 56.6328C241.578 56.7604 241.85 56.8242 242.164 56.8242C242.469 56.8242 242.734 56.7604 242.957 56.6328C243.185 56.5052 243.372 56.3298 243.518 56.1064C243.663 55.8831 243.771 55.6234 243.839 55.3271C243.912 55.0309 243.948 54.7165 243.948 54.3838V54.2266C243.948 53.8984 243.912 53.5885 243.839 53.2969C243.771 53.0007 243.661 52.7386 243.511 52.5107C243.365 52.2829 243.178 52.1051 242.95 51.9775C242.727 51.8454 242.46 51.7793 242.15 51.7793C241.84 51.7793 241.572 51.8454 241.344 51.9775C241.12 52.1051 240.936 52.2829 240.79 52.5107C240.644 52.7386 240.537 53.0007 240.469 53.2969C240.4 53.5885 240.366 53.8984 240.366 54.2266ZM248.61 52.1826V58H246.963V50.6035H248.515L248.61 52.1826ZM248.316 54.0283L247.783 54.0215C247.788 53.4974 247.861 53.0166 248.002 52.5791C248.148 52.1416 248.348 51.7656 248.604 51.4512C248.863 51.1367 249.173 50.8952 249.533 50.7266C249.893 50.5534 250.294 50.4668 250.736 50.4668C251.092 50.4668 251.413 50.5169 251.7 50.6172C251.992 50.7129 252.24 50.8701 252.445 51.0889C252.655 51.3076 252.814 51.5924 252.924 51.9434C253.033 52.2897 253.088 52.7158 253.088 53.2217V58H251.434V53.2148C251.434 52.8594 251.381 52.5791 251.276 52.374C251.176 52.1644 251.028 52.0163 250.832 51.9297C250.641 51.8385 250.401 51.793 250.114 51.793C249.832 51.793 249.579 51.8522 249.355 51.9707C249.132 52.0892 248.943 52.251 248.788 52.4561C248.638 52.6611 248.521 52.8981 248.439 53.167C248.357 53.4359 248.316 53.723 248.316 54.0283Z" fill="black" fill-opacity="0.85"/>
<path d="M237.107 29.2513H209.464V4.17983C209.464 4.00304 209.319 3.8584 209.142 3.8584H206.892C206.715 3.8584 206.571 4.00304 206.571 4.17983V31.8227C206.571 31.9995 206.715 32.1441 206.892 32.1441H237.107C237.283 32.1441 237.428 31.9995 237.428 31.8227V29.5727C237.428 29.3959 237.283 29.2513 237.107 29.2513ZM213.715 23.0517C213.839 23.1763 214.04 23.1763 214.169 23.0517L219.725 17.5231L224.852 22.6821C224.977 22.8066 225.182 22.8066 225.306 22.6821L236.371 11.6209C236.496 11.4963 236.496 11.2914 236.371 11.1669L234.78 9.57581C234.72 9.51599 234.638 9.48243 234.553 9.48243C234.468 9.48243 234.387 9.51599 234.326 9.57581L225.085 18.8129L219.966 13.662C219.906 13.6022 219.824 13.5686 219.739 13.5686C219.654 13.5686 219.573 13.6022 219.512 13.662L212.127 21.0026C212.068 21.063 212.034 21.1446 212.034 21.2296C212.034 21.3146 212.068 21.3962 212.127 21.4566L213.715 23.0517Z" fill="black" fill-opacity="0.85"/>
<path d="M63.7854 17.9336H34.2139C33.5028 17.9336 32.9282 18.5081 32.9282 19.2193V48.7907C32.9282 49.5019 33.5028 50.0765 34.2139 50.0765H63.7854C64.4965 50.0765 65.0711 49.5019 65.0711 48.7907V19.2193C65.0711 18.5081 64.4965 17.9336 63.7854 17.9336ZM62.1782 47.1836H35.8211V20.8265H62.1782V47.1836ZM48.1961 29.505H55.5889C55.7657 29.505 55.9104 29.3604 55.9104 29.1836V27.255C55.9104 27.0782 55.7657 26.9336 55.5889 26.9336H48.1961C48.0193 26.9336 47.8747 27.0782 47.8747 27.255V29.1836C47.8747 29.3604 48.0193 29.505 48.1961 29.505ZM48.1961 35.2907H55.5889C55.7657 35.2907 55.9104 35.1461 55.9104 34.9693V33.0407C55.9104 32.864 55.7657 32.7193 55.5889 32.7193H48.1961C48.0193 32.7193 47.8747 32.864 47.8747 33.0407V34.9693C47.8747 35.1461 48.0193 35.2907 48.1961 35.2907ZM48.1961 41.0765H55.5889C55.7657 41.0765 55.9104 40.9318 55.9104 40.755V38.8265C55.9104 38.6497 55.7657 38.505 55.5889 38.505H48.1961C48.0193 38.505 47.8747 38.6497 47.8747 38.8265V40.755C47.8747 40.9318 48.0193 41.0765 48.1961 41.0765ZM42.0889 28.2193C42.0889 28.6455 42.2583 29.0543 42.5597 29.3557C42.8611 29.6571 43.2698 29.8265 43.6961 29.8265C44.1223 29.8265 44.5311 29.6571 44.8325 29.3557C45.1339 29.0543 45.3032 28.6455 45.3032 28.2193C45.3032 27.7931 45.1339 27.3843 44.8325 27.0829C44.5311 26.7815 44.1223 26.6122 43.6961 26.6122C43.2698 26.6122 42.8611 26.7815 42.5597 27.0829C42.2583 27.3843 42.0889 27.7931 42.0889 28.2193ZM42.0889 34.005C42.0889 34.4313 42.2583 34.84 42.5597 35.1414C42.8611 35.4428 43.2698 35.6122 43.6961 35.6122C44.1223 35.6122 44.5311 35.4428 44.8325 35.1414C45.1339 34.84 45.3032 34.4313 45.3032 34.005C45.3032 33.5788 45.1339 33.17 44.8325 32.8686C44.5311 32.5672 44.1223 32.3979 43.6961 32.3979C43.2698 32.3979 42.8611 32.5672 42.5597 32.8686C42.2583 33.17 42.0889 33.5788 42.0889 34.005ZM42.0889 39.7907C42.0889 40.217 42.2583 40.6258 42.5597 40.9272C42.8611 41.2286 43.2698 41.3979 43.6961 41.3979C44.1223 41.3979 44.5311 41.2286 44.8325 40.9272C45.1339 40.6258 45.3032 40.217 45.3032 39.7907C45.3032 39.3645 45.1339 38.9557 44.8325 38.6543C44.5311 38.3529 44.1223 38.1836 43.6961 38.1836C43.2698 38.1836 42.8611 38.3529 42.5597 38.6543C42.2583 38.9557 42.0889 39.3645 42.0889 39.7907Z" fill="black" fill-opacity="0.85"/>
<path d="M347.133 64.0469H348.842V70.6982C348.842 71.4548 348.678 72.0882 348.35 72.5986C348.021 73.109 347.575 73.4941 347.01 73.7539C346.449 74.0091 345.823 74.1367 345.13 74.1367C344.414 74.1367 343.776 74.0091 343.216 73.7539C342.655 73.4941 342.213 73.109 341.89 72.5986C341.571 72.0882 341.411 71.4548 341.411 70.6982V64.0469H343.12V70.6982C343.12 71.1768 343.202 71.571 343.366 71.8809C343.53 72.1862 343.763 72.4118 344.063 72.5576C344.364 72.7035 344.72 72.7764 345.13 72.7764C345.54 72.7764 345.893 72.7035 346.189 72.5576C346.49 72.4118 346.723 72.1862 346.887 71.8809C347.051 71.571 347.133 71.1768 347.133 70.6982V64.0469ZM352.198 68.0254V76.8438H350.551V66.6035H352.068L352.198 68.0254ZM357.018 70.2334V70.377C357.018 70.9147 356.954 71.4137 356.826 71.874C356.703 72.3298 356.519 72.7285 356.272 73.0703C356.031 73.4076 355.732 73.6696 355.377 73.8564C355.021 74.0433 354.611 74.1367 354.146 74.1367C353.686 74.1367 353.283 74.0524 352.937 73.8838C352.595 73.7106 352.305 73.4668 352.068 73.1523C351.831 72.8379 351.64 72.4688 351.494 72.0449C351.353 71.6165 351.253 71.1471 351.193 70.6367V70.083C351.253 69.5407 351.353 69.0485 351.494 68.6064C351.64 68.1644 351.831 67.7839 352.068 67.4648C352.305 67.1458 352.595 66.8997 352.937 66.7266C353.278 66.5534 353.677 66.4668 354.133 66.4668C354.598 66.4668 355.01 66.5579 355.37 66.7402C355.73 66.918 356.033 67.1732 356.279 67.5059C356.525 67.834 356.71 68.2305 356.833 68.6953C356.956 69.1556 357.018 69.6683 357.018 70.2334ZM355.37 70.377V70.2334C355.37 69.8916 355.338 69.5749 355.274 69.2832C355.211 68.987 355.11 68.7272 354.974 68.5039C354.837 68.2806 354.661 68.1074 354.447 67.9844C354.238 67.8568 353.985 67.793 353.688 67.793C353.397 67.793 353.146 67.8431 352.937 67.9434C352.727 68.0391 352.551 68.1735 352.41 68.3467C352.269 68.5199 352.16 68.7227 352.082 68.9551C352.005 69.1829 351.95 69.4313 351.918 69.7002V71.0264C351.973 71.3545 352.066 71.6553 352.198 71.9287C352.33 72.2021 352.517 72.4209 352.759 72.585C353.005 72.7445 353.319 72.8242 353.702 72.8242C353.998 72.8242 354.251 72.7604 354.461 72.6328C354.671 72.5052 354.841 72.3298 354.974 72.1064C355.11 71.8786 355.211 71.6165 355.274 71.3203C355.338 71.0241 355.37 70.7096 355.37 70.377ZM362.931 72.4688V63.5H364.585V74H363.088L362.931 72.4688ZM358.118 70.3838V70.2402C358.118 69.6797 358.184 69.1693 358.316 68.709C358.449 68.2441 358.64 67.8454 358.891 67.5127C359.141 67.1755 359.447 66.918 359.807 66.7402C360.167 66.5579 360.572 66.4668 361.023 66.4668C361.47 66.4668 361.862 66.5534 362.199 66.7266C362.536 66.8997 362.824 67.1481 363.061 67.4717C363.298 67.7907 363.487 68.1735 363.628 68.6201C363.769 69.0622 363.869 69.5544 363.929 70.0967V70.5547C363.869 71.0833 363.769 71.5664 363.628 72.0039C363.487 72.4414 363.298 72.8197 363.061 73.1387C362.824 73.4577 362.534 73.7038 362.192 73.877C361.855 74.0501 361.461 74.1367 361.01 74.1367C360.563 74.1367 360.16 74.0433 359.8 73.8564C359.444 73.6696 359.141 73.4076 358.891 73.0703C358.64 72.7331 358.449 72.3366 358.316 71.8809C358.184 71.4206 358.118 70.9215 358.118 70.3838ZM359.766 70.2402V70.3838C359.766 70.721 359.795 71.0355 359.854 71.3271C359.918 71.6188 360.016 71.8763 360.148 72.0996C360.281 72.3184 360.451 72.4915 360.661 72.6191C360.875 72.7422 361.131 72.8037 361.427 72.8037C361.8 72.8037 362.108 72.7217 362.35 72.5576C362.591 72.3936 362.78 72.1725 362.917 71.8945C363.058 71.612 363.154 71.2975 363.204 70.9512V69.7139C363.177 69.445 363.12 69.1943 363.033 68.9619C362.951 68.7295 362.84 68.5267 362.698 68.3535C362.557 68.1758 362.382 68.0391 362.172 67.9434C361.967 67.8431 361.723 67.793 361.44 67.793C361.14 67.793 360.884 67.8568 360.675 67.9844C360.465 68.112 360.292 68.2874 360.155 68.5107C360.023 68.734 359.925 68.9938 359.861 69.29C359.798 69.5863 359.766 69.903 359.766 70.2402ZM370.478 72.5166V68.9893C370.478 68.7249 370.43 68.4971 370.334 68.3057C370.238 68.1143 370.092 67.9661 369.896 67.8613C369.705 67.7565 369.464 67.7041 369.172 67.7041C368.903 67.7041 368.671 67.7497 368.475 67.8408C368.279 67.932 368.126 68.055 368.017 68.21C367.907 68.3649 367.853 68.5404 367.853 68.7363H366.212C366.212 68.4447 366.283 68.1621 366.424 67.8887C366.565 67.6152 366.77 67.3714 367.039 67.1572C367.308 66.943 367.629 66.7744 368.003 66.6514C368.377 66.5283 368.796 66.4668 369.261 66.4668C369.817 66.4668 370.309 66.5602 370.737 66.7471C371.17 66.9339 371.51 67.2165 371.756 67.5947C372.007 67.9684 372.132 68.4378 372.132 69.0029V72.291C372.132 72.6283 372.155 72.9313 372.2 73.2002C372.25 73.4645 372.321 73.6947 372.412 73.8906V74H370.724C370.646 73.8223 370.585 73.5967 370.539 73.3232C370.498 73.0452 370.478 72.7764 370.478 72.5166ZM370.717 69.502L370.73 70.5205H369.548C369.243 70.5205 368.974 70.5501 368.741 70.6094C368.509 70.6641 368.315 70.7461 368.16 70.8555C368.005 70.9648 367.889 71.097 367.812 71.252C367.734 71.4069 367.695 71.5824 367.695 71.7783C367.695 71.9743 367.741 72.1543 367.832 72.3184C367.923 72.4779 368.055 72.6032 368.229 72.6943C368.406 72.7855 368.62 72.8311 368.871 72.8311C369.208 72.8311 369.502 72.7627 369.753 72.626C370.008 72.4847 370.209 72.3138 370.354 72.1133C370.5 71.9082 370.578 71.7145 370.587 71.5322L371.12 72.2637C371.065 72.4505 370.972 72.651 370.84 72.8652C370.708 73.0794 370.535 73.2845 370.32 73.4805C370.111 73.6719 369.858 73.8291 369.562 73.9521C369.27 74.0752 368.933 74.1367 368.55 74.1367C368.067 74.1367 367.636 74.041 367.258 73.8496C366.88 73.6536 366.583 73.3916 366.369 73.0635C366.155 72.7308 366.048 72.3548 366.048 71.9355C366.048 71.5436 366.121 71.1973 366.267 70.8965C366.417 70.5911 366.636 70.3359 366.923 70.1309C367.215 69.9258 367.57 69.7708 367.989 69.666C368.409 69.5566 368.887 69.502 369.425 69.502H370.717ZM377.245 66.6035V67.8066H373.075V66.6035H377.245ZM374.278 64.792H375.926V71.9561C375.926 72.1839 375.958 72.3594 376.021 72.4824C376.09 72.6009 376.183 72.6807 376.302 72.7217C376.42 72.7627 376.559 72.7832 376.719 72.7832C376.833 72.7832 376.942 72.7764 377.047 72.7627C377.152 72.749 377.236 72.7354 377.3 72.7217L377.307 73.9795C377.17 74.0205 377.01 74.057 376.828 74.0889C376.65 74.1208 376.445 74.1367 376.213 74.1367C375.835 74.1367 375.5 74.0706 375.208 73.9385C374.916 73.8018 374.688 73.5807 374.524 73.2754C374.36 72.9701 374.278 72.5645 374.278 72.0586V64.792ZM381.777 74.1367C381.23 74.1367 380.736 74.0479 380.294 73.8701C379.856 73.6878 379.483 73.4349 379.173 73.1113C378.868 72.7878 378.633 72.4072 378.469 71.9697C378.305 71.5322 378.223 71.0605 378.223 70.5547V70.2812C378.223 69.7025 378.307 69.1784 378.476 68.709C378.644 68.2396 378.879 67.8385 379.18 67.5059C379.48 67.1686 379.836 66.9111 380.246 66.7334C380.656 66.5557 381.101 66.4668 381.579 66.4668C382.108 66.4668 382.57 66.5557 382.967 66.7334C383.363 66.9111 383.691 67.1618 383.951 67.4854C384.215 67.8044 384.411 68.1849 384.539 68.627C384.671 69.069 384.737 69.5566 384.737 70.0898V70.7939H379.022V69.6113H383.11V69.4814C383.101 69.1852 383.042 68.9072 382.933 68.6475C382.828 68.3877 382.666 68.1781 382.447 68.0186C382.229 67.859 381.937 67.7793 381.572 67.7793C381.299 67.7793 381.055 67.8385 380.841 67.957C380.631 68.071 380.456 68.2373 380.314 68.4561C380.173 68.6748 380.064 68.9391 379.986 69.249C379.913 69.5544 379.877 69.8984 379.877 70.2812V70.5547C379.877 70.8783 379.92 71.179 380.007 71.457C380.098 71.7305 380.23 71.9697 380.403 72.1748C380.576 72.3799 380.786 72.5417 381.032 72.6602C381.278 72.7741 381.559 72.8311 381.873 72.8311C382.27 72.8311 382.623 72.7513 382.933 72.5918C383.243 72.4323 383.511 72.2067 383.739 71.915L384.607 72.7559C384.448 72.9883 384.241 73.2116 383.985 73.4258C383.73 73.6354 383.418 73.8063 383.049 73.9385C382.684 74.0706 382.26 74.1367 381.777 74.1367ZM390.534 72.4688V63.5H392.188V74H390.691L390.534 72.4688ZM385.722 70.3838V70.2402C385.722 69.6797 385.788 69.1693 385.92 68.709C386.052 68.2441 386.243 67.8454 386.494 67.5127C386.745 67.1755 387.05 66.918 387.41 66.7402C387.77 66.5579 388.176 66.4668 388.627 66.4668C389.074 66.4668 389.465 66.5534 389.803 66.7266C390.14 66.8997 390.427 67.1481 390.664 67.4717C390.901 67.7907 391.09 68.1735 391.231 68.6201C391.373 69.0622 391.473 69.5544 391.532 70.0967V70.5547C391.473 71.0833 391.373 71.5664 391.231 72.0039C391.09 72.4414 390.901 72.8197 390.664 73.1387C390.427 73.4577 390.138 73.7038 389.796 73.877C389.459 74.0501 389.064 74.1367 388.613 74.1367C388.167 74.1367 387.763 74.0433 387.403 73.8564C387.048 73.6696 386.745 73.4076 386.494 73.0703C386.243 72.7331 386.052 72.3366 385.92 71.8809C385.788 71.4206 385.722 70.9215 385.722 70.3838ZM387.369 70.2402V70.3838C387.369 70.721 387.399 71.0355 387.458 71.3271C387.522 71.6188 387.62 71.8763 387.752 72.0996C387.884 72.3184 388.055 72.4915 388.265 72.6191C388.479 72.7422 388.734 72.8037 389.03 72.8037C389.404 72.8037 389.712 72.7217 389.953 72.5576C390.195 72.3936 390.384 72.1725 390.521 71.8945C390.662 71.612 390.757 71.2975 390.808 70.9512V69.7139C390.78 69.445 390.723 69.1943 390.637 68.9619C390.555 68.7295 390.443 68.5267 390.302 68.3535C390.16 68.1758 389.985 68.0391 389.775 67.9434C389.57 67.8431 389.326 67.793 389.044 67.793C388.743 67.793 388.488 67.8568 388.278 67.9844C388.069 68.112 387.896 68.2874 387.759 68.5107C387.627 68.734 387.529 68.9938 387.465 69.29C387.401 69.5863 387.369 69.903 387.369 70.2402ZM401.342 70.2881H398.751V68.9277H401.342C401.793 68.9277 402.158 68.8548 402.436 68.709C402.714 68.5632 402.916 68.3626 403.044 68.1074C403.176 67.8477 403.242 67.5514 403.242 67.2188C403.242 66.9043 403.176 66.6104 403.044 66.3369C402.916 66.0589 402.714 65.8356 402.436 65.667C402.158 65.4984 401.793 65.4141 401.342 65.4141H399.277V74H397.562V64.0469H401.342C402.112 64.0469 402.766 64.1836 403.304 64.457C403.846 64.7259 404.258 65.0996 404.541 65.5781C404.824 66.0521 404.965 66.5944 404.965 67.2051C404.965 67.8477 404.824 68.3991 404.541 68.8594C404.258 69.3197 403.846 69.6729 403.304 69.9189C402.766 70.165 402.112 70.2881 401.342 70.2881ZM407.993 68.0117V74H406.346V66.6035H407.918L407.993 68.0117ZM410.256 66.5557L410.242 68.0869C410.142 68.0687 410.033 68.055 409.914 68.0459C409.8 68.0368 409.686 68.0322 409.572 68.0322C409.29 68.0322 409.041 68.0732 408.827 68.1553C408.613 68.2327 408.433 68.3467 408.287 68.4971C408.146 68.6429 408.036 68.8206 407.959 69.0303C407.882 69.2399 407.836 69.4746 407.822 69.7344L407.446 69.7617C407.446 69.2969 407.492 68.8662 407.583 68.4697C407.674 68.0732 407.811 67.7246 407.993 67.4238C408.18 67.123 408.412 66.8883 408.69 66.7197C408.973 66.5511 409.299 66.4668 409.668 66.4668C409.768 66.4668 409.875 66.4759 409.989 66.4941C410.108 66.5124 410.197 66.5329 410.256 66.5557ZM413.052 66.6035V74H411.397V66.6035H413.052ZM411.288 64.6621C411.288 64.4115 411.37 64.2041 411.534 64.04C411.703 63.8714 411.935 63.7871 412.231 63.7871C412.523 63.7871 412.753 63.8714 412.922 64.04C413.09 64.2041 413.175 64.4115 413.175 64.6621C413.175 64.9082 413.09 65.1133 412.922 65.2773C412.753 65.4414 412.523 65.5234 412.231 65.5234C411.935 65.5234 411.703 65.4414 411.534 65.2773C411.37 65.1133 411.288 64.9082 411.288 64.6621ZM416.49 68.1826V74H414.843V66.6035H416.395L416.49 68.1826ZM416.196 70.0283L415.663 70.0215C415.668 69.4974 415.741 69.0166 415.882 68.5791C416.028 68.1416 416.228 67.7656 416.483 67.4512C416.743 67.1367 417.053 66.8952 417.413 66.7266C417.773 66.5534 418.174 66.4668 418.616 66.4668C418.972 66.4668 419.293 66.5169 419.58 66.6172C419.872 66.7129 420.12 66.8701 420.325 67.0889C420.535 67.3076 420.694 67.5924 420.804 67.9434C420.913 68.2897 420.968 68.7158 420.968 69.2217V74H419.313V69.2148C419.313 68.8594 419.261 68.5791 419.156 68.374C419.056 68.1644 418.908 68.0163 418.712 67.9297C418.521 67.8385 418.281 67.793 417.994 67.793C417.712 67.793 417.459 67.8522 417.235 67.9707C417.012 68.0892 416.823 68.251 416.668 68.4561C416.518 68.6611 416.401 68.8981 416.319 69.167C416.237 69.4359 416.196 69.723 416.196 70.0283ZM426.04 66.6035V67.8066H421.87V66.6035H426.04ZM423.073 64.792H424.721V71.9561C424.721 72.1839 424.753 72.3594 424.816 72.4824C424.885 72.6009 424.978 72.6807 425.097 72.7217C425.215 72.7627 425.354 72.7832 425.514 72.7832C425.628 72.7832 425.737 72.7764 425.842 72.7627C425.947 72.749 426.031 72.7354 426.095 72.7217L426.102 73.9795C425.965 74.0205 425.805 74.057 425.623 74.0889C425.445 74.1208 425.24 74.1367 425.008 74.1367C424.63 74.1367 424.295 74.0706 424.003 73.9385C423.711 73.8018 423.483 73.5807 423.319 73.2754C423.155 72.9701 423.073 72.5645 423.073 72.0586V64.792ZM367.832 92.2881H365.241V90.9277H367.832C368.283 90.9277 368.648 90.8548 368.926 90.709C369.204 90.5632 369.407 90.3626 369.534 90.1074C369.666 89.8477 369.732 89.5514 369.732 89.2188C369.732 88.9043 369.666 88.6104 369.534 88.3369C369.407 88.0589 369.204 87.8356 368.926 87.667C368.648 87.4984 368.283 87.4141 367.832 87.4141H365.768V96H364.052V86.0469H367.832C368.602 86.0469 369.256 86.1836 369.794 86.457C370.336 86.7259 370.749 87.0996 371.031 87.5781C371.314 88.0521 371.455 88.5944 371.455 89.2051C371.455 89.8477 371.314 90.3991 371.031 90.8594C370.749 91.3197 370.336 91.6729 369.794 91.9189C369.256 92.165 368.602 92.2881 367.832 92.2881ZM374.483 90.0117V96H372.836V88.6035H374.408L374.483 90.0117ZM376.746 88.5557L376.732 90.0869C376.632 90.0687 376.523 90.055 376.404 90.0459C376.29 90.0368 376.176 90.0322 376.062 90.0322C375.78 90.0322 375.532 90.0732 375.317 90.1553C375.103 90.2327 374.923 90.3467 374.777 90.4971C374.636 90.6429 374.527 90.8206 374.449 91.0303C374.372 91.2399 374.326 91.4746 374.312 91.7344L373.937 91.7617C373.937 91.2969 373.982 90.8662 374.073 90.4697C374.164 90.0732 374.301 89.7246 374.483 89.4238C374.67 89.123 374.903 88.8883 375.181 88.7197C375.463 88.5511 375.789 88.4668 376.158 88.4668C376.258 88.4668 376.366 88.4759 376.479 88.4941C376.598 88.5124 376.687 88.5329 376.746 88.5557ZM377.286 92.3838V92.2266C377.286 91.6934 377.364 91.1989 377.519 90.7432C377.674 90.2829 377.897 89.8841 378.188 89.5469C378.485 89.2051 378.845 88.9408 379.269 88.7539C379.697 88.5625 380.18 88.4668 380.718 88.4668C381.26 88.4668 381.743 88.5625 382.167 88.7539C382.595 88.9408 382.958 89.2051 383.254 89.5469C383.55 89.8841 383.776 90.2829 383.931 90.7432C384.086 91.1989 384.163 91.6934 384.163 92.2266V92.3838C384.163 92.917 384.086 93.4115 383.931 93.8672C383.776 94.3229 383.55 94.7217 383.254 95.0635C382.958 95.4007 382.598 95.665 382.174 95.8564C381.75 96.0433 381.269 96.1367 380.731 96.1367C380.189 96.1367 379.704 96.0433 379.275 95.8564C378.852 95.665 378.492 95.4007 378.195 95.0635C377.899 94.7217 377.674 94.3229 377.519 93.8672C377.364 93.4115 377.286 92.917 377.286 92.3838ZM378.934 92.2266V92.3838C378.934 92.7165 378.968 93.0309 379.036 93.3271C379.104 93.6234 379.212 93.8831 379.357 94.1064C379.503 94.3298 379.69 94.5052 379.918 94.6328C380.146 94.7604 380.417 94.8242 380.731 94.8242C381.037 94.8242 381.301 94.7604 381.524 94.6328C381.752 94.5052 381.939 94.3298 382.085 94.1064C382.231 93.8831 382.338 93.6234 382.406 93.3271C382.479 93.0309 382.516 92.7165 382.516 92.3838V92.2266C382.516 91.8984 382.479 91.5885 382.406 91.2969C382.338 91.0007 382.229 90.7386 382.078 90.5107C381.932 90.2829 381.745 90.1051 381.518 89.9775C381.294 89.8454 381.028 89.7793 380.718 89.7793C380.408 89.7793 380.139 89.8454 379.911 89.9775C379.688 90.1051 379.503 90.2829 379.357 90.5107C379.212 90.7386 379.104 91.0007 379.036 91.2969C378.968 91.5885 378.934 91.8984 378.934 92.2266ZM387.663 96H386.009V88.125C386.009 87.528 386.127 87.0244 386.364 86.6143C386.606 86.2041 386.95 85.8919 387.396 85.6777C387.848 85.4635 388.383 85.3564 389.003 85.3564C389.368 85.3564 389.718 85.3952 390.056 85.4727C390.397 85.5501 390.751 85.6481 391.115 85.7666L390.862 87.1064C390.63 87.029 390.372 86.9561 390.09 86.8877C389.807 86.8148 389.481 86.7783 389.112 86.7783C388.616 86.7783 388.249 86.8923 388.012 87.1201C387.779 87.3434 387.663 87.6784 387.663 88.125V96ZM389.146 88.6035V89.8066H384.874V88.6035H389.146ZM391.895 88.6035V96H390.247V88.6035H391.895ZM395.497 85.5V96H393.843V85.5H395.497ZM400.562 96.1367C400.016 96.1367 399.521 96.0479 399.079 95.8701C398.642 95.6878 398.268 95.4349 397.958 95.1113C397.653 94.7878 397.418 94.4072 397.254 93.9697C397.09 93.5322 397.008 93.0605 397.008 92.5547V92.2812C397.008 91.7025 397.092 91.1784 397.261 90.709C397.429 90.2396 397.664 89.8385 397.965 89.5059C398.266 89.1686 398.621 88.9111 399.031 88.7334C399.441 88.5557 399.886 88.4668 400.364 88.4668C400.893 88.4668 401.355 88.5557 401.752 88.7334C402.148 88.9111 402.477 89.1618 402.736 89.4854C403.001 89.8044 403.197 90.1849 403.324 90.627C403.456 91.069 403.522 91.5566 403.522 92.0898V92.7939H397.808V91.6113H401.896V91.4814C401.886 91.1852 401.827 90.9072 401.718 90.6475C401.613 90.3877 401.451 90.1781 401.232 90.0186C401.014 89.859 400.722 89.7793 400.357 89.7793C400.084 89.7793 399.84 89.8385 399.626 89.957C399.416 90.071 399.241 90.2373 399.1 90.4561C398.958 90.6748 398.849 90.9391 398.771 91.249C398.699 91.5544 398.662 91.8984 398.662 92.2812V92.5547C398.662 92.8783 398.705 93.179 398.792 93.457C398.883 93.7305 399.015 93.9697 399.188 94.1748C399.362 94.3799 399.571 94.5417 399.817 94.6602C400.063 94.7741 400.344 94.8311 400.658 94.8311C401.055 94.8311 401.408 94.7513 401.718 94.5918C402.028 94.4323 402.297 94.2067 402.524 93.915L403.393 94.7559C403.233 94.9883 403.026 95.2116 402.771 95.4258C402.515 95.6354 402.203 95.8063 401.834 95.9385C401.469 96.0706 401.046 96.1367 400.562 96.1367Z" fill="black" fill-opacity="0.85"/>
<path d="M395.785 15.9336H366.214C365.503 15.9336 364.928 16.5081 364.928 17.2193V46.7907C364.928 47.5019 365.503 48.0765 366.214 48.0765H395.785C396.497 48.0765 397.071 47.5019 397.071 46.7907V17.2193C397.071 16.5081 396.497 15.9336 395.785 15.9336ZM394.178 45.1836H367.821V18.8265H394.178V45.1836ZM380.196 27.505H387.589C387.766 27.505 387.91 27.3604 387.91 27.1836V25.255C387.91 25.0782 387.766 24.9336 387.589 24.9336H380.196C380.019 24.9336 379.875 25.0782 379.875 25.255V27.1836C379.875 27.3604 380.019 27.505 380.196 27.505ZM380.196 33.2907H387.589C387.766 33.2907 387.91 33.1461 387.91 32.9693V31.0407C387.91 30.864 387.766 30.7193 387.589 30.7193H380.196C380.019 30.7193 379.875 30.864 379.875 31.0407V32.9693C379.875 33.1461 380.019 33.2907 380.196 33.2907ZM380.196 39.0765H387.589C387.766 39.0765 387.91 38.9318 387.91 38.755V36.8265C387.91 36.6497 387.766 36.505 387.589 36.505H380.196C380.019 36.505 379.875 36.6497 379.875 36.8265V38.755C379.875 38.9318 380.019 39.0765 380.196 39.0765ZM374.089 26.2193C374.089 26.6455 374.258 27.0543 374.56 27.3557C374.861 27.6571 375.27 27.8265 375.696 27.8265C376.122 27.8265 376.531 27.6571 376.833 27.3557C377.134 27.0543 377.303 26.6455 377.303 26.2193C377.303 25.7931 377.134 25.3843 376.833 25.0829C376.531 24.7815 376.122 24.6122 375.696 24.6122C375.27 24.6122 374.861 24.7815 374.56 25.0829C374.258 25.3843 374.089 25.7931 374.089 26.2193ZM374.089 32.005C374.089 32.4313 374.258 32.84 374.56 33.1414C374.861 33.4428 375.27 33.6122 375.696 33.6122C376.122 33.6122 376.531 33.4428 376.833 33.1414C377.134 32.84 377.303 32.4313 377.303 32.005C377.303 31.5788 377.134 31.17 376.833 30.8686C376.531 30.5672 376.122 30.3979 375.696 30.3979C375.27 30.3979 374.861 30.5672 374.56 30.8686C374.258 31.17 374.089 31.5788 374.089 32.005ZM374.089 37.7907C374.089 38.217 374.258 38.6258 374.56 38.9272C374.861 39.2286 375.27 39.3979 375.696 39.3979C376.122 39.3979 376.531 39.2286 376.833 38.9272C377.134 38.6258 377.303 38.217 377.303 37.7907C377.303 37.3645 377.134 36.9557 376.833 36.6543C376.531 36.3529 376.122 36.1836 375.696 36.1836C375.27 36.1836 374.861 36.3529 374.56 36.6543C374.258 36.9557 374.089 37.3645 374.089 37.7907Z" fill="black" fill-opacity="0.85"/>
<path d="M263 15.5C304.6 16.3 335 26.1667 345 31" stroke="black" stroke-width="2"/>
<path d="M79 42.2426C97.8333 40.4093 133 33.4728 135.5 22.2423C137.058 15.2413 131.105 13.2412 126.5 14.2416C121.895 15.242 119.126 21.2418 122 25.742C126.4 32.6309 129.5 35.2422 144 33.7425L185.5 23.7426" stroke="black" stroke-width="2"/>
<path d="M175 19L185.5 23L180.5 32" stroke="black" stroke-width="2" stroke-linecap="round"/>
<path d="M341.594 21L345.727 31.4482L335.711 33.8314" stroke="black" stroke-width="2" stroke-linecap="round"/>
</svg>
