<svg width="27" height="36" viewBox="0 0 27 36" fill="none" xmlns="http://www.w3.org/2000/svg">
<path d="M18 33.1071H8.35714C8.18036 33.1071 8.03571 33.2518 8.03571 33.4286V34.7143C8.03571 35.4254 8.61027 36 9.32143 36H17.0357C17.7469 36 18.3214 35.4254 18.3214 34.7143V33.4286C18.3214 33.2518 18.1768 33.1071 18 33.1071ZM13.1786 0C5.90223 0 0 5.90223 0 13.1786C0 18.0562 2.65179 22.3152 6.58929 24.5933V29.25C6.58929 29.9612 7.16384 30.5357 7.875 30.5357H18.4821C19.1933 30.5357 19.7679 29.9612 19.7679 29.25V24.5933C23.7054 22.3152 26.3571 18.0562 26.3571 13.1786C26.3571 5.90223 20.4549 0 13.1786 0ZM18.3174 22.0902L16.875 22.9259V27.6429H9.48214V22.9259L8.03973 22.0902C4.87768 20.2621 2.89286 16.8951 2.89286 13.1786C2.89286 7.49732 7.49732 2.89286 13.1786 2.89286C18.8598 2.89286 23.4643 7.49732 23.4643 13.1786C23.4643 16.8951 21.4795 20.2621 18.3174 22.0902Z" fill="white"/>
</svg>
