<svg width="36" height="36" viewBox="0 0 36 36" fill="none" xmlns="http://www.w3.org/2000/svg">
<g clip-path="url(#clip0_899_9403)">
<path d="M34.5855 22.5743L31.9538 20.3243C32.0784 19.5609 32.1427 18.7815 32.1427 18.002C32.1427 17.2225 32.0784 16.4431 31.9538 15.6797L34.5855 13.4297C34.784 13.2598 34.9261 13.0334 34.9928 12.7808C35.0596 12.5282 35.0478 12.2612 34.9592 12.0154L34.923 11.9109C34.1985 9.88604 33.1136 8.00894 31.7208 6.37031L31.6485 6.28594C31.4795 6.08726 31.2543 5.94445 31.0026 5.87631C30.7508 5.80817 30.4843 5.81791 30.2382 5.90424L26.9717 7.0654C25.7663 6.07701 24.4203 5.29754 22.9659 4.75112L22.3351 1.33594C22.2875 1.07896 22.1628 0.842554 21.9777 0.658116C21.7925 0.473678 21.5556 0.349942 21.2985 0.303348L21.19 0.283259C19.0967 -0.0944196 16.8949 -0.0944196 14.8016 0.283259L14.6931 0.303348C14.436 0.349942 14.1991 0.473678 14.0139 0.658116C13.8288 0.842554 13.7041 1.07896 13.6565 1.33594L13.0217 4.76719C11.5788 5.31373 10.2352 6.09278 9.04401 7.07344L5.75338 5.90424C5.50735 5.81722 5.24067 5.80713 4.98877 5.87531C4.73686 5.94349 4.51167 6.08671 4.34312 6.28594L4.2708 6.37031C2.8796 8.0101 1.79489 9.88689 1.06856 11.9109L1.0324 12.0154C0.851598 12.5176 1.00026 13.0801 1.40606 13.4297L4.0699 15.7038C3.94535 16.4592 3.88508 17.2306 3.88508 17.998C3.88508 18.7694 3.94535 19.5408 4.0699 20.2922L1.40606 22.5663C1.20756 22.7362 1.06549 22.9626 0.998748 23.2152C0.932002 23.4678 0.94374 23.7348 1.0324 23.9806L1.06856 24.085C1.79579 26.11 2.87258 27.9783 4.2708 29.6257L4.34312 29.71C4.51208 29.9087 4.73728 30.0515 4.98904 30.1197C5.24079 30.1878 5.50728 30.1781 5.75338 30.0917L9.04401 28.9225C10.2413 29.9069 11.5793 30.6864 13.0217 31.2288L13.6565 34.66C13.7041 34.917 13.8288 35.1534 14.0139 35.3379C14.1991 35.5223 14.436 35.646 14.6931 35.6926L14.8016 35.7127C16.9141 36.0924 19.0775 36.0924 21.19 35.7127L21.2985 35.6926C21.5556 35.646 21.7925 35.5223 21.9777 35.3379C22.1628 35.1534 22.2875 34.917 22.3351 34.66L22.9659 31.2449C24.4198 30.6999 25.7733 29.9179 26.9717 28.9306L30.2382 30.0917C30.4842 30.1788 30.7509 30.1888 31.0028 30.1207C31.2547 30.0525 31.4799 29.9093 31.6485 29.71L31.7208 29.6257C33.119 27.9743 34.1958 26.11 34.923 24.085L34.9592 23.9806C35.14 23.4864 34.9913 22.9239 34.5855 22.5743ZM29.1012 16.1538C29.2016 16.7605 29.2538 17.3833 29.2538 18.006C29.2538 18.6288 29.2016 19.2516 29.1012 19.8583L28.836 21.4694L31.8373 24.0368C31.3823 25.085 30.808 26.0773 30.1257 26.994L26.3971 25.6721L25.1355 26.7087C24.1753 27.4962 23.1065 28.115 21.9494 28.5489L20.4186 29.1234L19.6994 33.0208C18.5646 33.1493 17.4189 33.1493 16.2842 33.0208L15.565 29.1154L14.0462 28.5328C12.9012 28.0989 11.8364 27.4801 10.8842 26.6967L9.62258 25.656L5.8699 26.99C5.18687 26.0699 4.61633 25.0775 4.15829 24.0328L7.19178 21.4413L6.93062 19.8342C6.83419 19.2355 6.78196 18.6167 6.78196 18.006C6.78196 17.3913 6.83017 16.7766 6.93062 16.1779L7.19178 14.5708L4.15829 11.9792C4.61231 10.9306 5.18687 9.94219 5.8699 9.0221L9.62258 10.356L10.8842 9.3154C11.8364 8.53192 12.9012 7.91317 14.0462 7.47924L15.569 6.90469L16.2882 2.99933C17.4172 2.87076 18.5703 2.87076 19.7034 2.99933L20.4226 6.89665L21.9534 7.47121C23.1065 7.90513 24.1793 8.52388 25.1395 9.31138L26.4011 10.348L30.1297 9.02612C30.8128 9.94621 31.3833 10.9386 31.8413 11.9833L28.84 14.5507L29.1012 16.1538ZM17.9998 10.5328C14.0945 10.5328 10.9284 13.6989 10.9284 17.6042C10.9284 21.5096 14.0945 24.6757 17.9998 24.6757C21.9052 24.6757 25.0712 21.5096 25.0712 17.6042C25.0712 13.6989 21.9052 10.5328 17.9998 10.5328ZM21.182 20.7864C20.7646 21.205 20.2686 21.5369 19.7225 21.763C19.1764 21.9892 18.5909 22.1052 17.9998 22.1042C16.7985 22.1042 15.6695 21.6342 14.8177 20.7864C14.3991 20.369 14.0672 19.873 13.841 19.3269C13.6149 18.7808 13.4989 18.1953 13.4998 17.6042C13.4998 16.4029 13.9699 15.2739 14.8177 14.4221C15.6695 13.5703 16.7985 13.1042 17.9998 13.1042C19.2012 13.1042 20.3302 13.5703 21.182 14.4221C21.6005 14.8395 21.9324 15.3355 22.1586 15.8816C22.3848 16.4277 22.5007 17.0131 22.4998 17.6042C22.4998 18.8056 22.0297 19.9346 21.182 20.7864Z" fill="#F3762B"/>
</g>
<defs>
<clipPath id="clip0_899_9403">
<rect width="36" height="36" fill="white"/>
</clipPath>
</defs>
</svg>
