<svg width="31" height="32" viewBox="0 0 31 32" fill="none" xmlns="http://www.w3.org/2000/svg">
<path d="M29.0291 26.1C28.2712 24.3047 27.1713 22.674 25.7907 21.2987C24.4143 19.9194 22.7839 18.8197 20.9894 18.0603C20.9733 18.0522 20.9572 18.0482 20.9412 18.0402C23.4443 16.2321 25.0715 13.2871 25.0715 9.96429C25.0715 4.45982 20.6117 0 15.1072 0C9.60278 0 5.14296 4.45982 5.14296 9.96429C5.14296 13.2871 6.77019 16.2321 9.27331 18.0442C9.25724 18.0522 9.24117 18.0563 9.2251 18.0643C7.4251 18.8237 5.80992 19.9125 4.42376 21.3027C3.04447 22.6791 1.94476 24.3095 1.18537 26.104C0.439341 27.8608 0.0369922 29.7444 0.000100471 31.6527C-0.000971916 31.6956 0.00654962 31.7382 0.0222221 31.7782C0.0378946 31.8181 0.0614008 31.8545 0.0913557 31.8852C0.121311 31.9159 0.157108 31.9403 0.196639 31.9569C0.236169 31.9736 0.278634 31.9822 0.321529 31.9821H2.73224C2.90903 31.9821 3.04965 31.8415 3.05367 31.6688C3.13403 28.567 4.37956 25.6621 6.58135 23.4603C8.85948 21.1821 11.8849 19.9286 15.1072 19.9286C18.3296 19.9286 21.355 21.1821 23.6331 23.4603C25.8349 25.6621 27.0805 28.567 27.1608 31.6688C27.1648 31.8455 27.3055 31.9821 27.4822 31.9821H29.893C29.9359 31.9822 29.9783 31.9736 30.0178 31.9569C30.0574 31.9403 30.0932 31.9159 30.1231 31.8852C30.1531 31.8545 30.1766 31.8181 30.1923 31.7782C30.2079 31.7382 30.2155 31.6956 30.2144 31.6527C30.1742 29.7321 29.7764 27.8638 29.0291 26.1ZM15.1072 16.875C13.263 16.875 11.5273 16.1558 10.2215 14.85C8.91572 13.5442 8.19653 11.8085 8.19653 9.96429C8.19653 8.12009 8.91572 6.38438 10.2215 5.07857C11.5273 3.77277 13.263 3.05357 15.1072 3.05357C16.9514 3.05357 18.6872 3.77277 19.993 5.07857C21.2988 6.38438 22.018 8.12009 22.018 9.96429C22.018 11.8085 21.2988 13.5442 19.993 14.85C18.6872 16.1558 16.9514 16.875 15.1072 16.875Z" fill="black" fill-opacity="0.6"/>
</svg>
