<svg width="30" height="27" viewBox="0 0 30 27" fill="none" xmlns="http://www.w3.org/2000/svg">
<path d="M10 17.4993C9.60447 17.4993 9.21779 17.382 8.88889 17.1622C8.55999 16.9424 8.30365 16.6301 8.15227 16.2646C8.0009 15.8992 7.96129 15.497 8.03846 15.1091C8.11563 14.7211 8.30611 14.3648 8.58582 14.085C8.86552 13.8053 9.22189 13.6149 9.60985 13.5377C9.99781 13.4605 10.3999 13.5001 10.7654 13.6515C11.1308 13.8029 11.4432 14.0592 11.663 14.3881C11.8827 14.717 12 15.1037 12 15.4993C11.9994 16.0295 11.7885 16.5379 11.4136 16.9128C11.0386 17.2877 10.5303 17.4987 10 17.4993ZM20 13.4993C19.6045 13.4993 19.2178 13.6166 18.8889 13.8363C18.56 14.0561 18.3036 14.3684 18.1523 14.7339C18.0009 15.0993 17.9613 15.5015 18.0385 15.8894C18.1156 16.2774 18.3061 16.6338 18.5858 16.9135C18.8655 17.1932 19.2219 17.3837 19.6098 17.4608C19.9978 17.538 20.3999 17.4984 20.7654 17.347C21.1308 17.1956 21.4432 16.9393 21.663 16.6104C21.8827 16.2815 22 15.8948 22 15.4993C21.9994 14.969 21.7885 14.4607 21.4136 14.0857C21.0386 13.7108 20.5303 13.4999 20 13.4993ZM18.6695 20.1108C17.5347 20.6955 16.2766 21.0005 15.0001 21.0005C13.7235 21.0005 12.4654 20.6955 11.3306 20.1108C11.095 19.9901 10.8212 19.9676 10.5691 20.0485C10.317 20.1293 10.1073 20.3067 9.98585 20.5419C9.86441 20.7772 9.84118 21.0509 9.92126 21.3032C10.0013 21.5555 10.1782 21.7658 10.4131 21.8879C11.8316 22.6188 13.4043 23.0001 15.0001 23.0001C16.5958 23.0001 18.1685 22.6188 19.5871 21.8879C19.7042 21.8279 19.8082 21.7454 19.8934 21.6451C19.9785 21.5448 20.043 21.4286 20.0831 21.3033C20.1233 21.1781 20.1384 21.0461 20.1274 20.915C20.1165 20.7838 20.0798 20.6562 20.0194 20.5393C19.9591 20.4224 19.8762 20.3185 19.7757 20.2337C19.6751 20.1489 19.5588 20.0847 19.4334 20.0449C19.308 20.0051 19.176 19.9904 19.0449 20.0018C18.9138 20.0131 18.7863 20.0501 18.6695 20.1108ZM28.7069 14.943C28.901 15.6112 28.9997 16.3034 29 16.9993C29 19.7411 27.4948 22.2932 24.7616 24.1854C22.1407 26 18.6739 26.9993 15 26.9993C11.3261 26.9993 7.8594 26 5.23843 24.1854C2.50528 22.2932 1.00003 19.7411 1.00003 16.9993C1.00033 16.3034 1.09903 15.6112 1.29318 14.943C0.519727 14.2322 0.0569746 13.2457 0.00491833 12.1966C-0.0471379 11.1474 0.315682 10.1199 1.01498 9.33611C1.71427 8.55228 2.69389 8.07507 3.74215 8.00759C4.79041 7.9401 5.82313 8.28777 6.61715 8.97546C8.79788 7.81695 11.4196 7.13729 14.1495 7.01958L15.0136 1.83483C15.0569 1.57538 15.2007 1.34343 15.4137 1.18921C15.6268 1.03498 15.8921 0.970907 16.1521 1.01086L19.8573 1.58087C20.192 0.95743 20.7363 0.472375 21.394 0.211429C22.0517 -0.0495179 22.7805 -0.0695553 23.4516 0.154858C24.1226 0.379271 24.6927 0.833686 25.0612 1.43779C25.4296 2.04189 25.5726 2.75679 25.4649 3.45614C25.3572 4.15548 25.0058 4.79425 24.4727 5.25953C23.9396 5.72482 23.2592 5.98668 22.5517 5.99882C21.8442 6.01096 21.1552 5.77261 20.6065 5.3259C20.0577 4.87918 19.6846 4.25285 19.5529 3.55762L16.8241 3.13782L16.1746 7.03478C18.7876 7.19058 21.2885 7.86282 23.3829 8.97546C24.1769 8.28777 25.2097 7.9401 26.2579 8.00758C27.3062 8.07506 28.2858 8.55228 28.9851 9.33611C29.6844 10.1199 30.0472 11.1474 29.9951 12.1966C29.9431 13.2457 29.4803 14.2322 28.7069 14.943ZM21.5 2.99926C21.5 3.19704 21.5587 3.39038 21.6686 3.55483C21.7784 3.71928 21.9346 3.84745 22.1173 3.92314C22.3001 3.99883 22.5011 4.01863 22.6951 3.98004C22.8891 3.94146 23.0673 3.84622 23.2071 3.70637C23.347 3.56651 23.4422 3.38833 23.4808 3.19435C23.5194 3.00037 23.4996 2.7993 23.4239 2.61658C23.3482 2.43385 23.2201 2.27767 23.0556 2.16779C22.8912 2.05791 22.6978 1.99926 22.5 1.99926C22.2349 1.99956 21.9807 2.10502 21.7933 2.29249C21.6058 2.47996 21.5003 2.73414 21.5 2.99926ZM28 11.9993C28 11.5769 27.8663 11.1655 27.6181 10.8238C27.3698 10.4821 27.0198 10.2278 26.6182 10.0972C26.2166 9.96668 25.7839 9.9666 25.3822 10.097C24.9805 10.2274 24.6305 10.4816 24.3821 10.8232C24.2379 11.0212 24.026 11.1593 23.7867 11.2114C23.5474 11.2636 23.2973 11.2261 23.0838 11.1061C23.0658 11.0959 23.0482 11.0853 23.031 11.0742C20.8188 9.73638 17.9691 8.99981 15.003 8.99932L15.0013 8.99938L14.9988 8.99929C12.032 8.99951 9.18173 9.73614 6.96915 11.0742C6.95438 11.0837 6.93936 11.0929 6.92398 11.1017C6.71025 11.2244 6.45871 11.2639 6.21766 11.2125C5.97661 11.1611 5.76304 11.0225 5.61795 10.8232C5.4432 10.5829 5.2171 10.3846 4.9561 10.2426C4.69509 10.1006 4.40573 10.0186 4.10905 10.0024C3.81236 9.98625 3.5158 10.0364 3.24092 10.1492C2.96604 10.262 2.71974 10.4346 2.51992 10.6545C2.3201 10.8744 2.17178 11.1361 2.08574 11.4205C1.9997 11.7048 1.97809 12.0048 2.0225 12.2986C2.0669 12.5924 2.1762 12.8726 2.34245 13.1189C2.5087 13.3651 2.72773 13.5713 2.98361 13.7223C3.19275 13.8461 3.34965 14.0418 3.425 14.2728C3.50035 14.5039 3.48899 14.7545 3.39303 14.9778C3.13497 15.6206 3.0016 16.3066 3.00003 16.9993C3.00003 19.0654 4.19925 21.0334 6.37686 22.541C8.66659 24.1262 11.729 24.9993 15 24.9993C18.271 24.9993 21.3335 24.1262 23.6232 22.541C25.8008 21.0334 27 19.0654 27 16.9993C26.9984 16.3047 26.8643 15.6168 26.6049 14.9725C26.5106 14.7496 26.5003 14.5001 26.576 14.2702C26.6517 14.0402 26.8082 13.8456 27.0165 13.7223C27.3154 13.5446 27.5631 13.2925 27.7355 12.9905C27.9079 12.6885 27.999 12.347 28 11.9993Z" fill="black"/>
</svg>
